<svg xmlns="http://www.w3.org/2000/svg" viewBox="0 0 1364 960"><path fill="#dcecff" d="M1219.345 482.222c-42.844-41.299-118.475-43.957-155.094-112.11-29.518-54.938-3.388-86.017-34.173-109.954-64.497-50.15-210.548 61.888-336.476 8.624-57.631-24.377-44.457-55.202-107.778-81.926-92.376-38.988-236.733-22.492-289.159 40.963-52.522 63.572 32.216 119.822-13.144 206.973-50.843 97.688-192.174 93.99-210.296 168.164-8.098 33.147.417 106.557 116.329 185.413h998.247c94.746-184.687 72.913-266.27 31.544-306.147z" class="colorDCECFF svgShape"/><path fill="#94b463" d="M1218.094 787.356h-11.04c-6.927-3.057-13.754-7.227-19.552-12.112-4.885-4.099-14.583-17.81-7.256-24.966 2.828-2.756 7.784-2.1 11.469-.7 5.842 2.214 9.455 7.927 12.669 13.283.9 1.5 1.799 3.071 2.699 4.67 3.67 6.542 7.34 13.684 11.011 19.825zM1259.984 711.73c-1.414 5.599-4.156 10.754-6.484 16.039a179.866 179.866 0 0 0-6.384 16.696c-4.542 13.94-7.326 28.793-6.612 42.89h-13.869c-3.227-10.183-.914-20.381-1.085-31.065-.071-4.256.114-8.512.357-12.768.071-1.371.157-2.757.243-4.128.943-15.296 2.171-31.436 10.869-44.047 1.7-2.457 3.756-4.813 6.499-5.999 5.284-2.299 11.841.686 14.854 5.599 3.012 4.929 3.041 11.199 1.612 16.783z" class="color94B463 svgShape"/><path fill="#6f874a" d="M1289.163 731.597c-.928 1.957-2.342 3.642-3.785 5.242-6.656 7.427-14.268 13.968-20.595 21.667a54.54 54.54 0 0 0-3.571 4.942c-3.028 4.742-5.513 10.226-6.913 15.711-.4 1.514-.7 3.028-.914 4.527a36.64 36.64 0 0 0-.329 3.671h-13.711c-.528-8.398.557-18.039 1.843-23.852 1.514-6.813 3.399-13.169 5.927-19.039 4.471-10.441 10.984-19.338 21.038-26.551 2.243-1.599 4.671-3.042 7.356-3.599 4.456-.928 9.355.857 12.169 4.413 2.814 3.57 3.414 8.755 1.485 12.868z" class="color6F874A svgShape"/><path fill="#94b463" d="M1288.649 772.131c-6.013 3.056-12.797 4.185-19.139 6.456-6.341 2.285-13.354 2.47-15.739 8.769h-5.884c1.4-9.098 6.384-17.668 13.326-23.909 6.042-5.441 13.568-9.126 21.524-9.883 2.728-.257 5.541-.214 8.112.743 2.556.957 4.842 2.97 5.584 5.613 1.4 5.041-3.127 9.84-7.784 12.211z" class="color94B463 svgShape"/><path fill="#6f874a" d="M1226.635 787.356h-10.598c-3.099-6.427-6.198-13.054-8.955-19.824-5.47-13.454-9.583-27.479-9.512-41.633.014-3.199.257-6.47 1.557-9.398 1.285-2.928 3.77-5.485 6.913-6.113 3.399-.685 6.955 1.014 9.312 3.556 2.356 2.557 3.742 5.842 4.942 9.112 2.428 6.598 4.299 13.468 5.613 20.467 2.728 14.454 3.013 29.45.728 43.833z" class="color6F874A svgShape"/><path fill="#f0faff" d="M979.051 356.447c-2.881-2.528-6.829-3.417-10.629-3.92 1.687-5.657-1.559-11.99-6.565-15.119-5.006-3.13-16.406.006-16.406.006-6.313-5.929-13.243-12.799-21.882-12.195-8.639.604-16.952 4.95-22.378 11.699-7.047-.806-15.007-1.351-20.382 3.279-1.029.886-1.963 1.963-3.243 2.418-.956.34-1.999.291-3.013.287-7.053-.024-14.09 2.449-19.577 6.881-2.628 2.122-5.035 4.982-5.154 8.358-.183 5.203 5.172 9.045 10.313 9.863 5.141.817 10.405-.34 15.593.095 7.533 6.286 19.109 7.171 27.51 2.102 8.785 7.179 22.809 6.852 31.249-.729 12.862 4.529 27.153 4.899 40.232 1.041 2.422-.714 4.964-1.688 6.398-3.766 2.179-3.154.815-7.772-2.066-10.3zM1048.535 419.789c-1.811-1.589-4.292-2.147-6.68-2.464 1.06-3.556-.98-7.536-4.126-9.503-3.146-1.967-10.312.004-10.312.004-3.968-3.726-8.324-8.045-13.753-7.665-5.43.38-10.655 3.111-14.065 7.353-4.43-.506-9.432-.849-12.81 2.061-.647.557-1.234 1.234-2.038 1.52-.601.214-1.256.183-1.894.181a19.657 19.657 0 0 0-12.305 4.325c-1.652 1.334-3.165 3.131-3.24 5.253-.115 3.27 3.251 5.685 6.482 6.199 3.231.514 6.54-.213 9.801.06 4.735 3.951 12.011 4.507 17.291 1.321 5.521 4.512 14.336 4.307 19.641-.458 8.084 2.847 17.066 3.079 25.287.654 1.522-.449 3.12-1.061 4.022-2.367 1.367-1.982.51-4.885-1.301-6.474zM490.953 375.991c-2.58-2.264-6.115-3.059-9.518-3.51 1.511-5.066-1.396-10.737-5.879-13.539-4.483-2.802-14.692.006-14.692.006-5.653-5.309-11.859-11.461-19.595-10.92-7.736.541-15.18 4.433-20.039 10.477-6.311-.722-13.438-1.209-18.251 2.936-.921.793-1.758 1.758-2.904 2.165-.856.304-1.79.26-2.698.257-6.316-.021-12.617 2.193-17.531 6.162-2.353 1.9-4.509 4.461-4.615 7.484-.164 4.659 4.632 8.1 9.235 8.832s9.318-.304 13.963.085c6.746 5.629 17.112 6.421 24.635 1.882 7.866 6.429 20.425 6.136 27.983-.652 11.518 4.055 24.315 4.387 36.027.932 2.169-.64 4.445-1.511 5.73-3.372 1.95-2.825.729-6.961-1.851-9.225zM546.568 273.334c-4.47-3.922-10.593-5.3-16.488-6.08 2.617-8.776-2.419-18.599-10.184-23.454-7.765-4.855-25.451.01-25.451.01-9.792-9.197-20.543-19.855-33.945-18.918-13.402.937-26.297 7.679-34.715 18.149-10.932-1.25-23.28-2.095-31.617 5.086-1.596 1.375-3.046 3.046-5.03 3.751-1.483.527-3.1.451-4.674.446-10.941-.037-21.857 3.8-30.369 10.674-4.076 3.292-7.811 7.728-7.996 12.965-.284 8.071 8.023 14.031 15.999 15.3 7.975 1.268 16.141-.527 24.189.148 11.686 9.752 29.643 11.124 42.676 3.261 13.627 11.136 35.383 10.629 48.476-1.13 19.953 7.025 42.122 7.599 62.411 1.615 3.757-1.108 7.7-2.618 9.926-5.842 3.378-4.895 1.262-12.06-3.208-15.981zM732.68 345.745c-3.091-2.712-7.326-3.665-11.403-4.205 1.81-6.069-1.673-12.863-7.043-16.22-5.37-3.358-17.601.007-17.601.007-6.772-6.361-14.207-13.731-23.475-13.083-9.268.648-18.187 5.31-24.008 12.551-7.561-.864-16.1-1.449-21.866 3.517-1.104.951-2.106 2.106-3.479 2.594-1.026.365-2.144.312-3.232.308-7.567-.026-15.116 2.628-21.003 7.382-2.819 2.277-5.402 5.345-5.53 8.966-.196 5.581 5.549 9.704 11.064 10.581 5.516.877 11.163-.364 16.728.102 8.082 6.744 20.501 7.693 29.513 2.255 9.424 7.702 24.47 7.351 33.525-.782 13.799 4.859 29.13 5.255 43.162 1.117 2.599-.766 5.325-1.811 6.864-4.04 2.338-3.383.875-8.337-2.216-11.05z" class="colorF0FAFF svgShape"/><path fill="#364052" d="M1253.102 794.077H138.895a3.31 3.31 0 0 1 0-6.62h1114.207a3.31 3.31 0 0 1 0 6.62z" class="color364052 svgShape"/><path fill="#ffc366" d="M790.753 736.538h63.739v50.914h-63.739z" class="colorFFC366 svgShape"/><path fill="#666666" d="M818.436 736.538h8.089v17.58h-8.089z" class="color666 svgShape"/><path fill="#ffc366" d="M857.397 736.538h63.739v50.914h-63.739z" class="colorFFC366 svgShape"/><path fill="#666666" d="M885.081 736.538h8.089v17.58h-8.089z" class="color666 svgShape"/><path fill="#ffc366" d="M833.707 685.643h63.739v50.914h-63.739z" class="colorFFC366 svgShape"/><path fill="#666666" d="M861.391 685.643h8.089v17.58h-8.089z" class="color666 svgShape"/><path fill="#ffc366" d="M959.828 736.198h63.739v50.914h-63.739z" class="colorFFC366 svgShape"/><path fill="#666666" d="M987.512 736.198h8.089v17.58h-8.089z" class="color666 svgShape"/><path fill="#ffc366" d="M1026.473 736.198h63.739v50.914h-63.739z" class="colorFFC366 svgShape"/><path fill="#666666" d="M1054.156 736.198h8.089v17.58h-8.089z" class="color666 svgShape"/><path fill="#ffc366" d="M1002.783 685.303h63.739v50.914h-63.739z" class="colorFFC366 svgShape"/><path fill="#666666" d="M1030.466 685.303h8.089v17.58h-8.089z" class="color666 svgShape"/><path fill="#ffc366" d="M1073.251 685.303h63.739v50.914h-63.739z" class="colorFFC366 svgShape"/><path fill="#666666" d="M1100.935 685.303h8.089v17.58h-8.089z" class="color666 svgShape"/><path fill="#ffc366" d="M1144.642 685.303h63.739v50.914h-63.739z" class="colorFFC366 svgShape"/><path fill="#666666" d="M1172.326 685.303h8.089v17.58h-8.089z" class="color666 svgShape"/><path fill="#ffc366" d="M1108.716 634.178h63.739v50.914h-63.739z" class="colorFFC366 svgShape"/><path fill="#666666" d="M1136.4 634.178h8.089v17.58h-8.089z" class="color666 svgShape"/><path fill="#ffc366" d="M1035.484 634.178h63.739v50.914h-63.739z" class="colorFFC366 svgShape"/><path fill="#666666" d="M1063.168 634.178h8.089v17.58h-8.089z" class="color666 svgShape"/><path fill="#ffc366" d="M1090.057 736.428h63.739v50.914h-63.739z" class="colorFFC366 svgShape"/><path fill="#666666" d="M1117.741 736.428h8.089v17.58h-8.089z" class="color666 svgShape"/><path fill="#ffc366" d="M1156.702 736.428h63.739v50.914h-63.739z" class="colorFFC366 svgShape"/><path fill="#666666" d="M1184.386 736.428h8.089v17.58h-8.089z" class="color666 svgShape"/><path fill="#fda884" d="M869.459 712.899c-.054 19.489-2.518 37.055-7.523 54.426a193.28 193.28 0 0 1-3.082 9.783l1.128 10.585-23.903-.502 15.561-11.424c.384-2.799.706-5.694.991-8.637 1.847-19.927 1.402-41.995 1.047-51.945a31.837 31.837 0 0 1 1.402-10.532c4.31-13.738 15.906-51.855 19.773-75.498l26.239.551c4.071 38.05-8.224 54.157-31.633 83.193z" class="colorFDA884 svgShape"/><path fill="#364052" d="M888.827 687.092c-5.115 8.028-11.629 16.217-19.368 25.807-.054 19.489-1.35 41.588-6.355 58.959l-11.942-1.044c1.847-19.927-.524-53.328 2.062-65.897 2.944-14.316 17.764-52.119 21.63-75.762l26.239.551c2.724 25.478-1.884 41.128-12.266 57.386z" class="color364052 svgShape"/><path fill="#3a4345" d="m888.84 687.03-.013.063c-5.115 8.028-11.629 16.217-19.368 25.807-.054 19.489-1.35 41.588-6.355 58.959l-3.541-.31c5.172-16.348 6.8-37.873 6.477-59.856 26.366-26.548 9.175-36.672 17.498-56.137l5.302 31.474z" class="color3A4345 svgShape"/><path fill="#364052" d="M851.641 775.767c-5.793 3.638-15.815 2.387-16.506 11.405l24.848.522c.328-4.245.209-8.237-.727-11.767-2.394.492-4.935.431-7.615-.16z" class="color364052 svgShape"/><path fill="#fda884" d="M921.963 775.856a56.867 56.867 0 0 1 .717 9.001c-.93.626-3.809 2.39-7.841 2.205-4.334-.199-7.172-2.522-7.981-3.235.949.37 1.769.455 2.41.435 3.18-.097 6.144-2.869 7.794-6.908-1.494-4.015-3.305-9.674-4.935-13.315-6.526-14.586-13.949-27.54-21.454-41.186-1.785-3.246-2.926-6.371-3.441-10.566-3.272-26.634-2.516-54.02-5.968-80.71 5.937-1.053 11.86-2.066 17.793-3.097 16.129 33.236 12.443 50.703 5.131 85.857 8.052 14.358 12.4 30.477 15.502 47.683.638 3.544 1.722 9.887 2.273 13.836z" class="colorFDA884 svgShape"/><path fill="#364052" d="M887.25 712.321c.533 4.203 1.453 6.924 3.476 10.654 8.505 15.685 15.108 33.47 22.56 50.076 3.309-.888 6.568-1.82 9.857-2.727-3.578-19.266-9.715-39.712-18.953-55.972 7.303-35.176 10.997-52.609-5.123-85.85a.076.076 0 0 0-.011-.026l-20.231 3.511.259 1.962c.002.014-.002.044 0 .058 3.297 26.007 4.872 52.329 8.166 78.314z" class="color364052 svgShape"/><path fill="#3a4345" d="M882.877 635.105c2.117 3.928-.005 11.658 2.318 15.938 6.014 11.08 14.359 3.137 19.621 7.661 8.953 7.697-1.468 41.709-3.559 50.932-.063.279-1.526 6.418-2.443 6.269 4.161.728 2.725-3.055 7.924 8.59 2.345 5.253 14.44 35.892 14.8 45.539 1.049 1.341.997.017 1.61.302-3.59-19.298-9.716-39.715-18.958-55.987 7.302-35.173 11-52.609-5.125-85.848-6.58 1.78-14.761.322-21.187 2.084-.759.21 3.62 1.963 4.999 4.52z" class="color3A4345 svgShape"/><path fill="#364052" d="M916.541 776.398c-6.586 3.581-14.492 3.225-17.171 12.594 8.063-.5 16.126-1.007 24.188-1.499.253-4.067-.309-7.67-1.268-11.425-2.079 1.43-3.743 1.446-5.749.33zM853.719 521.826c.263.813.536 1.603.793 2.398l.06.188c.031.096.063.191.094.29.157.475.337.973.536 1.49.137.363.285.734.441 1.116 3.102 7.527 9.562 18.429 12.688 23.557 1.089 1.783 1.772 2.867 1.772 2.867s24.527-5.275 24.588-22.809a17.6 17.6 0 0 0-.084-1.872c0-.039-.006-.079-.009-.118a26.507 26.507 0 0 0-.421-2.721 21.52 21.52 0 0 0-.287-1.246c-3.375-13.092-15.082-12.908-25.042-14.303-1.164.357-2.28.798-3.331 1.321a19.806 19.806 0 0 0-3.041 1.863c-.281.21-.55.425-.817.646-1.579 1.33-2.873 2.888-3.789 4.623a19.163 19.163 0 0 0-.495 3.342l-.693-.121-2.963-.511z" class="color364052 svgShape"/><path fill="#fda884" d="m867.709 547.503.076 17.065 13.334.449-2.742-14.967-1.544-8.427z" class="colorFDA884 svgShape"/><path fill="#cccccc" d="m867.709 547.503.032 7.193c.489.111 1.02.249 1.551.359 3.251.663 7.184-2.965 9.085-5.005l-1.544-8.427-9.124 5.88z" class="colorCCC svgShape"/><path fill="#fda884" d="M853.371 545.904c2.047 7.109 12.308 9.558 19.926 1.016l.008-.008c1.533-1.722 2.959-3.888 4.189-6.551 0 0 6.046-3.687 4.347-8.388-1.747-4.835-7.826-.261-7.826-.261s-7.067-1.709-12.182-6.704c-2.327-2.27-6.256-1.07-6.948 2.106-.767 3.529-1.448 7.522-1.762 11.06-.279 3.16-.263 5.956.248 7.73zM801.423 637.501c9.112 1.839 15.121-4.986 15.121-4.986s6.812.278 15.062.022c5.882-.169 12.502-.614 17.904-1.628l-4.125-13.115c-4.21.669-9.725 1.886-15.153 3.392-5.406 1.478-10.727 3.25-14.572 5.027 0 0-4.043-2.646-8.523-2.04-4.495.602.594 4.275.594 4.275-.74 2.667-14 7.508-6.308 9.053z" class="colorFDA884 svgShape"/><path fill="#348080" d="M845.105 616.694s2.98-1.416 4.703-3.013c1.723-1.597 14.365-46.437 26.62-40.818 0 0 11.629 1.971.572 22.599-11.058 20.628-15.227 28.848-15.227 28.848l-9.742 5.249-6.926-12.865z" class="color348080 svgShape"/><path fill="#5875a8" d="m841.331 617.72.623 1.041 7.053 11.801.907 1.52a.322.322 0 0 0 .443.11l3.958-2.367a.314.314 0 0 0 .11-.437l-.504-.845-.242-.404-6.897-11.541-.354-.595-.585-.978a.322.322 0 0 0-.443-.11l-3.959 2.362a.327.327 0 0 0-.11.443z" class="color5875A8 svgShape"/><path fill="#ffc366" d="m770.715 578.693 82.306-.362.29 65.745-82.307.362z" class="colorFFC366 svgShape"/><path fill="#666666" d="m806.828 578.535 10.445-.046.1 22.7-10.445.047z" class="color666 svgShape"/><path fill="#fda884" d="M804.781 648.949c9.112 1.839 15.121-4.986 15.121-4.986s6.812.278 15.062.022c5.882-.169 12.502-.614 17.904-1.628l-4.125-13.115c-4.21.669-9.725 1.886-15.153 3.392-5.406 1.478-10.727 3.25-14.572 5.027 0 0-4.043-2.646-8.523-2.04-4.495.602.594 4.275.594 4.275-.741 2.667-14 7.508-6.308 9.053z" class="colorFDA884 svgShape"/><path fill="#4bb7b7" d="M880.27 561.484s8.254.78 15.816 36.267c7.562 35.487 13.565 53.425 13.565 53.425s-12.645 11.079-41.672 1.205c0 0-12.089-54.656-7.708-68.557 4.381-13.901.899-23.914 19.999-22.34z" class="color4BB7B7 svgShape"/><path fill="#348080" d="M848.462 628.142s2.98-1.416 4.703-3.013c1.723-1.597 14.365-46.437 26.62-40.818 0 0 11.629 1.971.572 22.599-11.058 20.628-15.227 28.848-15.227 28.848l-9.742 5.249-6.926-12.865z" class="color348080 svgShape"/><path fill="#1f6161" d="m844.689 629.169.623 1.041 7.053 11.801.907 1.52a.322.322 0 0 0 .443.11l3.959-2.367a.314.314 0 0 0 .11-.437l-.505-.845-.242-.404-6.897-11.541-.354-.595-.585-.978a.322.322 0 0 0-.443-.11l-3.959 2.362a.325.325 0 0 0-.11.443z" class="color1F6161 svgShape"/><path fill="#348080" d="M845.748 519.308c.133-.6.736-.977 1.333-.842l7.11 1.58 2.937.652v-.001a13.006 13.006 0 0 1 1.34-3.161c.997-1.69 2.364-3.184 4.004-4.438.277-.208.556-.41.846-.606a19.864 19.864 0 0 1 3.126-1.717c1.074-.472 2.21-.86 3.39-1.162 3.223-.825 6.781-.982 10.354-.323 10.505 1.941 17.214 10.22 14.977 18.499-.122.449-.268.889-.44 1.319.115.063.218.142.302.239.019.023.04.047.056.073.027.038.053.076.074.116l.021.035v.003a1.103 1.103 0 0 1-.651 1.568c-.18.063-.384.074-.579.029l-31.196-6.936-5.837-1.3-2.046-.455-8.271-1.839a1.12 1.12 0 0 1-.85-1.333z" class="color348080 svgShape"/><path fill="#fda884" d="M1086.63 769.155h9.752v8.022h-9.752z" class="colorFDA884 svgShape"/><path fill="#364052" d="M1096.495 775.095c-2.723 2.891-7.875 2.015-9.865-1.661-4.45 7.868-8.668 4.288-14.465 9.965-2.716 2.66 2.735 5.257 3.711 5.232l20.772.166c2.281-2.986.01-12.564-.153-13.702z" class="color364052 svgShape"/><path fill="#fda884" d="M1135.285 777.371h-9.752v-8.022h9.752z" class="colorFDA884 svgShape"/><path fill="#364052" d="M1125.42 775.289c2.622 2.818 7.845 2.076 9.829-1.52 4.493 7.765 8.741 4.156 14.501 9.825 2.709 2.667-2.735 5.257-3.711 5.232l-20.772.166c-2.28-2.986-.01-12.564.153-13.703z" class="color364052 svgShape"/><path fill="#fda884" d="M1117.649 538.397v12.721c-4.153 4.918-8.003 4.816-11.57 0v-12.721h11.57z" class="colorFDA884 svgShape"/><path fill="#e8936f" d="M1117.649 538.397v11.728c-.974-1.483-1.576-3.712-2.725-4.679-1.99-1.673-6.982-1.085-8.845-.517v-6.532h11.57z" class="colorE8936F svgShape"/><path fill="#364052" d="M1096.77 525.333c-7.092-6.109-5.376-21.768 2.815-22.378 14.325-18.662 41.151-.796 28.547 22.378h-31.362z" class="color364052 svgShape"/><path fill="#fda884" d="M1129.227 519.54c6.799-2.796 8.868 8.222-3.121 8.858l3.121-8.858z" class="colorFDA884 svgShape"/><path fill="#e8936f" d="M1130.804 521.169c.182-.035.356-.053.52-.053 1.234 0 1.356 1.002 1.364 1.308.029 1.081-.946 2.61-3.531 3.42l1.647-4.675z" class="colorE8936F svgShape"/><path fill="#fda884" d="M1095.527 519.219c-6.814-2.83-8.736 8.238 3.143 8.913l-3.143-8.913z" class="colorFDA884 svgShape"/><path fill="#e8936f" d="M1095.609 525.552c-2.564-.835-3.529-2.392-3.498-3.491.011-.383.161-1.276 1.308-1.276.167 0 .344.019.53.056l1.66 4.711z" class="colorE8936F svgShape"/><path fill="#fda884" d="M1129.062 520.191c-1.526 28.398-31.034 27.297-32.998-.001.395-24.089 32.607-24.087 32.998.001z" class="colorFDA884 svgShape"/><path fill="#754c24" d="M1130.416 518.164v.04c0-.02 0-.04-.02-.06l.02.02z" class="color754C24 svgShape"/><path fill="#364052" d="M1095.523 521.016s6.741-1.887 6.818-13.568c2.107 3.901 6.5 8.983 12.942 9.605-.507-1.368-.44-2.718 0-3.829.368 3.147 3.091 5.984 6.422 6.48-.373-1.235-.781-3.6.622-4.183.833 3.331 3.491 6.39 6.433 6.623 3.419-7.251-.781-10.566-3.753-16.73-.153-.23-8.806-5.896-8.806-5.896l-11.41.574c-3.174 5.231-14.967 14.744-9.268 20.924zM1139.073 626.485c-1.111 46.564.891 96.83-.227 143.394h-17.652l-8.62-116.336-11.501 116.336h-17.358c-1.125-46.569 4.872-94.463 3.746-141.032 16.013.29 35.648-2.093 51.612-2.362z" class="color364052 svgShape"/><path fill="#d95265" d="M1140.878 587.944c-4.954 16.069-.558 38.542-.344 51.354-18.861 5.957-38.03 5.1-57.41-.459.617.931 5.969-29.962 2.211-48.179-6.242-30.258-5.921-39.337 12.989-40.823.604-.514 5.366-4.469 6.096-5.077 2.461 2.765 4.961 5.499 7.415 8.263 2.471-2.761 4.941-5.517 7.415-8.263.755.629 5.472 4.541 6.096 5.077 3.699.42 12.091 1.323 13.297 6.325 2.616 10.779 2.19 20.003 2.235 31.782z" class="colorD95265 svgShape"/><path fill="#f2f2f2" d="m1124.309 548.973-8.147 9.492-4.329-4.302-4.33 4.302-8.147-9.492 5.063-4.215.874.975 6.54 7.281 6.539-7.281.874-.975 5.063 4.215z" class="colorF2F2F2 svgShape"/><path fill="#fda884" d="M1200.63 582.896c-1.707-.54-3.494 1.319-4.585.444-.439-.352-.318-.789-.819-1.089-.846-.507-2.124.179-2.689.482-2.439 1.309-3.944 3.893-4.68 5.406l3.867 7.2c1.111.162 2.933.289 5.061-.238 1.782-.441 3.971-.984 5.351-3.02 1.443-2.13 1.053-4.498.95-5.067-.114-.635-.64-3.544-2.456-4.118z" class="colorFDA884 svgShape"/><path fill="#d95265" d="M1192.358 596.669c.174.521-45.923 19.927-48.527 20.175-15.179 1.448-7.246-24.755-8.524-35.656-.805-8.597-2.707-18.471-.64-26.5.873-2.711 3.289-1.182 4.849-.181 3.972 2.621 6.344 7.174 6.925 7.896.695.869 6.435 34.787 6.435 34.787l34.957-10.782c1.143 2.586 3.35 7.464 4.525 10.261z" class="colorD95265 svgShape"/><circle cx="1112.4" cy="563.441" r="2.501" fill="#364052" class="color364052 svgShape"/><circle cx="1111.955" cy="562.996" r="2.501" fill="#f2f2f2" class="colorF2F2F2 svgShape"/><circle cx="1112.4" cy="571.006" r="2.501" fill="#364052" class="color364052 svgShape"/><circle cx="1111.955" cy="570.561" r="2.501" fill="#f2f2f2" class="colorF2F2F2 svgShape"/><circle cx="1112.4" cy="578.571" r="2.501" fill="#364052" class="color364052 svgShape"/><circle cx="1111.955" cy="578.126" r="2.501" fill="#f2f2f2" class="colorF2F2F2 svgShape"/><path fill="#fda884" d="M1104.815 621.657c-.584-1.693-3.142-2.019-3.089-3.416.021-.563.444-.726.386-1.307-.097-.982-1.41-1.599-1.991-1.872-2.505-1.177-5.476-.846-7.13-.535l-3.476 7.397a13.16 13.16 0 0 0 3.208 3.921c1.417 1.168 3.157 2.602 5.615 2.495 2.571-.111 4.239-1.836 4.635-2.258.441-.468 2.463-2.624 1.842-4.425z" class="colorFDA884 svgShape"/><path fill="#d95265" d="m1095.101 613.757-4.982 10.124-6.636-5.627s-18.393-10.673-20.112-17.034c-2.17-8.029 15.932-48.446 24.667-48.446 1.999 0 .896 8.15-.411 15.004l-1.698 21.617-5.775 8.456 2.128 2.267 12.819 13.639z" class="colorD95265 svgShape"/><path fill="#364052" d="M1108.327 525.101c0 .84-.49 1.521-1.095 1.521s-1.095-.681-1.095-1.521c0-.84.49-1.521 1.095-1.521s1.095.681 1.095 1.521zM1118.866 525.34c0 .84-.49 1.521-1.095 1.521s-1.095-.681-1.095-1.521c0-.84.49-1.521 1.095-1.521s1.095.681 1.095 1.521z" class="color364052 svgShape"/><path fill="#f2f2f2" d="M1117.265 524.688a.306.306 0 1 1 .612 0 .306.306 0 0 1-.612 0zM1106.739 524.358a.306.306 0 1 1 .612 0 .306.306 0 0 1-.612 0z" class="colorF2F2F2 svgShape"/><path fill="#e8936f" d="M1117.038 528.548c-.417.071-.308.72.11.649.417-.071.308-.72-.11-.649zM1118.914 528.127a.337.337 0 0 0-.108-.129l-.074-.04a.333.333 0 0 0-.171-.017l-.056.01a.246.246 0 0 0-.12.049.245.245 0 0 0-.093.085.24.24 0 0 0-.049.116.249.249 0 0 0-.007.13l.026.084c.025.052.06.095.108.129l.074.04a.333.333 0 0 0 .171.017l.056-.009a.246.246 0 0 0 .12-.049.245.245 0 0 0 .093-.085.24.24 0 0 0 .049-.116.249.249 0 0 0 .007-.13l-.026-.085zM1117.954 529.844c-.418.071-.308.72.11.649.417-.071.308-.72-.11-.649zM1120.163 529.094a.245.245 0 0 0-.085-.093.24.24 0 0 0-.116-.049.249.249 0 0 0-.13-.007l-.084.026a.337.337 0 0 0-.129.108 2.681 2.681 0 0 1-.04.074.325.325 0 0 0-.016.172l.01.056a.246.246 0 0 0 .049.12c.02.038.048.069.085.093a.24.24 0 0 0 .116.049.249.249 0 0 0 .13.007l.084-.026a.337.337 0 0 0 .129-.108l.04-.074a.333.333 0 0 0 .017-.171l-.01-.056a.237.237 0 0 0-.05-.121zM1106.566 528.442c-.418.071-.308.72.11.649.418-.071.308-.72-.11-.649zM1106.916 530.189a.337.337 0 0 0-.108-.129l-.051-.036a.251.251 0 0 0-.116-.05.249.249 0 0 0-.13-.007.246.246 0 0 0-.12.049.245.245 0 0 0-.093.085 2.681 2.681 0 0 1-.04.074.332.332 0 0 0-.017.171l.026.084a.337.337 0 0 0 .108.129l.051.036a.24.24 0 0 0 .116.049.25.25 0 0 0 .13.007.246.246 0 0 0 .12-.049.245.245 0 0 0 .093-.085l.04-.074a.333.333 0 0 0 .017-.171 3.848 3.848 0 0 0-.026-.083zM1108.295 529.375a.337.337 0 0 0-.108-.129l-.074-.04a.322.322 0 0 0-.171-.016l-.043.007a.246.246 0 0 0-.12.049.245.245 0 0 0-.093.085.24.24 0 0 0-.049.116.249.249 0 0 0-.007.13l.026.084a.337.337 0 0 0 .108.129l.074.04a.333.333 0 0 0 .171.017l.044-.007a.246.246 0 0 0 .12-.049.245.245 0 0 0 .093-.085.24.24 0 0 0 .049-.116.249.249 0 0 0 .007-.13l-.027-.085zM1105.272 529.356a.337.337 0 0 0-.108-.129l-.074-.04a.322.322 0 0 0-.171-.016l-.071.012a.246.246 0 0 0-.12.049.245.245 0 0 0-.093.085.24.24 0 0 0-.049.116.249.249 0 0 0-.007.13l.026.084a.337.337 0 0 0 .108.129l.074.04a.333.333 0 0 0 .171.017l.071-.012a.246.246 0 0 0 .12-.049.245.245 0 0 0 .093-.085.24.24 0 0 0 .049-.116.249.249 0 0 0 .007-.13l-.026-.085z" class="colorE8936F svgShape"/><path fill="#364052" d="M1108.674 522.557a1.755 1.755 0 0 0-1.411-.95c-.614-.056-1.208.269-1.555.763-.102.146-.026.366.118.45.164.096.348.028.45-.118a1.396 1.396 0 0 1 .191-.202 1.528 1.528 0 0 1 .238-.145 1.04 1.04 0 0 1 .557-.089h.01l.009.002a1.344 1.344 0 0 1 .239.065l.012.004.008.004a1.452 1.452 0 0 1 .215.122c.143.099.262.245.351.426.078.16.305.203.45.118.163-.095.197-.29.118-.45zM1119.376 522.626a1.614 1.614 0 0 0-1.377-.831 1.609 1.609 0 0 0-1.388.813.335.335 0 0 0 .118.45.333.333 0 0 0 .45-.118c.024-.043.05-.084.078-.124l.02-.023.044-.048a1.136 1.136 0 0 1 .134-.116l.07-.044c.042-.025.086-.048.131-.068-.041.018.012-.003.028-.009l.063-.02c.042-.012.085-.021.129-.029l.041-.004c.027-.002.054-.002.082-.002l.065.002h.02l.006.001c.048.008.097.019.144.032.114.033.119.036.221.097l.069.044c.007.005.063.048.025.017.038.031.074.065.108.1l.044.048c.011.012.045.059.02.023.032.045.06.091.086.139.085.156.3.206.45.118a.33.33 0 0 0 .119-.448z" class="color364052 svgShape"/><path fill="#b34d4d" d="M1109.078 533.42c0 .849.361 1.624.954 2.195a3.63 3.63 0 0 0 2.539 1.004c1.075 0 2.034-.445 2.672-1.143a3.028 3.028 0 0 0 .818-2.056c0-1.769-2.186-.204-3.49-.204-1.089-.001-3.493-1.565-3.493.204z" class="colorB34D4D svgShape"/><path fill="#e07272" d="M1110.032 535.615a3.63 3.63 0 0 0 2.539 1.004c1.075 0 2.034-.445 2.672-1.143-.525-.528-1.468-.877-2.543-.877-1.167 0-2.178.412-2.668 1.016z" class="colorE07272 svgShape"/><path fill="#364052" d="m1238.566 578.426-26.464-16.285c-1.076-.662-2.505-.293-3.193.825l-25.246 41.025c-.688 1.117-.373 2.56.703 3.222l26.464 16.285c1.076.662 2.505.293 3.193-.825l25.246-41.025c.687-1.117.372-2.56-.703-3.222z" class="color364052 svgShape"/><path fill="#f2f2f2" d="m1236.556 579.645-24.898-15.322c-.663-.408-1.543-.18-1.967.508l-24.255 39.415c-.424.688-.23 1.577.433 1.985l24.898 15.321c.663.408 1.543.18 1.967-.508l24.255-39.415c.423-.687.23-1.576-.433-1.984z" class="colorF2F2F2 svgShape"/><path fill="#d95265" d="m1231.471 574.138-1.405 2.283c-.262.426-.807.566-1.217.314l-11.389-7.009c-.41-.252-.53-.802-.268-1.228l1.405-2.284-.381-.234-1.45 2.357c-.371.604-.202 1.383.38 1.741l11.53 7.095c.581.358 1.353.158 1.725-.446l1.45-2.357-.38-.232z" class="colorD95265 svgShape"/><path fill="#364052" d="M1226.465 567.851c-.575-.354-1.339-.156-1.707.441l-1.166 1.896 2.082 1.281 1.166-1.895c.368-.598.2-1.369-.375-1.723zm-.916 1.489a.522.522 0 0 1-.157-.722c.154-.25.474-.333.716-.185s.312.472.158.722a.525.525 0 0 1-.717.185z" class="color364052 svgShape"/><path fill="#364052" d="m1231.424 575.007-13.582-8.358a.624.624 0 0 1-.188-.864.625.625 0 0 1 .856-.221l13.582 8.358a.626.626 0 0 1 .189.864.626.626 0 0 1-.857.221zM1224.627 574.886l-3.345-2.058a.218.218 0 0 1-.072-.3l.258-.419a.217.217 0 0 1 .3-.071l3.345 2.058a.218.218 0 0 1 .072.3l-.258.419a.218.218 0 0 1-.3.071z" class="color364052 svgShape"/><path fill="#b3b3b3" d="m1227.539 587.018-18.906-11.634a.173.173 0 0 1-.052-.239.172.172 0 0 1 .236-.061l18.906 11.634c.08.049.103.156.052.239a.173.173 0 0 1-.236.061zM1219.797 583.718l-14.134-8.698a.173.173 0 0 1-.052-.239.172.172 0 0 1 .236-.061l14.134 8.698c.08.049.103.156.052.239a.172.172 0 0 1-.236.061zM1213.256 581.245l-8.286-5.099a.173.173 0 0 1-.052-.239.172.172 0 0 1 .236-.061l8.286 5.099c.08.049.103.156.052.239a.172.172 0 0 1-.236.061zM1224.899 588.41l-10.279-6.326a.173.173 0 0 1-.052-.239.172.172 0 0 1 .236-.061l10.279 6.326c.08.049.103.156.052.239a.172.172 0 0 1-.236.061zM1228.784 590.8l-2.661-1.637a.173.173 0 0 1-.052-.239.172.172 0 0 1 .236-.061l2.661 1.637c.08.049.103.156.052.239a.172.172 0 0 1-.236.061zM1229.476 589.674l-8.377-5.155a.173.173 0 0 1-.052-.239.172.172 0 0 1 .236-.061l8.377 5.155c.08.049.103.156.052.239a.172.172 0 0 1-.236.061zM1204.306 581.75l-1.578-.971a.73.73 0 0 1-.239-1.005l.863-1.403a.73.73 0 0 1 1.005-.239l1.578.971a.73.73 0 0 1 .239 1.005l-.863 1.403a.731.731 0 0 1-1.005.239zM1201.973 585.541l-1.578-.971a.73.73 0 0 1-.239-1.005l.863-1.403a.73.73 0 0 1 1.005-.239l1.578.971a.73.73 0 0 1 .239 1.005l-.863 1.403a.73.73 0 0 1-1.005.239zM1199.64 589.333l-1.578-.971a.73.73 0 0 1-.239-1.005l.863-1.403a.73.73 0 0 1 1.005-.239l1.578.971a.73.73 0 0 1 .239 1.005l-.863 1.403a.732.732 0 0 1-1.005.239zM1197.306 593.125l-1.578-.971a.73.73 0 0 1-.239-1.005l.863-1.403a.73.73 0 0 1 1.005-.239l1.578.971a.73.73 0 0 1 .239 1.005l-.863 1.403a.731.731 0 0 1-1.005.239zM1208.163 605.096l.773.476c.19.117.249.365.132.554l-.511.83a.404.404 0 0 1-.554.132l-.774-.476a.403.403 0 0 1-.132-.554l.511-.83a.404.404 0 0 1 .555-.132zM1216.713 610.995l-7.018-4.319a.112.112 0 0 1-.034-.155.112.112 0 0 1 .154-.04l7.018 4.319a.112.112 0 0 1 .034.155.112.112 0 0 1-.154.04zM1211.058 608.601l-1.849-1.138a.113.113 0 0 1-.034-.156.112.112 0 0 1 .154-.04l1.849 1.138a.112.112 0 0 1 .034.155.112.112 0 0 1-.154.041zM1215.238 611.173l-3.409-2.098a.113.113 0 0 1-.034-.156.112.112 0 0 1 .154-.04l3.409 2.098a.112.112 0 0 1 .034.155.112.112 0 0 1-.154.041zM1206.076 608.487l.774.476a.403.403 0 0 1 .132.554l-.511.83a.403.403 0 0 1-.554.132l-.774-.476a.402.402 0 0 1-.132-.554l.511-.83a.403.403 0 0 1 .554-.132zM1214.626 614.386l-7.018-4.319a.113.113 0 0 1-.034-.156.112.112 0 0 1 .154-.04l7.018 4.319a.113.113 0 0 1 .034.156.112.112 0 0 1-.154.04zM1208.971 611.992l-1.849-1.138a.113.113 0 0 1-.034-.156.112.112 0 0 1 .154-.04l1.849 1.138a.113.113 0 0 1 .034.156.112.112 0 0 1-.154.04zM1213.151 614.564l-3.409-2.098a.113.113 0 0 1-.034-.156.112.112 0 0 1 .154-.04l3.409 2.098a.112.112 0 0 1 .034.155.112.112 0 0 1-.154.041zM1195.276 595.687l.774.476a.403.403 0 0 1 .132.554l-.511.83a.403.403 0 0 1-.554.132l-.774-.476a.402.402 0 0 1-.132-.554l.511-.83a.402.402 0 0 1 .554-.132zM1203.827 601.585l-7.018-4.319a.112.112 0 0 1-.034-.155.112.112 0 0 1 .154-.04l7.018 4.319a.113.113 0 0 1 .034.156c-.034.053-.103.071-.154.039zM1198.172 599.191l-1.849-1.138a.113.113 0 0 1-.034-.156.112.112 0 0 1 .154-.04l1.849 1.138a.112.112 0 0 1 .034.155.111.111 0 0 1-.154.041zM1202.352 601.764l-3.409-2.098a.113.113 0 0 1-.034-.156.112.112 0 0 1 .154-.04l3.409 2.098a.112.112 0 0 1 .034.155.113.113 0 0 1-.154.041zM1194.118 597.788l.774.476a.403.403 0 0 1 .132.554l-.511.83a.402.402 0 0 1-.554.132l-.774-.476a.403.403 0 0 1-.132-.554l.511-.83a.402.402 0 0 1 .554-.132zM1202.668 603.687l-7.018-4.319a.113.113 0 0 1-.034-.156.112.112 0 0 1 .154-.04l7.018 4.319a.113.113 0 0 1 .034.156.113.113 0 0 1-.154.04zM1197.013 601.293l-1.849-1.138a.112.112 0 0 1-.034-.155.112.112 0 0 1 .154-.04l1.849 1.138a.113.113 0 0 1 .034.156.113.113 0 0 1-.154.039zM1201.193 603.865l-3.409-2.098a.113.113 0 0 1-.034-.156.112.112 0 0 1 .154-.04l3.409 2.098a.112.112 0 0 1 .034.155.112.112 0 0 1-.154.041zM1192.959 599.889l.774.476a.403.403 0 0 1 .132.554l-.511.83a.403.403 0 0 1-.554.132l-.774-.476a.403.403 0 0 1-.132-.554l.511-.83a.404.404 0 0 1 .554-.132zM1201.509 605.788l-7.018-4.319a.113.113 0 0 1-.034-.156.112.112 0 0 1 .154-.04l7.018 4.319a.113.113 0 0 1 .034.156.112.112 0 0 1-.154.04zM1195.855 603.394l-1.849-1.138a.113.113 0 0 1-.034-.156.112.112 0 0 1 .154-.04l1.849 1.138a.113.113 0 0 1 .034.156.112.112 0 0 1-.154.04zM1200.035 605.966l-3.409-2.098a.112.112 0 0 1-.034-.155.112.112 0 0 1 .154-.04l3.409 2.098a.112.112 0 0 1 .034.155c-.034.054-.103.072-.154.04zM1191.8 601.991l.774.476a.403.403 0 0 1 .132.554l-.511.83a.403.403 0 0 1-.554.132l-.774-.476a.403.403 0 0 1-.132-.554l.511-.83a.402.402 0 0 1 .554-.132zM1200.351 607.889l-7.018-4.319a.113.113 0 0 1-.034-.156.112.112 0 0 1 .154-.04l7.018 4.319a.113.113 0 0 1 .034.156.112.112 0 0 1-.154.04zM1194.696 605.495l-1.849-1.138a.113.113 0 0 1-.034-.156.112.112 0 0 1 .154-.04l1.849 1.138a.113.113 0 0 1 .034.156.112.112 0 0 1-.154.04zM1198.876 608.067l-3.409-2.098a.113.113 0 0 1-.034-.156.112.112 0 0 1 .154-.04l3.409 2.098a.112.112 0 0 1 .034.155.111.111 0 0 1-.154.041zM1190.642 604.092l.774.476a.403.403 0 0 1 .132.554l-.511.83a.403.403 0 0 1-.554.132l-.774-.476a.403.403 0 0 1-.132-.554l.511-.83a.402.402 0 0 1 .554-.132zM1199.192 609.99l-7.018-4.319a.113.113 0 0 1-.034-.156.112.112 0 0 1 .154-.04l7.018 4.319a.112.112 0 0 1 .034.155.112.112 0 0 1-.154.041zM1193.538 607.597l-1.849-1.138a.112.112 0 0 1-.034-.155.112.112 0 0 1 .154-.04l1.849 1.138a.113.113 0 0 1 .034.156c-.034.053-.103.071-.154.039zM1197.717 610.169l-3.409-2.098a.113.113 0 0 1-.034-.156.112.112 0 0 1 .154-.04l3.409 2.098a.112.112 0 0 1 .034.155.112.112 0 0 1-.154.041zM1203.989 611.879l.774.476a.403.403 0 0 1 .132.554l-.511.83a.404.404 0 0 1-.554.132l-.774-.476a.402.402 0 0 1-.132-.554l.511-.83a.402.402 0 0 1 .554-.132zM1212.539 617.777l-7.018-4.319a.112.112 0 0 1-.034-.155.112.112 0 0 1 .154-.04l7.018 4.319a.112.112 0 0 1 .034.155.112.112 0 0 1-.154.04zM1206.885 615.384l-1.849-1.138a.112.112 0 0 1-.034-.155.112.112 0 0 1 .154-.04l1.849 1.138a.113.113 0 0 1 .034.156.113.113 0 0 1-.154.039zM1211.064 617.956l-3.409-2.098a.112.112 0 0 1-.034-.155.112.112 0 0 1 .154-.04l3.409 2.098a.113.113 0 0 1 .034.156.113.113 0 0 1-.154.039zM1218.784 588.953l-11.747-7.229a.173.173 0 0 1-.052-.239.172.172 0 0 1 .236-.061l11.747 7.229c.08.049.103.156.052.239a.172.172 0 0 1-.236.061zM1213.211 587.076l-6.867-4.226a.173.173 0 0 1-.052-.239.172.172 0 0 1 .236-.061l6.867 4.226c.08.049.103.156.052.239a.172.172 0 0 1-.236.061zM1222.927 593.055l-8.53-5.249a.173.173 0 0 1-.052-.239.172.172 0 0 1 .236-.061l8.531 5.249c.08.049.103.156.052.239a.174.174 0 0 1-.237.061zM1226.169 595.05l-2.173-1.337a.173.173 0 0 1-.052-.239.172.172 0 0 1 .236-.061l2.173 1.337c.08.049.103.156.052.239a.173.173 0 0 1-.236.061zM1226.861 593.924l-6.943-4.273a.173.173 0 0 1-.052-.239.172.172 0 0 1 .236-.061l6.943 4.273c.08.049.103.156.052.239a.173.173 0 0 1-.236.061zM1216.546 592.589l-11.747-7.229a.173.173 0 0 1-.052-.239.172.172 0 0 1 .236-.061l11.747 7.229c.08.049.103.156.052.239a.172.172 0 0 1-.236.061zM1210.973 590.712l-6.867-4.226a.173.173 0 0 1-.052-.239.172.172 0 0 1 .236-.061l6.867 4.226c.08.049.103.156.052.239a.172.172 0 0 1-.236.061zM1220.689 596.691l-8.53-5.249a.173.173 0 0 1-.052-.239.172.172 0 0 1 .236-.061l8.531 5.249c.08.049.103.156.052.239a.173.173 0 0 1-.237.061zM1223.931 598.686l-2.173-1.337a.173.173 0 0 1-.052-.239.172.172 0 0 1 .236-.061l2.173 1.337c.08.049.103.156.052.239a.172.172 0 0 1-.236.061zM1224.624 597.56l-6.943-4.273a.173.173 0 0 1-.052-.239.172.172 0 0 1 .236-.061l6.943 4.273c.08.049.103.156.052.239a.172.172 0 0 1-.236.061zM1214.308 596.226l-11.747-7.229a.173.173 0 0 1-.052-.239.172.172 0 0 1 .236-.061l11.747 7.229c.08.049.103.156.052.239a.173.173 0 0 1-.236.061zM1208.735 594.349l-6.867-4.226a.173.173 0 0 1-.052-.239.172.172 0 0 1 .236-.061l6.867 4.226c.08.049.103.156.052.239a.173.173 0 0 1-.236.061zM1218.452 600.328l-8.531-5.249a.173.173 0 0 1-.052-.239.172.172 0 0 1 .236-.061l8.53 5.249c.08.049.103.156.052.239a.172.172 0 0 1-.235.061zM1221.693 602.323l-2.173-1.337a.173.173 0 0 1-.052-.239.172.172 0 0 1 .236-.061l2.173 1.337c.08.049.103.156.052.239a.173.173 0 0 1-.236.061zM1222.386 601.197l-6.943-4.273a.173.173 0 0 1-.052-.239.172.172 0 0 1 .236-.061l6.943 4.273c.08.049.103.156.052.239a.173.173 0 0 1-.236.061zM1212.07 599.862l-11.747-7.229a.173.173 0 0 1-.052-.239.172.172 0 0 1 .236-.061l11.747 7.229c.08.049.103.156.052.239a.172.172 0 0 1-.236.061zM1206.498 597.985l-6.867-4.226a.173.173 0 0 1-.052-.239.172.172 0 0 1 .236-.061l6.867 4.226c.08.049.103.156.052.239a.172.172 0 0 1-.236.061zM1216.214 603.964l-8.53-5.249a.173.173 0 0 1-.052-.239.172.172 0 0 1 .236-.061l8.53 5.249c.08.049.103.156.052.239a.172.172 0 0 1-.236.061zM1219.455 605.959l-2.173-1.337a.173.173 0 0 1-.052-.239.172.172 0 0 1 .236-.061l2.173 1.337c.08.049.103.156.052.239a.172.172 0 0 1-.236.061zM1220.148 604.833l-6.943-4.273a.173.173 0 0 1-.052-.239.172.172 0 0 1 .236-.061l6.943 4.273c.08.049.103.156.052.239a.172.172 0 0 1-.236.061z" class="colorB3B3B3 svgShape"/><path fill="#ffffff" d="M1091.174 574.582h13.297v3h-13.297z" class="colorFFF svgShape"/><path fill="#3a98d9" d="M306.763 504.311v222.19c0 2.99-2.41 5.41-5.39 5.42-33.27.16-66.54.31-99.81.47-34.03.18-85.54.46-118.56.37-5.37-.02-9.75-4.32-9.83-9.69 0-.44-.01-.88-.01-1.32-.11-11.12.68-22.3 7.27-29.88 3.1-3.57 7.49-6.34 13.68-7.94.06-6.93-.15-14.07-.3-21.15-.12-4.96-.2-9.9-.12-14.72l.03-1.72c.12-5.09.42-10.03 1.05-14.72 3.15-23.49 14.54-40.61 52.07-37.76 1.26-.23 8.07-59.71 8.56-60.34 2.19-16.19 1.32-35.12 32.23-35.12h107.61c10.96 0 11.52 2.93 11.52 5.91z" class="color3A98D9 svgShape"/><path fill="#364052" d="m264.658 649.355 20.505-11.838a2.148 2.148 0 0 0 .786-2.934l-3.68-6.373a2.148 2.148 0 0 0-2.934-.786l-20.505 11.838a2.15 2.15 0 0 0-.786 2.935l3.68 6.373a2.149 2.149 0 0 0 2.934.785z" class="color364052 svgShape"/><path fill="#546480" d="M264.937 646.911c.774 0 1.541-.206 2.216-.596l14.132-8.159a4.448 4.448 0 0 0 1.626-6.069 4.46 4.46 0 0 0-3.853-2.222c-.774 0-1.54.206-2.216.596l-14.132 8.159a4.448 4.448 0 0 0-1.626 6.069 4.458 4.458 0 0 0 3.853 2.222z" class="color546480 svgShape"/><path fill="#1a70ab" d="M283.003 693.155c.4-.624-20.795-25.085-50.073-24.134-28.527.926-47.735 25.423-47.367 25.939.356.498 18.989-21.371 46.464-22.555 29.049-1.253 50.58 21.368 50.976 20.75z" class="color1A70AB svgShape"/><path fill="#364052" d="M160.529 549.222H137.833a3.65 3.65 0 0 0-3.651 3.651v24.504c0 2.163 1.581 4.093 3.733 4.299a4.142 4.142 0 0 0 4.547-4.121v-21.473a4.395 4.395 0 0 1 4.395-4.395h13.672v-2.465zM174.308 594.423a10.697 10.697 0 0 1-10.606-12.099l4.974-37.635c2.381-18.014 17.879-31.599 36.05-31.599h7.848c5.899 0 10.698 4.799 10.698 10.698v59.938c0 5.899-4.799 10.698-10.698 10.698h-38.266z" class="color364052 svgShape"/><path fill="#dcf4ff" d="M212.575 516.449h-7.848c-16.556 0-30.55 12.266-32.719 28.679l-4.974 37.635c-.581 4.396 2.84 8.299 7.275 8.299h38.266a7.338 7.338 0 0 0 7.338-7.338v-59.938a7.337 7.337 0 0 0-7.338-7.337z" class="colorDCF4FF svgShape"/><path fill="#364052" d="M252.285 594.423c-5.899 0-10.699-4.799-10.699-10.698v-59.938c0-5.899 4.8-10.698 10.699-10.698h25.206c5.899 0 10.698 4.799 10.698 10.698v59.938c0 5.899-4.799 10.698-10.698 10.698h-25.206z" class="color364052 svgShape"/><path fill="#dcf4ff" d="M277.491 516.449h-25.206a7.338 7.338 0 0 0-7.338 7.338v59.938a7.338 7.338 0 0 0 7.338 7.338h25.206a7.338 7.338 0 0 0 7.338-7.338v-59.938a7.339 7.339 0 0 0-7.338-7.338z" class="colorDCF4FF svgShape"/><path fill="#1f6fa6" d="M123.633 638.721v.52c0 3.92-3.18 7.1-7.1 7.1h-22.81c.12-5.09.42-10.03 1.05-14.72h21.76c3.92 0 7.1 3.19 7.1 7.1z" class="color1F6FA6 svgShape"/><path fill="#ffbe85" d="M116.537 644.343H93.08a5.097 5.097 0 0 1-5.098-5.098v-.522a5.097 5.097 0 0 1 5.098-5.098h23.456a5.097 5.097 0 0 1 5.098 5.098v.522a5.097 5.097 0 0 1-5.097 5.098z" class="colorFFBE85 svgShape"/><path fill="#1f6fa6" d="M93.693 648.061h22.84c3.92 0 7.1 3.18 7.1 7.1v.52c0 3.91-3.18 7.1-7.1 7.1h-22.72l-.12-14.72z" class="color1F6FA6 svgShape"/><path fill="#ffbe85" d="M116.537 660.778H93.08a5.097 5.097 0 0 1-5.098-5.098v-.522a5.097 5.097 0 0 1 5.098-5.098h23.456a5.097 5.097 0 0 1 5.098 5.098v.522a5.097 5.097 0 0 1-5.097 5.098z" class="colorFFBE85 svgShape"/><path fill="#1f6fa6" d="M97.484 707.931c0 8.87-7.22 16.09-16.09 16.09-3 0-5.82-.83-8.23-2.27-.11-11.12.68-22.3 7.27-29.88.32-.02.64-.03.96-.03 8.869 0 16.09 7.22 16.09 16.09z" class="color1F6FA6 svgShape"/><circle cx="81.396" cy="707.93" r="14.087" fill="#ffbe85" class="colorFFBE85 svgShape"/><path fill="#3a98d9" d="M742.393 671.041v55.4c0 2.9-2.35 5.26-5.26 5.26h-433.65c-2.9 0-5.26-2.36-5.26-5.26v-55.4a5.26 5.26 0 0 1 5.26-5.26h433.65c2.91 0 5.26 2.35 5.26 5.26z" class="color3A98D9 svgShape"/><path fill="#364052" d="M181.707 734.844c0 28.59 23.539 51.767 52.576 51.767s52.575-23.177 52.575-51.767c0-28.591-23.539-51.768-52.575-51.768-29.037 0-52.576 23.178-52.576 51.768z" class="color364052 svgShape"/><path fill="#cad4e6" d="M196.569 734.844c0 20.509 16.885 37.134 37.714 37.134s37.714-16.625 37.714-37.134-16.885-37.135-37.714-37.135-37.714 16.627-37.714 37.135z" class="colorCAD4E6 svgShape"/><path fill="#364052" d="M206.105 734.844c0 15.323 12.616 27.745 28.178 27.745 15.562 0 28.178-12.422 28.178-27.745 0-15.324-12.616-27.746-28.178-27.746-15.563.001-28.178 12.423-28.178 27.746z" class="color364052 svgShape"/><path fill="#cad4e6" d="M227.893 734.844c0 3.683 2.861 6.669 6.39 6.669 3.529 0 6.389-2.986 6.389-6.669s-2.861-6.67-6.389-6.67c-3.529 0-6.39 2.987-6.39 6.67zM241.32 716.417c-.838.506-1.126 1.626-.642 2.501.484.876 1.557 1.176 2.396.67.839-.506 1.127-1.626.642-2.501-.485-.876-1.557-1.176-2.396-.67zM220.523 718.248c-.839.505-1.127 1.625-.642 2.501.484.875 1.557 1.175 2.396.67.839-.506 1.127-1.625.642-2.501-.485-.876-1.557-1.176-2.396-.67zM214.881 741.759c-.839.505-1.127 1.626-.642 2.501.484.876 1.557 1.176 2.396.67.84-.505 1.127-1.626.642-2.501-.485-.876-1.558-1.175-2.396-.67zM238.559 751.568c-.839.506-1.127 1.625-.642 2.501.485.876 1.557 1.175 2.396.67.839-.506 1.126-1.625.642-2.501-.484-.876-1.557-1.176-2.396-.67zM253.124 735.09c-.839.506-1.126 1.625-.642 2.501.484.875 1.557 1.175 2.396.67.839-.506 1.126-1.625.642-2.501-.485-.876-1.557-1.176-2.396-.67z" class="colorCAD4E6 svgShape"/><path fill="#364052" d="M547.35 734.844c0 28.59 23.539 51.767 52.576 51.767s52.575-23.177 52.575-51.767c0-28.591-23.539-51.768-52.575-51.768-29.037 0-52.576 23.178-52.576 51.768z" class="color364052 svgShape"/><path fill="#cad4e6" d="M562.212 734.844c0 20.509 16.885 37.134 37.714 37.134s37.714-16.625 37.714-37.134-16.885-37.135-37.714-37.135-37.714 16.627-37.714 37.135z" class="colorCAD4E6 svgShape"/><path fill="#364052" d="M571.748 734.844c0 15.323 12.616 27.745 28.178 27.745 15.562 0 28.178-12.422 28.178-27.745 0-15.324-12.616-27.746-28.178-27.746-15.563.001-28.178 12.423-28.178 27.746z" class="color364052 svgShape"/><path fill="#cad4e6" d="M593.536 734.844c0 3.683 2.861 6.669 6.39 6.669 3.529 0 6.389-2.986 6.389-6.669s-2.861-6.67-6.389-6.67c-3.529 0-6.39 2.987-6.39 6.67zM606.963 716.417c-.839.506-1.126 1.626-.642 2.501.484.876 1.557 1.176 2.396.67.839-.506 1.127-1.626.642-2.501-.485-.876-1.557-1.176-2.396-.67zM586.166 718.248c-.839.505-1.127 1.625-.642 2.501.484.875 1.557 1.175 2.396.67.839-.506 1.127-1.625.642-2.501-.485-.876-1.557-1.176-2.396-.67zM580.523 741.759c-.839.505-1.127 1.626-.642 2.501.484.876 1.557 1.176 2.396.67.84-.505 1.127-1.626.642-2.501-.484-.876-1.557-1.175-2.396-.67zM604.202 751.568c-.839.506-1.127 1.625-.642 2.501.485.876 1.557 1.175 2.396.67.839-.506 1.126-1.625.642-2.501-.484-.876-1.557-1.176-2.396-.67zM618.767 735.09c-.839.506-1.126 1.625-.642 2.501.484.875 1.557 1.175 2.396.67.838-.506 1.126-1.625.642-2.501s-1.557-1.176-2.396-.67z" class="colorCAD4E6 svgShape"/><path fill="#1a70ab" d="M648.742 693.155c.4-.624-20.795-25.085-50.073-24.134-28.527.926-47.735 25.423-47.367 25.939.356.498 18.989-21.371 46.464-22.555 29.049-1.253 50.58 21.368 50.976 20.75z" class="color1A70AB svgShape"/><path fill="#364052" d="M532.595 721.384H312.478v-12.038h220.117z" class="color364052 svgShape"/><path fill="#1f6fa6" d="M718.674 679.461h23.72v40.37h-23.72z" class="color1F6FA6 svgShape"/><path fill="#ffbe85" d="M721.761 682.882h20.634v33.531h-20.634z" class="colorFFBE85 svgShape"/><path fill="#3a98d9" d="M732.744 666.559H312.86V427.526h419.884z" class="color3A98D9 svgShape"/><path fill="#a0deff" d="M727.216 435.417v227.61H318.622v-227.61z" class="colorA0DEFF svgShape"/><path fill="#4fa7e3" d="M317.586 431.683v232.1h412.91v-232.1h-412.91zm400.36 12.46v207.17h-387.8v-207.17h387.8z" class="color4FA7E3 svgShape"/><path fill="#88ccf0" d="M717.946 645.733v5.58h-387.8v-207.17h.26c6.37 6.56 15.82 21.31 33.78 30.58 25.35 13.11 39.09-2.29 65.1 13.25 19.88 11.87 18.97 21.73 36.96 31.44 35.7 19.27 61.11-7.75 85.52 9.38 26.8 18.8 12.45 62.77 37.52 72.83 17.38 6.97 33.52-10.45 48.55 0 11.72 8.15 5.36 21.12 17.1 29.24 14.939 10.32 32.2-5.81 51.87 5.52 3.64 2.1 8.24 5.64 11.14 9.35z" class="color88CCF0 svgShape"/><path fill="#94b463" d="M152.905 787.356h-11.729c-7.359-3.247-14.612-7.678-20.772-12.867-5.189-4.355-15.492-18.921-7.708-26.523 3.004-2.928 8.27-2.231 12.184-.744 6.206 2.352 10.045 8.421 13.459 14.111a201.226 201.226 0 0 1 2.867 4.962c3.9 6.95 7.8 14.536 11.699 21.061zM197.409 707.013c-1.502 5.948-4.415 11.425-6.889 17.039a190.773 190.773 0 0 0-6.782 17.738c-4.825 14.809-7.783 30.59-7.025 45.566h-14.734c-3.429-10.819-.971-21.653-1.153-33.002-.076-4.522.121-9.043.38-13.565.076-1.457.167-2.929.258-4.385 1.001-16.251 2.306-33.396 11.547-46.795 1.806-2.61 3.991-5.113 6.904-6.373 5.614-2.443 12.579.728 15.78 5.948 3.201 5.235 3.231 11.896 1.714 17.829z" class="color94B463 svgShape"/><path fill="#6f874a" d="M228.408 728.119c-.986 2.079-2.488 3.869-4.021 5.569-7.071 7.89-15.159 14.84-21.88 23.018a58.007 58.007 0 0 0-3.793 5.25c-3.217 5.038-5.857 10.864-7.344 16.691a42.246 42.246 0 0 0-.971 4.81 38.926 38.926 0 0 0-.349 3.9h-14.566c-.561-8.922.592-19.164 1.957-25.339 1.608-7.238 3.611-13.99 6.297-20.226 4.749-11.092 11.669-20.545 22.35-28.208 2.382-1.699 4.962-3.232 7.815-3.824 4.734-.986 9.938.91 12.928 4.689 2.989 3.792 3.626 9.3 1.577 13.67z" class="color6F874A svgShape"/><path fill="#94b463" d="M227.862 771.181c-6.388 3.247-13.595 4.446-20.332 6.859-6.736 2.427-14.187 2.625-16.721 9.316h-6.251c1.487-9.666 6.783-18.77 14.157-25.4 6.418-5.781 14.415-9.696 22.867-10.5 2.898-.273 5.887-.228 8.618.789 2.716 1.016 5.144 3.156 5.933 5.963 1.485 5.356-3.324 10.454-8.271 12.973z" class="color94B463 svgShape"/><path fill="#6f874a" d="M161.979 787.356H150.72c-3.292-6.828-6.585-13.869-9.513-21.061-5.811-14.293-10.181-29.193-10.105-44.23.015-3.399.273-6.874 1.654-9.984 1.366-3.111 4.005-5.827 7.344-6.494 3.611-.728 7.389 1.077 9.893 3.778 2.503 2.716 3.976 6.206 5.25 9.681 2.58 7.01 4.567 14.308 5.964 21.743 2.897 15.355 3.2 31.287.772 46.567z" class="color6F874A svgShape"/></svg>