<svg xmlns="http://www.w3.org/2000/svg" viewBox="0 0 1364 960"><path fill="#2b3342" d="M110.945 781.031h1145.93v5.38H110.945z" class="color2B3342 svgShape"/><path fill="#dcf4ff" d="M1324.565 614.801c-.57-51.81-19.6-97.78-48.9-127.27-21.23-21.37-47.84-34.08-76.74-34.08h-97.02c0-11.18-.94-22.07-2.74-32.54-11.39-66.78-57.12-116.7-111.78-116.7h-104.98c0-87-54.12-157.52-120.88-157.52h-269.95c-51.19 0-98.021 25.8-132.95 68.23-34.93 42.44-57.96 101.51-61.54 168.06-58.79 0-106.63 61.14-108.11 137.29-.03 1.21-.04 2.43-.04 3.65v33.16h-63.63c-23.72 0-45.18 12.53-60.729 32.78-15.54 20.26-25.15 48.24-25.15 79.15 0 57.67 33.48 105.16 76.49 111.25 3.08.45 6.22.67 9.39.67h1073.62c3.85 0 7.66-.23 11.42-.67 30.14-3.54 57.21-20.95 77.43-47.29 20.6-26.85 34.09-62.99 36.43-103.18.04-.69.08-1.39.11-2.08.07-1.39.13-2.79.17-4.19.06-2.1.09-4.21.09-6.33-.001-.801-.001-1.591-.011-2.39z" class="colorDCF4FF svgShape"/><path fill="#2b3342" d="M133.838 806.827h177.655v5.517H133.838z" class="color2B3342 svgShape"/><circle cx="340.459" cy="809.689" r="3.621" fill="#2b3342" class="color2B3342 svgShape"/><path fill="#2b3342" d="M1014.39 806.827h177.655v5.517H1014.39z" class="color2B3342 svgShape"/><circle cx="1221.01" cy="809.689" r="3.621" fill="#2b3342" class="color2B3342 svgShape"/><path fill="#a9c4b8" d="M110.945 781.031h260.59c-86.44.05-177.06.12-260.59.19v-.19zM550.065 781.031h706.81v.04c-130.18-.07-335.01.13-490.73.25v.22c-.05-.08-3.41-.15-9.65-.21-118.62.09-206.43.14-206.43 0v-.3z" class="colorA9C4B8 svgShape"/><path fill="#1a7569" d="M1207.678 780.982h-12.243c-7.682-3.389-15.253-8.014-21.683-13.431-5.417-4.546-16.171-19.751-8.046-27.686 3.136-3.057 8.632-2.328 12.718-.776 6.478 2.455 10.485 8.791 14.049 14.73a211.423 211.423 0 0 1 2.993 5.179c4.071 7.254 8.141 15.174 12.212 21.984zM1254.132 697.117c-1.568 6.209-4.609 11.926-7.191 17.787a199.501 199.501 0 0 0-7.08 18.515c-5.036 15.459-8.125 31.931-7.333 47.564h-15.38c-3.579-11.293-1.013-22.602-1.203-34.449-.079-4.72.126-9.44.396-14.16.079-1.521.174-3.057.269-4.577 1.045-16.963 2.407-34.861 12.053-48.846 1.885-2.724 4.166-5.338 7.207-6.652 5.86-2.55 13.13.76 16.472 6.209 3.343 5.463 3.374 12.416 1.79 18.609z" class="color1A7569 svgShape"/><path fill="#46bda9" d="M1286.491 719.148c-1.03 2.17-2.598 4.039-4.198 5.813-7.381 8.236-15.823 15.49-22.839 24.027a60.712 60.712 0 0 0-3.96 5.48c-3.358 5.258-6.114 11.34-7.666 17.423a44.257 44.257 0 0 0-1.014 5.021 40.903 40.903 0 0 0-.365 4.07h-15.205c-.586-9.313.618-20.004 2.043-26.451 1.679-7.555 3.769-14.603 6.573-21.113 4.958-11.578 12.18-21.445 23.33-29.444 2.487-1.774 5.179-3.374 8.157-3.991 4.941-1.03 10.374.95 13.495 4.894 3.122 3.961 3.787 9.71 1.649 14.271z" class="color46BDA9 svgShape"/><path fill="#1a7569" d="M1285.921 764.098c-6.668 3.389-14.191 4.641-21.224 7.159-7.032 2.534-14.809 2.74-17.454 9.725h-6.525c1.552-10.089 7.08-19.592 14.777-26.514 6.7-6.035 15.047-10.121 23.869-10.96 3.025-.285 6.145-.237 8.996.824 2.835 1.061 5.369 3.294 6.193 6.225 1.552 5.591-3.469 10.912-8.632 13.541z" class="color1A7569 svgShape"/><path fill="#46bda9" d="M1217.149 780.982h-11.752c-3.437-7.127-6.874-14.476-9.931-21.984-6.066-14.92-10.628-30.474-10.549-46.17.016-3.548.285-7.175 1.727-10.422 1.425-3.247 4.181-6.082 7.666-6.779 3.77-.76 7.714 1.125 10.327 3.944 2.614 2.835 4.15 6.478 5.48 10.105 2.693 7.317 4.767 14.936 6.225 22.697 3.025 16.03 3.341 32.66.807 48.609zM1199.727 780.982H1198c-.174-.507-.38-1.03-.602-1.537-2.708-6.43-6.51-12.576-10.929-17.961-4.34-5.29-9.471-9.883-15.427-13.273-.887-.507-.095-1.869.792-1.362a53.012 53.012 0 0 1 9.567 6.969c5.258 4.783 9.614 10.517 13.177 16.63 1.934 3.296 3.834 6.844 5.149 10.534zM1238.262 694.979a243.564 243.564 0 0 0-6.953 23.489 244.061 244.061 0 0 0-6.399 42.923 230.762 230.762 0 0 0-.364 19.592h-1.6c0-.269-.016-.539-.016-.808a246.9 246.9 0 0 1 3.088-43.35 244.434 244.434 0 0 1 10.707-42.257c.349-.967 1.869-.555 1.537.411zM1280.567 752.932a43.436 43.436 0 0 0-13.225 3.833c-7.476 3.532-13.891 9.107-18.294 16.124a47.27 47.27 0 0 0-2.233 4.023 43.613 43.613 0 0 0-1.726 4.07h-1.695a45.918 45.918 0 0 1 4.435-9.091 44.27 44.27 0 0 1 9.693-10.85 46.014 46.014 0 0 1 23.045-9.693c1.014-.126.998 1.457 0 1.584z" class="color46BDA9 svgShape"/><path fill="#1a7569" d="M1210.481 780.982h-1.584a205.337 205.337 0 0 0-12.702-66.887c-.348-.966 1.188-1.378 1.536-.427a211.178 211.178 0 0 1 6.003 18.99 206.541 206.541 0 0 1 6.747 48.324zM1269.353 718.531c-6.272 2.233-10.406 8.078-13.954 13.399-6.731 10.058-11.863 21.161-15.221 32.802a121.083 121.083 0 0 0-3.5 16.25h-1.584c.047-.428.111-.839.174-1.267a120.24 120.24 0 0 1 11.198-35.511 116.176 116.176 0 0 1 9.677-16.124c3.326-4.641 7.27-9.123 12.797-11.071.967-.347 1.379 1.189.413 1.522z" class="color1A7569 svgShape"/><path fill="#ffffff" d="M457.739 171.544c-7.61 1.176-15.216 4.887-22.141 8.153-7.167 3.38-14.067 7.315-20.654 11.718-13.398 8.956-25.586 19.723-36.24 31.806-22.961 26.041-38.532 57.677-48.146 90.89-5.785 19.984-9.314 40.615-10.862 61.354-.271 3.639 5.888 4.546 6.445.872 5.257-34.667 13.184-69.299 29.001-100.815 14.21-28.314 34.502-53.89 60.574-72.154 6.911-4.842 14.182-9.174 21.76-12.887 7.845-3.844 16.238-6.123 24.145-9.725 5.629-2.566 1.265-10.007-3.882-9.212zM851.506 290.132a253.333 253.333 0 0 0-2.772-14.585 250.566 250.566 0 0 0-7.469-26.802c-5.167-15.194-11.776-30.125-20.988-43.325-19.375-27.766-49.857-43.98-83.97-38.335-3.534.585-2.745 6.593.852 6.292 32.302-2.703 60.325 14.162 77.586 40.685 8.188 12.58 14.144 26.428 18.853 40.642a245.13 245.13 0 0 1 6.869 25.045 247.83 247.83 0 0 1 2.422 12.76c.646 3.97.634 8.171 2.629 11.714 1.583 2.812 5.925 2.143 6.783-.887 1.195-4.227-.113-8.931-.795-13.204zM1081.305 445.385c-2.548-17.987-6.561-35.73-12.159-53.017-4.526-13.977-10.055-28.019-18.725-39.994-8.712-12.034-20.164-20.978-34.186-26.014-14.388-5.167-29.996-6.21-45.157-6.534-20.922-.448-41.774.107-62.627 1.843-3.751.312-3.878 5.952 0 5.938 17.24-.063 34.489-.08 51.729.07 15.188.132 30.64.253 45.462 3.957 14.122 3.529 26.353 10.689 35.546 22.069 8.813 10.909 14.369 24.239 18.777 37.426 6.146 18.384 10.468 37.326 13.126 56.521.75 5.397 8.975 3.11 8.214-2.265zM1304.385 570.881c-4.756-20.29-13.432-40.184-26.112-56.794-13.324-17.456-32.036-28.527-53.168-33.983-25.977-6.706-54.007-5.572-80.379-2.086-3.082.407-3.325 5.01 0 5 22.919-.068 45.884-2.211 68.572 2.268 20.122 3.972 39.286 12.635 53.149 28.103 26.058 29.075 35.82 72.186 32.265 110.281-.997 10.69-3.16 21.285-6.292 31.552-3.345 10.965-8.601 20.723-13.189 31.135-2.313 5.25 4.275 9.162 7.69 4.495 6.087-8.319 10.044-18.801 13.348-28.509 3.262-9.584 5.536-19.442 6.924-29.467 2.859-20.631 1.949-41.704-2.808-61.995zM301.276 402.791c-8.6 1.631-17.289 6.339-25.415 9.579-6.969 2.779-14.13 5.352-20.791 8.835-13.953 7.297-21.277 20.301-27.11 34.362-6.169 14.872-10.312 30.458-12.438 46.414-1.034 7.761-1.62 15.566-1.683 23.397-.062 7.594-.763 17.365 2.039 24.507 1.272 3.242 7.289 4.495 7.91 0 .975-7.058-.598-14.641-.65-21.799a181.086 181.086 0 0 1 1.228-22.522c1.746-14.808 5.441-29.447 10.784-43.362 2.666-6.944 5.678-13.96 9.75-20.213 4.068-6.246 9.524-10.631 15.947-14.305 6.289-3.598 12.993-6.494 19.533-9.597 7.373-3.499 16.01-6.458 22.582-11.297 1.99-1.466.835-4.477-1.686-3.999zM163.41 581.501c-14.559-2.518-29.387-4.897-44.035-1.614-12.356 2.769-23.424 9.937-31.813 19.326-19.048 21.319-24.118 51.994-22.935 79.734.652 15.281 4.304 30.086 14.023 42.177 4.268 5.31 11.839-2.251 7.513-7.513-9.739-11.845-11.539-27.907-11.387-42.711.174-16.918 2.417-34.308 9.652-49.771 5.938-12.693 15.576-24.065 28.422-30.104 15.379-7.229 33.375-4.898 49.676-3.001 3.688.428 4.568-5.885.884-6.523z" class="colorFFF svgShape"/><path fill="#3a98d9" d="M826.454 430.941v283.055c0 3.809 3.07 6.892 6.867 6.905 42.384.204 84.768.395 127.151.599 43.352.229 108.972.586 151.038.471 6.841-.026 12.421-5.503 12.522-12.344 0-.561.013-1.121.013-1.682.14-14.166-.866-28.409-9.261-38.065-3.949-4.548-9.542-8.077-17.428-10.115-.077-8.828.192-17.924.382-26.944.152-6.319.255-12.612.152-18.752l-.038-2.191c-.153-6.484-.535-12.778-1.338-18.752-4.013-29.925-18.522-51.734-66.333-48.104-1.605-.293-10.28-76.067-10.905-76.869-2.79-20.625-1.681-44.741-41.059-44.741H841.129c-13.962 0-14.675 3.732-14.675 7.529z" class="color3A98D9 svgShape"/><path fill="#364052" d="m880.602 616.01-27.141-15.67a2.148 2.148 0 0 1-.786-2.935l5.276-9.138a2.15 2.15 0 0 1 2.935-.786l27.141 15.67a2.148 2.148 0 0 1 .786 2.934l-5.276 9.138a2.147 2.147 0 0 1-2.935.787z" class="color364052 svgShape"/><path fill="#546480" d="M879.738 612.603a5.652 5.652 0 0 1-2.823-.759l-18.003-10.394a5.667 5.667 0 0 1-2.072-7.731 5.683 5.683 0 0 1 4.909-2.831c.986 0 1.962.262 2.822.759l18.003 10.394a5.667 5.667 0 0 1 2.072 7.731 5.679 5.679 0 0 1-4.908 2.831z" class="color546480 svgShape"/><path fill="#1a70ab" d="M856.723 671.515c-.51-.795 26.491-31.956 63.79-30.746 36.342 1.179 60.811 32.387 60.342 33.044-.453.635-24.191-27.225-59.193-28.734-37.006-1.595-64.435 27.223-64.939 26.436z" class="color1A70AB svgShape"/><path fill="#364052" d="M1012.747 488.154H1041.66a4.65 4.65 0 0 1 4.651 4.651v31.216c0 2.755-2.014 5.215-4.756 5.476a5.276 5.276 0 0 1-5.793-5.249v-27.356a5.6 5.6 0 0 0-5.599-5.599h-17.417v-3.139zM995.193 545.737a13.632 13.632 0 0 0 13.512-15.413l-6.337-47.945c-3.033-22.949-22.776-40.255-45.926-40.255h-9.998c-7.515 0-13.628 6.114-13.628 13.629v76.357c0 7.515 6.113 13.628 13.628 13.628h48.749z" class="color364052 svgShape"/><path fill="#dcf4ff" d="M946.444 446.403h9.998c21.091 0 38.918 15.626 41.681 36.535l6.336 47.945c.74 5.601-3.618 10.573-9.267 10.573h-48.749a9.348 9.348 0 0 1-9.348-9.348v-76.357c0-5.162 4.186-9.348 9.349-9.348z" class="colorDCF4FF svgShape"/><path fill="#364052" d="M895.856 545.737c7.515 0 13.629-6.113 13.629-13.628v-76.357c0-7.515-6.114-13.629-13.629-13.629h-32.11c-7.515 0-13.628 6.114-13.628 13.629v76.357c0 7.515 6.113 13.628 13.628 13.628h32.11z" class="color364052 svgShape"/><path fill="#dcf4ff" d="M863.745 446.403h32.111a9.348 9.348 0 0 1 9.348 9.348v76.357a9.348 9.348 0 0 1-9.348 9.348h-32.111a9.348 9.348 0 0 1-9.348-9.348v-76.357a9.349 9.349 0 0 1 9.348-9.348z" class="colorDCF4FF svgShape"/><path fill="#1f6fa6" d="M1059.749 602.17v.662a9.047 9.047 0 0 0 9.045 9.045h29.058c-.153-6.484-.535-12.778-1.338-18.752h-27.72c-4.994 0-9.045 4.064-9.045 9.045z" class="color1F6FA6 svgShape"/><path fill="#ffbe85" d="M1067.393 609.332h32.675a5.097 5.097 0 0 0 5.098-5.098v-3.458a5.097 5.097 0 0 0-5.098-5.098h-32.675a5.097 5.097 0 0 0-5.098 5.098v3.458a5.099 5.099 0 0 0 5.098 5.098z" class="colorFFBE85 svgShape"/><path fill="#1f6fa6" d="M1097.738 632.821h-28.944c-4.994 0-9.045-4.064-9.045-9.045v-.662a9.047 9.047 0 0 1 9.045-9.045h29.097l-.153 18.752z" class="color1F6FA6 svgShape"/><path fill="#ffbe85" d="M1067.393 630.269h32.675a5.097 5.097 0 0 0 5.098-5.098v-3.458a5.097 5.097 0 0 0-5.098-5.098h-32.675a5.097 5.097 0 0 0-5.098 5.098v3.458a5.099 5.099 0 0 0 5.098 5.098z" class="colorFFBE85 svgShape"/><path fill="#1f6fa6" d="M1093.062 690.339c0 11.3 9.198 20.498 20.498 20.498 3.822 0 7.414-1.057 10.484-2.892.14-14.166-.866-28.409-9.261-38.065a19.209 19.209 0 0 0-1.223-.038c-11.3-.001-20.498 9.197-20.498 20.497z" class="color1F6FA6 svgShape"/><circle cx="1113.557" cy="690.337" r="17.946" fill="#ffbe85" class="colorFFBE85 svgShape"/><path fill="#59ace6" d="M358.767 386.689h460.92v262.394h-460.92z" class="color59ACE6 svgShape"/><path fill="#7ec6ed" d="M815.86 390.49v254.792H362.595V390.49z" class="color7EC6ED svgShape"/><path fill="#3a98d9" d="M815.86 645.281H362.595v-254.79H815.86v254.79zm-439.485-13.686H802.08V404.177H376.375v227.418zM834.391 654.31v60.812c0 3.186-2.593 5.771-5.778 5.771H352.589a5.775 5.775 0 0 1-5.779-5.771V654.31a5.777 5.777 0 0 1 5.779-5.779h476.023a5.782 5.782 0 0 1 5.779 5.779z" class="color3A98D9 svgShape"/><path fill="#2b3342" d="M962.295 724.345c0 31.385-25.839 56.827-57.714 56.827s-57.714-25.442-57.714-56.827c0-31.385 25.839-56.828 57.714-56.828s57.714 25.443 57.714 56.828z" class="color2B3342 svgShape"/><path fill="#abb3c2" d="M945.981 724.345c0 22.513-18.535 40.763-41.4 40.763s-41.4-18.25-41.4-40.763c0-22.513 18.535-40.764 41.4-40.764s41.4 18.251 41.4 40.764z" class="colorABB3C2 svgShape"/><path fill="#2b3342" d="M935.513 724.345c0 16.821-13.849 30.457-30.932 30.457s-30.932-13.636-30.932-30.457 13.849-30.457 30.932-30.457 30.932 13.636 30.932 30.457z" class="color2B3342 svgShape"/><path fill="#abb3c2" d="M911.595 724.345c0 4.043-3.141 7.321-7.014 7.321-3.874 0-7.014-3.278-7.014-7.321s3.14-7.322 7.014-7.322c3.873 0 7.014 3.279 7.014 7.322zM896.856 704.116c.92.555 1.236 1.784.704 2.745-.532.961-1.709 1.291-2.63.736-.921-.555-1.237-1.784-.704-2.745.532-.962 1.709-1.291 2.63-.736zM919.686 706.127c.921.554 1.237 1.783.705 2.745-.532.961-1.71 1.29-2.63.735-.921-.555-1.237-1.784-.705-2.746.531-.96 1.709-1.29 2.63-.734zM925.879 731.936c.921.555 1.237 1.784.705 2.745-.532.961-1.71 1.291-2.63.736-.922-.555-1.237-1.784-.705-2.745.532-.962 1.71-1.291 2.63-.736zM899.886 742.703c.921.555 1.237 1.784.705 2.745-.532.961-1.71 1.29-2.631.735-.921-.555-1.236-1.784-.704-2.745.532-.961 1.709-1.29 2.63-.735zM883.898 724.614c.921.555 1.236 1.784.704 2.745-.532.961-1.709 1.29-2.63.735-.92-.555-1.236-1.784-.704-2.745.532-.961 1.709-1.29 2.63-.735z" class="colorABB3C2 svgShape"/><path fill="#2b3342" d="M560.917 724.345c0 31.385-25.839 56.827-57.714 56.827s-57.714-25.442-57.714-56.827c0-31.385 25.839-56.828 57.714-56.828s57.714 25.443 57.714 56.828z" class="color2B3342 svgShape"/><path fill="#abb3c2" d="M544.603 724.345c0 22.513-18.535 40.763-41.4 40.763s-41.4-18.25-41.4-40.763c0-22.513 18.535-40.764 41.4-40.764s41.4 18.251 41.4 40.764z" class="colorABB3C2 svgShape"/><path fill="#2b3342" d="M534.135 724.345c0 16.821-13.849 30.457-30.932 30.457s-30.932-13.636-30.932-30.457 13.849-30.457 30.932-30.457 30.932 13.636 30.932 30.457z" class="color2B3342 svgShape"/><path fill="#abb3c2" d="M510.217 724.345c0 4.043-3.141 7.321-7.014 7.321-3.874 0-7.014-3.278-7.014-7.321s3.14-7.322 7.014-7.322 7.014 3.279 7.014 7.322zM495.478 704.116c.92.555 1.236 1.784.704 2.745-.532.961-1.709 1.291-2.63.736-.921-.555-1.237-1.784-.704-2.745.532-.962 1.709-1.291 2.63-.736zM518.308 706.127c.921.554 1.237 1.783.705 2.745-.532.961-1.71 1.29-2.63.735-.921-.555-1.237-1.784-.705-2.746.532-.96 1.709-1.29 2.63-.734zM524.502 731.936c.921.555 1.237 1.784.705 2.745-.532.961-1.71 1.291-2.63.736-.922-.555-1.237-1.784-.705-2.745.531-.962 1.709-1.291 2.63-.736zM498.509 742.703c.921.555 1.237 1.784.705 2.745-.532.961-1.71 1.29-2.631.735-.921-.555-1.236-1.784-.704-2.745.531-.961 1.709-1.29 2.63-.735zM482.521 724.614c.921.555 1.236 1.784.704 2.745-.532.961-1.709 1.29-2.63.735-.92-.555-1.236-1.784-.704-2.745s1.709-1.29 2.63-.735z" class="colorABB3C2 svgShape"/><path fill="#2b3342" d="M449.616 678.582c-.439-.685 22.827-27.536 54.967-26.493 31.315 1.016 52.4 27.908 51.996 28.474-.391.547-20.845-23.46-51.005-24.76-31.888-1.375-55.524 23.456-55.958 22.779zM577.114 696.355h241.629v13.214H577.114z" class="color2B3342 svgShape"/><path fill="#ffbe85" d="M346.81 667.304h22.65v36.808h-22.65z" class="colorFFBE85 svgShape"/><path fill="#1a7569" d="M122.944 780.982h-12.243c-7.682-3.389-15.253-8.014-21.683-13.431-5.417-4.546-16.171-19.751-8.046-27.686 3.136-3.057 8.632-2.328 12.718-.776 6.478 2.455 10.485 8.791 14.049 14.73a211.423 211.423 0 0 1 2.993 5.179c4.071 7.254 8.142 15.174 12.212 21.984zM169.399 697.117c-1.568 6.209-4.609 11.926-7.191 17.787a199.501 199.501 0 0 0-7.08 18.515c-5.036 15.459-8.125 31.931-7.333 47.564h-15.38c-3.579-11.293-1.013-22.602-1.203-34.449-.079-4.72.126-9.44.396-14.16.079-1.521.174-3.057.269-4.577 1.045-16.963 2.407-34.861 12.053-48.846 1.885-2.724 4.166-5.338 7.207-6.652 5.86-2.55 13.13.76 16.472 6.209 3.342 5.463 3.373 12.416 1.79 18.609z" class="color1A7569 svgShape"/><path fill="#46bda9" d="M201.757 719.148c-1.03 2.17-2.598 4.039-4.198 5.813-7.381 8.236-15.823 15.49-22.839 24.027a60.712 60.712 0 0 0-3.96 5.48c-3.358 5.258-6.114 11.34-7.666 17.423a44.257 44.257 0 0 0-1.014 5.021 40.903 40.903 0 0 0-.365 4.07H146.51c-.586-9.313.618-20.004 2.043-26.451 1.679-7.555 3.769-14.603 6.573-21.113 4.958-11.578 12.18-21.445 23.33-29.444 2.487-1.774 5.179-3.374 8.157-3.991 4.941-1.03 10.374.95 13.495 4.894 3.122 3.961 3.787 9.71 1.649 14.271z" class="color46BDA9 svgShape"/><path fill="#1a7569" d="M201.187 764.098c-6.668 3.389-14.191 4.641-21.224 7.159-7.032 2.534-14.809 2.74-17.454 9.725h-6.525c1.552-10.089 7.08-19.592 14.777-26.514 6.7-6.035 15.047-10.121 23.869-10.96 3.025-.285 6.145-.237 8.996.824 2.835 1.061 5.369 3.294 6.193 6.225 1.552 5.591-3.469 10.912-8.632 13.541z" class="color1A7569 svgShape"/><path fill="#46bda9" d="M132.415 780.982h-11.752c-3.437-7.127-6.874-14.476-9.931-21.984-6.066-14.92-10.628-30.474-10.549-46.17.016-3.548.285-7.175 1.727-10.422 1.425-3.247 4.181-6.082 7.666-6.779 3.77-.76 7.714 1.125 10.327 3.944 2.614 2.835 4.15 6.478 5.48 10.105 2.693 7.317 4.767 14.936 6.225 22.697 3.025 16.03 3.341 32.66.807 48.609zM114.993 780.982h-1.726c-.174-.507-.38-1.03-.602-1.537-2.709-6.43-6.51-12.576-10.929-17.961-4.34-5.29-9.471-9.883-15.427-13.273-.887-.507-.095-1.869.792-1.362a53.012 53.012 0 0 1 9.567 6.969c5.258 4.783 9.614 10.517 13.177 16.63 1.933 3.296 3.834 6.844 5.148 10.534zM153.528 694.979a243.564 243.564 0 0 0-6.953 23.489 244.061 244.061 0 0 0-6.399 42.923 230.762 230.762 0 0 0-.364 19.592h-1.6c0-.269-.016-.539-.016-.808a246.9 246.9 0 0 1 3.088-43.35 244.434 244.434 0 0 1 10.707-42.257c.349-.967 1.869-.555 1.537.411zM195.833 752.932a43.427 43.427 0 0 0-13.225 3.833c-7.476 3.532-13.891 9.107-18.294 16.124a47.27 47.27 0 0 0-2.233 4.023 43.613 43.613 0 0 0-1.726 4.07h-1.695a45.918 45.918 0 0 1 4.435-9.091 44.27 44.27 0 0 1 9.693-10.85 46.014 46.014 0 0 1 23.045-9.693c1.014-.126.998 1.457 0 1.584z" class="color46BDA9 svgShape"/><path fill="#1a7569" d="M125.747 780.982h-1.584a205.337 205.337 0 0 0-12.702-66.887c-.348-.966 1.188-1.378 1.537-.427a211.178 211.178 0 0 1 6.003 18.99 206.593 206.593 0 0 1 6.746 48.324zM184.619 718.531c-6.272 2.233-10.406 8.078-13.954 13.399-6.731 10.058-11.863 21.161-15.221 32.802a121.083 121.083 0 0 0-3.5 16.25h-1.584c.047-.428.111-.839.174-1.267a120.24 120.24 0 0 1 11.198-35.511 116.176 116.176 0 0 1 9.677-16.124c3.326-4.641 7.27-9.123 12.797-11.071.968-.347 1.379 1.189.413 1.522z" class="color1A7569 svgShape"/><path fill="#fdc5ae" d="M287.735 686.611c-1.089 9.338-1.432 17.625-1.19 25.246.605 19.471 5.022 34.756 10.771 52.939l-2.905 15.135h45.22l-33.199-17.475s6.434-38.233 9.217-64.961c.727-6.784 1.19-12.817 1.251-17.324.423-25.74-22.751-95.038-24.243-99.525l-.061-.172-.02-.064h-37.918c-13.191 52.982 11.9 62.084 33.077 106.201z" class="colorFDC5AE svgShape"/><path fill="#333333" d="M260.808 645.085c7.362 10.171 16.458 21.095 24.985 36.564-1.076 8.03-2.417 16.406-3.955 26.169h35.73c.791-6.441-.066-28.004 0-32.284.461-24.437-24.787-90.228-26.413-94.487l-.066-.163-.022-.061h-41.312c-9.075 31.734-1.538 46.877 11.053 64.262z" class="color333 svgShape"/><path fill="#cccccc" d="M264.948 645.085c6.828 10.17 15.265 21.095 23.173 36.564-.998 8.03-2.242 16.406-3.668 26.169h6.115c-.268-9.424 5.8-25.827 8.621-25.721-2.523-.263-30.974-40.889-34.791-55.803l.55 18.791z" class="colorCCC svgShape"/><path fill="#fdc5ae" d="m236.178 780.088-23.121-26.799s16.978-26.516 30.715-44.145c3.26-4.219 6.338-7.907 8.968-10.639 18.812-19.484 28.635-117.68 28.635-117.68h-31.102c-24.383 22.414-18.242 53.275-18.961 83.763-.249 10.567-3.647 20.756-9.355 29.654a94.115 94.115 0 0 0-3.254 5.467c-7.113 12.982-11.332 28.207-15.224 53.215l-4.815 16.231 37.514 10.933z" class="colorFDC5AE svgShape"/><path fill="#333333" d="m217.134 699.177 8.988 4.117 18.262 8.356c3.261-4.219 5.727-10.414 8.356-13.146 18.812-19.484 30.959-118.068 30.959-118.068l-32.1.367-1.325.021c-23.567 21.664-18.619 51.219-18.911 80.701-.119 12.031-4.008 23.776-11.347 33.31-1.077 1.398-2.057 2.835-2.882 4.342z" class="color333 svgShape"/><path fill="#cccccc" d="m217.134 699.177 8.988 4.117c2.915-4.565 7.296-13.237 9.61-19.094 6.115-15.477 2.354-36.495 3.821-66.048 1.082-21.774 19.485-32.355 19.485-32.355l-7.44-4.993-1.325.021c-23.567 21.664-18.619 51.219-18.911 80.701-.119 12.031-4.008 23.776-11.347 33.31-1.076 1.397-2.056 2.834-2.881 4.341z" class="colorCCC svgShape"/><path fill="#fdc5ae" d="M283.495 515.318s14.817 11.108 28.655 15.51c3.037.958 6.033 1.61 8.805 1.732 17.508.836 50.627-27.453 50.627-27.453 10.455 1.998 20.299-4.87 20.279-12.33-.021-4.382-12.004 4.606-16.55 2.813 0 0 1.1-8.051-2.324-8.805-1.957-.428-4.81 4.912-6.175 10.822-16.978 2.65-27.291 6.746-43.759 12.066-.958-.692-2.344-1.61-4.035-2.649-6.767-4.199-18.037-10.618-23.418-14.226l-12.105 22.52z" class="colorFDC5AE svgShape"/><path fill="#b53a4b" d="M283.495 515.318s11.133 13.722 24.972 18.124l11.082-27.132c-6.767-4.199-19.16-11.861-24.54-15.469l-11.514 24.477z" class="colorB53A4B svgShape"/><path fill="#3e3279" d="M295.969 531.082c.13 12.459-2.948 49.749-2.948 49.749h-42.747s-17.841-54.252-15.431-72.667c1.071-8.185 9.452-18.63 22.801-23.881l16.03.092c10.298.776 17.549 4.53 24.06 11.045.001-.001-1.879 24.71-1.765 35.662z" class="color3E3279 svgShape"/><path fill="#3e3279" d="M295.969 531.082c.13 12.459-2.948 49.749-2.948 49.749h-42.747s-17.841-54.252-15.431-72.667c1.071-8.185 9.452-18.63 22.801-23.881l16.03.092c10.298.776 17.549 4.53 24.06 11.045.001-.001-1.879 24.71-1.765 35.662z" class="color3E3279 svgShape"/><path fill="#d94559" d="M234.478 517.438c.265 19.607 5.096 53.603 6.93 65.832a6.302 6.302 0 0 0 2.63 4.26 6.136 6.136 0 0 0 2.609 1.039c8.784 1.305 17.385 2.018 25.762 1.997 7.541 0 14.898-.57 22.052-1.813 2.793-.489 4.933-2.731 5.238-5.544.998-9.253 3.118-30.877 3.587-50.626.306-12.494-.041-24.234-1.753-31.632-2.67-11.454-15.489-16.57-27.861-16.57l-16.02-.102c-15.326 3.975-21.747 15.694-22.806 23.887-.327 2.424-.429 5.603-.368 9.272z" class="colorD94559 svgShape"/><path fill="#fdc5ae" d="M257.651 484.278c5.748 5.748 11.169 6.848 16.02.102l-1.365-11.087-.571-4.668h-12.718l-.245 2.894-1.121 12.759z" class="colorFDC5AE svgShape"/><path fill="#333333" d="M279.296 456.153s11.357-20.124-2.102-32.578c-12.802-11.847-28.536 3.344-28.536 3.344s-9.945 1.134-11.112 12.802c-1.755 17.547 8.661 22.757 16.077 25.517 17.983 6.69 25.673-9.085 25.673-9.085z" class="color333 svgShape"/><path fill="#cccccc" d="M272.408 590.565c7.541 0 14.898-.57 22.052-1.813 2.793-.489 4.933-2.731 5.238-5.544.998-9.253 3.118-30.877 3.587-50.626-18.837 15.573-10.04 44.521-30.877 57.983z" class="colorCCC svgShape"/><path fill="#fdc5ae" d="M249.744 530.156s10.516 15.979 20.646 25.253c2.426 2.201 4.81 4.015 7.032 5.157 15.388 7.887 53.786 5.686 53.786 5.686 7.154 9.905 26.373 10.17 29.777 6.094 6.033-7.296-14.919-5.278-16.244-10.19 0 0 9.335-3.811 7.256-7.582-2.059-3.791-18.445 3.873-18.445 3.873-14.797-8.111-30.021-13.37-44.676-16.02a272.727 272.727 0 0 0-3.037-5.361c-7.541-12.738-16.61-24.579-29.777-33.241-7.745 8.09-8.54 17.038-6.318 26.331z" class="colorFDC5AE svgShape"/><path fill="#b53a4b" d="m266.905 555.412 21.563-19.295c-7.541-12.738-21.621-40.386-34.584-31.423-17.26 11.934 2.892 41.445 13.021 50.718z" class="colorB53A4B svgShape"/><path fill="#333333" d="M306.462 761.309c14.7 6.094 32.088 4.254 33.547 19.97h-45.695c-.73-6.656 0-13.313 2.191-19.97h9.957zM213.058 753.288c11.618 10.331 28.999 17.616 25.319 30.228l-42.172-14.099c1.455-5.385 3.406-14.031 7.557-18.292l9.296 2.163z" class="color333 svgShape"/><path fill="#cccccc" d="M258.772 471.519c1.957 2.385 4.015 3.564 6.889 3.646 2.507.082 5.075-.222 6.644-1.872l-.571-4.668h-12.718l-.244 2.894z" class="colorCCC svgShape"/><path fill="#fdc5ae" d="M272.703 442.512c5.208-.504 9.56 3.88 8.911 9.072-1.098 8.782-4.339 19.542-13.612 19.78-15.716.403-19.343-15.515-19.343-15.515s5.308-10.276 3.696-18.134c5.068 4.434 13.258 5.484 20.348 4.797z" class="colorFDC5AE svgShape"/><path fill="#f6b922" d="M319.841 476.206h88.023v91.581h-88.023z" class="colorF6B922 svgShape"/><path fill="#e6e6e6" d="M380.029 476.206v9.561c-.354-.951-.709-1.884-1.041-2.749-.044-.121-.089-.225-.133-.346-.044.121-.089.225-.133.346-.31.83-.643 1.712-.997 2.628a227.48 227.48 0 0 1-.997-2.628c-.044-.121-.089-.225-.133-.346-.044.121-.089.225-.133.346-.31.83-.643 1.712-.997 2.628-.354-.916-.687-1.798-.997-2.628-.044-.121-.089-.225-.133-.346-.044.121-.089.225-.133.346-.31.83-.643 1.712-.997 2.628a227.48 227.48 0 0 1-.997-2.628c-.044-.121-.089-.225-.133-.346-.044.121-.089.225-.133.346-.31.83-.643 1.712-.997 2.628a227.48 227.48 0 0 1-.997-2.628c-.044-.121-.089-.225-.133-.346-.044.121-.089.225-.133.346-.31.847-.665 1.729-.997 2.663-.354-.934-.709-1.815-1.019-2.663-.044-.121-.089-.225-.133-.346-.044.121-.089.225-.133.346-.31.83-.643 1.712-.997 2.628a227.48 227.48 0 0 1-.997-2.628c-.044-.121-.089-.225-.133-.346-.044.121-.089.225-.133.346-.31.83-.643 1.712-.997 2.628a227.48 227.48 0 0 1-.997-2.628c-.044-.121-.089-.225-.133-.346-.044.121-.089.225-.133.346-.31.83-.643 1.712-.997 2.628a227.48 227.48 0 0 1-.997-2.628c-.044-.121-.089-.225-.133-.346-.044.121-.089.225-.133.346-.31.847-.665 1.729-.997 2.663-.355-.934-.709-1.815-1.019-2.663-.044-.121-.089-.225-.133-.346-.044.121-.089.225-.133.346-.31.83-.643 1.712-.997 2.628-.354-.916-.687-1.798-.997-2.628-.044-.121-.089-.225-.133-.346-.044.121-.089.225-.133.346-.31.83-.643 1.712-.997 2.628a227.48 227.48 0 0 1-.997-2.628c-.044-.121-.089-.225-.133-.346-.044.121-.089.225-.133.346-.31.83-.643 1.712-.997 2.628a227.48 227.48 0 0 1-.997-2.628c-.044-.121-.089-.225-.133-.346-.044.121-.089.225-.133.346-.332.899-.709 1.867-1.086 2.853v-9.665h29.557zM380.029 558.417v9.371h-29.562v-9.475c.377.986.753 1.954 1.086 2.853.044.121.089.225.133.346.044-.121.089-.225.133-.346.31-.83.643-1.712.997-2.628.355.916.687 1.798.997 2.628.044.121.089.225.133.346.044-.121.089-.225.133-.346.31-.83.643-1.712.997-2.628.355.916.687 1.798.997 2.628.044.121.089.225.133.346.044-.121.089-.225.133-.346.31-.83.643-1.712.997-2.628.355.916.687 1.798.997 2.628.044.121.089.225.133.346.044-.121.089-.225.133-.346.31-.847.665-1.729 1.019-2.663.332.934.687 1.815.997 2.663.044.121.089.225.133.346.044-.121.089-.225.133-.346.31-.83.643-1.712.997-2.628.355.916.687 1.798.997 2.628.044.121.089.225.133.346.044-.121.089-.225.133-.346.31-.83.643-1.712.997-2.628.355.916.687 1.798.997 2.628.044.121.089.225.133.346.044-.121.089-.225.133-.346.31-.83.643-1.712.997-2.628.354.916.687 1.798.997 2.628.044.121.089.225.133.346.044-.121.089-.225.133-.346.31-.847.665-1.729 1.019-2.663.332.934.687 1.815.997 2.663.044.121.089.225.133.346.044-.121.089-.225.133-.346.31-.83.643-1.712.997-2.628.355.916.687 1.798.997 2.628.044.121.089.225.133.346.044-.121.089-.225.133-.346.31-.83.643-1.712.997-2.628.355.916.687 1.798.997 2.628.044.121.089.225.133.346.044-.121.089-.225.133-.346.31-.83.643-1.712.997-2.628.355.916.687 1.798.997 2.628.044.121.089.225.133.346.044-.121.089-.225.133-.346.31-.83.643-1.712.997-2.628.354.916.687 1.798.997 2.628.044.121.089.225.133.346.044-.121.089-.225.133-.346.337-.865.692-1.799 1.046-2.749z" class="colorE6E6E6 svgShape"/><path fill="#f2f2f2" d="M324.85 489.542h28.457v14.575H324.85z" class="colorF2F2F2 svgShape"/><path fill="#b9bbbd" d="M326.363 502.693h24.833c.161 0 .291.077.291.172 0 .095-.13.172-.291.172h-24.833c-.161 0-.291-.077-.291-.172 0-.095.131-.172.291-.172zM343.764 499.338h7.433c.161 0 .291.077.291.172 0 .095-.13.172-.291.172h-7.433c-.161 0-.291-.077-.291-.172 0-.095.13-.172.291-.172zM330.635 499.338h11.516c.161 0 .291.077.291.172 0 .095-.13.172-.291.172h-11.516c-.161 0-.291-.077-.291-.172 0-.095.13-.172.291-.172zM338.839 501.111h12.357c.161 0 .291.077.291.172 0 .095-.13.172-.291.172h-12.357c-.161 0-.291-.077-.291-.172 0-.095.13-.172.291-.172zM326.363 501.111h9.515c.161 0 .291.077.291.172 0 .095-.13.172-.291.172h-9.515c-.161 0-.291-.077-.291-.172 0-.095.131-.172.291-.172zM326.326 499.338h2.416c.14 0 .254.067.254.149 0 .082-.114.149-.254.149h-2.416c-.14 0-.254-.067-.254-.149 0-.082.114-.149.254-.149zM326.363 497.565h24.833c.161 0 .291.077.291.172 0 .095-.13.172-.291.172h-24.833c-.161 0-.291-.077-.291-.172 0-.095.131-.172.291-.172zM343.764 494.21h7.433c.161 0 .291.077.291.172 0 .095-.13.172-.291.172h-7.433c-.161 0-.291-.077-.291-.172 0-.095.13-.172.291-.172zM330.635 494.21h11.516c.161 0 .291.077.291.172 0 .095-.13.172-.291.172h-11.516c-.161 0-.291-.077-.291-.172 0-.095.13-.172.291-.172zM338.839 495.983h12.357c.161 0 .291.077.291.172 0 .095-.13.172-.291.172h-12.357c-.161 0-.291-.077-.291-.172 0-.095.13-.172.291-.172zM326.363 495.983h9.515c.161 0 .291.077.291.172 0 .095-.13.172-.291.172h-9.515c-.161 0-.291-.077-.291-.172 0-.095.131-.172.291-.172zM326.326 494.21h2.416c.14 0 .254.067.254.149 0 .082-.114.149-.254.149h-2.416c-.14 0-.254-.067-.254-.149 0-.082.114-.149.254-.149zM326.363 492.437h24.833c.161 0 .291.077.291.172 0 .095-.13.172-.291.172h-24.833c-.161 0-.291-.077-.291-.172 0-.095.131-.172.291-.172zM338.839 490.855h12.357c.161 0 .291.077.291.172 0 .095-.13.172-.291.172h-12.357c-.161 0-.291-.077-.291-.172 0-.095.13-.172.291-.172zM326.363 490.855h9.515c.161 0 .291.077.291.172 0 .095-.13.172-.291.172h-9.515c-.161 0-.291-.077-.291-.172 0-.095.131-.172.291-.172z" class="colorB9BBBD svgShape"/><path fill="#f2f2f2" d="M377.119 540.575h28.457v14.575h-28.457z" class="colorF2F2F2 svgShape"/><path fill="#b9bbbd" d="M378.632 553.726h24.833c.161 0 .291.077.291.172 0 .095-.13.172-.291.172h-24.833c-.161 0-.291-.077-.291-.172 0-.095.131-.172.291-.172zM396.033 550.371h7.433c.161 0 .291.077.291.172 0 .095-.13.172-.291.172h-7.433c-.161 0-.291-.077-.291-.172 0-.095.13-.172.291-.172zM382.904 550.371h11.516c.161 0 .291.077.291.172 0 .095-.13.172-.291.172h-11.516c-.161 0-.291-.077-.291-.172 0-.095.13-.172.291-.172zM391.108 552.144h12.357c.161 0 .291.077.291.172 0 .095-.13.172-.291.172h-12.357c-.161 0-.291-.077-.291-.172 0-.095.131-.172.291-.172zM378.632 552.144h9.515c.161 0 .291.077.291.172 0 .095-.13.172-.291.172h-9.515c-.161 0-.291-.077-.291-.172 0-.095.131-.172.291-.172zM378.595 550.371h2.416c.14 0 .254.067.254.149 0 .082-.114.149-.254.149h-2.416c-.14 0-.254-.067-.254-.149 0-.082.114-.149.254-.149zM378.632 548.598h24.833c.161 0 .291.077.291.172 0 .095-.13.172-.291.172h-24.833c-.161 0-.291-.077-.291-.172 0-.095.131-.172.291-.172zM396.033 545.243h7.433c.161 0 .291.077.291.172 0 .095-.13.172-.291.172h-7.433c-.161 0-.291-.077-.291-.172 0-.095.13-.172.291-.172zM382.904 545.243h11.516c.161 0 .291.077.291.172 0 .095-.13.172-.291.172h-11.516c-.161 0-.291-.077-.291-.172 0-.095.13-.172.291-.172zM391.108 547.016h12.357c.161 0 .291.077.291.172 0 .095-.13.172-.291.172h-12.357c-.161 0-.291-.077-.291-.172 0-.095.131-.172.291-.172zM378.632 547.016h9.515c.161 0 .291.077.291.172 0 .095-.13.172-.291.172h-9.515c-.161 0-.291-.077-.291-.172 0-.095.131-.172.291-.172zM378.595 545.243h2.416c.14 0 .254.067.254.149 0 .083-.114.149-.254.149h-2.416c-.14 0-.254-.067-.254-.149 0-.082.114-.149.254-.149zM378.632 543.471h24.833c.161 0 .291.077.291.172 0 .095-.13.172-.291.172h-24.833c-.161 0-.291-.077-.291-.172 0-.096.131-.172.291-.172zM391.108 541.888h12.357c.161 0 .291.077.291.172 0 .095-.13.172-.291.172h-12.357c-.161 0-.291-.077-.291-.172 0-.095.131-.172.291-.172zM378.632 541.888h9.515c.161 0 .291.077.291.172 0 .095-.13.172-.291.172h-9.515c-.161 0-.291-.077-.291-.172 0-.095.131-.172.291-.172z" class="colorB9BBBD svgShape"/><path fill="#d94559" d="M958.599 324.613v.003l-.003-.003zM949.003 342.461a31.506 31.506 0 0 0 4.051 4.948 251.99 251.99 0 0 0-4.051-4.948zm49.289 4.083a31.346 31.346 0 0 0 3.762-4.935 597.027 597.027 0 0 0-3.762 4.935z" class="colorD94559 svgShape"/><path fill="#d94559" d="M975.56 293.64c-17.182-.163-31.454 13.698-31.768 30.877a31.32 31.32 0 0 0 5.202 17.934h.003v.003l.006.006c9.376 11.143 18.135 23.941 24.612 36.092.668 1.253 2.478 1.233 3.11-.038 5.888-11.848 17.06-25.188 25.329-36.906a31.328 31.328 0 0 0 4.669-16.501c.001-17.277-13.924-31.303-31.163-31.467zm-.305 51.395c-3.75 0-7.258-1.036-10.254-2.837-5.797-3.487-9.674-9.836-9.674-17.091 0-11.005 8.922-19.924 19.928-19.924 11.005 0 19.928 8.919 19.928 19.924 0 7.03-3.639 13.208-9.138 16.755a19.836 19.836 0 0 1-10.79 3.173z" class="colorD94559 svgShape"/><circle cx="975.655" cy="392.104" r="7.353" fill="#d94559" class="colorD94559 svgShape"/><path fill="#d94559" d="M949.003 342.461a31.506 31.506 0 0 0 4.051 4.948 251.99 251.99 0 0 0-4.051-4.948zm49.289 4.083a31.346 31.346 0 0 0 3.762-4.935 597.027 597.027 0 0 0-3.762 4.935zM380.081 300.947v.003l-.002-.003zM373.598 313.007a21.288 21.288 0 0 0 2.737 3.343 170.764 170.764 0 0 0-2.737-3.343zm33.302 2.758a21.23 21.23 0 0 0 2.542-3.334 405.333 405.333 0 0 0-2.542 3.334z" class="colorD94559 svgShape"/><path fill="#d94559" d="M391.541 280.021c-11.609-.11-21.252 9.255-21.464 20.862A21.16 21.16 0 0 0 373.592 313h.002v.002l.004.004c6.335 7.529 12.253 16.176 16.629 24.385.451.846 1.675.833 2.101-.026 3.978-8.005 11.527-17.018 17.114-24.936 2-3.242 3.155-7.061 3.155-11.149 0-11.672-9.409-21.149-21.056-21.259zm-.206 34.725c-2.533 0-4.904-.7-6.928-1.917-3.917-2.356-6.536-6.645-6.536-11.548 0-7.436 6.028-13.462 13.464-13.462s13.464 6.026 13.464 13.462c0 4.75-2.459 8.924-6.174 11.32a13.393 13.393 0 0 1-7.29 2.145z" class="colorD94559 svgShape"/><circle cx="391.605" cy="346.548" r="4.968" fill="#d94559" class="colorD94559 svgShape"/><path fill="#d94559" d="M373.598 313.007a21.288 21.288 0 0 0 2.737 3.343 170.764 170.764 0 0 0-2.737-3.343zm33.302 2.758a21.23 21.23 0 0 0 2.542-3.334 405.333 405.333 0 0 0-2.542 3.334z" class="colorD94559 svgShape"/><path fill="#b7d8f2" d="M934.458 336.078a2.99 2.99 0 0 1-2.358-1.144 337.748 337.748 0 0 0-7.544-9.223 3.001 3.001 0 0 1 4.579-3.879c2.661 3.142 5.245 6.3 7.679 9.389a3 3 0 0 1-2.356 4.857zm-15.527-18.35a2.994 2.994 0 0 1-2.228-.989 399.66 399.66 0 0 0-8.127-8.729 3 3 0 0 1 4.33-4.154 407.167 407.167 0 0 1 8.25 8.861 3 3 0 0 1-2.225 5.011zm-16.63-17.344c-.76 0-1.52-.287-2.104-.861a421.106 421.106 0 0 0-8.619-8.244 3 3 0 0 1 4.086-4.394 427.806 427.806 0 0 1 8.742 8.361 3 3 0 0 1-2.105 5.138zm-17.595-16.354a2.993 2.993 0 0 1-1.979-.745 418.224 418.224 0 0 0-9.071-7.74 3.002 3.002 0 0 1 3.83-4.62 432.677 432.677 0 0 1 9.2 7.85 3 3 0 0 1-1.98 5.255zm-18.489-15.326a2.989 2.989 0 0 1-1.846-.637 414.396 414.396 0 0 0-9.496-7.206 3 3 0 0 1 3.558-4.832 423.582 423.582 0 0 1 9.633 7.312 3 3 0 0 1-1.849 5.363zm-457.205-6.049a3 3 0 0 1-1.787-5.411 362.03 362.03 0 0 1 9.854-7.048 3 3 0 1 1 3.408 4.938 354.533 354.533 0 0 0-9.692 6.933 2.995 2.995 0 0 1-1.783.588zm437.871-8.187a2.985 2.985 0 0 1-1.704-.533 408.713 408.713 0 0 0-9.897-6.637 3.001 3.001 0 0 1 3.267-5.033 410.135 410.135 0 0 1 10.044 6.736 3 3 0 0 1-1.71 5.467zm-418.102-5.464a3 3 0 0 1-1.626-5.523c3.36-2.161 6.818-4.31 10.279-6.387a3 3 0 0 1 3.088 5.144 383.942 383.942 0 0 0-10.121 6.289 2.984 2.984 0 0 1-1.62.477zm397.967-7.609c-.53 0-1.067-.14-1.554-.436a399.422 399.422 0 0 0-10.274-6.027 3.001 3.001 0 0 1 2.957-5.221 404.104 404.104 0 0 1 10.431 6.119 3 3 0 0 1-1.56 5.565zm-377.378-4.748a3 3 0 0 1-1.467-5.619 401.946 401.946 0 0 1 10.644-5.745 3.001 3.001 0 0 1 2.772 5.322 402.04 402.04 0 0 0-10.487 5.659c-.464.26-.967.383-1.462.383zm356.491-7.077c-.471 0-.949-.111-1.395-.347a381.135 381.135 0 0 0-10.622-5.379 3 3 0 1 1 2.625-5.395 382.39 382.39 0 0 1 10.792 5.465 3 3 0 0 1-1.4 5.656zm-335.195-4.007a3 3 0 0 1-1.307-5.702 411.2 411.2 0 0 1 10.969-5.097 3 3 0 1 1 2.447 5.479 399.129 399.129 0 0 0-10.807 5.021c-.42.202-.864.299-1.302.299zm313.616-6.495c-.41 0-.826-.085-1.225-.264a368.487 368.487 0 0 0-10.939-4.69 3.001 3.001 0 0 1 2.275-5.553 374.14 374.14 0 0 1 11.117 4.769 2.999 2.999 0 0 1-1.228 5.738zm-291.696-3.291a3 3 0 0 1-1.14-5.776 400.863 400.863 0 0 1 11.257-4.425 3 3 0 0 1 2.109 5.617 394.23 394.23 0 0 0-11.087 4.358 3.015 3.015 0 0 1-1.139.226zm269.495-5.809c-.348 0-.701-.062-1.047-.189a365.1 365.1 0 0 0-11.219-3.968 3.002 3.002 0 0 1 1.908-5.69 373.564 373.564 0 0 1 11.404 4.034 3 3 0 0 1-1.046 5.813zm-247.025-2.629a3.002 3.002 0 0 1-.968-5.841 393.27 393.27 0 0 1 11.506-3.726 3 3 0 1 1 1.76 5.736 383.236 383.236 0 0 0-11.33 3.669c-.321.11-.648.162-.968.162zm224.28-4.999c-.284 0-.573-.041-.86-.127a358.76 358.76 0 0 0-11.454-3.218 3 3 0 1 1 1.525-5.803c3.875 1.02 7.794 2.12 11.647 3.272a3 3 0 0 1-.858 5.876zM538 200.301a3.002 3.002 0 0 1-.789-5.896 384.973 384.973 0 0 1 11.719-2.999 3 3 0 0 1 1.394 5.836c-3.83.916-7.711 1.909-11.533 2.952a2.96 2.96 0 0 1-.791.107zm178.135-4.065a2.96 2.96 0 0 1-.669-.076c-3.853-.877-7.77-1.7-11.642-2.448a2.999 2.999 0 0 1-2.377-3.514 2.997 2.997 0 0 1 3.514-2.377c3.938.76 7.92 1.598 11.837 2.489a3 3 0 0 1-.663 5.926zm-154.794-1.512a3 3 0 0 1-.602-5.939 373.963 373.963 0 0 1 11.889-2.244 3.001 3.001 0 0 1 1.016 5.914 364.596 364.596 0 0 0-11.695 2.207 3.098 3.098 0 0 1-.608.062zm131.242-3.035c-.157 0-.315-.012-.475-.037a359.49 359.49 0 0 0-11.778-1.671 2.998 2.998 0 0 1-2.604-3.349 2.989 2.989 0 0 1 3.349-2.604c3.989.498 8.019 1.069 11.976 1.698a3 3 0 0 1-.468 5.963zm-107.596-1.035a3 3 0 0 1-.408-5.972 370.44 370.44 0 0 1 12.007-1.468c1.659-.181 3.125 1.021 3.299 2.668s-1.021 3.125-2.668 3.299a364.05 364.05 0 0 0-11.813 1.444c-.14.02-.279.029-.417.029zm83.794-1.942c-.092 0-.185-.004-.277-.013a361.95 361.95 0 0 0-11.868-.892 3.002 3.002 0 0 1-2.818-3.172c.098-1.654 1.513-2.899 3.172-2.818a373.083 373.083 0 0 1 12.06.908 3 3 0 0 1-.269 5.987zm-59.931-.579a3 3 0 0 1-.215-5.992c4.002-.291 8.064-.52 12.077-.679 1.675-.027 3.051 1.223 3.117 2.879a3.001 3.001 0 0 1-2.879 3.117 361.9 361.9 0 0 0-11.88.667 3.258 3.258 0 0 1-.22.008zm35.978-.832-.081-.001c-3.935-.104-7.95-.146-11.899-.116h-.021a3 3 0 0 1-.021-6c4.011-.03 8.099.013 12.101.118a3 3 0 0 1-.079 5.999z" class="colorB7D8F2 svgShape"/><path fill="#ffffff" d="m491.77 298.28-2.715-13.869a.579.579 0 0 0-.447-.456l-13.81-3c-.616-.134-.607-1.016.012-1.137l13.869-2.715a.579.579 0 0 0 .456-.447l3-13.81c.134-.616 1.016-.607 1.137.012l2.715 13.869a.58.58 0 0 0 .447.456l13.81 3c.616.134.607 1.016-.012 1.137l-13.869 2.715a.58.58 0 0 0-.456.447l-3 13.81c-.134.616-1.016.607-1.137-.012zM1208.724 649.289l-2.715-13.869a.58.58 0 0 0-.447-.456l-13.81-3c-.616-.134-.607-1.016.012-1.137l13.869-2.715a.58.58 0 0 0 .456-.447l3-13.81c.134-.616 1.016-.607 1.137.012l2.715 13.869c.045.227.22.407.447.456l13.81 3c.616.134.607 1.016-.012 1.137l-13.869 2.715a.582.582 0 0 0-.456.447l-3 13.81c-.134.616-1.016.607-1.137-.012zM862.43 396.394l-2.715-13.869a.579.579 0 0 0-.447-.456l-13.81-3c-.616-.134-.607-1.016.012-1.137l13.869-2.715a.58.58 0 0 0 .456-.447l3-13.81c.134-.616 1.016-.607 1.137.012l2.715 13.869a.58.58 0 0 0 .447.456l13.81 3c.616.134.607 1.016-.012 1.137l-13.869 2.715a.582.582 0 0 0-.456.447l-3 13.81c-.133.616-1.016.607-1.137-.012zM1065.932 534.626l-2.715-13.869a.579.579 0 0 0-.447-.456l-13.81-3c-.616-.134-.607-1.016.012-1.137l13.869-2.715a.579.579 0 0 0 .456-.447l3-13.81c.134-.616 1.016-.607 1.137.012l2.715 13.869a.58.58 0 0 0 .447.456l13.81 3c.616.134.607 1.016-.012 1.137l-13.869 2.715a.58.58 0 0 0-.456.447l-3 13.81c-.133.617-1.015.608-1.137-.012zM620.857 233.571l-1.875-9.576a.402.402 0 0 0-.308-.315l-9.536-2.071c-.426-.092-.419-.702.008-.785l9.576-1.875a.402.402 0 0 0 .315-.308l2.071-9.536c.092-.426.702-.419.785.008l1.875 9.576a.402.402 0 0 0 .308.315l9.536 2.071c.426.092.419.702-.008.785l-9.576 1.875a.402.402 0 0 0-.315.308l-2.071 9.536c-.092.426-.701.419-.785-.008zM741.011 339.007l-1.875-9.576a.402.402 0 0 0-.308-.315l-9.536-2.071c-.426-.092-.419-.702.008-.785l9.576-1.875a.402.402 0 0 0 .315-.308l2.071-9.536c.092-.426.702-.419.785.008l1.875 9.576a.402.402 0 0 0 .308.315l9.536 2.071c.426.092.419.702-.008.785l-9.576 1.875a.402.402 0 0 0-.315.308l-2.071 9.536c-.092.426-.701.42-.785-.008zM556.361 362.285l-1.875-9.576a.402.402 0 0 0-.308-.315l-9.536-2.071c-.426-.092-.419-.702.008-.785l9.576-1.875a.402.402 0 0 0 .315-.308l2.071-9.536c.092-.426.702-.419.785.008l1.875 9.576a.402.402 0 0 0 .308.315l9.536 2.071c.426.092.419.702-.008.785l-9.576 1.875a.402.402 0 0 0-.315.308l-2.071 9.536c-.092.426-.702.42-.785-.008zM327.119 447.527l-1.875-9.576a.402.402 0 0 0-.308-.315l-9.536-2.071c-.426-.092-.419-.702.008-.785l9.576-1.875a.402.402 0 0 0 .315-.308l2.071-9.536c.092-.426.702-.419.785.008l1.875 9.576a.402.402 0 0 0 .308.315l9.536 2.071c.426.092.419.702-.008.785l-9.576 1.875a.402.402 0 0 0-.315.308l-2.071 9.536c-.092.425-.701.419-.785-.008zM174.48 652.842l-1.875-9.576a.402.402 0 0 0-.308-.315l-9.536-2.071c-.426-.092-.419-.702.008-.785l9.576-1.875a.402.402 0 0 0 .315-.308l2.071-9.536c.092-.426.702-.419.785.008l1.875 9.576a.402.402 0 0 0 .308.315l9.536 2.071c.426.092.419.702-.008.785l-9.576 1.875a.402.402 0 0 0-.315.308l-2.071 9.536c-.092.426-.701.42-.785-.008z" class="colorFFF svgShape"/></svg>