<svg xmlns="http://www.w3.org/2000/svg" enable-background="new 0 0 5100 2291.809" viewBox="0 0 5100 2291.809"><path fill="#9adbbd" d="M1290.838,1393.015c0,0,22.707-363.672-100.612-390.028     C1066.908,976.63,1028.101,1171.546,1290.838,1393.015z" class="color9adbbd svgShape"/><path fill="#c2efd9" d="M1188.689,1101.944c-11.64-45.382-20.36-82.946-24.505-101.218      c2.104-0.106,4.249-0.125,6.426-0.077c3.188,13.921,8.867,38.24,16.348,68.336l31.96-52.152c1.638,1.305,3.237,2.688,4.804,4.14      l-34.639,56.523c2.854,11.375,5.937,23.449,9.221,36.023l49.843-59.637c1.059,1.974,2.092,3.992,3.102,6.051l-50.996,61.016      c8.465,32.126,18.143,67.046,28.497,101.147l46.353-89.489c0.702,3.209,1.379,6.441,2.028,9.699l-45.763,88.349      c19,61.623,40.074,119.516,59.987,151.995c-0.289,6.668-0.519,10.365-0.519,10.365c-0.182-0.154-0.355-0.307-0.538-0.461      c-24.62-35.998-50.88-111.19-73.226-187.041l-83.951,6.353c-1.129-2.018-2.244-4.03-3.319-6.029l85.467-6.468      c-4.616-15.824-9.055-31.626-13.267-47.066l-99.167-11.469c-0.618-2.187-1.203-4.357-1.746-6.505l99.147,11.466      c-3.334-12.325-6.52-24.387-9.524-35.993l-94.107-43.99c0.365-2.155,0.79-4.259,1.265-6.321L1188.689,1101.944z" class="colorc2efd9 svgShape"/><path fill="#75a378" d="M1273.703,1595.726c0,0-139.367-419.275-348.157-467.272s-389.633,49.243-370.948,167.273       c18.685,118.03,293.323,231.335,431.153,350.827C1078.4,1726.875,1345.049,1723.885,1273.703,1595.726z" class="color75a378 svgShape"/><path fill="#9fc6a2" d="M693.532,1267.84c30.001-3.845,60.001-7.69,90.002-11.535      c-18.175-9.872-36.597-19.287-55.279-28.174c-3.924-1.867-6.433-5.93-4.856-10.311c1.363-3.785,6.36-6.735,10.311-4.856      c62.089,29.536,121.597,64.342,177.734,104.002c-12.812-28.885-25.624-57.771-38.436-86.656      c-4.202-9.474,10.286-16.542,14.496-7.051c16.033,36.147,32.065,72.293,48.098,108.44c0.516,1.162,0.747,2.288,0.753,3.352      c3.077,2.295,6.155,4.59,9.21,6.915c33.768,25.701,66.202,53.189,97.12,82.285l-21.638-116.469      c-1.894-10.195,13.947-13.156,15.844-2.944l24.933,134.206c0.241,1.3,0.192,2.48-0.077,3.532      c22.518,22.135,44.174,45.142,64.875,68.968c30.498,35.104,58.913,71.991,85.089,110.425c2.448,3.594,2.727,8.293-0.828,11.367      c-2.998,2.592-8.905,2.787-11.367-0.828c-25.833-37.931-53.868-74.338-83.898-109.021c-1.812,1.261-4.197,1.718-6.922,0.707      c-27.565-10.229-57.133-14.871-86.518-13.02c-4.342,0.274-8.53-1.8-9.394-6.45c-0.721-3.881,2.078-9.119,6.45-9.394      c26.702-1.683,53.318,1.078,78.908,8.446c-18.265-20.179-37.204-39.75-56.807-58.642c-9.971-9.609-20.125-19.028-30.429-28.281      c-1.76,0.651-3.778,0.719-5.741,0.212c-53.98-13.933-107.959-27.865-161.939-41.798c-4.214-1.088-6.232-6.488-4.856-10.311      c1.587-4.408,6.082-5.947,10.311-4.856l138.07,35.638c-43.556-37.039-89.778-70.952-138.17-101.388      c-14.519-9.131-29.233-17.947-44.131-26.438c-1.046,1.314-2.645,2.274-4.865,2.558c-34.37,4.405-68.74,8.81-103.111,13.215      C686.232,1284.997,683.221,1269.161,693.532,1267.84z" class="color9fc6a2 svgShape"/><path fill="#84bca4" d="M3718.606,1492.209c74.546,13.881,148.842-25.998,180.677-94.819     c38.627-83.505,97.227-222.216,125.388-349.764c44.062-199.566,179.882-172.132,140.861-277.709s-353.117-4.747-479.426,210.156     C3581.725,1157.667,3539.76,1458.907,3718.606,1492.209z" class="color84bca4 svgShape"/><path fill="#9adbbd" d="M3616.666,1149.454l91.799,6.31l-55.637-110.105c1.763-4.026,3.548-8.03,5.374-11.989     l106.432,210.628c8.716-36.244,19.167-74.602,31.515-112.424c0.067-0.736,0.309-1.435,0.671-2.067     c12.1-36.839,26.008-73.104,41.892-106.335c-1.156-6.822-5.616-33.814-9.757-67.711c-7.414-7.167-41.412-40.855-63.12-76.213     c2.499-2.436,5.021-4.844,7.562-7.228c15.955,26.516,40.042,52.986,53.648,67.041c-3.913-35.386-6.95-75.481-5.588-107.378     c3.496-2.629,7.01-5.212,10.543-7.75c-3.985,55.485,8.9,147.223,14.522,183.502c11.431-22.273,23.802-42.93,37.2-61.091     c66.955-90.761,147.672-140.039,203.594-165.397c27.666-12.545,51.896-20.596,70.269-25.676c2.167,2.812,4.071,5.834,5.669,9.091     c-18.417,4.943-43.516,13.06-72.095,26.047c-54.709,24.861-133.683,73.146-199.228,161.993     c-33.369,45.232-60.57,106.286-82.541,171.683l213.262-67.9c-0.889,3.853-1.805,7.714-2.746,11.583l-214.464,68.282     c-25.221,77.875-43.211,160.846-55.508,229.97l182.365-43.459c-1.669,3.94-3.331,7.842-4.979,11.677l-179.305,42.73     c-8.519,49.238-14.057,90.565-17.218,116.708c-3.374-0.367-6.752-0.845-10.133-1.429c3.228-26.901,8.915-69.585,17.686-120.14     c0.012-0.088,0.028-0.174,0.045-0.26c3.9-22.46,8.405-46.459,13.574-71.31c2.743-13.189,5.755-26.958,9.027-41.11l-47.179-93.367     l-99.728-6.855C3614.923,1156.151,3615.781,1152.801,3616.666,1149.454z" class="color9adbbd svgShape"/><path fill="#75a378" d="M3708.413,1527.441c-8.87-28.619-5.328-59.705,9.895-85.713     c65.813-112.436,264.626-393.9,495.701-427.397c290.183-42.065,407.85,12.686,446.036,131.246     c32.708,101.556-100.203,59.228-136.523,72.451c-73.888,26.899-114.988,136.05-245.804,195.53     c-96.471,43.864-345.449,132.771-469.536,176.433c-39.577,13.926-82.698-7.47-94.986-47.12L3708.413,1527.441z" class="color75a378 svgShape"/><path fill="#9fc6a2" d="M3989.959,1467.378c-0.083-2.805-2.441-5.005-5.273-4.909l-112.117,3.801     c48.403-28.145,104.737-61.247,158.663-93.746l153.458,8.517c2.828,0.157,5.263-1.989,5.438-4.793     c0.178-2.802-1.975-5.204-4.803-5.362l-138.646-7.695c25.074-15.191,49.398-30.13,71.897-44.242     c41.101-25.779,86.547-51.991,133.047-76.08l151.089,12.003c2.823,0.224,5.308-1.864,5.551-4.663     c0.243-2.8-1.848-5.251-4.671-5.475l-134.679-10.7c124.249-62.576,253.082-107.887,324.6-87.786     c2.722,0.765,5.567-0.806,6.355-3.508c0.787-2.701-0.78-5.513-3.501-6.278c-49.151-13.815-125.44-0.151-226.748,40.613     c-37.688,15.165-74.502,32.329-108.566,49.569l58.32-134.737c1.122-2.589-0.083-5.572-2.685-6.665     c-2.603-1.095-5.621,0.115-6.74,2.702l-63.208,146.029c-56.209,29.121-103.785,57.682-133.613,76.39     c-23.701,14.865-49.433,30.653-75.935,46.686l29.381-151.099c0.534-2.758-1.284-5.416-4.066-5.932     c-2.782-0.515-5.472,1.305-6.009,4.066l-31.133,160.106c-56.381,33.973-115.366,68.589-165.115,97.482l22.134-93.848     c0.646-2.739-1.069-5.463-3.826-6.088c-2.759-0.623-5.52,1.091-6.166,3.829l-24.334,103.18     c-63.292,36.684-108.913,62.557-109.924,63.13c-2.135,1.209-3.072,3.699-2.382,5.927c0.107,0.347,0.255,0.686,0.442,1.015     c1.396,2.437,4.525,3.278,6.991,1.881c1.016-0.575,47.032-26.672,110.774-63.622l131.018-4.441     C3987.808,1472.538,3990.039,1470.185,3989.959,1467.378z" class="color9fc6a2 svgShape"/><g fill="#000000" class="color000 svgShape"><polygon fill="#5cbec6" points="3709.418 2035.101 3225.564 2035.101 2576.066 2021.507 2001.37 2035.101 1679.902 2017.709 1325.965 2035.101 1184.024 2035.101 1282.468 505.419 1410.315 505.419 1765.464 455.415 2095.457 505.419 2523.927 505.419 2839.092 455.415 3157.205 505.419 3610.974 505.419" class="color5cbec6 svgShape"/><path fill="#8380b7" d="M1327.647 882.583c-6.398-1.053-5.422-12.707-5.095-17.284.576-8.065.293-11.688 7.322-17.221 7.863-6.188 17.328-8.405 26.293-12.115 7.159-2.962 14.218-4.674 21.673-6.207 19.891-4.089 40.363-.48 59.92 2.297 4.143.588 6.888 2.334 10.829 3.243 2.709.625 5.745.29 8.509.692 6.725.978 13.411 1.992 20.153 2.859 4.228.544 7.596 1.726 11.632 3.094 3.831 1.298 7.597 1.339 11.644 1.684 8.703.743 17.357 1.801 26.025 2.725 13.01 1.388 25.757 2.136 38.971 1.814 5.487-.133 10.172-2.133 15.452-3.05 5.389-.935 12.334-1.625 17.782-1.74 4.155-.088 4.731-.739 8.374-2.292 5.108-2.177 2.193-3.298 3.395-8.366 6.472-2.335 13.343-1.742 19.974-1.792 4.726-.036 9.127-.236 13.723.968 7.717 2.021 14.488 5.121 22.491 6.438 8.27 1.361 16.047 5.277 23.851 8.252 8.662 3.302 19.941 3.946 29.245 4.617 5.727.413 10.979 2.078 16.613 2.898 4.594.669 9.344.27 13.991.298 11.071.067 22.129-1.521 33.263-1.603 4.727-.035 9.293-.507 13.758.986 3.154 1.055 9.886 4.104 12.397 6.815 5.21 5.624 4.166 19.574 3.932 26.625-.392 11.826-4.252 18.978-13.256 26.689-4.526 3.876-9.497 7.568-14.424 10.883-3.293 2.216-6.16 3.331-7.942 7.109-3.106 6.583-3.136 18.067-1.261 24.609 1.593 5.558 5.747 10.839 9.389 15.221 3.908 4.703 8.166 6.425 13.257 9.501 4.995 3.018 10.424 5.395 15.155 8.649 7.483 5.146 15.688 10.004 24.359 12.897 6.333 2.113 11.933 1.837 18.306-.098 8.275-2.512 11.637-5.31 13.401-14.445 2.362-12.226 5.097-24.116 5.373-36.544.169-7.614-.483-16.061.445-23.613.605-4.93 3.919-4.689 8.484-4.732 3.075-.029 6.143.217 9.221.154 2.539-.052 4.778-.34 7.239.429 2.57.803 5.532 2.993 7.832 4.28 5.943 3.326 12.08 6.289 17.995 9.677 5.716 3.274 8.275 5.899 11.794 11.138 4.882 7.266 10.922 9.452 19.222 10.943 9.194 1.651 15.179 6.011 19.165 14.453 1.908 4.041 3.772 8.32 5.136 12.606 2.11 6.627 1.771 13.614 4.31 20.156 2.834 7.303 6.529 13.159 8.112 20.924 1.682 8.253-1.639 15.469-5.273 23.003-3.88 8.045-11.163 16.001-18.389 21.057-9.47 6.626-20.504 10.146-29.863 16.769-18.611 13.171-34.744 30.292-50.878 46.689-10.169 10.335-20.438 19.519-29.109 31.361-5.515 7.532-8.487 14.752-11.875 23.245-2.415 6.055-4.487 11.217-4.908 17.852-.374 5.902-1.984 13.478-5.604 18.422-4.364 5.959-15.828 3.62-21.494 1.392-16.068-6.32-30.769-16.419-46.744-22.883-7.47-3.022-15.08-3.217-23.064-3.076-3.912.069-8.333-.652-12.215.31-6.679 1.653-12.174 7.511-13.8 14.25-1.191 4.938-.81 9.746-1.177 14.751-.359 4.881-1.878 9.596-2.32 14.47-.873 9.634 3.976 16.332 11.218 21.562 7.966 5.753 17.671 8.037 26.692 11.466 6.743 2.563 14.702 1.678 21.882 1.546 6.371-.117 8.51 3.723 12.293 8.866 6.811 9.258 11.622 21.33 16.032 32.125 4.776 11.689 15.073 17.455 24.501 24.373 2.232 1.638 4.966 4.614 4.622 7.851-.661 6.225-13.609 4.878-17.703 3.857-7.353-1.834-11.726-8.286-16.276-13.918-5.216-6.455-10.724-13.651-17.201-18.725-5.244-4.107-11.354-6.666-16.87-10.316-5.665-3.748-10.772-8.073-16.794-11.254-5.505-2.908-11.258-5.282-17.002-7.641-7.738-3.177-14.355-7.649-21.32-12.255-17.834-11.794-36.762-21.077-51.934-36.596-4.212-4.308-7.871-11.318-10.581-16.961-1.86-3.875-1.615-8.545-3.617-12.241-4.039-7.457-13.521-12.514-19.911-17.241-5.46-4.039-11.792-6.651-16.961-11.06-17.129-14.616-25.577-34.404-32.013-56.076-1.242-4.184-2.885-8.374-3.141-12.794-.236-4.074.21-8.034-.23-12.117-1.297-12.024-2.266-23.701-5.388-35.291-2.728-10.124-4.798-20.737-8.737-30.375-3.795-9.287-9.656-18.805-15.519-26.746-6.103-8.266-13.034-16.346-19.642-24.146-1.88-2.219-3.46-4.892-5.963-6.357-2.264-1.326-4.175-1.746-6.209-3.517-2.892-2.518-5.795-4.243-8.984-6.334-4.48-2.938-7.933-6.7-12.942-8.887-9.995-4.363-20.589-7.803-30.319-12.62-6.531-3.233-14.278-4.74-21.309-6.805-8.339-2.449-16.352-3.039-25.06-3.074-8.647-.035-14.836.585-22.284 6.216-9.239 6.985-17.18 13.978-24.709 22.954-5.047 6.017-10.855 10.709-18.113 13.55-4.229 1.655-8.231 4.167-12.345 5.802-2.061.819-3.624.528-5.764.724-4.867.445-11.469 4.352-13.539-1.259-.929-2.518-1.283-7.45.006-10.048 1.06-2.136 3.594-3.442 4.805-5.61 2.605-4.664 2.605-9.207.037-13.366-1.297-2.101-2.881-3.607-4.413-5.469-2.431-2.954-2.356-6.458-3.107-10.266-1.312-6.649-4.005-12.039-3.538-19.018.314-4.689 1.378-11.471 4.351-15.5 2.029-2.75 5.661-4.792 7.161-8.097C1323.559 902.362 1323.495 897.195 1327.647 882.583zM1861.3 1380.773c-.491-9.881 1.744-21.854 4.882-31.322.805-2.428 2.141-6.075 3.801-8.084 1.591-1.925 2.883-2.33 5.262-3.485 7.013-3.403 13.976-5.077 21.625-4.999 3.584.036 7.192-.176 10.771-.081 4.674.125 8.954 2.735 13.068 4.939 5.449 2.919 11.83 5.412 17.003 8.741 3.397 2.186 5.638 5.84 8.529 8.632 7.384 7.129 16.565 9.255 26.523 9.116 3.903-.055 8.014-.403 11.868.297 4.955.899 8.031 3.68 12.202 6.278 5.026 3.132 10.565 5.194 15.842 7.799 8.853 4.371 17.584 10.252 25.869 15.716 7.543 4.974 13.966 10.731 20.452 17.051 5.813 5.665 12.598 9.922 18.839 15.101 4.516 3.747 9.209 7.141 14.021 10.476 5.025 3.483 10.626 5.338 15.469 9.248 6.225 5.026 10.07 8.083 10.904 16.52.613 6.2 1.278 11.89 1.217 18.302-.033 3.466.118 6.432-.999 9.753-1.637 4.871-4.793 9.034-6.657 13.783-1.867 4.756-1.799 10.068-4.06 14.685-2.037 4.159-3.232 8.209-4.947 12.495-4.907 12.257-11.192 24.151-18.013 35.405-3.404 5.617-7.781 9.94-11.472 15.284-3.697 5.352-7.103 8.914-11.919 13.097-3.468 3.012-7.434 5.071-10.886 8.059-5.208 4.508-9.433 10.217-14.614 14.812-12.141 10.765-23.382 22.34-34.859 34.029-3.27 3.33-5.813 7.294-8.976 10.706-2.754 2.971-5.563 5.768-8.384 8.668-3.587 3.687-6.798 7.808-10.288 11.612-3.094 3.373-6.522 6.244-9.686 9.517-3.912 4.048-6.87 8.945-10.837 12.941-2.929 2.95-6.869 5.422-9.58 8.529-1.308 1.499-2.183 3.327-3.364 5.055-2.33 3.409-4.87 6.6-7.091 10.203-1.207 1.957-2.047 4.147-3.169 6.15-2.022 3.611-4.91 6.42-7.056 9.912-1.605 2.61-2.466 5.664-4.131 8.27-1.515 2.373-3.524 4.203-4.819 6.788-1.867 3.725-1.245 7.287-1.87 11.23-1.003 6.338-1.784 11.78-1.963 18.247-.173 6.261-.291 12.529-.515 18.797-.104 2.909.004 5.24.569 7.975.781 3.777 2.349 4.455 4.696 7.281 2.919 3.516 5.418 7.423 5.38 12.565-.073 9.908-12.589 14.751-19.899 15.598-12.814 1.485-32.78-.568-38.485-14.988-2.292-5.793-2.955-11.7-2.726-18.059.408-11.3 5.532-19.585 10.726-29.297 3.939-7.365 8.312-14.438 12.223-21.808 3.51-6.614 5.232-12.495 7.484-19.459 1.378-4.259 3.089-7.939 4.038-12.34 1.164-5.396 1.247-10.743 2.718-16.11 1.55-5.655 3.817-10.655 4.736-16.559.999-6.416 1.464-13.015 2.02-19.466 2.17-25.181 5.27-49.75.907-74.52-3.111-17.66-7.019-35.042-10.606-52.44-2.615-12.686-8.674-24.392-15.451-34.81-6.913-10.626-17.394-18.073-24.214-28.573-1.567-2.412-3.258-4.643-4.922-7.04-2.847-4.102-2.893-8.159-3.525-13.08-1.793-13.966-1.436-28.857-.995-43.003.248-7.962-.524-16.158 2.331-23.606C1848.391 1401.831 1851.44 1401.631 1861.3 1380.773zM2087.184 940.853c-4.671-2.062-8.348-6.605-12.153-9.895-4.46-3.857-8.642-6.919-11.694-12.12-5.593-9.531-12.697-17.933-16.665-28.396-3.005-7.923-4.689-15.795-7.085-23.857-1.194-4.018-1.812-8.155-2.828-12.223-1.458-5.833-1.041-11.435-3.693-16.928-9.184-19.02-30.918-23.999-43.693-39.431-2.676-3.233-4.131-6.527-6.071-10.31-3.329-6.492-7.612-11.909-13.369-16.571-4.627-3.748-10.168-8.258-15.31-11.19-3.886-2.216-8.287-2.877-12.236-4.867-4.353-2.193-8.62-2.278-13.357-3.655-5.855-1.702-12.153-7.871-16.456-12.139-3.328-3.302-6.009-8.345-3.227-13.488 1.753-3.242 6.314-6.536 8.941-9.04 3.096-2.952 5.307-4.416 9.509-4.975 9.101-1.211 18.375-2.786 27.524-3.358 5.55-.347 11.394-.573 16.87-1.768 5.539-1.208 9.903-4.539 15.472-5.638 6.925-1.368 12.653-2.062 19.425-4.496 6.309-2.268 11.052-5.035 16.897-8.072 10.636-5.527 22.934-8.879 32.948-15.454 6.219-4.083 11.292-5.842 18.799-6.149 12.656-.518 25.042-1.63 37.701-2.682 14.61-1.214 29.531-.306 44.172-.306 19.389 0 40.037-1.757 59.284.341 6.942.757 15.071.027 21.433 3.031 3.745 1.768 6.147 4.563 9.779 6.21 6.59 2.989 18.395 4.176 22.01 11.141 1.846 3.556 3.948 7.673 4.108 11.763.373 9.526-.832 17.664-3.715 26.679-2.379 7.442-8.185 13.916-12.368 20.443-4.751 7.413-9.702 14.669-14.431 22.13-4.934 7.785-9.136 16.104-12.059 24.835-1.255 3.747-3.133 6.902-4.003 10.82-1.401 6.307-2.857 12.391-5.146 18.487-3.178 8.468-6.41 16.068-12.821 22.506-8.163 8.197-16.485 10.7-27.401 13.73-5.716 1.587-10.743 2.785-16.643 3.137-4.104.245-8.724.47-12.705 1.842-8.319 2.867-16.798 7.732-24.655 11.807-4.51 2.34-8.061 5.137-12.011 8.345-3.831 3.111-8.212 5.074-11.367 8.95-2.949 3.624-6.36 8.626-7.8 13.012-1.192 3.63-1.016 7.171-1.676 11.015C2094.812 917.61 2091.462 921.325 2087.184 940.853z" class="color8380b7 svgShape"/><path fill="#8380b7" d="M1580.496 821.558c-2.999-3.17-7.418-6.228-10.01-9.624-2.55-3.34-2.779-9.679-2.681-13.752.09-3.699-.757-8.276 2.221-10.901 3.406-3.003 10.931-6.102 15.381-6.299 4.465-.198 7.971-.328 12.313-1.304 4.202-.945 9.874-.493 13.996.133 9.844 1.494 21.169 5.124 31.478 2.686 1.123-4.118-1.278-12.507 1.723-15.43 4.831-4.707 17.549-.647 21.82 1.664 7.482 4.047 15.952 6.972 22.61 12.445 4.78 3.93 9.352 7.63 16.125 5.931 1.271-2.943 2.031-9.444 2.333-12.488.522-5.268.268-10.625.549-15.9.449-8.445 5.999-17.165 14.745-17.933 3.104-.273 5.984-1.029 9.055-1.383 3.064-.354 6.094.265 9.135-.047 2.428-.249 5.857-1.057 8.175-1.708 3.454-.97 8.507-4.105 11.751-5.992 5.49-3.194 10.849-9.227 13.517-14.901 3.286-6.99 2.117-15.866 9.556-19.759 9.464-4.953 20.754-2.706 30.686-4.035 5.037-.674 9.23-3.695 14.15-5.011 5.548-1.484 11.043-.876 16.438-3.315 4.831-2.184 8.788-5.822 13.411-8.254 3.788-1.993 7.93-1.878 11.964-2.765 3.386-.745 6.599-2.053 9.922-2.94 8.327-2.224 18.058-.695 26.641-.695 11.585 0 23.171 0 34.756 0 4.154 0 17.266-1.955 10.767 6.138-2.497 3.11-7.681 4.45-11.013 6.563-5.784 3.669-12.592 5.428-18.751 8.343-13.749 6.506-26.53 14.398-38.665 23.794-12.889 9.98-24.839 20.166-25.2 37.166-.112 5.294 1.743 12.498-4.906 13.676-11.224 1.988-22.916-4.295-33.663-5.923-8.006-1.213-16.294-.93-24.203-2.238-4.073-.673-7.132-2.172-11.295-.506-3.191 1.277-4.471 3.75-5.269 7.006-1.874 7.653 8.57 7.818 13.993 7.935 6.512.14 13.103-.149 19.629-.147 3.139.001 6.406-.257 9.523-.036 1.926.137 2.393.773 3.979 1.206 4.922 1.345 9.958.983 14.761 3.1.977.431 2.862 1.069 3.573 1.896 1.02 1.185.65 2.66 2.3 3.46-1.274 3.936-14.233 6.752-17.889 7.297-2.765.413-5.528.212-8.297.16-2.909-.055-5.722-1.064-7.539 1.789-1.15 1.807-.865 7.145.275 8.733 5.552 7.736 21.791 5.026 30.019 5.026 13.343 0 26.007-.72 38.852 2.729 20.169 5.415 37.153 19.884 51.07 35.138 5.788 6.345 8.225 14.055 12.232 21.441 3.026 5.577 3.596 9.723 4.59 15.975.687 4.321.542 8.328.418 12.722-.086 3.043.837 7.977-1.261 10.692-2.545 3.291-9.275 3.003-12.705 3.122-7.423.257-15.831.84-23.143-.395-4.392-.742-6.003-2.355-9.512-4.446-3.037-1.81-6.055-2.268-8.811-4.642-6.706-5.779-6.757-13.771-9.869-21.593-2.409-6.052-6.794-10.779-10.348-16.097-3.826-5.727-8.237-11.503-13.63-15.797-9.384-7.469-22.614-12.538-34.563-12.336-4.984.084-9.51-.534-14.126 1.52-2.972 1.322-3.016 1.07-2.841 4.721.124 2.585 1.098 3.913 1.717 6.357-1.855 2.536-9.231 1.818-12.253 1.527-4.517-.434-8.968-2.38-13.235-3.751-13.57-4.359-27.509-7.395-41.518-10.074-7.493-1.433-13.488 2.292-20.593 4.068-4.424 1.106-8.947.5-13.458 1.868-4.801 1.456-8.124 1.559-13.132 1.575-15.361.05-29.698-3.459-44.152-7.902-6.001-1.845-12.141-2.473-18.373-3.227-6.131-.742-8.698-1.886-14.755.189-5.083 1.741-9.474 1.558-14.828 1.558-2.871 0-6.449.595-9.249.075C1594.169 828.925 1592.234 826.63 1580.496 821.558zM3547.781 846.422c-7.031-4.014-89.667-4.169-97.092-4.169-8.496 0-16.991 0-25.488 0-4.668 0-9.343.165-14.014.071-11.567-.233-23.362-4.15-34.763-6.375-9.375-1.83-18.723-3.312-28.003-5.66-6.985-1.767-14.049-3.681-21.08-5.125-10.429-2.142-21.045-3.364-31.569-4.507-9.807-1.066-19.646-3.307-29.491-3.426-18.393-.222-36.525-.518-54.911-3.326-7.409-1.131-14.915-2.2-22.286-3.615-7.236-1.389-14.955-2.542-22.041-4.57-10.883-3.115-21.628-6.737-32.432-10.111-4.31-1.346-8.803-1.859-13.081-3.253-2.328-.758-4.503-1.864-6.875-2.487-5.124-1.347-10.671-2.414-15.906-2.68-3.916-.2-7.265-1.846-11.26-2.038-.868-5.143-.444-10.865-.593-16.07-.053-1.862.678-4.887-.385-6.489-2.375-3.581-10.413-5.265-14.29-6.45-5.787-1.769-11.333-4.043-17.272-5.238-3.919-.788-7.865-.956-11.807-1.455-10.738-1.358-22.209-.923-32.601 1.717-20.01 5.085-40.27 9.056-59.641 16.338-13.607 5.115-28.438 8.465-39.292 18.647-2.417 2.268-4.781 4.734-7.014 7.201-2.655 2.933-4.638 6.646-7.659 9.227-1.899 1.623-4.22 3.075-6.415 4.23-2.968 1.562-4.868 1.799-8.088 2.332-3.141.52-5.85 2.476-8.99 2.904-2.689.367-5.457-.055-8.182.269-9.787 1.162-20.01 1.956-29.576-1.273-2.482-.838-5.502-1.259-7.694-2.681-1.403-.91-2.158-2.663-3.501-3.622-1.806-1.29-5.197-1.476-7.26-1.763-4.507-.628-9.877-.833-14.397-.151-8.54 1.287-18.358 8.745-20.37 17.538-2.122 9.276.875 19.927 1.078 29.374.046 2.112.567 4.585-.707 6.4-1.823 2.597-6.526 2.021-9.349 2.305-14.545 1.461-29.094-.149-43.669-.667-9.292-.33-18.393-1.882-27.561.059-6.271 1.328-12.466 2.638-18.457 4.951-7.101 2.742-14.354 5.267-21.668 7.392-8.772 2.549-17.453 5.613-26.26 8.023-8.878 2.428-17.88 6.415-26.37 10.076-1.022.441-2.674 1.518-3.796 1.452-2.492-.147-5.919-4.15-7.353-5.808-2.958-3.421-3.502-7.21-3.709-11.436 5.241-1.541 10.801-1.391 16.109-2.861 1.865-.516 4.2-.739 5.366-2.406 1.592-2.276 1.177-7.079 1.136-9.677-.054-3.401.557-5.397-2.937-6.977-1.745-.789-3.902-.901-5.665-1.423-2.983-.884-5.726-2.219-8.572-3.48-7.386-3.275-15.177-5.674-23.031-7.384-7.642-1.664-15.337-3.536-23.169-3.356-6.354.146-12.723.057-19.079.038-11.519-.034-22.553-.175-33.914 2.174-9.562 1.977-17.981 5.15-26.476 9.901-8.116 4.54-12.928 9.728-18.429 17.332-9.687 13.389-18.161 27.696-28.372 40.757-7.135 9.125-14.562 18.498-18.354 29.678-1.499 4.42-2.195 8.713-2.486 13.41-.303 4.884-.913 8.947 1.898 12.834 2.351 3.252 5.204 4.684 9.119 5.76 4.077 1.121 9.141-.022 13.204-.81 4.36-.845 7.269-1.678 10.634-4.055.88-.621.458-1.476 1.721-1.494 1.491-.021 2.087 2.304 2.444 3.367.987 2.939.878 5.53.919 8.519.034 2.448.753 4.233-1.922 5.188-1.224.437-2.775-.093-4.021.333-.929.318-2.031 1.565-2.865 1.931-1.935.849-4.064.665-6.021 1.673-2.529 1.303-5.109 3.507-7.348 5.157-5.618 4.14-7.898 9.103-11.114 15.253-1.33 2.544-2.066 4.002-4.334 5.47-6.257 4.05-13.687 7.012-20.258 10.473-3.916 2.063-7.742 4.233-11.436 6.701-2.524 1.686-5.791 3.314-7.33 6.079-2.053 3.688-2.119 8.613-3.687 12.666-1.262 3.263-3.177 7.536-6.399 9.011-2.446 1.12-7.74 1.161-9.426 3.445-1.018 1.379-1.103 4.535-1.121 6.205-.051 4.644 1.287 7.705 3.676 11.419 2.281 3.547 3.306 4.701 3.949 8.743.576 3.624 1.977 8.993.595 12.575-.745 1.929-3.756 3.811-5.333 4.41-3.624 1.378-9.226-.567-13.024-1.198-3.417-.493-6.803-1.149-10.16-1.97-.561-.131-1.121-.262-1.682-.393-5.204 2-5.378 10.639-6.881 15.13-2.803 8.378-18.306 19.285-10.814 29.021 2.28 2.963 5.333 3.65 8.092 5.703.639.476 2.4 2.927 2.53 3.047 1.179 1.088 4.278 2.352-.311 17.273.246 3.434-3.696 7.248-5.45 9.854-3.537 5.256-6.468 10.531-10.647 15.288-3.601 4.099-5.418 9.306-8.066 14.083-3.317 5.981-6.936 11.512-9.54 17.891-1.776 4.351-4.414 8.188-6.365 12.444-2.351 5.129-4.779 10.366-7.844 15.099-4.625 7.143-9.064 14.161-11.214 22.63-1.57 6.185-1.181 12.313-1.31 18.632-.139 6.822.035 11.705 2.8 18.036 1.91 4.372 4.134 8.704 6.447 12.852 5.149 9.234 9.807 19.084 13.687 29.024 1.564 4.008 2.578 8.128 4.685 11.891 1.611 2.877 3.619 5.281 5.589 7.874 2.258 2.972 3.742 6.724 6.435 9.274 3.403 3.224 6.679 3.514 11.076 3.461 7.85-.094 15.557.28 23.326-.855 5.719-.835 11.697-.995 17.455-1.354 4.643-.289 8.204-2.703 12.521-4.376 4.722-1.829 8.899-4.048 13.915-4.806 1.496-.226 3.684-.225 5.027-.959.984-.538 1.503-2.001 2.335-2.629 2.358-1.779 7.108-1.98 9.954-2.476 2.258-.393 5.133-.593 7.413-.224 4.019.651 6.594 4.316 9.281 7.164 2.938 3.115 5.09 5.723 7.359 9.324 1.771 2.81 2.837 5.009 4.105 8.202 1.508 3.797 3.807 7.092 6.12 10.426 4.086 5.891 6.752 12.273 9.19 19.191 1.287 3.652 2.553 7.46 4.236 10.908 1.838 3.768 4.309 7.225 6.087 11.01 2.091 4.451 4.447 8.258 4.394 13.402-.08 7.836-.019 15.682-.017 23.532.002 5.16.005 10.322.005 15.487 0 3.362.278 6.849.058 10.202-.239 3.637-1.148 6.779-1.119 10.513.078 10.091-.238 20.327 2.828 30.053 1.665 5.282 4.819 10.314 7.044 15.335 1.995 4.501 4.896 7.719 7.183 12.016 4.294 8.067 9.509 15.258 13.025 23.869 3.088 7.562 3.483 15.247 5.047 23.12 1.201 6.045.842 12.082 3.158 17.872 3.849 9.62 10.715 16.308 20.045 19.409 4.869 1.618 10.283 3.777 15.373 4.32 5.483.584 12.724 1.409 18.108-.231 8.855-2.696 16.11-10.68 19.483-19.337 3.353-8.606 7.473-16.961 10.508-25.715 1.777-5.127 2.669-10.481 4.623-15.549 2.09-5.42 4.048-10.35 5.449-16.033 2.384-9.67 7.443-18.702 11.193-27.783 2.017-4.885 3.915-9.979 6.168-14.729 3.51-7.401 9.63-13.305 13.528-20.544 2.566-4.765 5.147-9.726 8.515-13.904 3.033-3.764 5.422-7.437 7.331-11.992 3.676-8.772 2.301-18.375 3.882-27.57 1.499-8.721-.095-17.957 2.417-26.484 2.948-10.01 9.385-19.886 15.454-28.014 4.86-6.509 11.439-11.47 16.003-18.199 2.566-3.783 4.653-7.075 7.834-10.373 3.771-3.911 7.026-7.797 9.85-12.551 3.606-6.072 6.247-11.991 8.916-18.51 1.269-3.099 2.868-6.71 3.354-10.072.599-4.153-2.881-9.829-6.415-11.646-2.502-1.287-5.858-1.422-8.557-2.14-2.957-.787-5.298-1.451-8.36-1.39-3.634.072-5.156.149-8.605-1.866-6.336-3.702-12.75-8.571-18.688-12.99-5.376-4.001-9.485-9.547-14.384-14.123-2.057-1.922-4.362-3.523-6.266-5.617-2.224-2.444-3.697-5.185-5.334-8.058-2.845-4.99-5.297-10.161-7.951-15.259-3.124-6.003-4.804-12.403-7.439-18.605-2.519-5.928-4.877-11.882-7.284-17.855-1.323-3.284-2.317-5.867-2.358-9.327-.035-2.984 1.112-3.237 4.049-3.342 2.275-.082 6.494-.597 8.736.22 2.705.986 4.396 4.245 5.997 6.541 3.081 4.418 4.791 9.814 6.396 14.966 1.511 4.849 2.307 9.306 5.263 13.468 2.631 3.704 5.585 6.906 8.547 10.306 4.684 5.376 8.893 11.089 13.301 16.664 3.004 3.799 6.865 6.642 8.412 11.378.661 2.023 1.626 3.21 2.542 5.109 1.056 2.189 1.092 4.569 2.715 6.472 1.68 1.971 4.143 3.246 6.428 4.139 1.932.755 3.724 2.182 5.762 2.521 2.163.36 4.748-.082 6.938-.082 5.861 0 11.722-.022 17.583-.004 3.039.01 5.087.454 7.68-1.18 4.469-2.817 8.856-5.823 13.353-8.623 10.129-6.307 23.443-12.098 29.771-22.973.644-1.107 1.037-2.194 1.517-3.371.54-1.324 1.467-2.044 2.084-3.194.865-1.613 1.383-3.873 1.704-5.73.673-3.886.616-10.078-.466-13.865-1.911-6.689-8.221-10.21-13.774-13.217-6.916-3.745-14.223-5.967-21.772-7.85-3.273-.816-2.059-1.42-3.914-3.805-.935-1.203-2.919-2.419-4.215-3.199-3.521-2.117-7.081-3.417-10.523-5.643-4.306-2.784-8.697-5.404-12.425-9.032-1.417-1.38-3.101-2.814-4.413-4.018-1.888-1.732-3.344-4.169-1.203-7.244 4.578-6.576 15.772.283 20.953 2.993 9.555 4.999 20.141 8.164 30.26 11.763 8.652 3.078 16.025 8.986 25.029 11.358 12.999 3.424 26.544 2.094 39.51 5.175 9.565 2.273 18.202 10.044 24.659 17.41 4.761 5.43 9.123 11.231 13.739 16.802 1.883 2.271 4.071 4.528 5.705 7.051 1.81 2.795 2.88 5.945 4.42 8.889 2.646 5.055 5.525 10.329 7.222 15.832 2.271 7.359 4.091 14.03 7.459 21.013 3.843 7.967 7.228 16.708 14.033 22.467 2.88 2.437 4.644 1.759 8.301.596 6.327-2.013 11.942-5.158 17.233-9.202 6.682-5.107 11.069-16.31 13.125-24.6 1.367-5.511 1.112-11.324 2.586-16.87 1.062-4.001 2.244-8.172 3.829-11.97 1.506-3.611 4.567-6.585 7.073-9.451 4.605-5.266 9.269-10.668 15.166-14.353 3.236-2.022 6.371-4.192 9.588-6.232 1.681-1.066 1.742-1.509 3.844-.076 10.633 7.251 18.032 17.883 27.835 26.17 6.55 5.537 11.221 13.139 16.215 20.157 2.93 4.117 5.678 8.661 7.76 13.32 2.498 5.591 3.247 12.455 3.769 18.499.774 8.974-.499 18.462.823 27.377.806 5.433 5.624 8.927 6.893 14.027 4.289-1.903 5.482-9.325 6.936-13.439 1.054-2.983 2.42-5.907 3.771-8.744 1.989-4.176 3.544-9.086 6.173-12.825 1.63-2.319 4.415-7.165 6.879-8.583 4.358-2.509 7.047.692 10.245 3.537 5.467 4.864 10.114 3.573 16.063 1.358 4.822-1.795 7.825-5.021 9.345-10.15.889-3 1.51-6.291 1.544-9.455.053-5.086.566-11.731-.66-16.685-1.666-6.727-6.99-12.08-10.768-17.484-1.778-2.545-4.524-5.144-.11-6.77 3.592-1.323 8.366-2.169 12.143-2.758 4.359-.68 9.026-1.053 13.437-1.259 8.525-.398 14.491-4.788 21.577-8.992 4.58-2.717 8.891-5.953 13.089-9.248 3.921-3.078 6.836-6.962 10.347-10.462 3.554-3.542 4.275-6.733 5.945-11.318 1.046-2.871 2.489-5.949 3.838-8.662 1.1-1.828 2.107-3.711 3.022-5.651.817-2.35 1.495-4.747 2.032-7.192 2.557-7.589 4.977-16.022 4.88-24.278-.089-7.631-1.764-15.108-2.004-22.767-.236-7.554-1.438-15.845-7.277-21.315 2.889-4.072 7.447-6.88 11.248-10.004 2.045-1.681 2.892-1.525 5.414-1.907 1.746-.265 3.188-1.243 4.976-1.235 4.029.018 7.953 3.752 11.523 5.548 1.699.855 4.169 1.334 5.297 2.781 1.503 1.927 2.122 4.446 3.799 6.443 1.966 2.34 4.054 4.278 5.663 6.914 2.081 3.41 3.082 7.209 4.909 10.735 1.163 2.244 2.437 5.68 5.152 6.394 3.95 1.04 8.396-4.752 9.957-8.191 1.146-2.524.469-7.288-.106-9.963-1.109-5.163-4.698-9.677-5.521-14.968-.565-3.64 1.783-4.855 4.36-7.157 3.637-3.249 7.007-6.742 10.531-10.076 2.359-2.232 5.28-2.896 8.052-4.112 4.243-1.862 8.899-3.6 13.104-5.793 3.955-2.062 7.173-4.91 10.051-8.298 2.75-3.238 5.083-6.792 7.691-10.139 1.13-1.45 2.679-2.686 3.774-4.159 1.497-2.013 2.045-4.911 2.932-7.25 4.577-12.08 7.803-24.183 14.482-35.229 1.795-2.969 2.825-8.254 1.82-11.825-.884-3.14-3.217-5.353-5.135-7.811-2.171-2.782-3.232-5.771-3.703-9.188-.461-3.345-1.698-6.553-1.312-9.909.416-3.619 2.24-6.13 4.23-8.956 6.06-8.607 15.388-14.769 24.478-19.589 5.387-2.857 10.409-6.417 15.934-9 8.807-4.118 18.781-5.063 27.745-8.697 6.316-2.561 12.768-4.504 19.046-7.052 9.992-4.055 20.362-7.654 30.977-9.832 5.624-1.154 11.4-.741 17.174-.743 2.93-.001 8.37-1.213 11.139.232-4.136 2.979-7.582 8.04-11.191 11.992-6.017 6.59-12.742 12.474-18.735 19.062-10.904 11.988-20.12 28.217-19.599 45.527.115 3.801-.383 8.906 3.414 11.149 2.859 1.689 7.417 1.33 10.234.344 6.134-2.148 10.249-11.087 14.112-15.799 6.154-7.508 12.515-14.722 19.44-21.455 3.648-3.547 6.104-7.727 8.349-12.32 1.562-3.196 1.714-6.597 2.704-9.98 1.079-3.687 1.595-7.757 2.977-11.289.541-1.383 1.306-2.607 1.92-3.947.579-1.261.77-3.055 1.526-4.173.72-1.065 2.247-2.568 3.154-3.497 2.872-2.944 6.209-5.949 9.261-8.745 6.166-5.65 12.151-12.014 16.35-19.335 4.024-7.017 104.491-12.843 106.25-20.816C3580.919 886.45 3552.895 849.341 3547.781 846.422zM2608.71 1160.212c-.166 3.78-1.761 6.918-3.488 10.168-3.13 5.895-9.039 11.802-15.099 14.277-9.881 4.036-21.406 3.752-31.853 3.704-3.255-.015-7.043.592-10.284-.114-2.106-.458-4.136-1.505-6.236-2.054-6.698-1.75-13.635-2.946-20.543-2.9-2.701.018-5.409.071-8.111.008-1.852-.043-3.298-.233-4.875.934-2.267 1.676-4.275 4.269-5.752 6.689-1.489 2.439-2.433 5.578-4.4 7.667-1.726 1.833-3.701 2.037-6.048 2.068-3.19.043-6.45.195-9.626-.095-7.384-.674-12.241-6.534-17.685-11.1-5.691-4.773-11.997-8.583-17.944-12.949-3.183-2.336-3.447-6.806-4.553-10.451-1.545-5.09-1.79-10.997-4.784-15.5-1.993-2.997-4.987-4.518-8.297-5.456-3.77-1.068-8.175-2.008-12.107-2.135-3.807-.123-7.624.205-11.319 1.172-5.048 1.321-10.442 2.26-15.347 3.988-3.31 1.165-6.893 2.155-10.076 3.66-2.447 1.157-4.603 2.905-7.003 4.137-4.966 2.548-10.529 4.225-15.807 6.033-2.447.838-5.71 1.259-11.105 2.628-1.292-3.346-2.536-7.386-.558-10.767 1.413-2.415 4.19-4.514 6.154-6.449 2.501-2.465 5.227-4.066 8.517-5.1 2.345-.738 8.305-1.1 9.469-3.924.462-1.121.416-3.52.703-4.663.923-3.675 1.798-7.371 3.577-10.713 1.984-3.727 4.913-6.841 7.975-9.639 3.559-3.251 7.787-5.624 11.185-9.067 3.908-3.96 8.86-6.001 13.628-8.75 2.321-1.338 4.494-2.977 6.85-4.234 2.703-1.441 5.555-1.822 8.536-2.138 2.948-.313 6.087-.86 9.057-.64 3.665.271 6.104 3.384 8.495 5.929 5.516 5.869 8.604 13.43 13.723 19.621 1.25 1.511 2.853 3.693 5.043 3.357 2.206-.339 3.332-3.543 4.098-5.432 1.287-3.172 2.206-6.434 1.785-9.898-.609-5.006-5.094-8.313-7.81-12.046-1.081-1.486-2.278-3.396-2.49-5.318-.244-2.209 1.008-1.699 3.058-2.292 3.954-1.144 7.949-2.616 11.744-4.228 2.137-.908 4.343-2.628 6.604-3.108 1.945-.412 3.554.337 5.169 1.458 3.218 2.235 6.689 4.795 8.772 8.216 3.504 5.756 4.716 12.844 8.045 18.742 3.917 6.941 9.872 11.55 17.306 13.742 5.708 1.683 14.156 3.744 20.088 1.35 2.26-.911 4.095-2.545 6.255-3.609 2.341-1.153 5.115-.712 7.537.145 13.78 4.879 4.623 25.05 14.047 33.987 2.803 2.658 6.861 3.122 10.457 3.231 4.584.139 9.204.143 13.784-.038 5.24-.208 10.253-1.379 15.49-1.379 2.667 0 4.395-.731 5.493 2.137C2608.964 1155.198 2608.809 1157.95 2608.71 1160.212z" class="color8380b7 svgShape"/><path fill="#8380b7" d="M2706.142 1514.814c-.075-2.424.229-4.813-.364-7.203-.815-3.29-2.216-7.139-4.112-9.903-2.118-3.086-5.286-4.557-8.957-3.707-6.099 1.412-7.969 9.177-10.621 14.113-1.508 2.806-2.683 5.227-4.86 7.517-1.527 1.607-3.286 2.792-4.845 4.351-3.315 3.315-6.145 7.094-9.399 10.463-3.627 3.755-6.277 8.927-5.907 14.474.29 4.348 2.622 8.061 3.042 12.365.359 3.685-1.404 5.187-2.269 8.364-1.081 3.971-.38 8.799-.353 12.877.025 3.721-.381 5.94 2.973 7.625 2.727 1.37 5.489 1.965 8.479 1.112 2.826-.806 5.1-2.975 7.71-4.287 5.439-2.734 9.018-9.028 11.864-14.46 3.46-6.605 5.375-13.795 8.73-20.481 2.208-4.402 4.687-8.616 7.059-12.893 1.084-1.955 2.079-3.875 2.02-6.119C2706.286 1527.259 2705.458 1522.67 2706.142 1514.814zM2998.857 1374.785c4.137 5.866 10.44 10.117 15.132 15.587 2.74 3.194 5.433 6.316 8.551 9.138 2.702 2.445 5.573 4.714 7.888 7.597 2.937 3.658 5.678 7.462 7.745 11.706 2.12 4.354 5.211 8.217 7.575 12.464 1.209 2.172 2.42 4.302 4.097 6.139 1.038 1.137 2.237 1.891 3.064 3.192 1.611 2.534 3.526 4.575 5.528 6.744 1.409 1.527 2.864 2.238 4.848 2.682 2.091.469 4.043.461 5.181-1.333 2.051-3.237 1.405-7.475.425-11.126-1.862-6.942-6.01-12.352-10.177-17.912-2.147-2.865-3.864-6.092-6.258-8.754-2.821-3.137-6.098-5.677-9.403-8.203-4.804-3.672-9.257-7.94-14.306-11.211-2.34-1.516-4.318-2.804-6.369-4.658-.895-.809-1.78-1.646-2.67-2.402-1.789-1.518-3.405-3.304-5.271-4.701-2.281-1.708-4.994-3.484-7.49-4.805-1.447-.766-3.4-.889-4.758-1.79C3001.319 1372.561 3001.557 1371.375 2998.857 1374.785zM3086.451 1399.086c-.129 2.765-1.201 5.178-1.181 8.052.031 4.341-.216 9.18 1.431 13.313 2.137 5.36 5.775 7.047 10.394 9.055.955.647 1.946 1.223 2.973 1.73 1.488.418 2.984.791 4.489 1.12 2.855.638 5.454.711 8.32.703 3.922-.011 7.633-.379 11.179-2.18 2.033-1.033 3.671-2.594 5.637-3.735 1.534-.891 2.662-1.828 3.919-3.105 1.652-1.677 2.771-3.781 4.14-5.705 1.568-2.204 2.303-4.386 3.47-6.78.532-1.092 1.223-2.018 1.656-3.213.797-2.2.319-4.177.584-6.474.597-5.155.013-9.43-1.063-14.534-.559-2.652-.889-5.867-.481-8.544.281-1.844 1.054-3.418 1.06-5.459.004-1.273.176-3.2-.257-4.428-.791-2.243-3.897-3.61-5.794-4.277-4.114-1.446-8.363-1.588-12.617-1.646-3.859-.052-8.893-.901-12.356 1.213-4.436 2.708-6.64 8.261-6.673 13.622-.01 1.595.482 3.313.114 4.88-.355 1.508-1.611 3.596-2.491 4.822-1.535 2.139-3.658 3.905-5.642 5.486C3095.812 1394.157 3093.867 1395.927 3086.451 1399.086zM3254.473 1428.626c-.224-.604-.608-1.06-1.152-1.367 1.073-.57 4.492-.117 5.346-.112 1.338.008 2.8.19 4.126.036 2.21-.258 3.461-1.583 5.115-2.929 1.059-.862 2.09-1.238 3.15-1.891.409-.252.524-.734 1.034-.966 1.123-.511 3.923-.558 5.113-.736 8.571-1.287 17.507.552 25.591 4.177 5.728 2.568 11.597 5.143 17.102 8.26 3.055 1.73 5.43 4.082 8.607 5.525 5.3 2.406 11.178 3.937 16.872 4.095 3.159.087 6.302-.234 9.463.12 3.689.413 7.759.596 11.397 1.339 1.585.324 1.887 1.152 2.174 3.094.519 3.515-.782 5.864-2.958 8.252-1.215 1.333-2.376 2.965-4.205 3.396-1.455.343-3.095.098-4.584.086-3.168-.024-6.485.349-9.646-.189-.925 1.074-.872 4.709-.192 6.05.525 1.035 1.532 1.641 2.294 2.46 2.007 2.159 4.103 4.09 5.793 6.562 1.206 1.764 2.611 4.132.862 5.983-2.206 2.334-7.471 1.492-10.29 1.481-4.305-.017-8.284-1.112-12.235-3.1-.666-.335-2.105-.957-2.721-1.591-.943-.97-1.05-1.462-2.361-2.048-1.812-.81-3.558-1.902-5.451-2.508-1.258-.403-4.621-1.215-5.769-.371-.553.406-.983 1.558-1.57 2.081-1.114.995-2.427 2.647-3.68 3.371-.996.576-2.807.729-3.97.956-.814.159-1.845.333-2.698.25-4.575-.443-8.518-7.063-11.653-10.185-5.832-5.806-10.11-13.019-16.283-18.487-2.74-2.427-6.469-4.561-9.951-5.441-1.647-.417-2.748-.298-4.547-.965-2.352-.872-4.832-1.622-6.969-3.027-1.647-1.083-3.154-1.859-4.913-2.635-1.093-.482-2.272-1.147-2.855-2.35C3247.032 1433.6 3246.17 1430.704 3254.473 1428.626zM3230.396 1491.705c-4.153 4.418-5.338 9.939-7.302 15.663-.195.568-.269 1.79-.542 2.262-.397.684-1.347.957-1.936 1.43-1.564 1.254-2.144 1.937-4.291 1.406-2.222-.55-4.277-2.598-6.322-3.656-2.411-1.247-5.333-.673-7.881-.725-6.327-.129-10.36 6.988-11.978 12.739-.881 3.132-2.471 5.551-4.267 8.18-1.458 2.133-2.366 4.649-3.876 6.732-1.251 1.727-3.029 2.584-4.766 3.669-2.857 1.784-5.631 3.705-8.368 5.683-4.425 3.199-8.901 6.901-13.742 9.381-3.882 1.989-7.812 3.844-12.158 4.424-1.873.25-3.521.576-5.329.959-1.842.389-3.331 1.715-4.825 2.802-3.786 2.755-6.91 8.311-7.98 13.092-1.052 4.698-.516 10.554-.092 15.443.29 3.345 1.184 7.057 3.04 9.848 1.751 2.635 2.498 6.059 3.863 8.985 2.196 4.707 3.003 9.75 4.069 14.747 1.103 5.173 1.26 10.43 1.448 15.678.149 4.14-.42 7.97-.276 12.087.149 4.266-.306 7.318 3.312 10.082 2.485 1.898 4.81 1.887 7.651 1.884 8.105-.01 15.812-.242 23.347-3.416 9.047-3.811 15.862-11.402 24.895-15.359 4.156-1.82 8.259-3.06 12.789-3.158 4.397-.095 9.217-1.153 13.287-2.691 3.848-1.455 8.021-2.039 11.929-3.419 3.036-1.072 6.533-1.57 9.714-2.078 2.247-.359 4.687-.338 6.903.443 2.4.847 4.246 2.315 5.952 4.286 1.767 2.042 3.927 4.179 5.338 6.516 2.328 3.859 2.194 9 5.564 12.074 1.869 1.705 3.477 1.69 5.84 1.557 3.331-.187 7.328-2.808 10.691-1.692 1.277.423 2.663 2.795 3.393 3.732 2.049 2.63 4.051 5.252 6.319 7.679 3.137 3.356 6.661 6.722 9.216 10.53 1.002 1.493 1.817 3.366 2.951 4.736 1.113 1.344 2.606 1.906 3.634 3.396 1.906 2.765 3.467 4.257 6.592 5.581 8.338 3.533 16.321 3.18 25.046 3.18 3.173 0 6.928.491 10.03-.112 3.611-.702 7.823-2.98 11.114-4.622 5.113-2.552 12.76-5.929 15.051-11.729.635-1.608.562-3.028.707-4.717.268-3.117 1.073-6.073 1.379-9.179.319-3.228.24-6.51.505-9.74.3-3.669 1.427-6.674 2.945-9.885 2.188-4.629 3.271-9.669 4.965-14.528.724-2.078 2.028-3.815 2.618-5.946.475-1.713.465-3.584.82-5.328 1.831-8.985.109-19.326-3.747-27.857-1.985-4.391-3.299-9.077-6.447-12.801-2.731-3.231-5.434-6.443-8.979-8.698-3.308-2.104-6.746-3.608-9.601-6.454-3.397-3.387-7.037-5.961-10.244-9.617-3.881-4.425-7.725-8.54-12.014-12.499-5.229-4.826-7.515-11.191-9.303-17.963-.884-3.348-2.168-6.633-3.104-9.981-1.073-3.837-2.628-7.063-4.628-10.481-.387-.661-.437-.956-.862-1.568-.345-.498-1.011-1.176-1.432-1.625-2.582-2.756-5.459-5.208-8.049-7.928-1.759-1.847-4.029-3.011-6.297-.771-.632.624-1.54 3.186-1.819 3.952-.609 1.671-.821 3.64-.802 5.449.063 5.963 1.191 12.915-1.215 18.395-2.991 6.813-10.704 7.452-17.325 6.521-5.672-.797-9.671-3.807-13.505-8.083-1.632-1.821-3.781-3.876-5.031-6.011-.945-1.614-.533-3.612-1.209-5.388-1.632-4.288-5.248-7.549-8.796-10.174-2.848-2.108-5.732-4.959-9.007-6.142C3244.909 1489.785 3241.888 1489.52 3230.396 1491.705zM3518.935 1666.022c.291 1.115.798 2.132 1.521 3.05 1.022 1.926 1.926 3.909 2.711 5.947 1.104 2.234 2.643 4.137 3.75 6.364 1.3 2.613 2.557 5.364 4.013 7.889.754 1.307 1.395 1.774 1.611 3.28.353 2.45 1.395 5.187.966 7.647-.203 1.164-.995 2.05-1.136 3.198-.11.9.105 2.14.191 3.084.209 2.282.743 4.086 2.593 5.313 1.601 1.062 2.042.719 2.711 2.896.237.771.206 1.652.915 2.164 2.216 1.603 6.696-2.765 7.837-4.406 1.792-2.575 3.421-4.935 5.491-7.335 3.142-3.644 7.471-4.866 8.2-10.561.401-3.133-.363-6.638-3.649-7.319-2.201-.456-4.183-.525-6.426-.775-3.094-.346-4.317-1.889-6.207-4.463-1.144-1.558-2.9-2.979-3.923-4.478-.422-.619-.708-1.287-1.179-1.977-1.883-2.758-5.614-4.558-8.146-6.541-1.96-1.535-3.922-2.776-5.959-4.147-1.007-.678-1.891-2.107-3.11-1.932C3521.324 1665.331 3521.905 1668.103 3518.935 1666.022zM3485.496 1757.825c.156 3.24.211 6.212 3.876 6.852 2.387.417 5.065.04 7.474.04 1.177 0 2.359.028 3.535.011 1.467-.021 1.247-.003 1.988-1.138.532-.814 1.367-1.526 1.996-2.236 1.706-1.925 3.12-4.158 4.988-5.909 2.193-2.056 4.943-3.025 6.617-5.756.847-1.382 1.78-2.661 2.638-4.024 1.033-1.641 1.078-3.833 1.784-5.66.895-2.315 1.136-4.774 1.551-7.24.491-2.92 1.655-5.988 2.518-8.794.506-1.645.958-3.334.642-5.147-.355-2.032-2.927-2.203-4.557-1.588-1.229.464-1.278 1.312-1.961 2.219-.462.614-1.036.942-1.506 1.601-1.282 1.801-2.17 4.132-3.159 6.135-.722 1.462-1.636 2.707-2.436 4.117-3.301 5.816-8.511 9.592-12.734 14.482C3496.641 1748.234 3493.412 1749.398 3485.496 1757.825z" class="color8380b7 svgShape"/><g fill="#000000" class="color000 svgShape"><path fill="#e7f2f2" d="M2869.096 1854.519c-.844 0-1.544-.738-1.564-1.647l-20.863-963.711c-.018-.821.618-1.487 1.42-1.487.802 0 1.467.666 1.485 1.487l21.014 963.711C2870.608 1853.781 2869.94 1854.519 2869.096 1854.519zM2844.134 705.613c-.794 0-1.452-.653-1.469-1.457l-3.864-178.482c-.017-.789.607-1.429 1.393-1.429s1.438.64 1.455 1.429l3.892 178.482C2845.558 704.96 2844.928 705.613 2844.134 705.613zM3213.612 1993.956c-.85 0-1.568-.748-1.604-1.67l-56.36-1441.806c-.031-.791.583-1.433 1.369-1.433s1.451.642 1.482 1.433l56.586 1441.806C3215.122 1993.208 3214.462 1993.956 3213.612 1993.956zM2544.46 1956.17c-.848 0-1.54-.745-1.544-1.664l-6.912-1404.026c-.004-.791.632-1.433 1.418-1.433s1.429.642 1.433 1.433l7.133 1404.026C2545.993 1955.425 2545.309 1956.17 2544.46 1956.17zM2049.908 1903.072c-.846 0-1.517-.741-1.498-1.655l27.613-1350.937c.016-.791.668-1.433 1.455-1.433.787 0 1.413.642 1.396 1.433l-27.401 1350.937C2051.455 1902.33 2050.754 1903.072 2049.908 1903.072zM1720.566 1434.637c-.825 0-1.468-.706-1.435-1.576l35.66-932.125c.03-.787.691-1.425 1.476-1.425.785 0 1.397.638 1.367 1.425l-35.514 932.125C1722.088 1433.931 1721.391 1434.637 1720.566 1434.637zM1702.682 1903.072c-.846 0-1.503-.741-1.468-1.655l13.804-360.822c.034-.88.734-1.594 1.564-1.594.83 0 1.476.714 1.443 1.594l-13.747 360.822C1704.242 1902.33 1703.527 1903.072 1702.682 1903.072z" class="colore7f2f2 svgShape"/><g fill="#000000" class="color000 svgShape"><path fill="#e7f2f2" d="M1357.23,1469.452c-0.827,0-1.457-0.709-1.407-1.582l52.525-917.39         c0.045-0.791,0.721-1.433,1.508-1.433s1.389,0.642,1.344,1.433l-52.381,917.39         C1358.768,1468.743,1358.057,1469.452,1357.23,1469.452z" class="colore7f2f2 svgShape"/></g></g><g fill="#000000" class="color000 svgShape"><path fill="#e7f2f2" d="M1485.326,675.19c-10.783-7.309-23.798-11.746-38.111-12.019h0l0,0        c-14.313-0.273-27.488,3.665-38.542,10.558c-29.905,18.648-40.694,57.057-25.804,89.001l51.493,110.473        c3.462,7.427,13.95,7.627,17.693,0.337l55.666-108.43C1523.816,733.756,1514.499,694.964,1485.326,675.19z M1445.111,773.501        c-22.162-0.422-39.785-18.731-39.362-40.892c0.423-22.162,18.731-39.785,40.892-39.362s39.785,18.731,39.362,40.892        C1485.581,756.3,1467.273,773.923,1445.111,773.501z" class="colore7f2f2 svgShape"/></g><g fill="#000000" class="color000 svgShape"><path fill="#e7f2f2" d="M3394.003,1399.975c-9.338-6.33-20.61-10.173-33.006-10.409h0l0,0        c-12.395-0.236-23.806,3.174-33.378,9.144c-25.899,16.15-35.242,49.413-22.347,77.078l44.594,95.673        c2.998,6.432,12.081,6.605,15.322,0.292l48.208-93.904C3427.336,1450.695,3419.268,1417.1,3394.003,1399.975z         M3359.176,1485.115c-19.193-0.366-34.455-16.221-34.089-35.414c0.366-19.193,16.221-34.455,35.414-34.089        c19.193,0.366,34.455,16.221,34.089,35.414C3394.224,1470.219,3378.369,1485.481,3359.176,1485.115z" class="colore7f2f2 svgShape"/></g><g fill="#000000" class="color000 svgShape"><path fill="#e7f2f2" d="M2254.939,593.093c-6.299-4.27-13.903-6.862-22.264-7.022l0,0l0,0        c-8.362-0.16-16.059,2.141-22.516,6.168c-17.47,10.894-23.773,33.332-15.075,51.994l30.082,64.538        c2.022,4.339,8.149,4.456,10.336,0.197l32.52-63.344C2277.424,627.307,2271.981,604.645,2254.939,593.093z M2231.446,650.525        c-12.947-0.247-23.242-10.942-22.995-23.889c0.247-12.947,10.942-23.242,23.889-22.995        c12.947,0.247,23.242,10.942,22.995,23.889S2244.392,650.772,2231.446,650.525z" class="colore7f2f2 svgShape"/></g><g fill="#000000" class="color000 svgShape"><path fill="#e7f2f2" d="M2064.235,1263.212c-1.931,0-3.504-1.557-3.521-3.491c-0.017-1.946,1.547-3.536,3.491-3.553      c12.01-0.104,24.218-0.448,36.286-1.023c0.056-0.003,0.113-0.005,0.171-0.005c1.868,0,3.425,1.469,3.514,3.355      c0.093,1.943-1.407,3.593-3.35,3.685c-12.159,0.58-24.46,0.926-36.559,1.032      C2064.256,1263.212,2064.245,1263.212,2064.235,1263.212z M2025.476,1262.73c-0.04,0-0.08-0.001-0.12-0.002      c-12.156-0.407-24.432-1.068-36.484-1.966c-1.94-0.143-3.395-1.833-3.252-3.773c0.146-1.938,1.807-3.383,3.774-3.251      c11.957,0.89,24.136,1.547,36.198,1.951c1.945,0.065,3.467,1.693,3.402,3.638      C2028.931,1261.23,2027.367,1262.73,2025.476,1262.73z M2139.35,1259.553c-1.804,0-3.342-1.379-3.504-3.213      c-0.171-1.938,1.261-3.647,3.199-3.818c11.964-1.057,24.111-2.359,36.105-3.871c1.927-0.235,3.691,1.125,3.935,3.054      c0.243,1.93-1.125,3.692-3.054,3.935c-12.08,1.523-24.315,2.833-36.366,3.898      C2139.559,1259.548,2139.455,1259.553,2139.35,1259.553z M1950.575,1257.05c-0.139,0-0.279-0.008-0.421-0.025      c-9.818-1.167-19.735-2.52-29.475-4.02c-2.248-0.346-4.486-0.703-6.716-1.067c-1.92-0.315-3.222-2.126-2.908-4.045      c0.314-1.922,2.122-3.218,4.045-2.907c2.209,0.362,4.427,0.714,6.652,1.058c9.659,1.487,19.495,2.828,29.234,3.986      c1.932,0.23,3.311,1.982,3.081,3.914C1953.856,1255.734,1952.334,1257.05,1950.575,1257.05z M2213.97,1250.068      c-1.691,0-3.184-1.222-3.47-2.946c-0.318-1.918,0.98-3.732,2.899-4.051c11.871-1.967,23.89-4.184,35.724-6.587      c1.909-0.379,3.765,0.845,4.153,2.752c0.386,1.907-0.845,3.765-2.752,4.153c-11.916,2.419-24.02,4.65-35.973,6.633      C2214.356,1250.053,2214.161,1250.068,2213.97,1250.068z M1876.512,1244.648c-0.253,0-0.51-0.028-0.768-0.085      c-11.864-2.639-23.795-5.633-35.458-8.899c-1.873-0.524-2.967-2.467-2.442-4.341c0.524-1.873,2.467-2.971,4.341-2.442      c11.543,3.231,23.349,6.194,35.089,8.805c1.899,0.423,3.096,2.305,2.674,4.203      C1879.581,1243.532,1878.126,1244.648,1876.512,1244.648z M2287.64,1235.036c-1.588,0-3.03-1.081-3.42-2.693      c-0.458-1.891,0.702-3.795,2.592-4.253c11.7-2.836,23.508-5.922,35.096-9.168c1.872-0.521,3.818,0.569,4.342,2.441      c0.525,1.873-0.569,3.818-2.441,4.342c-11.668,3.269-23.556,6.375-35.337,9.232      C2288.194,1235.003,2287.914,1235.036,2287.64,1235.036z M1804.272,1224.275c-0.38,0-0.767-0.062-1.147-0.193      c-11.486-3.953-23.005-8.277-34.237-12.85c-1.802-0.733-2.668-2.788-1.934-4.589c0.733-1.801,2.79-2.67,4.59-1.934      c11.114,4.524,22.51,8.802,33.875,12.713c1.839,0.633,2.817,2.638,2.184,4.477      C1807.101,1223.358,1805.734,1224.275,1804.272,1224.275z M2359.972,1214.699c-1.49,0-2.875-0.954-3.353-2.449      c-0.594-1.852,0.427-3.835,2.279-4.429c11.477-3.677,23.033-7.601,34.351-11.666c1.827-0.659,3.848,0.292,4.505,2.125      c0.658,1.83-0.293,3.848-2.124,4.505c-11.393,4.092-23.028,8.044-34.582,11.746      C2360.69,1214.644,2360.328,1214.699,2359.972,1214.699z M1734.793,1195.843c-0.509,0-1.025-0.111-1.516-0.345      c-10.94-5.224-21.895-10.829-32.563-16.662c-1.706-0.933-2.333-3.073-1.4-4.78c0.932-1.707,3.072-2.334,4.78-1.4      c10.555,5.77,21.395,11.317,32.219,16.486c1.755,0.838,2.498,2.94,1.66,4.696      C1737.37,1195.103,1736.109,1195.843,1734.793,1195.843z M2430.66,1189.222c-1.396,0-2.717-0.836-3.27-2.21      c-0.725-1.806,0.151-3.856,1.956-4.581c11.186-4.491,22.43-9.238,33.423-14.107c1.777-0.789,3.858,0.016,4.647,1.794      c0.788,1.778-0.016,3.859-1.794,4.647c-11.067,4.902-22.389,9.681-33.65,14.203      C2431.542,1189.14,2431.097,1189.222,2430.66,1189.222z M1668.965,1159.705c-0.638,0-1.282-0.172-1.862-0.534      c-10.278-6.419-20.54-13.216-30.5-20.203c-1.592-1.117-1.978-3.313-0.861-4.906c1.117-1.591,3.312-1.977,4.906-0.861      c9.858,6.915,20.014,13.642,30.185,19.994c1.65,1.031,2.152,3.203,1.123,4.853      C1671.288,1159.118,1670.14,1159.705,1668.965,1159.705z M2499.323,1158.704c-1.302,0-2.555-0.726-3.166-1.975      c-0.855-1.747-0.132-3.857,1.615-4.711c10.861-5.314,21.723-10.876,32.286-16.532c1.714-0.917,3.85-0.272,4.767,1.442      c0.918,1.715,0.273,3.849-1.442,4.767c-10.637,5.696-21.578,11.298-32.515,16.649      C2500.37,1158.589,2499.842,1158.704,2499.323,1158.704z M2565.514,1123.143c-1.207,0-2.382-0.621-3.039-1.737      c-0.986-1.677-0.427-3.835,1.25-4.822c10.448-6.148,20.841-12.538,30.889-18.995c1.638-1.056,3.815-0.577,4.867,1.058      c1.052,1.636,0.578,3.816-1.058,4.867c-10.126,6.508-20.598,12.948-31.125,19.142      C2566.736,1122.986,2566.121,1123.143,2565.514,1123.143z M1607.538,1116.475c-0.764,0-1.533-0.246-2.178-0.757      c-9.515-7.503-18.982-15.372-28.138-23.39c-1.463-1.282-1.611-3.506-0.329-4.97c1.282-1.464,3.507-1.609,4.97-0.329      c9.066,7.939,18.438,15.73,27.858,23.158c1.527,1.204,1.79,3.419,0.585,4.946      C1609.611,1116.015,1608.579,1116.475,1607.538,1116.475z M2628.654,1082.417c-1.105,0-2.193-0.518-2.879-1.49      c-1.124-1.588-0.747-3.786,0.843-4.909c9.924-7.016,19.726-14.271,29.13-21.565c1.536-1.194,3.749-0.913,4.943,0.624      c1.191,1.537,0.911,3.75-0.625,4.941c-9.486,7.358-19.371,14.677-29.382,21.753      C2630.066,1082.207,2629.356,1082.417,2628.654,1082.417z M1551.084,1066.882c-0.887,0-1.775-0.333-2.46-1.002      c-8.687-8.48-17.278-17.3-25.536-26.217c-1.322-1.426-1.236-3.655,0.191-4.977c1.429-1.322,3.656-1.236,4.977,0.191      c8.177,8.83,16.686,17.566,25.289,25.963c1.392,1.359,1.418,3.589,0.06,4.981      C1552.914,1066.527,1551.999,1066.882,1551.084,1066.882z M2687.916,1036.244c-0.99,0-1.973-0.415-2.67-1.223      c-1.269-1.474-1.103-3.699,0.37-4.968c9.264-7.976,18.287-16.162,26.819-24.332c1.406-1.346,3.634-1.298,4.98,0.108      c1.345,1.406,1.297,3.636-0.109,4.98c-8.622,8.255-17.738,16.526-27.094,24.582      C2689.549,1035.963,2688.73,1036.244,2687.916,1036.244z M1500.103,1011.648c-1.011,0-2.014-0.432-2.711-1.272      c-7.824-9.415-15.448-19.093-22.662-28.763c-1.164-1.559-0.843-3.766,0.716-4.929c1.557-1.165,3.766-0.844,4.929,0.717      c7.142,9.572,14.689,19.151,22.435,28.474c1.243,1.496,1.038,3.716-0.458,4.96      C1501.695,1011.382,1500.897,1011.648,1500.103,1011.648z M2742.014,984.143c-0.853,0-1.707-0.307-2.385-0.931      c-1.431-1.317-1.523-3.545-0.205-4.977c5.74-6.235,11.323-12.582,16.594-18.864c1.249-1.488,3.469-1.684,4.962-0.433      c1.489,1.25,1.684,3.472,0.433,4.962c-5.339,6.363-10.994,12.792-16.807,19.107      C2743.913,983.761,2742.965,984.143,2742.014,984.143z M1455.294,951.245c-1.149,0-2.275-0.561-2.951-1.594      c-12.649-19.336-18.739-31.16-18.992-31.654c-0.887-1.731-0.203-3.853,1.528-4.741c1.729-0.885,3.853-0.202,4.741,1.528      c0.061,0.118,6.196,12.023,18.618,31.01c1.065,1.628,0.609,3.811-1.019,4.876      C1456.624,951.059,1455.955,951.245,1455.294,951.245z" class="colore7f2f2 svgShape"/></g><g fill="#000000" class="color000 svgShape"><path fill="#e7f2f2" d="M3126.956,982.506c-11.13,0-22.538-0.289-33.908-0.858c-1.942-0.097-3.438-1.751-3.341-3.694      c0.096-1.943,1.747-3.436,3.694-3.341c11.252,0.563,22.542,0.849,33.555,0.849l2.636-0.006c0.005,0,0.009,0,0.014,0      c1.939,0,3.514,1.568,3.522,3.508c0.008,1.946-1.563,3.528-3.508,3.536L3126.956,982.506z M3168.303,981.154      c-1.839,0-3.388-1.427-3.511-3.289c-0.129-1.94,1.34-3.618,3.281-3.747c12.127-0.805,24.234-1.989,35.984-3.52      c1.933-0.257,3.698,1.107,3.948,3.037c0.251,1.93-1.109,3.696-3.037,3.948c-11.899,1.55-24.155,2.749-36.429,3.563      C3168.46,981.152,3168.381,981.154,3168.303,981.154z M3054.593,978.671c-0.122,0-0.244-0.006-0.368-0.018      c-11.935-1.237-24.14-2.794-36.276-4.626c-1.923-0.291-3.247-2.086-2.957-4.009c0.29-1.924,2.088-3.246,4.01-2.957      c12.028,1.817,24.123,3.36,35.95,4.585c1.934,0.201,3.34,1.932,3.14,3.867C3057.904,977.324,3056.375,978.671,3054.593,978.671z       M3242.704,971.243c-1.638,0-3.106-1.149-3.448-2.817c-0.39-1.905,0.839-3.766,2.745-4.157      c11.869-2.43,23.678-5.295,35.102-8.515c1.872-0.521,3.818,0.563,4.345,2.435c0.527,1.872-0.563,3.817-2.435,4.345      c-11.585,3.265-23.563,6.172-35.599,8.637C3243.175,971.219,3242.938,971.243,3242.704,971.243z M2980.301,967.377      c-0.228,0-0.459-0.023-0.691-0.069c-11.811-2.352-23.821-5.005-35.698-7.887c-1.889-0.459-3.05-2.363-2.591-4.253      c0.458-1.891,2.354-3.051,4.253-2.592c11.781,2.858,23.695,5.491,35.411,7.823c1.908,0.379,3.146,2.234,2.767,4.142      C2983.418,966.216,2981.948,967.377,2980.301,967.377z M3314.864,950.658c-1.429,0-2.772-0.876-3.301-2.293      c-0.679-1.823,0.248-3.851,2.07-4.531c11.291-4.208,22.494-8.9,33.297-13.947c1.761-0.827,3.86-0.062,4.681,1.7      c0.823,1.762,0.062,3.858-1.7,4.681c-10.972,5.127-22.35,9.893-33.818,14.168      C3315.689,950.586,3315.273,950.658,3314.864,950.658z M2907.276,949.575c-0.323,0-0.651-0.045-0.978-0.139      c-11.699-3.375-23.448-7.021-34.922-10.836c-1.846-0.613-2.844-2.607-2.231-4.453c0.613-1.846,2.607-2.842,4.453-2.231      c11.385,3.785,23.044,7.402,34.652,10.751c1.87,0.54,2.948,2.491,2.409,4.36C2910.213,948.57,2908.805,949.575,2907.276,949.575      z M2835.971,925.725c-0.419,0-0.846-0.076-1.262-0.235c-21.371-8.214-33.797-14.088-33.92-14.147      c-1.758-0.833-2.506-2.934-1.672-4.691c0.832-1.758,2.936-2.506,4.692-1.672c0.12,0.057,12.333,5.828,33.427,13.934      c1.816,0.698,2.722,2.736,2.025,4.552C2838.721,924.865,2837.387,925.725,2835.971,925.725z" class="colore7f2f2 svgShape"/></g><g fill="#000000" class="color000 svgShape"><path fill="#e7f2f2" d="M3299.518,1569.386c-0.969,0-1.933-0.397-2.629-1.176c-0.087-0.099-9.006-10.051-25.567-25.7      c-1.414-1.336-1.477-3.566-0.141-4.979c1.337-1.411,3.564-1.477,4.979-0.141c16.804,15.879,25.618,25.719,25.985,26.129      c1.295,1.452,1.168,3.678-0.282,4.973C3301.191,1569.09,3300.353,1569.386,3299.518,1569.386z M3244.867,1517.532      c-0.812,0-1.626-0.279-2.29-0.847c-9.068-7.764-18.506-15.512-28.055-23.026c-1.529-1.203-1.792-3.418-0.589-4.946      c1.203-1.528,3.418-1.792,4.946-0.589c9.625,7.574,19.14,15.384,28.28,23.212c1.478,1.265,1.65,3.489,0.384,4.966      C3246.847,1517.115,3245.86,1517.532,3244.867,1517.532z M3185.717,1471.084c-0.713,0-1.432-0.216-2.054-0.664      c-9.773-7.04-19.82-13.976-29.864-20.619c-1.623-1.073-2.067-3.257-0.994-4.881c1.073-1.621,3.257-2.067,4.881-0.994      c10.122,6.694,20.246,13.684,30.094,20.777c1.579,1.137,1.937,3.339,0.8,4.916      C3187.89,1470.576,3186.812,1471.084,3185.717,1471.084z M3122.943,1429.7c-0.618,0-1.243-0.162-1.81-0.503      c-10.366-6.229-20.955-12.297-31.472-18.037c-1.707-0.932-2.335-3.072-1.405-4.78c0.933-1.707,3.069-2.337,4.78-1.404      c10.602,5.786,21.276,11.904,31.724,18.184c1.668,1.002,2.207,3.166,1.205,4.833      C3125.305,1429.092,3124.139,1429.7,3122.943,1429.7z M3056.909,1393.798c-0.518,0-1.044-0.116-1.542-0.358      c-10.869-5.304-21.945-10.41-32.922-15.179c-1.784-0.775-2.603-2.85-1.827-4.634c0.775-1.782,2.847-2.602,4.634-1.828      c11.072,4.81,22.244,9.961,33.204,15.309c1.748,0.853,2.474,2.961,1.621,4.71      C3059.466,1393.07,3058.212,1393.798,3056.909,1393.798z M2987.939,1363.982c-0.414,0-0.835-0.073-1.244-0.228      c-11.309-4.27-22.812-8.305-34.19-11.995c-1.849-0.6-2.864-2.587-2.263-4.437c0.6-1.85,2.585-2.859,4.437-2.263      c11.482,3.723,23.091,7.796,34.504,12.105c1.82,0.687,2.738,2.72,2.051,4.539      C2990.702,1363.113,2989.362,1363.982,2987.939,1363.982z M2916.446,1340.943c-0.302,0-0.608-0.039-0.913-0.12      c-11.665-3.122-23.509-5.974-35.206-8.481c-1.902-0.408-3.113-2.28-2.706-4.182c0.407-1.902,2.276-3.107,4.182-2.706      c11.81,2.531,23.772,5.413,35.55,8.563c1.879,0.503,2.995,2.434,2.492,4.313      C2919.425,1339.904,2918.002,1340.943,2916.446,1340.943z M2842.991,1325.346c-0.182,0-0.367-0.014-0.552-0.042      c-11.91-1.875-23.985-3.451-35.889-4.686c-1.935-0.202-3.341-1.932-3.141-3.867c0.201-1.935,1.924-3.338,3.867-3.14      c12.027,1.249,24.226,2.841,36.259,4.734c1.922,0.303,3.233,2.106,2.932,4.028      C2846.192,1324.108,2844.695,1325.346,2842.991,1325.346z M2656.968,1321.684c-1.761,0-3.282-1.317-3.493-3.109      c-0.227-1.932,1.153-3.682,3.085-3.911c12.073-1.423,24.328-2.54,36.427-3.317c1.966-0.118,3.616,1.349,3.741,3.289      c0.124,1.941-1.348,3.616-3.289,3.741c-11.974,0.769-24.104,1.873-36.053,3.282      C2657.246,1321.676,2657.106,1321.684,2656.968,1321.684z M2768.305,1317.729c-0.055,0-0.111-0.001-0.166-0.003      c-10.427-0.487-21.015-0.735-31.471-0.736c-1.571,0-3.145,0.006-4.721,0.016c-0.008,0-0.016,0-0.023,0      c-1.935,0-3.509-1.562-3.522-3.499c-0.013-1.946,1.553-3.532,3.499-3.545c1.593-0.01,3.181-0.016,4.767-0.016      c10.566,0.001,21.264,0.251,31.799,0.743c1.943,0.091,3.445,1.74,3.355,3.683      C2771.733,1316.259,2770.175,1317.729,2768.305,1317.729z" class="colore7f2f2 svgShape"/></g><g fill="#000000" class="color000 svgShape"><path fill="#e7f2f2" d="M1923.103,1626.29c0.615-0.749,1.533-1.243,2.577-1.286c0.131-0.005,13.483-0.586,36.086-3.462      c1.929-0.246,3.693,1.12,3.939,3.05c0.243,1.929-1.12,3.692-3.05,3.939c-22.935,2.918-36.132,3.489-36.682,3.513      c-1.944,0.081-3.584-1.43-3.665-3.372C1922.271,1627.771,1922.574,1626.935,1923.103,1626.29z M1997.856,1616.935      c0.515-0.628,1.247-1.08,2.107-1.233c11.754-2.085,23.731-4.466,35.597-7.081c1.899-0.418,3.779,0.783,4.197,2.682      c0.419,1.899-0.783,3.779-2.682,4.197c-11.961,2.636-24.034,5.037-35.884,7.137c-1.915,0.34-3.744-0.938-4.082-2.853      C1996.923,1618.73,1997.226,1617.702,1997.856,1616.935z M2071.285,1600.673c0.452-0.551,1.075-0.97,1.816-1.167      c11.641-3.089,23.377-6.456,34.884-10.007c1.859-0.573,3.829,0.468,4.404,2.328c0.573,1.858-0.468,3.829-2.328,4.404      c-11.595,3.579-23.421,6.971-35.152,10.084c-1.88,0.499-3.809-0.621-4.308-2.5      C2070.299,1602.675,2070.59,1601.52,2071.285,1600.673z M2143.096,1578.397c0.392-0.478,0.913-0.858,1.537-1.08      c11.391-4.062,22.799-8.398,33.908-12.888c1.803-0.728,3.856,0.143,4.586,1.946c0.728,1.804-0.14,3.855-1.946,4.586      c-11.198,4.525-22.699,8.896-34.181,12.99c-1.833,0.654-3.847-0.302-4.5-2.134      C2142.069,1580.609,2142.338,1579.322,2143.096,1578.397z M2212.739,1550.124c0.329-0.401,0.752-0.734,1.255-0.965      c10.995-5.038,21.969-10.361,32.618-15.822c1.731-0.887,3.854-0.204,4.742,1.527c0.886,1.729,0.205,3.851-1.527,4.742      c-10.741,5.508-21.811,10.877-32.898,15.957c-1.768,0.81-3.859,0.034-4.669-1.734      C2211.68,1552.562,2211.912,1551.131,2212.739,1550.124z M2279.539,1515.72c0.262-0.32,0.586-0.599,0.965-0.817      c10.475-6.034,20.891-12.367,30.961-18.822c1.637-1.049,3.816-0.573,4.866,1.065c1.05,1.637,0.57,3.812-1.065,4.866      c-10.162,6.515-20.675,12.905-31.245,18.995c-1.685,0.971-3.839,0.391-4.81-1.294      C2278.458,1518.408,2278.636,1516.82,2279.539,1515.72z M2342.701,1475.067c0.191-0.233,0.416-0.445,0.672-0.629      c9.813-7.037,19.532-14.384,28.889-21.836c1.522-1.212,3.737-0.96,4.949,0.561c1.212,1.521,0.958,3.73-0.561,4.95      c-9.449,7.524-19.264,14.943-29.171,22.05c-1.581,1.133-3.781,0.771-4.915-0.809      C2341.615,1478.029,2341.714,1476.27,2342.701,1475.067z M2401.354,1428.177c0.115-0.141,0.243-0.275,0.383-0.4      c9.004-8.018,17.883-16.353,26.389-24.772c1.384-1.368,3.613-1.357,4.981,0.025c1.369,1.383,1.36,3.604-0.026,4.982      c-8.594,8.505-17.563,16.926-26.66,25.027c-1.453,1.293-3.679,1.163-4.973-0.289      C2400.281,1431.437,2400.273,1429.494,2401.354,1428.177z M2522.188,1286.695c1.117-1.361,3.101-1.702,4.62-0.728      c1.637,1.05,2.115,3.228,1.066,4.866c-6.558,10.236-13.469,20.418-20.543,30.264c-1.156,1.595-3.337,1.939-4.916,0.806      c-1.579-1.136-1.94-3.336-0.805-4.916c7.001-9.745,13.842-19.822,20.333-29.953      C2522.018,1286.914,2522.1,1286.801,2522.188,1286.695z M2454.618,1375.272c0.035-0.043,0.072-0.085,0.108-0.126      c6.99-7.751,13.898-15.779,20.532-23.861c0.997-1.214,1.991-2.435,2.983-3.66c0.005-0.006,0.01-0.012,0.015-0.018      c1.228-1.496,3.433-1.723,4.939-0.503c1.512,1.224,1.745,3.442,0.521,4.954c-1.002,1.238-2.005,2.469-3.012,3.696      c-6.703,8.167-13.683,16.279-20.746,24.111c-1.303,1.445-3.531,1.559-4.975,0.257      C2453.581,1378.855,2453.432,1376.718,2454.618,1375.272z" class="colore7f2f2 svgShape"/></g><g fill="#000000" class="color000 svgShape"><path fill="#f25c5c" d="M2618.161,356.156c-28.062-19.022-61.937-30.571-99.188-31.281l0,0h0         c-37.25-0.71-71.541,9.539-100.307,27.478c-77.831,48.534-105.909,148.495-67.158,231.63l134.013,287.514         c9.01,19.329,36.306,19.85,46.046,0.878l144.875-282.197C2718.333,508.579,2694.085,407.621,2618.161,356.156z          M2513.499,612.018c-57.677-1.1-103.543-48.748-102.443-106.425c1.099-57.677,48.747-103.542,106.425-102.443         c57.677,1.1,103.543,48.748,102.443,106.425C2618.824,567.252,2571.176,613.117,2513.499,612.018z" class="colorf25c5c svgShape"/><path fill="#ffffff" d="M2371.501 450.866c-.72 0-1.451-.141-2.155-.439-2.816-1.191-4.133-4.44-2.941-7.256 14.076-33.276 42.792-76.303 99.65-92.312 2.944-.829 6.003.885 6.83 3.828.83 2.944-.885 6.002-3.828 6.83-52.625 14.817-79.324 54.929-92.455 85.969C2375.708 449.597 2373.658 450.866 2371.501 450.866zM2356.275 508.446c-.148 0-.296-.005-.447-.017-3.049-.243-5.323-2.911-5.079-5.96.034-.427.876-10.63 4.588-25.788.726-2.97 3.722-4.786 6.695-4.061 2.969.728 4.788 3.724 4.061 6.695-3.502 14.301-4.297 23.937-4.305 24.034C2361.557 506.248 2359.133 508.446 2356.275 508.446z" class="colorfff svgShape"/></g><g fill="#000000" class="color000 svgShape"><path fill="#e7f2f2" d="M2630.889,936.538c-1.94,0-3.515-1.568-3.522-3.51c-0.007-1.946,1.564-3.528,3.51-3.535      c11.44-0.041,23.53-0.764,35.934-2.146c1.909-0.219,3.675,1.176,3.89,3.11c0.216,1.933-1.176,3.675-3.111,3.89      c-12.653,1.411-24.997,2.148-36.688,2.19C2630.897,936.538,2630.893,936.538,2630.889,936.538z M2592.301,933.906      c-0.172,0-0.346-0.013-0.521-0.038c-12.762-1.893-24.856-4.821-35.946-8.705c-1.837-0.642-2.803-2.652-2.16-4.487      c0.643-1.837,2.656-2.802,4.487-2.16c10.671,3.736,22.33,6.558,34.652,8.384c1.924,0.285,3.253,2.076,2.967,4.001      C2595.522,932.65,2594.018,933.906,2592.301,933.906z M2705.447,928.301c-1.642,0-3.11-1.154-3.449-2.824      c-0.386-1.907,0.846-3.765,2.753-4.151c11.282-2.286,23.036-5.089,34.934-8.333c1.878-0.517,3.812,0.594,4.325,2.472      c0.511,1.877-0.595,3.813-2.472,4.325c-12.049,3.283-23.954,6.123-35.388,8.441      C2705.914,928.277,2705.679,928.301,2705.447,928.301z M2522.499,908.018c-0.695,0-1.398-0.205-2.011-0.633      c-19.15-13.356-26.337-26.279-26.634-26.823c-0.931-1.707-0.302-3.847,1.406-4.779c1.705-0.933,3.842-0.304,4.776,1.401      c0.144,0.259,6.912,12.17,24.48,24.422c1.596,1.113,1.987,3.309,0.875,4.904      C2524.707,907.493,2523.612,908.018,2522.499,908.018z" class="colore7f2f2 svgShape"/></g></g><g fill="#000000" class="color000 svgShape"><path fill="#ffe164" d="M3447.808,661.827c-13.91-9.429-30.7-15.153-49.164-15.505l0,0h0        c-18.464-0.352-35.46,4.728-49.719,13.62c-38.578,24.057-52.496,73.604-33.288,114.812l66.427,142.512        c4.466,9.581,17.996,9.839,22.824,0.435l71.81-139.877C3497.46,737.378,3485.442,687.336,3447.808,661.827z M3395.93,788.65        c-28.589-0.545-51.323-24.163-50.778-52.752c0.545-28.589,24.163-51.323,52.752-50.778        c28.589,0.545,51.323,24.163,50.778,52.752C3448.137,766.461,3424.52,789.195,3395.93,788.65z" class="colorffe164 svgShape"/></g><g fill="#000000" class="color000 svgShape"><path fill="#5cbec6" d="M3250.541,2080.861c0.711-6.685,12.646-11.986,28.789-12.129l495.87-4.377     c164.447-1.452,328.893-2.903,493.34-4.355c92.765-0.819,185.529-1.638,278.294-2.457c15.065-0.133,29.475,5.674,28.789,12.129     c-0.711,6.685-12.646,11.986-28.789,12.128c-165.29,1.459-330.58,2.918-495.87,4.377     c-164.447,1.452-206.294,23.575-370.74,25.027c-92.765,0.819-297.473-9.951-390.238-9.132     C3274.921,2102.206,3249.855,2087.315,3250.541,2080.861z" class="color5cbec6 svgShape"/><path fill="#434a59" d="M3773.756,2038.82H3644.91c0,0,15.508-131.609,56.393-142.887        c40.885-11.279,46.876-11.279,54.278,0C3762.983,1907.211,3780.3,2011.119,3773.756,2038.82z" class="color434a59 svgShape"/><rect width="585.56" height="121.748" x="3943.792" y="1888.64" fill="#434a59" class="color434a59 svgShape"/><path fill="#434a59" d="M4045.805,2012.202c0,0-1.354,20.14,2.611,39.756c3.451,17.075,18.552,29.299,35.973,29.299         h33.226c18.253,0,33.713-13.396,36.348-31.458c1.412-9.679,2.276-22.024,1.913-37.598         c-0.641-27.459-3.027-44.166-7.27-55.377c-4.968-13.131-17.646-21.727-31.685-21.727h-32.025         c-12.292,0-23.416,7.417-27.979,18.83C4051.785,1966.767,4046.44,1986.182,4045.805,2012.202z" class="color434a59 svgShape"/><ellipse cx="4128.113" cy="2010.388" fill="#b1d5de" rx="17.717" ry="47.153" class="colorb1d5de svgShape"/><ellipse cx="4134.956" cy="2010.388" fill="#ffffff" rx="10.875" ry="28.943" class="colorfff svgShape"/><path fill="#434a59" d="M4455.323,1995.642c0,0-1.071,15.938,2.066,31.46c2.731,13.512,14.682,23.186,28.467,23.186         h26.293c14.444,0,26.679-10.601,28.763-24.894c1.117-7.66,1.801-17.428,1.514-29.752c-0.507-21.73-2.396-34.95-5.752-43.822         c-3.932-10.391-13.964-17.193-25.074-17.193h-25.342c-9.727,0-18.53,5.869-22.14,14.901         C4460.056,1959.688,4455.826,1975.052,4455.323,1995.642z" class="color434a59 svgShape"/><ellipse cx="4520.457" cy="1994.207" fill="#b1d5de" rx="8.98" ry="37.314" class="colorb1d5de svgShape"/><path fill="#ffffff" d="M4529.437,1994.207c0,12.649-2.468,22.904-5.512,22.904c-3.044,0-5.512-10.254-5.512-22.904         c0-12.649,2.468-22.904,5.512-22.904C4526.969,1971.303,4529.437,1981.558,4529.437,1994.207z" class="colorfff svgShape"/><path fill="#434a59" d="M3968.79,2009.507c0,0-1.453,21.62,2.803,42.678c3.705,18.33,19.916,31.452,38.616,31.452         h35.667c19.594,0,36.191-14.38,39.019-33.769c1.515-10.391,2.443-23.642,2.053-40.361         c-0.688-29.477-3.249-47.412-7.803-59.447c-5.334-14.096-18.942-23.323-34.013-23.323h-34.378         c-13.195,0-25.137,7.962-30.034,20.214C3975.21,1960.734,3969.471,1981.575,3968.79,2009.507z" class="color434a59 svgShape"/><ellipse cx="4057.147" cy="2007.56" fill="#b1d5de" rx="19.019" ry="50.618" class="colorb1d5de svgShape"/><ellipse cx="4064.492" cy="2007.56" fill="#ffffff" rx="11.674" ry="31.07" class="colorfff svgShape"/><path fill="#434a59" d="M4405.717,1996.077c0,0-1.218,18.112,2.348,35.753c3.104,15.355,16.684,26.349,32.35,26.349         h29.88c16.415,0,30.318-12.047,32.688-28.29c1.27-8.705,2.047-19.806,1.72-33.812c-0.576-24.694-2.722-39.719-6.537-49.801         c-4.468-11.808-15.869-19.539-28.494-19.539h-28.8c-11.054,0-21.058,6.67-25.161,16.934         C4411.095,1955.217,4406.288,1972.677,4405.717,1996.077z" class="color434a59 svgShape"/><ellipse cx="4481.956" cy="1994.446" fill="#b1d5de" rx="11.888" ry="42.405" class="colorb1d5de svgShape"/><ellipse cx="4486.547" cy="1994.446" fill="#ffffff" rx="7.297" ry="26.029" class="colorfff svgShape"/><ellipse cx="3356.957" cy="2044.091" fill="#434a59" rx="76.833" ry="57.982" class="color434a59 svgShape"/><polygon fill="#434a59" points="3749.528 1590.5 3448.244 1590.5 3409.774 1708.868 3720.676 1708.868" class="color434a59 svgShape"/><path fill="#b1d5de" d="M3987.918,1893.454l-2.638-4.814h-219.662c0,0,4.661,2.959,10.876,27.373        c4.863,19.1,4.368,83.481,6.047,110.601h207.4c6.436,0,11.653-4.968,11.653-11.097v-68.943        C4001.594,1928.076,3996.903,1909.853,3987.918,1893.454z" class="colorb1d5de svgShape"/><path fill="#434a59" d="M3619.693,2010.522c0,0-1.795,26.701,3.461,52.707c4.576,22.637,24.596,38.844,47.691,38.844         h44.05c24.199,0,44.696-17.76,48.188-41.705c1.871-12.833,3.017-29.198,2.535-49.845c-0.85-36.405-4.013-58.553-9.637-73.416         c-6.587-17.408-23.394-28.805-42.007-28.805h-42.457c-16.295,0-31.044,9.833-37.093,24.964         C3627.621,1950.287,3620.534,1976.027,3619.693,2010.522z" class="color434a59 svgShape"/><ellipse cx="3728.813" cy="2008.118" fill="#b1d5de" rx="23.489" ry="62.513" class="colorb1d5de svgShape"/><ellipse cx="3737.884" cy="2008.118" fill="#ffffff" rx="14.418" ry="38.371" class="colorfff svgShape"/><path fill="#e7f2f2" d="M3976.844,1424.896c-48.556,0.653-290.067,4.112-326.635,8.766       c-40.689,5.178-102.833,17.015-119.847,35.51c-17.015,18.495-25.436,54.745-25.436,54.745l-6.376,25.153       c0,0-46.607,5.178-53.266,16.276c-3.644,6.073-6.844,13.033-8.996,18.09c-1.425,3.351,1.041,7.064,4.683,7.064h7.272h301.284       l-28.852,118.368h-310.902c0,0-103.572,49.567-108.751,65.842c-5.178,16.276-8.878,69.541-8.878,69.541       s-28.112,13.316-45.127,55.485c-12.237,30.325-11.848,83.604-10.664,111.141c0.453,10.534,6.998,19.924,16.834,23.724       c7.215,2.788,14.883,4.218,22.62,4.218h378.238c12.532,0,22.895-9.762,23.621-22.273       c2.261-38.957,10.695-115.931,42.084-121.988c42.169-8.138,47.986,60.132,51.228,92.327       c2.771,27.516,2.778,51.934,2.778,51.934h13.316c0,0-5.178-98.394-11.097-122.807c-5.918-24.414-10.357-27.372-10.357-27.372       h219.721v-339.696v-4.312v-111.346C3985.339,1428.608,3981.522,1424.834,3976.844,1424.896z" class="colore7f2f2 svgShape"/><path fill="#b1d5de" d="M3985.339,1565.085l-4.825-5.41c-7.891-8.848-19.218-13.923-31.075-13.923h-103.274       c-0.014-1.813-0.044-3.688-0.075-5.618c-0.366-22.172-0.822-49.764,21.571-66.264c21.946-16.17,67.784-28.373,101.253-37.284       c5.775-1.538,11.316-3.015,16.345-4.408c-0.323-2.453-1.696-4.571-3.659-5.879c-4.489,1.231-9.355,2.526-14.396,3.868       c-33.983,9.048-80.523,21.439-103.483,38.357c-25.15,18.531-24.643,49.273-24.272,71.721c0.031,1.895,0.061,3.356,0.074,5.127       h-3.845v7.402l113.761-0.38c9.966,0,19.485,4.266,26.117,11.703l9.782,10.97V1565.085z" class="colorb1d5de svgShape"/><path fill="#434a59" d="M3746.753 1708.868h71.576l4.928-118.368h-13.659c-21.742 0-40.539 15.168-45.132 36.42L3746.753 1708.868zM3305.647 1933.893c0 4.081 2.533 7.729 6.365 9.134 15.965 5.857 58.873 20.333 92.954 20.333 32.086 0 79.921-11.454 97.509-15.962 4.068-1.043 6.994-4.572 7.281-8.761l9.937-144.828c.408-5.95-4.577-10.865-10.521-10.369-23.659 1.973-77.988 6.296-99.399 6.252-20.158-.041-71.315-4.324-93.544-6.27-5.691-.498-10.582 3.986-10.582 9.699V1933.893zM3287.337 1924.584L3287.337 1924.584c0-14.933-7.507-28.865-19.978-37.078l-10.744-7.075c-3.394 5.637-6.663 12.033-9.597 19.307-3.25 8.054-5.603 17.735-7.293 28.115l36.196 6.326C3281.88 1935.219 3287.337 1930.633 3287.337 1924.584zM3539.516 1928.851l3.61-5.605c8.066-12.524 21.379-20.712 36.195-22.263l62.895-6.582c3.828-.401 6.517 3.679 4.641 7.039l-5.335 9.553c-8.681 15.546-25.094 25.179-42.9 25.179h-55.113C3539.749 1936.172 3537.48 1932.012 3539.516 1928.851z" class="color434a59 svgShape"/><g fill="#000000" class="color000 svgShape"><path fill="#ffe164" d="M3985.339,1431.443l558.997,102.871v380.344l-552.154-14.182c-3.779,0-6.843-3.064-6.843-6.843        V1431.443z" class="colorffe164 svgShape"/></g><g fill="#000000" class="color000 svgShape"><path fill="#e7f2f2" d="M3425.318,1837.15c-16.42,0-32.023-1.003-45.638-2.361        c-42.773-4.272-75.65-12.89-75.978-12.977l1.623-6.133c1.289,0.342,129.823,33.691,212.263,0.129l2.391,5.875        C3490.97,1833.493,3456.664,1837.15,3425.318,1837.15z" class="colore7f2f2 svgShape"/></g><g fill="#000000" class="color000 svgShape"><path fill="#e7f2f2" d="M3425.318,1884.141c-16.42,0-32.023-1.003-45.638-2.361        c-42.773-4.272-75.65-12.89-75.978-12.976l1.623-6.134c1.289,0.342,129.823,33.691,212.263,0.129l2.391,5.875        C3490.97,1880.484,3456.664,1884.141,3425.318,1884.141z" class="colore7f2f2 svgShape"/></g><g fill="#000000" class="color000 svgShape"><path fill="#e7f2f2" d="M3425.318,1931.131c-16.42,0-32.023-1.003-45.638-2.362        c-42.773-4.272-75.65-12.89-75.978-12.976l1.623-6.134c1.289,0.342,129.823,33.691,212.263,0.129l2.391,5.875        C3490.97,1927.475,3456.664,1931.131,3425.318,1931.131z" class="colore7f2f2 svgShape"/></g><g fill="#000000" class="color000 svgShape"><rect width="343.854" height="7.402" x="3498.55" y="1545.371" fill="#b1d5de" class="colorb1d5de svgShape"/></g><g fill="#000000" class="color000 svgShape"><path fill="#b1d5de" d="M4413.835,2026.613h-252.96V1904.81l270.02,6.935v97.809        C4430.895,2018.975,4423.257,2026.613,4413.835,2026.613z" class="colorb1d5de svgShape"/></g><g fill="#000000" class="color000 svgShape"><path fill="#54678c" d="M3478.563,1590.5c0,0,27.043,4.789,35.586,26.288c8.543,21.499,4.904,34.194,17.891,46.176        c12.987,11.982,13.302-3.882,22.289,13.565c8.987,17.447,18.504,32.339,18.504,32.339h68.2c0,0-29.077-56.13-37.008-65.117        c-7.93-8.988-24.848-3.172-30.135-11.102c-5.287-7.93-7.93-42.149-7.93-42.149H3478.563z" class="color54678c svgShape"/></g><g fill="#000000" class="color000 svgShape"><rect width="450.437" height="7.402" x="3234.477" y="1970.477" fill="#434a59" class="color434a59 svgShape"/></g><g fill="#000000" class="color000 svgShape"><path fill="#ffffff" d="M3570.195,1480.011c-2.034,0-4.009-1.069-5.075-2.969c-1.573-2.8-0.578-6.345,2.222-7.918        c50.095-28.141,119.741-28.464,122.682-28.464c3.211,0,5.813,2.603,5.814,5.813c0.001,3.211-2.602,5.815-5.812,5.818        c-0.691,0-69.585,0.345-116.988,26.973C3572.137,1479.77,3571.159,1480.011,3570.195,1480.011z" class="colorfff svgShape"/></g><g fill="#000000" class="color000 svgShape"><path fill="#ffffff" d="M3539.713,1535.9c-0.442,0-0.89-0.051-1.338-0.156c-3.125-0.736-5.063-3.865-4.329-6.991        c0.092-0.389,2.292-9.668,6.592-20.968c1.143-3.002,4.502-4.511,7.504-3.367c3.002,1.142,4.51,4.502,3.367,7.504        c-4.01,10.538-6.12,19.406-6.141,19.495C3544.738,1534.095,3542.349,1535.9,3539.713,1535.9z" class="colorfff svgShape"/></g><path fill="#434a59" d="M3845.224,1608.362l-2.82,100.506h60.883v-99.078c0-10.654-8.636-19.291-19.291-19.291h-20.403      C3853.645,1590.5,3845.503,1598.417,3845.224,1608.362z" class="color434a59 svgShape"/><g fill="#000000" class="color000 svgShape"><path fill="#ffffff" d="M4108.389 1697.928l-38.177-1.843v44.635l43.892 1.281-3.324 19.654-68.12-1.402v-143.381l67.803 5.505v19.936l-40.252-2.919v36.592l38.177 2.171V1697.928zM4181.309 1763.106l-15.917-49.49-.243-.01-17.267 48.812-26.662-.549 29.519-68.995-28.164-69.515 28.397 2.305 15.063 46.198.242.015 14.706-43.776 25.53 2.073-26.656 61.099 28.474 72.39L4181.309 1763.106zM4217.191 1631.041l33.957 2.757c23.607 1.917 35.446 12.966 35.446 35.707v7.577c0 21.224-8.604 34.932-36.743 33.652l-9.002-.41v54.008l-23.657-.487V1631.041zM4240.848 1693.769l6.395.34c14.407.766 16.854-6.403 16.854-19.087v-6.389c0-9.447-1.966-17.38-14.788-18.322l-8.461-.622V1693.769zM4366.419 1676.003v57.793c0 23.716-11.011 34.712-34.334 34.252-22.877-.451-33.344-12.539-33.344-36.406v-60.192c0-24.487 13.769-34.527 34.702-32.809C4354.314 1640.355 4366.419 1652.189 4366.419 1676.003zM4321.074 1671.141v63.632c0 10.511 4.212 15.568 11.978 15.787 8.303.234 11.997-4.214 11.997-15.212v-62.766c0-9.927-3.355-15.663-12.022-16.3C4325.271 1655.711 4321.074 1660.431 4321.074 1671.141zM4401.909 1713.267v54.38l-20.256-.417v-122.838l27.949 2.269c19.443 1.578 30.744 9.767 30.744 31.239v4.542c0 18.33-7.921 22.576-12.817 24.222 7.363 3.655 11.55 8.88 11.55 25.076 0 10.049-.188 29.435 1.147 36.696l-18.815-.387c-1.696-7.317-1.337-27.102-1.337-35.856 0-14.691-2.004-18.156-13.523-18.705L4401.909 1713.267zM4401.909 1697.782l4.588.254c10.508.582 14.343-2.911 14.343-16.01v-4.132c0-9.312-2.041-15.13-13.28-15.956l-5.651-.415V1697.782zM4467.095 1668.172l-19.739-1.431v-17.014l57.422 4.662v16.516l-19.091-1.384v99.852l-18.592-.383V1668.172z" class="colorfff svgShape"/></g><polygon fill="#84c0ce" points="4160.875 1909.15 4430.895 1926.737 4430.895 1911.745 4160.875 1904.81" class="color84c0ce svgShape"/><g fill="#000000" class="color000 svgShape"><path fill="#434a59" d="M3536.923,1783.727c-1.442,0-2.77-0.947-3.19-2.401c-0.508-1.762,0.508-3.603,2.27-4.112       l168.257-48.548c1.774-0.506,3.604,0.51,4.112,2.27c0.508,1.762-0.508,3.603-2.27,4.112l-168.257,48.548       C3537.537,1783.685,3537.227,1783.727,3536.923,1783.727z" class="color434a59 svgShape"/></g><path fill="#434a59" d="M4009.186,1435.832l-23.847-4.388v462.191c0,3.779,3.064,6.843,6.844,6.843l34.028,0.874     l-2.415-1.803c-9.195-6.865-14.61-17.666-14.61-29.141V1435.832z" class="color434a59 svgShape"/></g><g fill="#000000" class="color000 svgShape"><path fill="#5cbec6" d="M1841.187,2080.861c-0.711-6.685-12.646-11.986-28.789-12.129l-495.87-4.377      c-164.447-1.452-328.893-2.903-493.34-4.355c-92.765-0.819-185.529-1.638-278.294-2.457      c-15.066-0.133-29.475,5.674-28.789,12.129c0.711,6.685,12.646,11.986,28.789,12.128c165.29,1.459,330.58,2.918,495.87,4.377      c164.447,1.452,206.294,23.575,370.74,25.027c92.765,0.819,297.473-9.951,390.238-9.132      C1816.807,2102.206,1841.874,2087.315,1841.187,2080.861z" class="color5cbec6 svgShape"/><path fill="#434a59" d="M1302.46,2038.82h128.846c0,0-15.508-131.609-56.393-142.887          c-40.885-11.279-46.876-11.279-54.278,0C1313.233,1907.211,1295.916,2011.119,1302.46,2038.82z" class="color434a59 svgShape"/><rect width="585.56" height="121.748" x="546.864" y="1888.64" fill="#33373f" transform="rotate(-180 839.644 1949.514)" class="color33373f svgShape"/><path fill="#434a59" d="M1030.411,2012.202c0,0,1.354,20.14-2.611,39.756           c-3.451,17.075-18.552,29.299-35.973,29.299h-33.226c-18.253,0-33.713-13.396-36.348-31.458           c-1.412-9.679-2.276-22.024-1.913-37.598c0.641-27.459,3.027-44.166,7.269-55.377           c4.969-13.131,17.646-21.727,31.685-21.727h32.025c12.291,0,23.416,7.417,27.979,18.83           C1024.43,1966.767,1029.776,1986.182,1030.411,2012.202z" class="color434a59 svgShape"/><ellipse cx="948.103" cy="2010.388" fill="#b1d5de" rx="17.717" ry="47.153" class="colorb1d5de svgShape"/><ellipse cx="941.26" cy="2010.388" fill="#ffffff" rx="10.875" ry="28.943" class="colorfff svgShape"/><path fill="#434a59" d="M620.893,1995.642c0,0,1.071,15.938-2.066,31.46c-2.731,13.512-14.681,23.186-28.467,23.186           h-26.293c-14.444,0-26.679-10.601-28.763-24.894c-1.117-7.66-1.801-17.428-1.514-29.752           c0.507-21.73,2.395-34.95,5.752-43.822c3.932-10.391,13.964-17.193,25.074-17.193h25.342c9.727,0,18.53,5.869,22.14,14.901           C616.16,1959.688,620.39,1975.052,620.893,1995.642z" class="color434a59 svgShape"/><ellipse cx="555.759" cy="1994.207" fill="#b1d5de" rx="8.98" ry="37.314" class="colorb1d5de svgShape"/><path fill="#ffffff" d="M546.779,1994.207c0,12.649,2.468,22.904,5.512,22.904c3.044,0,5.512-10.254,5.512-22.904           c0-12.649-2.468-22.904-5.512-22.904C549.247,1971.303,546.779,1981.558,546.779,1994.207z" class="colorfff svgShape"/><path fill="#434a59" d="M1107.426,2009.507c0,0,1.453,21.62-2.803,42.678c-3.705,18.33-19.916,31.452-38.617,31.452           h-35.668c-19.594,0-36.191-14.38-39.019-33.769c-1.516-10.391-2.443-23.642-2.053-40.361           c0.688-29.477,3.249-47.412,7.803-59.447c5.334-14.096,18.943-23.323,34.013-23.323h34.378           c13.195,0,25.137,7.962,30.035,20.214C1101.006,1960.734,1106.744,1981.575,1107.426,2009.507z" class="color434a59 svgShape"/><ellipse cx="1019.069" cy="2007.56" fill="#b1d5de" rx="19.019" ry="50.618" class="colorb1d5de svgShape"/><ellipse cx="1011.724" cy="2007.56" fill="#ffffff" rx="11.674" ry="31.07" class="colorfff svgShape"/><path fill="#434a59" d="M670.499,1996.077c0,0,1.218,18.112-2.348,35.753c-3.104,15.355-16.684,26.349-32.35,26.349           h-29.88c-16.415,0-30.318-12.047-32.688-28.29c-1.27-8.705-2.047-19.806-1.72-33.812           c0.576-24.694,2.722-39.719,6.537-49.801c4.468-11.808,15.869-19.539,28.495-19.539h28.8           c11.054,0,21.058,6.67,25.161,16.934C665.121,1955.217,669.928,1972.677,670.499,1996.077z" class="color434a59 svgShape"/><ellipse cx="594.26" cy="1994.446" fill="#b1d5de" rx="11.888" ry="42.405" class="colorb1d5de svgShape"/><ellipse cx="589.669" cy="1994.446" fill="#ffffff" rx="7.297" ry="26.029" class="colorfff svgShape"/><ellipse cx="1719.259" cy="2044.091" fill="#434a59" rx="76.833" ry="57.982" class="color434a59 svgShape"/><polygon fill="#33373f" points="1326.688 1590.5 1627.972 1590.5 1666.442 1708.868 1355.54 1708.868" class="color33373f svgShape"/><path fill="#f25c5c" d="M1092.397,1431.163L531.88,1534.314v380.344l552.153-14.182c3.779,0,6.843-3.064,6.843-6.843          L1092.397,1431.163z" class="colorf25c5c svgShape"/><path fill="#33373f" d="M1057.157,1901.167l26.877-0.69c3.779,0,6.843-3.064,6.843-6.843l1.521-462.47l-17.776,3.271         v435.988c0,11.784-5.824,22.806-15.559,29.446L1057.157,1901.167z" class="color33373f svgShape"/><path fill="#434a59" d="M1088.298 1893.454l2.638-4.814h221.745c0 0-4.117 4.184-10.332 28.597-4.863 19.1-6.996 82.256-8.675 109.376h-207.4c-6.436 0-11.653-4.968-11.653-11.097v-68.943C1074.621 1928.076 1079.313 1909.853 1088.298 1893.454zM1456.523 2010.522c0 0 1.795 26.701-3.462 52.707-4.576 22.637-24.596 38.844-47.691 38.844h-44.049c-24.199 0-44.696-17.76-48.188-41.705-1.872-12.833-3.017-29.198-2.536-49.845.85-36.405 4.013-58.553 9.637-73.416 6.587-17.408 23.394-28.805 42.007-28.805h42.457c16.295 0 31.044 9.833 37.093 24.964C1448.595 1950.287 1455.682 1976.027 1456.523 2010.522z" class="color434a59 svgShape"/><ellipse cx="1347.403" cy="2008.118" fill="#b1d5de" rx="23.489" ry="62.513" class="colorb1d5de svgShape"/><ellipse cx="1338.332" cy="2008.118" fill="#ffffff" rx="14.418" ry="38.371" class="colorfff svgShape"/><path fill="#54678c" d="M1829.198,1899.737c-17.015-42.169-45.127-55.485-45.127-55.485s-3.7-53.266-8.877-69.541         c-5.179-16.276-108.751-65.842-108.751-65.842h-310.902l-28.852-118.368h301.284h7.272c3.642,0,6.108-3.713,4.683-7.064         c-2.151-5.057-5.352-12.017-8.996-18.09c-6.658-11.097-53.266-16.276-53.266-16.276l-6.377-25.153         c0,0-8.42-36.251-25.435-54.745c-17.015-18.495-79.159-30.332-119.848-35.51c-36.427-4.636-276.225-8.087-326.066-8.759         c-4.987-0.067-9.063,3.957-9.063,8.945v110.784v4.312v339.696h219.721c0,0-4.439,2.958-10.357,27.372         c-5.919,24.414-11.097,122.807-11.097,122.807h13.316c0,0,0.007-24.418,2.777-51.934         c3.242-32.195,9.059-100.465,51.227-92.327c31.389,6.057,39.823,83.031,42.084,121.988         c0.726,12.511,11.088,22.273,23.621,22.273h378.239c7.736,0,15.405-1.43,22.62-4.218c9.835-3.8,16.381-13.189,16.833-23.724         C1841.045,1983.341,1841.434,1930.062,1829.198,1899.737z" class="color54678c svgShape"/><path fill="#33373f" d="M1329.462 1708.868h-71.576l-3.874-118.368h32.165c12.161 0 22.6 8.655 24.853 20.606L1329.462 1708.868zM1763.371 1933.893c0 4.081-2.533 7.729-6.365 9.134-15.965 5.857-58.873 20.333-92.953 20.333-32.086 0-79.921-11.454-97.509-15.962-4.068-1.043-6.994-4.572-7.281-8.761l-9.937-144.828c-.408-5.95 4.577-10.865 10.521-10.369 23.659 1.973 77.988 6.296 99.398 6.252 20.159-.041 71.315-4.324 93.545-6.27 5.691-.498 10.582 3.986 10.582 9.699V1933.893z" class="color33373f svgShape"/><path fill="#54678c" d="M1662.281 1963.341c.592.007 1.19.019 1.772.019 2.12 0 4.273-.056 6.453-.163l-2.495-173.703c-3.087.113-5.85.18-8.224.193L1662.281 1963.341zM1720.656 1786.099c-2.711.214-5.463.427-8.237.637l-2.966 170.568c2.799-.647 5.56-1.322 8.261-2.017L1720.656 1786.099zM1611.94 1957.455c2.76.51 5.551 1.006 8.364 1.479l-13.239-171.843c-2.778-.195-5.549-.394-8.296-.595L1611.94 1957.455z" class="color54678c svgShape"/><g fill="#000000" class="color000 svgShape"><path fill="#434a59" d="M662.381,2026.613h252.96V1904.81l-270.019,6.935v97.809          C645.321,2018.975,652.959,2026.613,662.381,2026.613z" class="color434a59 svgShape"/></g><g fill="#000000" class="color000 svgShape"><path fill="#434a59" d="M1597.652,1590.5c0,0-27.043,4.789-35.586,26.288c-8.543,21.499-4.904,34.194-17.891,46.176          c-12.987,11.982-13.302-3.882-22.289,13.565c-8.988,17.447-18.504,32.339-18.504,32.339h-68.2          c0,0,29.078-56.13,37.008-65.117c7.93-8.988,24.848-3.172,30.135-11.102c5.287-7.93,7.93-42.149,7.93-42.149H1597.652z" class="color434a59 svgShape"/></g><g fill="#000000" class="color000 svgShape"><rect width="450.437" height="7.402" x="1391.302" y="1970.477" fill="#434a59" class="color434a59 svgShape"/></g><g fill="#000000" class="color000 svgShape"><path fill="#ffffff" d="M1506.021,1480.011c2.034,0,4.009-1.069,5.075-2.969c1.574-2.8,0.578-6.345-2.222-7.918          c-50.095-28.141-119.741-28.464-122.682-28.464c-3.211,0-5.813,2.603-5.814,5.813c-0.001,3.211,2.602,5.815,5.812,5.818          c0.691,0,69.585,0.345,116.988,26.973C1504.078,1479.77,1505.056,1480.011,1506.021,1480.011z" class="colorfff svgShape"/></g><path fill="#54678c" d="M1829.956,1859.504l-45.886-15.252c0,0,17.172,111.769,31.824,117.938         c14.651,6.169,28.903-18.191,28.332-44.953C1843.655,1890.475,1829.956,1859.504,1829.956,1859.504z" class="color54678c svgShape"/><g fill="#000000" class="color000 svgShape"><path fill="#ffffff" d="M1536.503,1535.9c0.442,0,0.89-0.051,1.338-0.156c3.126-0.736,5.063-3.865,4.328-6.991          c-0.092-0.389-2.292-9.668-6.592-20.968c-1.143-3.002-4.502-4.511-7.504-3.367c-3.002,1.142-4.509,4.502-3.367,7.504          c4.01,10.538,6.12,19.406,6.141,19.495C1531.478,1534.095,1533.866,1535.9,1536.503,1535.9z" class="colorfff svgShape"/></g><g fill="#000000" class="color000 svgShape"><ellipse cx="1445.266" cy="1905.912" fill="#ffe164" rx="31.732" ry="47.117" transform="rotate(-13.517 1445.329 1906.102)" class="colorffe164 svgShape"/><ellipse cx="1516.91" cy="1917.237" fill="#ffe164" rx="23.073" ry="32.309" transform="rotate(-13.517 1517.017 1917.468)" class="colorffe164 svgShape"/></g><g fill="#000000" class="color000 svgShape"><ellipse cx="1826.403" cy="1905.912" fill="#ffe164" rx="46.572" ry="19.201" transform="rotate(-84.722 1826.365 1905.837)" class="colorffe164 svgShape"/><ellipse cx="1783.552" cy="1917.237" fill="#ffe164" rx="32.986" ry="13.6" transform="rotate(-84.722 1783.517 1917.161)" class="colorffe164 svgShape"/></g><path fill="#33373f" d="M1213.553,1708.868h-57.506v-85.128c0-18.358,14.882-33.24,33.24-33.24h21.001         L1213.553,1708.868z" class="color33373f svgShape"/><g fill="#000000" class="color000 svgShape"><path fill="#ffffff" d="M1498.415,1768.548c-0.224,0-0.452-0.035-0.677-0.107l-118.21-37.954          c-1.164-0.374-1.805-1.62-1.431-2.785c0.373-1.164,1.616-1.81,2.785-1.431l118.21,37.954          c1.164,0.374,1.805,1.62,1.431,2.785C1500.222,1767.949,1499.351,1768.548,1498.415,1768.548z" class="colorfff svgShape"/></g><g fill="#000000" class="color000 svgShape"><path fill="#ffffff" d="M1537.51,1781.099c-0.224,0-0.452-0.035-0.677-0.107l-16.53-5.307          c-1.164-0.374-1.805-1.62-1.431-2.785c0.374-1.164,1.618-1.805,2.785-1.431l16.53,5.307c1.164,0.374,1.805,1.62,1.431,2.785          C1539.316,1780.5,1538.446,1781.099,1537.51,1781.099z" class="colorfff svgShape"/></g><path fill="#434a59" d="M1090.877,1567.329v8.831l9.978-8.744c11.055-9.687,25.239-14.643,39.941-14.643h93.016h7.194         h336.66v-3.703l-0.938-3.698h-335.722h-7.194h-93.016c-16.313,0-32.052,6.3-44.32,17.051L1090.877,1567.329z" class="color434a59 svgShape"/><g fill="#000000" class="color000 svgShape"><path fill="#434a59" d="M1280.024,1548.692c-1.765,0-3.235-1.39-3.315-3.172          c-1.251-27.749-7.388-73.646-18.527-78.677c-13.237-5.978-111.793-21.532-162.057-28.921          c-1.814-0.266-3.069-1.953-2.802-3.769c0.266-1.815,1.946-3.085,3.768-2.802c5.972,0.878,146.441,21.589,163.823,29.438          c8.322,3.759,14.402,18.872,18.59,46.207c2.968,19.372,3.831,38.04,3.84,38.226c0.082,1.832-1.336,3.384-3.168,3.467          C1280.124,1548.691,1280.073,1548.692,1280.024,1548.692z" class="color434a59 svgShape"/></g><g fill="#000000" class="color000 svgShape"><path fill="#ffffff" d="M606.168 1676.276v99.182l-15.553.761v-97.884L606.168 1676.276zM676.104 1732.968c0-17.846.212-40.094.555-52.175l-.173.021c-2.629 18.511-8.912 61.435-13.784 91.878l-16.109.788c-3.516-26.392-9.553-69.402-12.001-87.714l-.321.039c.321 11.801.821 34.729.821 52.201v36.036l-14.799.724v-100.361l24.528-3.248c4.254 25.555 8.669 54.448 10.158 68.786l.167-.013c1.807-14.809 7.854-46.26 12.363-71.778l25.604-3.39v106.439l-17.009.832V1732.968zM709.234 1662.629l27.411-3.63c20.294-2.687 30.883 4.748 30.883 24.669v6.637c0 18.592-7.725 31.586-31.969 33.604l-7.442.62v44.96l-18.883.924V1662.629zM728.117 1710.749l5.272-.494c12.152-1.14 14.256-7.57 14.256-18.403v-5.456c0-8.068-1.691-14.513-12.537-13.193l-6.991.851V1710.749zM847.164 1676.029v55.709c0 22.861-11.922 34.238-36.132 35.393-22.458 1.072-32.336-9.012-32.336-30.214v-53.47c0-21.752 13.045-33.418 33.71-36.18C834.074 1644.373 847.164 1653.073 847.164 1676.029zM800.072 1679.479v58.028c0 9.586 4.159 13.842 11.937 13.381 8.482-.503 12.31-5.003 12.31-15.327v-58.919c0-9.319-3.48-14.047-12.335-12.968C804.214 1664.621 800.072 1669.713 800.072 1679.479zM887.941 1706.801v54.869l-23.73 1.161v-120.721l33.079-4.38c24.498-3.244 39.345 2.517 39.345 25.337v4.827c0 19.48-10.453 25.408-16.803 27.987 9.58 2.575 15.117 7.402 15.117 24.584 0 10.661-.251 31.246 1.527 38.831l-24.459 1.197c-2.144-7.419-1.69-27.904-1.69-36.953 0-15.186-2.525-18.451-16.767-17.222L887.941 1706.801zM887.941 1691.176l5.553-.538c12.972-1.257 17.797-5.559 17.797-19.113v-4.276c0-9.635-2.573-15.188-16.501-13.491l-6.849.834V1691.176zM973.703 1646.201l-27.621 3.327v-18.259l84.966-11.25v19.274l-29.852 3.596v113.238l-27.493 1.345V1646.201z" class="colorfff svgShape"/></g><polygon fill="#33373f" points="1074.621 1900.719 546.864 1935.098 546.784 1914.276" class="color33373f svgShape"/></g><g fill="#000000" class="color000 svgShape"><path fill="#222428" d="M1738.384,1148.024c-0.26,0-0.525-0.038-0.788-0.116c-1.465-0.433-2.3-1.974-1.866-3.44    c12.29-41.459,74.74-69.74,77.393-70.924c1.302-0.583,2.827-0.079,3.531,1.158c0.705,1.237,0.356,2.806-0.806,3.629    c-0.303,0.214-30.455,21.783-46.699,53.042c-0.706,1.356-2.376,1.882-3.733,1.179c-1.355-0.705-1.884-2.376-1.179-3.733    c8.054-15.499,19.156-28.527,28.701-38.01c-19.224,11.873-44.882,31.553-51.903,55.232    C1740.679,1147.245,1739.577,1148.024,1738.384,1148.024z" class="color222428 svgShape"/></g></svg>