<svg id="Capa_1" data-name="Capa 1" xmlns="http://www.w3.org/2000/svg" viewBox="0 0 4252.13 1900.43"><defs><style>.cls-1{fill:#9adbbd;}.cls-2{fill:#c2efd9;}.cls-3{fill:#75a378;}.cls-4{fill:#9fc6a2;}.cls-5{fill:#84bca4;}.cls-6{fill:#5cbec6;}.cls-7{fill:#8380b7;}.cls-8{fill:#e7f2f2;}.cls-9{fill:#f25c5c;}.cls-10{fill:#fff;}.cls-11{fill:#ffe164;}.cls-12{fill:#434a59;}.cls-13{fill:#b1d5de;}.cls-14{fill:#54678c;}.cls-15{fill:#84c0ce;}.cls-16{fill:#33373f;}.cls-17{fill:#222428;}</style></defs><path class="cls-1" d="M824.3,1138.12S847,774.45,723.69,748.1,561.57,916.65,824.3,1138.12Z"/><path class="cls-2" d="M722.15,847.05c-11.64-45.38-20.36-82.94-24.5-101.22,2.1-.1,4.25-.12,6.42-.07,3.19,13.92,8.87,38.24,16.35,68.33l32-52.15q2.46,2,4.81,4.14L722.55,822.6c2.85,11.38,5.93,23.45,9.22,36L781.61,799q1.59,3,3.1,6l-51,61c8.46,32.12,18.14,67,28.49,101.14l46.36-89.48c.7,3.2,1.38,6.44,2,9.69l-45.77,88.35c19,61.63,40.08,119.52,60,152-.29,6.67-.52,10.36-.52,10.36l-.54-.46c-24.62-36-50.88-111.19-73.22-187L666.59,957c-1.13-2-2.25-4-3.32-6l85.46-6.46c-4.61-15.83-9.05-31.63-13.26-47.07L636.3,885.94q-.93-3.29-1.75-6.5L733.7,890.9c-3.33-12.32-6.52-24.38-9.52-36l-94.11-44c.36-2.16.79-4.26,1.26-6.32Z"/><path class="cls-3" d="M807.17,1340.83S667.8,921.56,459,873.56,69.38,922.81,88.06,1040.84s293.33,231.33,431.16,350.82C611.86,1472,878.51,1469,807.17,1340.83Z"/><path class="cls-4" d="M227,1013l90-11.54q-27.27-14.8-55.28-28.17c-3.92-1.87-6.43-5.93-4.86-10.31,1.37-3.79,6.36-6.74,10.31-4.86a1206.33,1206.33,0,0,1,177.74,104l-38.44-86.65c-4.2-9.48,10.29-16.54,14.5-7q24,54.21,48.1,108.44a8.5,8.5,0,0,1,.75,3.35q4.62,3.43,9.21,6.91a1220.42,1220.42,0,0,1,97.12,82.29l-21.64-116.47c-1.89-10.19,14-13.16,15.85-2.94l24.93,134.2a8.14,8.14,0,0,1-.08,3.53q33.78,33.21,64.88,69a1188.74,1188.74,0,0,1,85.09,110.43c2.44,3.59,2.72,8.29-.83,11.36-3,2.6-8.91,2.79-11.37-.82a1188.85,1188.85,0,0,0-83.9-109,7.27,7.27,0,0,1-6.92.7,211.15,211.15,0,0,0-86.52-13c-4.34.28-8.53-1.8-9.39-6.45-.72-3.88,2.08-9.12,6.45-9.39a232.23,232.23,0,0,1,78.91,8.44q-27.4-30.26-56.81-58.64-15-14.41-30.43-28.28a9.64,9.64,0,0,1-5.74.21l-161.94-41.79c-4.21-1.09-6.23-6.49-4.85-10.32,1.58-4.4,6.08-5.94,10.31-4.85l138.07,35.64a1197.42,1197.42,0,0,0-138.17-101.39q-21.78-13.7-44.13-26.44a7.21,7.21,0,0,1-4.87,2.56l-103.11,13.21C219.7,1030.11,216.69,1014.27,227,1013Z"/><path class="cls-5" d="M3252.07,1237.32c74.55,13.88,148.84-26,180.68-94.82,38.62-83.51,97.22-222.22,125.39-349.77C3602.2,593.17,3738,620.6,3699,515s-353.12-4.75-479.43,210.15C3115.19,902.78,3073.22,1204,3252.07,1237.32Z"/><path class="cls-1" d="M3150.13,894.56l91.8,6.31-55.64-110.1c1.77-4,3.55-8,5.38-12L3298.1,989.41c8.72-36.25,19.17-74.61,31.51-112.43a5.16,5.16,0,0,1,.67-2.06c12.1-36.84,26-73.11,41.9-106.34-1.16-6.82-5.62-33.81-9.76-67.71C3355,693.7,3321,660,3299.3,624.66q3.75-3.66,7.56-7.23c16,26.51,40,53,53.65,67-3.91-35.39-7-75.48-5.59-107.38q5.25-3.95,10.54-7.75c-4,55.49,8.9,147.22,14.53,183.5,11.43-22.27,23.8-42.93,37.2-61.09a521.38,521.38,0,0,1,203.59-165.39,482.39,482.39,0,0,1,70.27-25.68,53.14,53.14,0,0,1,5.67,9.09,469.57,469.57,0,0,0-72.1,26.05,511.22,511.22,0,0,0-199.22,162C3392,743,3364.83,804.1,3342.85,869.49l213.27-67.9q-1.34,5.79-2.75,11.59l-214.46,68.28c-25.22,77.87-43.21,160.84-55.51,230L3465.76,1068q-2.51,5.91-5,11.68l-179.3,42.73c-8.52,49.23-14.06,90.56-17.22,116.7-3.37-.36-6.75-.84-10.13-1.42,3.23-26.91,8.91-69.59,17.68-120.14,0-.09,0-.18.05-.26,3.9-22.46,8.4-46.46,13.57-71.31,2.75-13.19,5.76-27,9-41.11l-47.18-93.37-99.73-6.86Q3148.81,899.59,3150.13,894.56Z"/><path class="cls-3" d="M3241.88,1272.55a106.94,106.94,0,0,1,9.89-85.71c65.82-112.44,264.63-393.9,495.7-427.4,290.19-42.07,407.85,12.69,446,131.25,32.71,101.55-100.2,59.22-136.52,72.45-73.89,26.9-115,136.05-245.81,195.53-96.47,43.86-345.45,132.77-469.53,176.43-39.58,13.93-82.7-7.47-95-47.12Z"/><path class="cls-4" d="M3523.42,1212.49a5.07,5.07,0,0,0-5.27-4.91l-112.12,3.8c48.41-28.15,104.74-61.25,158.67-93.75l153.45,8.52a5.15,5.15,0,0,0,5.44-4.79,5.06,5.06,0,0,0-4.8-5.37l-138.65-7.69c25.08-15.19,49.4-30.13,71.9-44.24,41.1-25.78,86.55-52,133.05-76.08l151.09,12a5.16,5.16,0,0,0,5.55-4.66,5.07,5.07,0,0,0-4.67-5.48l-134.68-10.7c124.25-62.57,253.08-107.88,324.6-87.78a5.17,5.17,0,0,0,6.35-3.51,5.05,5.05,0,0,0-3.5-6.28c-49.15-13.81-125.44-.15-226.75,40.61-37.68,15.17-74.5,32.33-108.56,49.57L3852.84,837a5.05,5.05,0,0,0-2.69-6.67,5.18,5.18,0,0,0-6.74,2.7l-63.21,146c-56.21,29.12-103.78,57.68-133.61,76.39-23.7,14.87-49.43,30.65-75.93,46.69L3600,951.06a5.06,5.06,0,0,0-4.07-5.93,5.16,5.16,0,0,0-6,4.06l-31.13,160.11c-56.38,34-115.37,68.59-165.12,97.48l22.14-93.85a5.06,5.06,0,0,0-3.83-6.09,5.17,5.17,0,0,0-6.16,3.83l-24.34,103.18c-63.29,36.69-108.91,62.56-109.92,63.13a5.09,5.09,0,0,0-2.38,5.93,4.56,4.56,0,0,0,.44,1,5.14,5.14,0,0,0,7,1.88c1-.58,47-26.68,110.77-63.63l131-4.44A5.14,5.14,0,0,0,3523.42,1212.49Z"/><polygon class="cls-6" points="3242.88 1780.21 2759.03 1780.21 2109.53 1766.62 1534.84 1780.21 1213.37 1762.82 859.43 1780.21 717.49 1780.21 815.93 250.53 943.78 250.53 1298.93 200.52 1628.92 250.53 2057.39 250.53 2372.56 200.52 2690.67 250.53 3144.44 250.53 3242.88 1780.21"/><path class="cls-7" d="M861.11,627.69c-6.4-1.05-5.42-12.71-5.09-17.28.57-8.07.29-11.69,7.32-17.22,7.86-6.19,17.33-8.41,26.29-12.12a117.49,117.49,0,0,1,21.67-6.21c19.9-4.08,40.37-.48,59.92,2.3,4.15.59,6.89,2.34,10.83,3.24,2.71.63,5.75.29,8.51.7,6.73,1,13.41,2,20.16,2.86a57.05,57.05,0,0,1,11.63,3.09c3.83,1.3,7.59,1.34,11.64,1.68,8.7.75,17.36,1.8,26,2.73a295.63,295.63,0,0,0,39,1.81c5.48-.13,10.17-2.13,15.45-3a131.17,131.17,0,0,1,17.78-1.74c4.16-.09,4.73-.74,8.38-2.29,5.1-2.18,2.19-3.3,3.39-8.37,6.47-2.33,13.34-1.74,20-1.79,4.73,0,9.13-.23,13.73,1,7.72,2,14.49,5.12,22.49,6.44,8.27,1.36,16,5.28,23.85,8.25,8.66,3.3,19.94,3.95,29.24,4.62,5.73.41,11,2.08,16.62,2.9,4.59.66,9.34.27,14,.29,11.07.07,22.13-1.52,33.26-1.6,4.73,0,9.29-.51,13.76,1,3.15,1.05,9.89,4.1,12.4,6.81,5.21,5.63,4.16,19.58,3.93,26.63-.39,11.82-4.25,19-13.26,26.69a158.69,158.69,0,0,1-14.42,10.88c-3.29,2.21-6.16,3.33-7.94,7.11-3.11,6.58-3.14,18.06-1.26,24.61,1.59,5.55,5.74,10.84,9.39,15.22,3.9,4.7,8.16,6.42,13.25,9.5s10.43,5.39,15.16,8.65c7.48,5.14,15.69,10,24.36,12.89,6.33,2.12,11.93,1.84,18.3-.09,8.28-2.52,11.64-5.31,13.4-14.45,2.37-12.22,5.1-24.11,5.38-36.54.17-7.62-.49-16.06.44-23.62.61-4.93,3.92-4.68,8.49-4.73,3.07,0,6.14.22,9.22.16,2.54-.06,4.77-.34,7.24.43s5.53,3,7.83,4.28c5.94,3.32,12.08,6.28,18,9.67,5.72,3.28,8.28,5.9,11.8,11.14,4.88,7.27,10.92,9.45,19.22,10.94,9.19,1.65,15.18,6,19.16,14.46a103,103,0,0,1,5.14,12.6c2.11,6.63,1.77,13.62,4.31,20.16,2.83,7.3,6.53,13.16,8.11,20.92,1.68,8.26-1.64,15.47-5.27,23-3.88,8-11.16,16-18.39,21-9.47,6.63-20.5,10.15-29.86,16.77-18.61,13.17-34.75,30.29-50.88,46.69-10.17,10.34-20.44,19.52-29.11,31.36-5.52,7.53-8.49,14.75-11.88,23.25-2.41,6-4.48,11.21-4.9,17.85-.38,5.9-2,13.48-5.61,18.42-4.36,6-15.83,3.62-21.49,1.39-16.07-6.32-30.77-16.42-46.75-22.88-7.47-3-15.08-3.22-23.06-3.08-3.91.07-8.33-.65-12.21.31a19.64,19.64,0,0,0-13.8,14.25c-1.2,4.94-.81,9.75-1.18,14.75s-1.88,9.6-2.32,14.47c-.87,9.64,4,16.34,11.22,21.57,8,5.75,17.67,8,26.69,11.46,6.74,2.57,14.7,1.68,21.88,1.55,6.37-.12,8.51,3.72,12.29,8.86,6.81,9.26,11.63,21.33,16,32.13,4.77,11.69,15.07,17.45,24.5,24.37,2.23,1.64,5,4.62,4.62,7.85-.66,6.23-13.61,4.88-17.7,3.86-7.36-1.83-11.73-8.29-16.28-13.92-5.22-6.45-10.72-13.65-17.2-18.72-5.25-4.11-11.36-6.67-16.87-10.32-5.67-3.75-10.77-8.07-16.8-11.25-5.5-2.91-11.25-5.28-17-7.64-7.74-3.18-14.35-7.65-21.32-12.26-17.83-11.79-36.76-21.08-51.93-36.59-4.21-4.31-7.87-11.32-10.58-17-1.86-3.87-1.62-8.54-3.62-12.24-4-7.45-13.52-12.51-19.91-17.24-5.46-4-11.79-6.65-17-11.06-17.13-14.61-25.58-34.4-32-56.07-1.25-4.19-2.89-8.38-3.15-12.8-.23-4.07.21-8-.23-12.11-1.29-12-2.26-23.71-5.38-35.3-2.73-10.12-4.8-20.73-8.74-30.37a130.09,130.09,0,0,0-15.52-26.75c-6.1-8.26-13-16.34-19.64-24.14-1.88-2.22-3.46-4.89-6-6.36-2.27-1.33-4.18-1.75-6.21-3.52a79.05,79.05,0,0,0-9-6.33c-4.48-2.94-7.93-6.7-12.94-8.89-10-4.36-20.59-7.8-30.32-12.62-6.53-3.23-14.28-4.74-21.31-6.8-8.34-2.45-16.35-3-25.06-3.08s-14.83.59-22.28,6.22a145.08,145.08,0,0,0-24.71,22.95c-5.05,6-10.86,10.71-18.11,13.55-4.23,1.66-8.23,4.17-12.35,5.81-2.06.81-3.62.52-5.76.72-4.87.44-11.47,4.35-13.54-1.26-.93-2.52-1.28-7.45,0-10.05,1.06-2.13,3.6-3.44,4.81-5.61,2.6-4.66,2.6-9.2,0-13.36a48.91,48.91,0,0,0-4.42-5.47c-2.43-3-2.35-6.46-3.1-10.27-1.32-6.65-4-12-3.54-19,.31-4.69,1.38-11.47,4.35-15.5,2-2.75,5.66-4.79,7.16-8.09C857,647.47,857,642.3,861.11,627.69Zm533.66,498.19c-.5-9.88,1.74-21.85,4.88-31.32.8-2.43,2.14-6.08,3.8-8.08s2.88-2.33,5.26-3.49a47.13,47.13,0,0,1,21.62-5c3.59,0,7.2-.17,10.78-.08,4.67.13,9,2.74,13.06,4.94,5.45,2.92,11.83,5.41,17,8.74,3.39,2.19,5.63,5.84,8.53,8.63,7.38,7.13,16.56,9.26,26.52,9.12,3.9-.06,8-.4,11.87.3,5,.89,8,3.68,12.2,6.27,5,3.13,10.56,5.2,15.84,7.8,8.85,4.37,17.59,10.25,25.87,15.72a138.05,138.05,0,0,1,20.45,17c5.82,5.66,12.6,9.92,18.84,15.1,4.52,3.75,9.21,7.14,14,10.48,5,3.48,10.63,5.33,15.47,9.24,6.23,5,10.07,8.09,10.91,16.52a164.44,164.44,0,0,1,1.21,18.31c0,3.46.12,6.43-1,9.75-1.63,4.87-4.79,9-6.65,13.78s-1.8,10.07-4.06,14.69c-2,4.16-3.24,8.21-5,12.49a244.43,244.43,0,0,1-18,35.41c-3.41,5.61-7.78,9.94-11.48,15.28a65.24,65.24,0,0,1-11.91,13.1c-3.47,3-7.44,5.07-10.89,8.06-5.21,4.51-9.43,10.21-14.61,14.81-12.15,10.76-23.39,22.34-34.86,34-3.27,3.33-5.82,7.29-9,10.7-2.75,3-5.56,5.77-8.38,8.67-3.59,3.69-6.8,7.81-10.29,11.61-3.1,3.38-6.52,6.25-9.69,9.52-3.91,4-6.87,9-10.83,12.94-2.93,3-6.87,5.42-9.58,8.53a52.3,52.3,0,0,0-3.37,5.06c-2.33,3.41-4.87,6.6-7.09,10.2-1.21,2-2,4.15-3.17,6.15-2,3.61-4.91,6.42-7,9.91-1.61,2.61-2.47,5.67-4.14,8.27-1.51,2.37-3.52,4.2-4.81,6.79-1.87,3.72-1.25,7.29-1.87,11.23a134,134,0,0,0-2,18.25c-.17,6.26-.29,12.53-.51,18.79a31,31,0,0,0,.57,8c.78,3.78,2.35,4.45,4.69,7.28,2.92,3.52,5.42,7.42,5.38,12.56-.07,9.91-12.59,14.76-19.9,15.6-12.81,1.49-32.78-.57-38.48-15a43.61,43.61,0,0,1-2.73-18c.41-11.3,5.53-19.59,10.73-29.3,3.94-7.37,8.31-14.44,12.22-21.81,3.51-6.61,5.23-12.49,7.49-19.46,1.37-4.26,3.08-7.94,4-12.34,1.17-5.39,1.25-10.74,2.72-16.11,1.55-5.65,3.82-10.65,4.74-16.56,1-6.41,1.46-13,2-19.46,2.17-25.18,5.27-49.75.9-74.52-3.11-17.66-7-35-10.6-52.44-2.62-12.69-8.68-24.4-15.45-34.81-6.92-10.63-17.4-18.08-24.22-28.58-1.56-2.41-3.25-4.64-4.92-7-2.85-4.1-2.89-8.16-3.52-13.08-1.8-14-1.44-28.85-1-43,.25-8-.52-16.16,2.33-23.61C1381.86,1146.94,1384.9,1146.74,1394.77,1125.88ZM1620.65,686c-4.67-2.06-8.35-6.6-12.15-9.89-4.46-3.86-8.65-6.92-11.7-12.12-5.59-9.53-12.7-17.94-16.66-28.4-3-7.92-4.69-15.79-7.09-23.86-1.19-4-1.81-8.15-2.83-12.22-1.45-5.83-1-11.43-3.69-16.93-9.18-19-30.92-24-43.69-39.43-2.68-3.23-4.13-6.53-6.07-10.31a50.4,50.4,0,0,0-13.37-16.57c-4.63-3.75-10.17-8.26-15.31-11.19-3.89-2.22-8.29-2.88-12.24-4.87-4.35-2.19-8.62-2.27-13.36-3.65-5.85-1.7-12.15-7.87-16.45-12.14-3.33-3.3-6-8.35-3.23-13.49,1.75-3.24,6.32-6.53,8.94-9,3.1-3,5.31-4.41,9.51-5,9.1-1.21,18.38-2.79,27.53-3.36,5.55-.35,11.39-.57,16.87-1.77s9.9-4.54,15.47-5.64c6.92-1.37,12.65-2.06,19.42-4.49,6.31-2.27,11-5,16.9-8.08,10.64-5.52,22.93-8.87,33-15.45,6.22-4.08,11.29-5.84,18.8-6.15,12.65-.52,25-1.63,37.7-2.68,14.61-1.21,29.53-.31,44.17-.31,19.39,0,40-1.75,59.28.34,7,.76,15.07,0,21.44,3,3.74,1.76,6.14,4.56,9.78,6.21,6.59,3,18.39,4.17,22,11.14,1.84,3.55,3.94,7.67,4.1,11.76a73.93,73.93,0,0,1-3.71,26.68c-2.38,7.44-8.19,13.91-12.37,20.44-4.75,7.41-9.7,14.67-14.43,22.13a115,115,0,0,0-12.06,24.84c-1.25,3.74-3.13,6.9-4,10.82a134.43,134.43,0,0,1-5.15,18.48c-3.18,8.47-6.41,16.07-12.82,22.51-8.16,8.2-16.48,10.7-27.4,13.73a77.19,77.19,0,0,1-16.64,3.14c-4.11.24-8.73.47-12.71,1.84-8.32,2.87-16.8,7.73-24.65,11.81a69.11,69.11,0,0,0-12,8.34c-3.84,3.11-8.22,5.07-11.37,8.95-2.95,3.62-6.36,8.63-7.8,13-1.19,3.63-1,7.17-1.68,11C1628.28,662.72,1624.93,666.43,1620.65,686Z"/><path class="cls-7" d="M1114,566.67c-3-3.17-7.42-6.23-10-9.63s-2.78-9.68-2.68-13.75c.09-3.7-.76-8.28,2.22-10.9,3.41-3,10.93-6.1,15.38-6.3a65.68,65.68,0,0,0,12.31-1.3c4.21-.95,9.88-.5,14,.13,9.84,1.49,21.17,5.12,31.48,2.69,1.12-4.12-1.28-12.51,1.72-15.43,4.83-4.71,17.55-.65,21.82,1.66,7.48,4,16,7,22.61,12.44,4.78,3.93,9.35,7.63,16.13,5.94,1.27-3,2-9.45,2.33-12.49.52-5.27.27-10.63.55-15.9.45-8.45,6-17.17,14.74-17.94,3.11-.27,6-1,9.06-1.38s6.09.27,9.13-.05a55,55,0,0,0,8.18-1.7c3.45-1,8.51-4.11,11.75-6a36.58,36.58,0,0,0,13.52-14.9c3.28-7,2.11-15.86,9.55-19.76,9.47-5,20.76-2.7,30.69-4,5-.67,9.23-3.7,14.15-5,5.55-1.49,11-.88,16.44-3.32,4.83-2.18,8.78-5.82,13.41-8.25,3.79-2,7.93-1.88,12-2.77,3.39-.74,6.6-2.05,9.92-2.94,8.33-2.22,18.06-.69,26.64-.69h34.76c4.15,0,17.27-2,10.77,6.14-2.5,3.11-7.68,4.45-11,6.56-5.78,3.67-12.59,5.43-18.75,8.34a208.16,208.16,0,0,0-38.66,23.8c-12.89,10-24.84,20.16-25.2,37.16-.11,5.3,1.74,12.5-4.91,13.68-11.22,2-22.91-4.3-33.66-5.92-8-1.22-16.29-.93-24.2-2.24-4.08-.67-7.14-2.17-11.3-.51-3.19,1.28-4.47,3.75-5.27,7-1.87,7.65,8.57,7.82,14,7.93,6.51.14,13.1-.15,19.62-.14,3.14,0,6.41-.26,9.53,0,1.92.14,2.39.77,4,1.21,4.92,1.34,9.95,1,14.76,3.1,1,.43,2.86,1.07,3.57,1.89,1,1.19.65,2.66,2.3,3.46-1.27,3.94-14.23,6.75-17.89,7.3a50,50,0,0,1-8.3.16c-2.9-.06-5.72-1.06-7.53,1.79-1.15,1.81-.87,7.14.27,8.73,5.55,7.74,21.79,5,30,5,13.34,0,26-.72,38.85,2.73,20.17,5.41,37.15,19.88,51.07,35.13,5.79,6.35,8.23,14.06,12.23,21.45,3,5.57,3.6,9.72,4.59,16a65.85,65.85,0,0,1,.42,12.72c-.08,3.05.84,8-1.26,10.69-2.54,3.3-9.27,3-12.7,3.13-7.43.25-15.84.84-23.15-.4-4.39-.74-6-2.35-9.51-4.44-3-1.81-6.05-2.27-8.81-4.65-6.71-5.78-6.76-13.77-9.87-21.59-2.41-6-6.79-10.78-10.35-16.1-3.82-5.72-8.23-11.5-13.63-15.79-9.38-7.47-22.61-12.54-34.56-12.34-5,.08-9.51-.53-14.13,1.52-3,1.32-3,1.07-2.84,4.72.13,2.59,1.1,3.91,1.72,6.36-1.85,2.53-9.23,1.82-12.25,1.53-4.52-.44-9-2.38-13.24-3.76a352.7,352.7,0,0,0-41.52-10.07c-7.49-1.43-13.48,2.29-20.59,4.07-4.42,1.1-9,.5-13.46,1.87-4.8,1.45-8.12,1.56-13.13,1.57-15.36,0-29.7-3.46-44.15-7.9-6-1.85-12.14-2.47-18.37-3.23s-8.7-1.88-14.76.19c-5.08,1.74-9.47,1.56-14.83,1.56-2.87,0-6.45.59-9.25.07S1125.7,571.74,1114,566.67Zm1967.29,24.86c-7-4-89.67-4.17-97.1-4.17h-25.48c-4.67,0-9.35.17-14,.07-11.56-.23-23.36-4.15-34.76-6.37-9.38-1.83-18.72-3.31-28-5.66-7-1.77-14-3.68-21.08-5.13-10.43-2.14-21-3.36-31.57-4.5-9.81-1.07-19.65-3.31-29.49-3.43-18.4-.22-36.53-.52-54.91-3.33-7.41-1.13-14.92-2.2-22.29-3.61s-15-2.54-22-4.57c-10.88-3.12-21.63-6.74-32.43-10.11-4.31-1.35-8.81-1.86-13.08-3.26-2.33-.75-4.51-1.86-6.88-2.48a79.46,79.46,0,0,0-15.91-2.68c-3.91-.2-7.26-1.85-11.26-2-.86-5.14-.44-10.87-.59-16.07-.05-1.86.68-4.89-.38-6.49-2.38-3.58-10.42-5.26-14.29-6.45-5.79-1.77-11.34-4-17.28-5.24-3.91-.79-7.86-.95-11.8-1.45a89.27,89.27,0,0,0-32.6,1.71c-20,5.09-40.27,9.06-59.64,16.34-13.61,5.12-28.44,8.47-39.3,18.65-2.41,2.27-4.78,4.73-7,7.2-2.66,2.93-4.64,6.65-7.66,9.23a36.26,36.26,0,0,1-6.41,4.23c-3,1.56-4.87,1.8-8.09,2.33s-5.85,2.48-9,2.9c-2.69.37-5.46,0-8.18.27-9.79,1.16-20,2-29.58-1.27-2.48-.84-5.5-1.26-7.69-2.68-1.41-.91-2.16-2.67-3.51-3.62-1.8-1.29-5.19-1.48-7.26-1.77a53.34,53.34,0,0,0-14.39-.15c-8.54,1.29-18.36,8.75-20.37,17.54-2.12,9.28.87,19.93,1.08,29.37,0,2.12.56,4.59-.71,6.4-1.82,2.6-6.53,2-9.35,2.31-14.55,1.46-29.09-.15-43.67-.67-9.29-.33-18.39-1.88-27.56.06a119.67,119.67,0,0,0-18.46,4.95c-7.1,2.74-14.35,5.27-21.67,7.39-8.77,2.55-17.45,5.62-26.26,8s-17.88,6.41-26.37,10.07c-1,.44-2.67,1.52-3.79,1.46-2.49-.15-5.92-4.15-7.35-5.81-3-3.42-3.51-7.21-3.71-11.44,5.24-1.54,10.8-1.39,16.1-2.86,1.87-.52,4.2-.74,5.37-2.41,1.59-2.27,1.18-7.07,1.14-9.67-.06-3.4.55-5.4-2.94-7-1.75-.79-3.9-.9-5.67-1.42a72.88,72.88,0,0,1-8.57-3.48,119.09,119.09,0,0,0-23-7.39c-7.64-1.66-15.34-3.53-23.17-3.35-6.35.14-12.72.05-19.08,0-11.52,0-22.55-.18-33.91,2.17a90.38,90.38,0,0,0-26.48,9.9c-8.11,4.54-12.92,9.73-18.43,17.33-9.68,13.39-18.16,27.7-28.37,40.76-7.13,9.12-14.56,18.5-18.35,29.68a50.21,50.21,0,0,0-2.49,13.41c-.3,4.88-.91,8.94,1.9,12.83,2.35,3.25,5.2,4.69,9.12,5.76,4.08,1.12,9.14,0,13.2-.81,4.36-.84,7.27-1.68,10.64-4.05.88-.62.46-1.48,1.72-1.5,1.49,0,2.09,2.31,2.44,3.37,1,2.94.88,5.53.92,8.52,0,2.45.75,4.23-1.92,5.19-1.22.43-2.78-.1-4,.33-.93.32-2,1.56-2.87,1.93-1.93.85-4.06.67-6,1.67a60.51,60.51,0,0,0-7.35,5.16c-5.61,4.14-7.89,9.1-11.11,15.25-1.33,2.55-2.07,4-4.33,5.47-6.26,4-13.69,7-20.26,10.48a126.09,126.09,0,0,0-11.44,6.7c-2.52,1.68-5.79,3.31-7.33,6.08-2,3.68-2.12,8.61-3.68,12.66-1.27,3.27-3.18,7.54-6.4,9-2.45,1.12-7.74,1.16-9.43,3.45-1,1.38-1.1,4.53-1.12,6.2-.05,4.65,1.29,7.71,3.68,11.42,2.28,3.55,3.3,4.7,3.94,8.75.58,3.62,2,9,.6,12.57-.75,1.93-3.76,3.81-5.33,4.41-3.63,1.38-9.23-.57-13-1.2q-5.12-.74-10.16-2l-1.68-.39c-5.2,2-5.38,10.64-6.88,15.13-2.8,8.38-18.31,19.28-10.81,29,2.28,3,5.33,3.65,8.09,5.7a31.79,31.79,0,0,1,2.53,3c1.18,1.09,4.28,2.35-.31,17.27.24,3.44-3.7,7.25-5.45,9.86-3.54,5.25-6.47,10.53-10.65,15.29-3.6,4.09-5.42,9.3-8.07,14.08-3.31,6-6.93,11.51-9.54,17.89-1.77,4.35-4.41,8.19-6.36,12.44a117.41,117.41,0,0,1-7.85,15.1c-4.62,7.14-9.06,14.16-11.21,22.63-1.57,6.19-1.18,12.32-1.31,18.63-.14,6.83,0,11.71,2.8,18,1.91,4.37,4.13,8.7,6.45,12.85a237.48,237.48,0,0,1,13.68,29c1.57,4,2.58,8.12,4.69,11.89a68.26,68.26,0,0,0,5.59,7.87c2.26,3,3.74,6.73,6.43,9.28,3.41,3.22,6.68,3.51,11.08,3.46,7.85-.1,15.56.28,23.33-.86,5.71-.83,11.69-1,17.45-1.35,4.64-.29,8.2-2.71,12.52-4.38,4.72-1.83,8.9-4,13.92-4.8,1.49-.23,3.68-.23,5-1,1-.54,1.51-2,2.34-2.63,2.36-1.78,7.11-2,9.95-2.48a24.3,24.3,0,0,1,7.42-.22c4,.65,6.59,4.31,9.28,7.16a57.44,57.44,0,0,1,7.36,9.33,45.18,45.18,0,0,1,4.1,8.2,52.92,52.92,0,0,0,6.12,10.42c4.09,5.89,6.75,12.28,9.19,19.19a101.82,101.82,0,0,0,4.24,10.91c1.83,3.77,4.31,7.23,6.08,11,2.09,4.45,4.45,8.26,4.4,13.4-.08,7.84,0,15.69,0,23.54q0,7.74,0,15.48c0,3.37.27,6.85,0,10.21-.24,3.63-1.14,6.77-1.12,10.51.08,10.09-.23,20.33,2.83,30,1.67,5.28,4.82,10.32,7,15.34,2,4.5,4.89,7.72,7.18,12,4.29,8.07,9.51,15.26,13,23.87,3.09,7.56,3.49,15.25,5,23.12,1.2,6,.84,12.08,3.16,17.87,3.85,9.62,10.71,16.31,20,19.41,4.87,1.62,10.29,3.78,15.38,4.32,5.48.59,12.72,1.41,18.11-.23,8.85-2.69,16.11-10.68,19.48-19.34s7.47-17,10.51-25.71c1.77-5.13,2.67-10.48,4.62-15.55a129.8,129.8,0,0,0,5.45-16c2.38-9.67,7.44-18.7,11.19-27.79,2-4.88,3.92-10,6.17-14.72,3.51-7.41,9.63-13.31,13.53-20.55,2.56-4.76,5.14-9.72,8.51-13.9a48.27,48.27,0,0,0,7.33-12c3.68-8.78,2.3-18.38,3.89-27.57,1.49-8.73-.1-18,2.41-26.49,2.95-10,9.39-19.88,15.46-28,4.86-6.51,11.44-11.47,16-18.2,2.57-3.78,4.65-7.08,7.83-10.37a67.32,67.32,0,0,0,9.85-12.56,135.23,135.23,0,0,0,8.92-18.51c1.27-3.09,2.87-6.71,3.35-10.07.6-4.15-2.88-9.83-6.41-11.64-2.5-1.29-5.86-1.43-8.56-2.14a28.11,28.11,0,0,0-8.36-1.39c-3.63.07-5.15.15-8.6-1.87-6.34-3.7-12.75-8.57-18.69-13-5.38-4-9.49-9.55-14.38-14.12-2.06-1.92-4.37-3.53-6.27-5.62a42.54,42.54,0,0,1-5.34-8.06c-2.84-5-5.29-10.16-7.95-15.26-3.12-6-4.8-12.4-7.43-18.6-2.52-5.93-4.88-11.88-7.29-17.86-1.32-3.28-2.32-5.86-2.36-9.32,0-3,1.12-3.24,4-3.35,2.28-.08,6.5-.59,8.74.22,2.7,1,4.39,4.25,6,6.55,3.08,4.41,4.79,9.81,6.39,15,1.51,4.85,2.31,9.31,5.26,13.47,2.64,3.7,5.59,6.91,8.55,10.31,4.69,5.37,8.89,11.08,13.3,16.66,3,3.8,6.87,6.64,8.41,11.38a39.26,39.26,0,0,0,2.55,5.11c1,2.19,1.09,4.57,2.71,6.47a16.08,16.08,0,0,0,6.43,4.14c1.93.75,3.72,2.18,5.76,2.52s4.75-.08,6.94-.08c5.86,0,11.72,0,17.58,0,3,0,5.09.46,7.68-1.18,4.47-2.81,8.86-5.82,13.36-8.62,10.12-6.31,23.44-12.1,29.77-23a26.69,26.69,0,0,0,1.51-3.37c.54-1.33,1.47-2,2.09-3.2a20.33,20.33,0,0,0,1.7-5.73,36.91,36.91,0,0,0-.46-13.86c-1.92-6.69-8.23-10.21-13.78-13.22-6.91-3.75-14.22-6-21.77-7.85-3.27-.82-2.06-1.42-3.91-3.81a17,17,0,0,0-4.22-3.19c-3.52-2.12-7.08-3.42-10.52-5.65-4.31-2.78-8.7-5.4-12.43-9-1.41-1.38-3.1-2.81-4.41-4-1.89-1.73-3.34-4.17-1.2-7.24,4.57-6.58,15.77.28,20.95,3,9.55,5,20.14,8.17,30.26,11.76,8.65,3.08,16,9,25,11.36,13,3.43,26.54,2.1,39.51,5.18,9.56,2.27,18.2,10,24.66,17.41,4.76,5.43,9.12,11.23,13.74,16.8a78,78,0,0,1,5.7,7c1.81,2.8,2.88,6,4.42,8.89,2.65,5,5.53,10.33,7.22,15.83,2.27,7.36,4.09,14,7.46,21,3.85,8,7.23,16.71,14,22.47,2.88,2.44,4.64,1.76,8.3.6a56.52,56.52,0,0,0,17.23-9.2c6.68-5.11,11.07-16.31,13.12-24.6,1.37-5.52,1.12-11.33,2.59-16.87a92.18,92.18,0,0,1,3.83-12c1.51-3.62,4.57-6.59,7.07-9.46,4.61-5.26,9.27-10.66,15.17-14.35,3.23-2,6.37-4.19,9.59-6.23,1.68-1.07,1.74-1.51,3.84-.08,10.63,7.25,18,17.89,27.84,26.17,6.55,5.54,11.22,13.14,16.21,20.16a78.91,78.91,0,0,1,7.76,13.32c2.5,5.59,3.25,12.46,3.77,18.5.77,9-.5,18.46.82,27.38.81,5.43,5.63,8.92,6.9,14,4.28-1.9,5.48-9.32,6.93-13.44a93.93,93.93,0,0,1,3.77-8.74c2-4.18,3.55-9.09,6.18-12.82,1.63-2.32,4.41-7.17,6.87-8.59,4.36-2.51,7.05.69,10.25,3.54,5.47,4.86,10.11,3.57,16.06,1.36a14.43,14.43,0,0,0,9.35-10.15,35.11,35.11,0,0,0,1.54-9.46c0-5.08.57-11.73-.66-16.68-1.66-6.73-7-12.08-10.77-17.49-1.77-2.54-4.52-5.14-.11-6.77a68.07,68.07,0,0,1,12.15-2.75,125.77,125.77,0,0,1,13.43-1.26c8.53-.4,14.49-4.79,21.58-9a123.62,123.62,0,0,0,13.09-9.24c3.92-3.08,6.84-7,10.35-10.47s4.27-6.73,5.94-11.31a89.52,89.52,0,0,1,3.84-8.67,32.23,32.23,0,0,0,5-12.84c2.56-7.59,5-16,4.88-24.28-.09-7.63-1.76-15.1-2-22.76s-1.44-15.85-7.28-21.32c2.89-4.07,7.45-6.88,11.25-10,2.05-1.68,2.89-1.53,5.41-1.91,1.75-.26,3.19-1.24,5-1.23,4,0,7.95,3.75,11.52,5.54,1.7.86,4.17,1.34,5.3,2.78,1.5,1.93,2.12,4.45,3.8,6.45,2,2.34,4,4.28,5.66,6.91,2.08,3.41,3.08,7.21,4.91,10.74,1.16,2.24,2.44,5.68,5.15,6.39,4,1,8.4-4.75,10-8.19,1.15-2.52.47-7.29-.11-10-1.1-5.17-4.69-9.68-5.52-15-.56-3.64,1.79-4.86,4.36-7.16,3.64-3.25,7-6.74,10.53-10.07,2.36-2.24,5.28-2.9,8.06-4.12,4.24-1.86,8.9-3.6,13.1-5.79a33.38,33.38,0,0,0,10.05-8.3c2.75-3.24,5.08-6.79,7.69-10.14,1.13-1.45,2.68-2.68,3.78-4.16,1.49-2,2-4.91,2.93-7.25,4.58-12.08,7.8-24.18,14.48-35.22,1.8-3,2.83-8.26,1.82-11.83-.88-3.14-3.22-5.35-5.13-7.81a18.28,18.28,0,0,1-3.71-9.19c-.46-3.34-1.7-6.55-1.31-9.91.42-3.62,2.24-6.13,4.23-9,6.06-8.61,15.39-14.77,24.48-19.59,5.39-2.86,10.41-6.42,15.93-9,8.81-4.12,18.78-5.07,27.75-8.7,6.31-2.56,12.77-4.5,19-7.05a177.68,177.68,0,0,1,31-9.83c5.62-1.16,11.4-.74,17.17-.75,2.93,0,8.38-1.21,11.14.24-4.13,3-7.58,8-11.19,12-6,6.59-12.74,12.47-18.73,19.06-10.91,12-20.12,28.22-19.6,45.53.11,3.8-.38,8.9,3.41,11.15,2.86,1.68,7.42,1.33,10.24.34,6.13-2.15,10.25-11.09,14.11-15.8A253.75,253.75,0,0,1,2961,729.53c3.65-3.55,6.1-7.73,8.35-12.32,1.56-3.2,1.71-6.6,2.7-10,1.08-3.69,1.6-7.76,3-11.29.54-1.39,1.3-2.61,1.92-4s.77-3.06,1.52-4.17a31.6,31.6,0,0,1,3.16-3.5c2.87-2.94,6.21-6,9.26-8.75,6.17-5.65,12.15-12,16.35-19.33,4-7,104.49-12.84,106.25-20.82C3114.38,631.56,3086.36,594.45,3081.25,591.53ZM2142.17,905.32c-.16,3.78-1.76,6.92-3.48,10.17-3.13,5.89-9,11.8-15.1,14.28-9.88,4-21.41,3.75-31.86,3.7-3.25,0-7,.59-10.28-.11-2.11-.46-4.14-1.51-6.24-2.06a79.88,79.88,0,0,0-20.54-2.9c-2.7,0-5.41.07-8.11,0-1.85,0-3.3-.23-4.87.93a24.22,24.22,0,0,0-5.76,6.69c-1.49,2.44-2.43,5.58-4.4,7.67-1.72,1.83-3.7,2-6,2.07a93.72,93.72,0,0,1-9.63-.1c-7.38-.67-12.24-6.53-17.69-11.1-5.69-4.77-12-8.58-17.94-13-3.18-2.33-3.45-6.8-4.55-10.45-1.55-5.09-1.79-11-4.79-15.5-2-3-5-4.52-8.29-5.45a53,53,0,0,0-12.11-2.14,40,40,0,0,0-11.32,1.17c-5.05,1.32-10.44,2.26-15.35,4-3.31,1.17-6.89,2.16-10.07,3.66-2.45,1.16-4.61,2.91-7,4.14-5,2.55-10.52,4.22-15.8,6-2.45.84-5.71,1.26-11.11,2.63-1.29-3.35-2.53-7.39-.56-10.77,1.42-2.41,4.19-4.51,6.16-6.45a20.54,20.54,0,0,1,8.52-5.1c2.34-.73,8.3-1.1,9.46-3.92.47-1.12.42-3.52.71-4.66a46.9,46.9,0,0,1,3.57-10.72,37.26,37.26,0,0,1,8-9.64c3.56-3.25,7.79-5.62,11.18-9.06,3.91-4,8.86-6,13.63-8.75,2.32-1.34,4.5-3,6.85-4.24a22.45,22.45,0,0,1,8.54-2.13,51,51,0,0,1,9.06-.64c3.66.27,6.1,3.38,8.49,5.92,5.52,5.87,8.6,13.43,13.72,19.63,1.25,1.51,2.86,3.69,5,3.35s3.33-3.54,4.09-5.43a19.76,19.76,0,0,0,1.79-9.9c-.61-5-5.09-8.31-7.81-12a12,12,0,0,1-2.49-5.32c-.24-2.21,1-1.7,3.06-2.29a106.68,106.68,0,0,0,11.74-4.23c2.14-.91,4.34-2.63,6.61-3.11,1.94-.41,3.55.34,5.16,1.46,3.22,2.23,6.69,4.79,8.78,8.21,3.5,5.76,4.71,12.85,8,18.75a28.66,28.66,0,0,0,17.31,13.74c5.71,1.68,14.15,3.74,20.09,1.35,2.26-.91,4.09-2.55,6.25-3.61,2.34-1.15,5.11-.71,7.54.14,13.78,4.88,4.62,25,14,34,2.81,2.66,6.87,3.12,10.46,3.23,4.59.14,9.21.14,13.79,0,5.24-.2,10.25-1.37,15.49-1.37,2.66,0,4.39-.74,5.49,2.13C2142.43,900.31,2142.27,903.06,2142.17,905.32Z"/><path class="cls-7" d="M2239.61,1259.92c-.08-2.42.23-4.81-.37-7.2a31.88,31.88,0,0,0-4.11-9.9,8.19,8.19,0,0,0-9-3.71c-6.1,1.41-8,9.18-10.62,14.11-1.51,2.81-2.68,5.23-4.86,7.52-1.52,1.61-3.28,2.79-4.84,4.35-3.32,3.32-6.15,7.09-9.4,10.46-3.63,3.76-6.28,8.93-5.91,14.48.29,4.35,2.62,8.06,3,12.36.36,3.69-1.4,5.19-2.27,8.37-1.08,4-.38,8.8-.35,12.87,0,3.72-.38,5.94,3,7.63a11.33,11.33,0,0,0,8.48,1.11c2.83-.81,5.1-3,7.71-4.29,5.44-2.73,9-9,11.87-14.46,3.46-6.6,5.37-13.79,8.73-20.48,2.21-4.4,4.68-8.61,7.06-12.89,1.08-2,2.08-3.88,2-6.12A73.67,73.67,0,0,1,2239.61,1259.92Zm292.71-140c4.14,5.87,10.44,10.12,15.13,15.59a98.67,98.67,0,0,0,8.56,9.14c2.7,2.44,5.57,4.71,7.88,7.6a62.65,62.65,0,0,1,7.75,11.7c2.12,4.36,5.21,8.22,7.57,12.47a31.38,31.38,0,0,0,4.1,6.13c1,1.14,2.24,1.9,3.06,3.2a47.92,47.92,0,0,0,5.53,6.74,8.55,8.55,0,0,0,4.85,2.68c2.09.47,4,.46,5.18-1.33,2.05-3.24,1.41-7.48.43-11.13-1.87-6.94-6-12.35-10.18-17.91-2.15-2.86-3.87-6.09-6.26-8.75a67.12,67.12,0,0,0-9.4-8.21c-4.81-3.67-9.26-7.94-14.31-11.21a46.61,46.61,0,0,1-6.37-4.65c-.89-.81-1.78-1.65-2.67-2.41-1.79-1.51-3.4-3.3-5.27-4.7a59.09,59.09,0,0,0-7.49-4.8c-1.45-.77-3.4-.89-4.76-1.79C2534.78,1117.67,2535,1116.48,2532.32,1119.89Zm87.6,24.3c-.13,2.77-1.21,5.18-1.19,8.06,0,4.34-.21,9.18,1.44,13.31,2.13,5.36,5.77,7,10.39,9a24.67,24.67,0,0,0,3,1.73c1.49.42,3,.8,4.49,1.12a36,36,0,0,0,8.32.71c3.92,0,7.63-.38,11.18-2.18,2-1,3.67-2.6,5.64-3.74a18,18,0,0,0,3.92-3.1,44.47,44.47,0,0,0,4.14-5.71c1.56-2.2,2.3-4.38,3.47-6.78a32.27,32.27,0,0,0,1.65-3.21c.8-2.2.32-4.18.59-6.47a42.76,42.76,0,0,0-1.07-14.54,25.33,25.33,0,0,1-.48-8.54c.28-1.85,1.06-3.42,1.06-5.46a14.94,14.94,0,0,0-.25-4.43c-.8-2.24-3.9-3.61-5.8-4.28-4.11-1.44-8.36-1.58-12.62-1.64-3.85,0-8.89-.9-12.35,1.21-4.44,2.71-6.64,8.26-6.67,13.62,0,1.6.48,3.32.11,4.88a16.6,16.6,0,0,1-2.49,4.82,29.29,29.29,0,0,1-5.64,5.49C2629.28,1139.27,2627.33,1141,2619.92,1144.19Zm168,29.54a2.54,2.54,0,0,0-1.15-1.36c1.07-.57,4.49-.12,5.34-.11a35.58,35.58,0,0,0,4.13,0c2.21-.26,3.46-1.58,5.11-2.93a25,25,0,0,1,3.15-1.89c.41-.25.53-.73,1-1,1.12-.52,3.92-.56,5.11-.74,8.57-1.29,17.51.55,25.59,4.18,5.73,2.56,11.6,5.14,17.1,8.26,3.06,1.73,5.43,4.08,8.61,5.52a44.52,44.52,0,0,0,16.87,4.1c3.16.08,6.3-.24,9.46.12,3.69.41,7.76.59,11.4,1.34,1.59.32,1.89,1.15,2.18,3.09.51,3.51-.79,5.86-3,8.25-1.22,1.33-2.38,3-4.21,3.4a19.46,19.46,0,0,1-4.58.08c-3.17,0-6.49.35-9.65-.19-.92,1.08-.87,4.71-.19,6a11.64,11.64,0,0,0,2.29,2.46,56.77,56.77,0,0,1,5.8,6.57c1.2,1.76,2.61,4.13.86,6-2.21,2.33-7.47,1.49-10.29,1.48a27,27,0,0,1-12.24-3.1,11.9,11.9,0,0,1-2.72-1.59c-.94-1-1-1.46-2.36-2a55.83,55.83,0,0,0-5.45-2.51c-1.26-.4-4.62-1.21-5.77-.37-.55.41-1,1.56-1.57,2.08-1.11,1-2.42,2.65-3.68,3.37a14.61,14.61,0,0,1-4,1,10.11,10.11,0,0,1-2.7.25c-4.57-.44-8.51-7.06-11.65-10.18-5.83-5.81-10.11-13-16.28-18.49a25.32,25.32,0,0,0-9.95-5.44c-1.65-.42-2.75-.3-4.55-1a33.86,33.86,0,0,1-7-3,31.92,31.92,0,0,0-4.91-2.64,5.39,5.39,0,0,1-2.86-2.35C2780.5,1178.71,2779.63,1175.81,2787.94,1173.73Zm-24.08,63.08c-4.15,4.42-5.34,9.94-7.3,15.67a20.23,20.23,0,0,1-.54,2.26c-.4.68-1.35,1-1.94,1.43-1.56,1.25-2.14,1.94-4.29,1.4s-4.28-2.59-6.32-3.65c-2.41-1.25-5.34-.67-7.88-.73-6.33-.13-10.36,7-12,12.74a27.31,27.31,0,0,1-4.27,8.18c-1.46,2.14-2.36,4.65-3.87,6.73-1.26,1.73-3,2.59-4.77,3.67-2.86,1.79-5.63,3.71-8.37,5.69-4.42,3.2-8.9,6.9-13.74,9.38-3.88,2-7.81,3.84-12.16,4.42-1.87.25-3.52.58-5.33,1s-3.33,1.72-4.82,2.8c-3.79,2.76-6.91,8.31-8,13.09s-.52,10.56-.09,15.45a21.66,21.66,0,0,0,3,9.85c1.75,2.63,2.49,6,3.86,9,2.19,4.71,3,9.75,4.07,14.75a90.65,90.65,0,0,1,1.45,15.68c.14,4.14-.42,8-.28,12.08.15,4.27-.31,7.32,3.31,10.08,2.49,1.9,4.81,1.89,7.65,1.89,8.11,0,15.81-.24,23.35-3.42,9.05-3.81,15.86-11.4,24.89-15.36a33,33,0,0,1,12.79-3.15,41.79,41.79,0,0,0,13.29-2.7c3.85-1.45,8-2,11.93-3.41a56.14,56.14,0,0,1,9.71-2.08,14.24,14.24,0,0,1,6.91.44,13.91,13.91,0,0,1,6,4.29,51.21,51.21,0,0,1,5.34,6.51c2.32,3.86,2.19,9,5.56,12.08,1.87,1.7,3.48,1.69,5.84,1.55,3.33-.18,7.33-2.8,10.69-1.69,1.28.42,2.66,2.8,3.39,3.73,2.05,2.63,4.06,5.26,6.32,7.68,3.14,3.36,6.66,6.72,9.22,10.53,1,1.5,1.82,3.37,3,4.74s2.61,1.9,3.64,3.39a13.5,13.5,0,0,0,6.59,5.59c8.34,3.53,16.32,3.18,25,3.18,3.18,0,6.93.49,10-.12,3.61-.7,7.83-3,11.12-4.62,5.11-2.55,12.76-5.93,15-11.73a15.68,15.68,0,0,0,.71-4.71c.26-3.12,1.07-6.08,1.37-9.18s.24-6.51.51-9.74a27.73,27.73,0,0,1,2.94-9.89c2.19-4.63,3.27-9.67,5-14.53.72-2.07,2-3.81,2.62-5.94.47-1.72.46-3.59.82-5.33,1.83-9,.11-19.33-3.75-27.86-2-4.39-3.3-9.07-6.45-12.8-2.73-3.23-5.43-6.44-9-8.7-3.3-2.1-6.74-3.6-9.6-6.45-3.39-3.39-7-6-10.24-9.62a165.09,165.09,0,0,0-12-12.5c-5.23-4.82-7.52-11.19-9.31-18-.88-3.35-2.17-6.63-3.1-10a43.07,43.07,0,0,0-4.63-10.48c-.39-.66-.44-1-.86-1.57a16.9,16.9,0,0,0-1.43-1.62c-2.59-2.76-5.46-5.21-8-7.93-1.76-1.85-4-3-6.3-.77a16.63,16.63,0,0,0-1.82,4,15.83,15.83,0,0,0-.8,5.45c.06,6,1.19,12.91-1.22,18.39-3,6.82-10.7,7.45-17.32,6.52-5.67-.79-9.67-3.8-13.51-8.08a41.84,41.84,0,0,1-5-6c-.94-1.61-.53-3.61-1.21-5.39-1.63-4.29-5.24-7.55-8.79-10.17-2.85-2.11-5.73-5-9-6.14C2778.37,1234.89,2775.35,1234.63,2763.86,1236.81Zm288.54,174.32a8.25,8.25,0,0,0,1.52,3,54,54,0,0,1,2.71,6c1.11,2.23,2.65,4.13,3.75,6.36,1.3,2.61,2.56,5.37,4,7.89.76,1.31,1.4,1.77,1.62,3.28.35,2.45,1.39,5.19,1,7.65-.2,1.16-1,2-1.13,3.2a16.13,16.13,0,0,0,.19,3.08c.21,2.28.74,4.09,2.59,5.31,1.6,1.06,2,.72,2.71,2.9.24.77.21,1.65.92,2.16,2.21,1.61,6.69-2.76,7.83-4.4a84.41,84.41,0,0,1,5.49-7.34c3.15-3.64,7.47-4.86,8.2-10.56.4-3.13-.36-6.64-3.65-7.32-2.2-.45-4.18-.52-6.42-.77-3.1-.35-4.32-1.89-6.21-4.47-1.14-1.55-2.9-3-3.92-4.47-.42-.62-.71-1.29-1.18-2-1.88-2.76-5.61-4.56-8.15-6.54-2-1.54-3.92-2.78-6-4.15-1-.68-1.89-2.11-3.11-1.93C3054.79,1410.44,3055.37,1413.21,3052.4,1411.13Zm-33.44,91.8c.16,3.24.21,6.22,3.88,6.86,2.38.41,5.06,0,7.47,0,1.18,0,2.36,0,3.54,0,1.46,0,1.24,0,2-1.14a21.44,21.44,0,0,1,2-2.24c1.71-1.92,3.12-4.16,5-5.91,2.19-2,4.94-3,6.62-5.75.84-1.38,1.78-2.66,2.63-4,1-1.64,1.08-3.83,1.79-5.66a37.15,37.15,0,0,0,1.55-7.24,70.53,70.53,0,0,1,2.52-8.79,11,11,0,0,0,.64-5.15c-.36-2-2.93-2.2-4.56-1.59-1.23.47-1.28,1.32-2,2.22-.46.62-1,1-1.51,1.6a45,45,0,0,0-3.15,6.14c-.73,1.46-1.64,2.71-2.44,4.12-3.3,5.81-8.51,9.59-12.73,14.48C3030.11,1493.34,3026.88,1494.51,3019,1502.93Z"/><path class="cls-8" d="M2402.56,1599.63A1.64,1.64,0,0,1,2401,1598l-20.87-963.71a1.44,1.44,0,0,1,1.42-1.49,1.51,1.51,0,0,1,1.49,1.49l21,963.71A1.55,1.55,0,0,1,2402.56,1599.63Zm-25-1148.91a1.49,1.49,0,0,1-1.47-1.46l-3.86-178.48a1.38,1.38,0,0,1,1.39-1.43,1.45,1.45,0,0,1,1.45,1.43l3.9,178.48A1.42,1.42,0,0,1,2377.6,450.72Zm369.48,1288.34a1.69,1.69,0,0,1-1.61-1.67l-56.36-1441.8a1.37,1.37,0,0,1,1.37-1.43,1.49,1.49,0,0,1,1.48,1.43l56.59,1441.8A1.53,1.53,0,0,1,2747.08,1739.06Zm-669.16-37.78a1.62,1.62,0,0,1-1.54-1.67l-6.91-1404a1.41,1.41,0,0,1,1.42-1.43,1.44,1.44,0,0,1,1.43,1.43l7.13,1404A1.6,1.6,0,0,1,2077.92,1701.28Zm-494.55-53.1a1.57,1.57,0,0,1-1.5-1.65l27.62-1350.94a1.46,1.46,0,0,1,1.45-1.43,1.39,1.39,0,0,1,1.4,1.43l-27.4,1350.94A1.64,1.64,0,0,1,1583.37,1648.18ZM1254,1179.75a1.47,1.47,0,0,1-1.43-1.58L1288.26,246a1.49,1.49,0,0,1,1.47-1.42,1.36,1.36,0,0,1,1.37,1.42l-35.52,932.13A1.6,1.6,0,0,1,1254,1179.75Zm-17.88,468.43a1.52,1.52,0,0,1-1.47-1.65l13.8-360.83a1.63,1.63,0,0,1,1.57-1.59,1.48,1.48,0,0,1,1.44,1.59l-13.75,360.83A1.67,1.67,0,0,1,1236.15,1648.18Z"/><path class="cls-8" d="M890.69,1214.56a1.44,1.44,0,0,1-1.4-1.58l52.52-917.39a1.53,1.53,0,0,1,1.51-1.43,1.34,1.34,0,0,1,1.35,1.43L892.28,1213A1.65,1.65,0,0,1,890.69,1214.56Z"/><path class="cls-8" d="M1018.79,420.3a69.88,69.88,0,0,0-38.11-12h0a69.87,69.87,0,0,0-38.54,10.56c-29.91,18.65-40.7,57.05-25.81,89l51.5,110.47a9.85,9.85,0,0,0,17.69.34l55.67-108.43C1057.28,478.86,1048,440.07,1018.79,420.3Zm-40.21,98.31a40.13,40.13,0,1,1,40.89-39.36A40.13,40.13,0,0,1,978.58,518.61Z"/><path class="cls-8" d="M2927.47,1145.08a60.58,60.58,0,0,0-33-10.41h0a60.63,60.63,0,0,0-33.38,9.15c-25.9,16.15-35.24,49.41-22.34,77.08l44.59,95.67a8.53,8.53,0,0,0,15.32.29l48.21-93.9C2960.8,1195.8,2952.73,1162.21,2927.47,1145.08Zm-34.83,85.14a34.76,34.76,0,1,1,35.42-34.09A34.76,34.76,0,0,1,2892.64,1230.22Z"/><path class="cls-8" d="M1788.4,338.2a40.84,40.84,0,0,0-22.26-7h0a40.83,40.83,0,0,0-22.52,6.17c-17.47,10.89-23.77,33.33-15.07,52l30.08,64.54a5.76,5.76,0,0,0,10.34.2l32.52-63.35C1810.89,372.42,1805.45,349.75,1788.4,338.2Zm-23.49,57.43a23.44,23.44,0,1,1,23.89-23A23.43,23.43,0,0,1,1764.91,395.63Z"/><path class="cls-8" d="M1597.7,1008.32a3.52,3.52,0,0,1,0-7c12-.11,24.22-.45,36.29-1h.17a3.52,3.52,0,0,1,.16,7c-12.16.58-24.46.92-36.56,1Zm-38.76-.48h-.12c-12.16-.41-24.43-1.07-36.48-2a3.52,3.52,0,1,1,.52-7c12,.89,24.13,1.54,36.2,1.95a3.52,3.52,0,0,1-.12,7Zm113.88-3.18a3.52,3.52,0,0,1-.31-7c12-1.06,24.11-2.36,36.11-3.87a3.52,3.52,0,0,1,.88,7c-12.08,1.52-24.32,2.83-36.37,3.9Zm-188.78-2.5-.42,0c-9.82-1.16-19.74-2.52-29.48-4-2.24-.34-4.48-.7-6.71-1.06a3.53,3.53,0,0,1,1.14-7q3.3.55,6.65,1.06c9.66,1.49,19.49,2.83,29.23,4a3.52,3.52,0,0,1-.41,7Zm263.39-7a3.52,3.52,0,0,1-.57-7c11.87-2,23.89-4.18,35.73-6.59a3.53,3.53,0,0,1,1.4,6.91c-11.92,2.42-24,4.65-36,6.63A3.92,3.92,0,0,1,1747.43,995.18ZM1410,989.76a3.37,3.37,0,0,1-.77-.09c-11.87-2.64-23.8-5.63-35.46-8.9a3.52,3.52,0,1,1,1.9-6.78c11.54,3.23,23.35,6.19,35.09,8.8a3.53,3.53,0,0,1-.76,7Zm411.12-9.62a3.52,3.52,0,0,1-.82-6.94c11.7-2.84,23.51-5.92,35.09-9.17a3.52,3.52,0,0,1,1.9,6.78c-11.66,3.27-23.55,6.38-35.33,9.24A4,4,0,0,1,1821.1,980.14Zm-483.36-10.76a3.55,3.55,0,0,1-1.15-.19c-11.49-4-23-8.28-34.24-12.85a3.52,3.52,0,1,1,2.66-6.52c11.11,4.52,22.51,8.8,33.87,12.71a3.52,3.52,0,0,1-1.14,6.85Zm555.7-9.57a3.52,3.52,0,0,1-1.08-6.88c11.48-3.68,23-7.6,34.35-11.67a3.52,3.52,0,1,1,2.38,6.63c-11.39,4.1-23,8.05-34.58,11.75A3.67,3.67,0,0,1,1893.44,959.81ZM1268.26,941a3.58,3.58,0,0,1-1.52-.34c-10.94-5.23-21.89-10.83-32.56-16.67a3.52,3.52,0,0,1,3.38-6.18c10.55,5.77,21.39,11.32,32.22,16.49a3.52,3.52,0,0,1-1.52,6.7Zm695.86-6.62a3.52,3.52,0,0,1-1.31-6.79c11.19-4.49,22.43-9.24,33.42-14.11a3.52,3.52,0,0,1,2.86,6.44c-11.07,4.91-22.39,9.68-33.65,14.21A3.59,3.59,0,0,1,1964.12,934.33Zm-761.69-29.52a3.51,3.51,0,0,1-1.86-.53c-10.28-6.42-20.54-13.22-30.5-20.2a3.52,3.52,0,0,1,4-5.77c9.86,6.91,20,13.64,30.19,20a3.52,3.52,0,0,1-1.87,6.51Zm830.36-1a3.52,3.52,0,0,1-1.55-6.68c10.86-5.32,21.72-10.88,32.28-16.54a3.52,3.52,0,0,1,3.33,6.21c-10.64,5.7-21.58,11.3-32.52,16.65A3.38,3.38,0,0,1,2032.79,903.81ZM2099,868.25a3.52,3.52,0,0,1-1.79-6.56c10.45-6.15,20.84-12.54,30.89-19a3.52,3.52,0,1,1,3.81,5.92c-10.13,6.51-20.6,13-31.13,19.14A3.49,3.49,0,0,1,2099,868.25Zm-958-6.67a3.52,3.52,0,0,1-2.18-.75c-9.51-7.51-19-15.38-28.13-23.39a3.52,3.52,0,1,1,4.64-5.3c9.06,7.94,18.44,15.73,27.86,23.16a3.52,3.52,0,0,1-2.19,6.28Zm1021.12-34.05a3.52,3.52,0,0,1-2-6.4c9.93-7,19.73-14.27,29.13-21.57a3.52,3.52,0,1,1,4.32,5.57c-9.48,7.35-19.37,14.67-29.38,21.75A3.5,3.5,0,0,1,2162.12,827.53ZM1084.55,812a3.49,3.49,0,0,1-2.46-1c-8.69-8.48-17.28-17.3-25.54-26.22a3.52,3.52,0,1,1,5.17-4.78c8.18,8.83,16.69,17.56,25.29,26a3.52,3.52,0,0,1-2.46,6Zm1136.83-30.64a3.52,3.52,0,0,1-2.3-6.19c9.27-8,18.29-16.16,26.82-24.33a3.52,3.52,0,1,1,4.87,5.09c-8.62,8.25-17.74,16.52-27.09,24.58A3.54,3.54,0,0,1,2221.38,781.35ZM1033.57,756.76a3.51,3.51,0,0,1-2.71-1.28c-7.83-9.41-15.45-19.09-22.67-28.76a3.52,3.52,0,0,1,5.65-4.21c7.14,9.57,14.69,19.15,22.43,28.47a3.53,3.53,0,0,1-2.7,5.78Zm1241.91-27.51a3.52,3.52,0,0,1-2.59-5.91c5.74-6.23,11.32-12.58,16.59-18.86a3.52,3.52,0,0,1,5.4,4.53c-5.34,6.36-11,12.79-16.81,19.11A3.51,3.51,0,0,1,2275.48,729.25ZM988.76,696.35a3.51,3.51,0,0,1-3-1.59c-12.65-19.34-18.74-31.16-19-31.65a3.52,3.52,0,1,1,6.26-3.22c.07.12,6.2,12,18.62,31a3.52,3.52,0,0,1-1,4.88A3.47,3.47,0,0,1,988.76,696.35Z"/><path class="cls-8" d="M2660.42,727.61c-11.13,0-22.54-.28-33.91-.85a3.52,3.52,0,0,1,.36-7c11.25.56,22.54.85,33.55.85h2.65a3.53,3.53,0,0,1,0,7.05Zm41.35-1.35a3.52,3.52,0,0,1-.23-7c12.12-.81,24.23-2,36-3.52a3.52,3.52,0,1,1,.91,7c-11.9,1.55-24.15,2.75-36.43,3.56Zm-113.71-2.48-.37,0c-11.93-1.24-24.14-2.79-36.28-4.62a3.53,3.53,0,0,1,1.06-7c12,1.82,24.12,3.36,36,4.58a3.52,3.52,0,0,1-.36,7Zm188.11-7.43a3.52,3.52,0,0,1-.7-7c11.87-2.43,23.67-5.3,35.1-8.52a3.52,3.52,0,0,1,1.91,6.78c-11.59,3.27-23.56,6.17-35.6,8.64A3.49,3.49,0,0,1,2776.17,716.35Zm-262.4-3.86a4,4,0,0,1-.69-.07c-11.82-2.36-23.83-5-35.7-7.89a3.52,3.52,0,0,1,1.66-6.85c11.78,2.86,23.69,5.5,35.41,7.83a3.52,3.52,0,0,1-.68,7Zm334.56-16.72a3.53,3.53,0,0,1-1.23-6.83c11.29-4.21,22.49-8.9,33.3-13.94a3.52,3.52,0,1,1,3,6.38c-11,5.12-22.35,9.89-33.82,14.16A3.57,3.57,0,0,1,2848.33,695.77Zm-407.59-1.09a3.36,3.36,0,0,1-1-.14c-11.7-3.37-23.45-7-34.92-10.83a3.52,3.52,0,0,1,2.22-6.69c11.39,3.79,23.05,7.41,34.65,10.76a3.52,3.52,0,0,1-1,6.9Zm-71.3-23.85a3.56,3.56,0,0,1-1.27-.23c-21.37-8.22-33.79-14.09-33.92-14.15a3.52,3.52,0,1,1,3-6.36c.12.06,12.34,5.83,33.43,13.93a3.52,3.52,0,0,1-1.26,6.81Z"/><path class="cls-8" d="M2833,1314.49a3.51,3.51,0,0,1-2.63-1.17c-.08-.1-9-10-25.56-25.7a3.52,3.52,0,1,1,4.84-5.12c16.8,15.88,25.61,25.72,26,26.13a3.51,3.51,0,0,1-2.63,5.86Zm-54.65-51.85a3.52,3.52,0,0,1-2.29-.85c-9.07-7.76-18.5-15.51-28.05-23a3.52,3.52,0,0,1,4.35-5.54c9.63,7.58,19.14,15.39,28.28,23.21a3.52,3.52,0,0,1-2.29,6.2Zm-59.15-46.45a3.48,3.48,0,0,1-2-.66c-9.77-7-19.82-14-29.87-20.62a3.53,3.53,0,0,1,3.89-5.88c10.12,6.7,20.25,13.69,30.1,20.78a3.52,3.52,0,0,1-2.07,6.38Zm-62.77-41.38a3.51,3.51,0,0,1-1.81-.5c-10.37-6.23-21-12.3-31.47-18a3.52,3.52,0,1,1,3.37-6.19c10.6,5.79,21.28,11.91,31.73,18.19a3.52,3.52,0,0,1-1.82,6.54Zm-66-35.9a3.58,3.58,0,0,1-1.54-.36c-10.87-5.31-21.94-10.41-32.92-15.18a3.52,3.52,0,1,1,2.81-6.46c11.07,4.81,22.24,10,33.2,15.31a3.52,3.52,0,0,1-1.55,6.69Zm-69-29.82a3.4,3.4,0,0,1-1.24-.23c-11.31-4.27-22.81-8.3-34.19-12a3.52,3.52,0,0,1,2.17-6.7c11.49,3.72,23.1,7.79,34.51,12.1a3.52,3.52,0,0,1-1.25,6.82Zm-71.49-23a3.56,3.56,0,0,1-.91-.12c-11.67-3.12-23.51-6-35.21-8.48a3.52,3.52,0,0,1,1.48-6.89c11.81,2.53,23.77,5.42,35.55,8.57a3.52,3.52,0,0,1-.91,6.92Zm-73.45-15.6a3.52,3.52,0,0,1-.56,0c-11.91-1.87-24-3.45-35.88-4.68a3.52,3.52,0,1,1,.72-7c12,1.25,24.23,2.84,36.26,4.73a3.52,3.52,0,0,1-.54,7Zm-186-3.66a3.52,3.52,0,0,1-.4-7c12.07-1.42,24.32-2.54,36.42-3.31a3.52,3.52,0,1,1,.45,7c-12,.76-24.1,1.87-36.05,3.28Zm111.34-4h-.17c-10.42-.48-21-.73-31.47-.73h-4.74a3.52,3.52,0,0,1,0-7l4.76,0c10.57,0,21.27.26,31.8.75a3.52,3.52,0,0,1-.16,7Z"/><path class="cls-8" d="M1456.57,1371.4a3.52,3.52,0,0,1,2.58-1.29c.13,0,13.48-.58,36.08-3.46a3.52,3.52,0,1,1,.89,7c-22.94,2.92-36.13,3.49-36.68,3.51a3.52,3.52,0,0,1-2.87-5.75Zm74.75-9.36a3.55,3.55,0,0,1,2.11-1.23c11.75-2.08,23.73-4.47,35.6-7.08a3.52,3.52,0,0,1,1.51,6.88c-12,2.63-24,5-35.88,7.14a3.52,3.52,0,0,1-3.34-5.71Zm73.43-16.26a3.5,3.5,0,0,1,1.82-1.17c11.64-3.08,23.37-6.45,34.88-10a3.52,3.52,0,0,1,2.08,6.73c-11.6,3.58-23.42,7-35.16,10.08a3.52,3.52,0,0,1-3.62-5.64Zm71.81-22.27a3.43,3.43,0,0,1,1.54-1.08c11.39-4.07,22.8-8.4,33.91-12.89a3.52,3.52,0,0,1,2.64,6.53c-11.2,4.52-22.7,8.9-34.19,13a3.52,3.52,0,0,1-3.9-5.55Zm69.64-28.28a3.55,3.55,0,0,1,1.26-1c11-5,22-10.36,32.62-15.82a3.52,3.52,0,1,1,3.21,6.26c-10.74,5.51-21.81,10.88-32.9,16a3.52,3.52,0,0,1-4.19-5.44Zm66.8-34.4a3.68,3.68,0,0,1,1-.82c10.47-6,20.89-12.37,31-18.82a3.52,3.52,0,1,1,3.8,5.93c-10.16,6.52-20.67,12.91-31.24,19a3.53,3.53,0,0,1-4.49-5.29Zm63.17-40.65a3.09,3.09,0,0,1,.67-.63c9.81-7,19.53-14.39,28.89-21.84a3.52,3.52,0,1,1,4.38,5.51c-9.44,7.53-19.26,14.94-29.17,22a3.52,3.52,0,0,1-4.77-5.09Zm58.65-46.89a2.4,2.4,0,0,1,.38-.4c9-8,17.89-16.36,26.39-24.78a3.52,3.52,0,0,1,5,5c-8.6,8.51-17.57,16.93-26.66,25a3.52,3.52,0,0,1-5.07-4.86Zm120.83-141.49a3.53,3.53,0,0,1,5.69,4.14c-6.56,10.24-13.47,20.42-20.54,30.27a3.52,3.52,0,0,1-5.72-4.11c7-9.75,13.84-19.83,20.33-30A4.15,4.15,0,0,1,2055.65,1031.8Zm-67.57,88.58.11-.13c7-7.75,13.9-15.77,20.53-23.86,1-1.21,2-2.43,3-3.66h0a3.52,3.52,0,0,1,5.46,4.45c-1,1.23-2,2.47-3,3.69-6.7,8.17-13.68,16.28-20.75,24.11a3.52,3.52,0,0,1-5.34-4.59Z"/><path class="cls-9" d="M2151.63,101.26A182,182,0,0,0,2052.44,70h0a182,182,0,0,0-100.31,27.48C1874.3,146,1846.22,246,1885,329.09l134,287.52c9,19.32,36.3,19.85,46,.87l144.88-282.19C2251.8,253.69,2227.55,152.73,2151.63,101.26ZM2047,357.13a104.45,104.45,0,1,1,106.43-102.45A104.46,104.46,0,0,1,2047,357.13Z"/><path class="cls-10" d="M1905,196a5.7,5.7,0,0,1-2.16-.43,5.54,5.54,0,0,1-2.94-7.26C1914,155,1942.66,112,1999.52,96a5.54,5.54,0,0,1,3,10.66c-52.62,14.81-79.32,54.92-92.45,86A5.54,5.54,0,0,1,1905,196Zm-15.23,57.58h-.45a5.54,5.54,0,0,1-5.08-6,180.21,180.21,0,0,1,4.59-25.79,5.54,5.54,0,0,1,10.76,2.63,171.25,171.25,0,0,0-4.31,24A5.53,5.53,0,0,1,1889.74,253.55Z"/><path class="cls-8" d="M2164.35,681.65a3.53,3.53,0,0,1,0-7,337.65,337.65,0,0,0,35.94-2.14,3.52,3.52,0,1,1,.77,7,346.2,346.2,0,0,1-36.68,2.19ZM2125.77,679a4.71,4.71,0,0,1-.53,0,196.2,196.2,0,0,1-35.94-8.71,3.52,3.52,0,0,1,2.33-6.65,189.06,189.06,0,0,0,34.65,8.39,3.52,3.52,0,0,1-.51,7Zm113.14-5.6a3.52,3.52,0,0,1-.69-7c11.28-2.28,23-5.08,34.93-8.33a3.52,3.52,0,0,1,1.85,6.8c-12.05,3.28-23.95,6.12-35.38,8.44A3.49,3.49,0,0,1,2238.91,673.41ZM2056,653.13a3.52,3.52,0,0,1-2-.64c-19.15-13.35-26.33-26.28-26.63-26.82a3.52,3.52,0,1,1,6.18-3.38c.14.26,6.91,12.17,24.48,24.42a3.53,3.53,0,0,1-2,6.42Z"/><path class="cls-11" d="M2981.27,406.94a90.16,90.16,0,0,0-49.16-15.51h0a90.21,90.21,0,0,0-49.72,13.62c-38.58,24.06-52.5,73.6-33.29,114.81l66.43,142.51a12.7,12.7,0,0,0,22.82.44l71.81-139.88C3030.92,482.49,3018.91,432.44,2981.27,406.94Zm-51.88,126.82A51.77,51.77,0,1,1,2982.15,483,51.77,51.77,0,0,1,2929.39,533.76Z"/><path class="cls-6" d="M2784,1826c.71-6.69,12.64-12,28.79-12.13l495.87-4.38,493.34-4.35,278.29-2.46c15.06-.13,29.47,5.68,28.79,12.13-.71,6.69-12.65,12-28.79,12.13l-495.87,4.38c-164.45,1.45-206.3,23.57-370.74,25-92.77.82-297.47-10-390.24-9.13C2808.39,1847.31,2783.32,1832.42,2784,1826Z"/><path class="cls-12" d="M3307.22,1783.93H3178.37s15.51-131.61,56.4-142.89,46.87-11.28,54.28,0S3313.77,1756.23,3307.22,1783.93Z"/><rect class="cls-12" x="3477.26" y="1633.75" width="585.56" height="121.75"/><path class="cls-12" d="M3579.27,1757.31s-1.35,20.14,2.61,39.76a36.66,36.66,0,0,0,36,29.3h33.23a36.75,36.75,0,0,0,36.35-31.46,226,226,0,0,0,1.91-37.6c-.64-27.46-3-44.17-7.27-55.38a33.82,33.82,0,0,0-31.68-21.72h-32a30.08,30.08,0,0,0-28,18.83C3585.25,1711.88,3579.9,1731.29,3579.27,1757.31Z"/><ellipse class="cls-13" cx="3661.58" cy="1755.5" rx="17.72" ry="47.15"/><ellipse class="cls-10" cx="3668.42" cy="1755.5" rx="10.88" ry="28.94"/><path class="cls-12" d="M3988.79,1740.75a135.72,135.72,0,0,0,2.06,31.46,29,29,0,0,0,28.47,23.19h26.29a29.08,29.08,0,0,0,28.77-24.9,178.87,178.87,0,0,0,1.51-29.75c-.51-21.73-2.39-35-5.75-43.82a26.76,26.76,0,0,0-25.07-17.19h-25.35a23.8,23.8,0,0,0-22.14,14.9C3993.52,1704.8,3989.29,1720.16,3988.79,1740.75Z"/><ellipse class="cls-13" cx="4053.92" cy="1739.32" rx="8.98" ry="37.31"/><path class="cls-10" d="M4062.9,1739.32c0,12.64-2.47,22.9-5.51,22.9s-5.51-10.25-5.51-22.9,2.47-22.91,5.51-22.91S4062.9,1726.67,4062.9,1739.32Z"/><path class="cls-12" d="M3502.26,1754.62s-1.46,21.62,2.8,42.67a39.35,39.35,0,0,0,38.61,31.46h35.67a39.44,39.44,0,0,0,39-33.77,242.58,242.58,0,0,0,2-40.36c-.69-29.48-3.25-47.42-7.8-59.45a36.29,36.29,0,0,0-34-23.32h-34.38a32.28,32.28,0,0,0-30,20.21C3508.67,1705.84,3502.94,1726.68,3502.26,1754.62Z"/><ellipse class="cls-13" cx="3590.61" cy="1752.67" rx="19.02" ry="50.62"/><ellipse class="cls-10" cx="3597.96" cy="1752.67" rx="11.67" ry="31.07"/><path class="cls-12" d="M3939.18,1741.19s-1.22,18.11,2.35,35.75a33,33,0,0,0,32.35,26.35h29.88a33,33,0,0,0,32.69-28.29,203.38,203.38,0,0,0,1.72-33.81c-.58-24.7-2.72-39.72-6.54-49.81a30.42,30.42,0,0,0-28.49-19.53h-28.8a27.05,27.05,0,0,0-25.16,16.93C3944.56,1700.33,3939.75,1717.79,3939.18,1741.19Z"/><ellipse class="cls-13" cx="4015.42" cy="1739.55" rx="11.89" ry="42.41"/><ellipse class="cls-10" cx="4020.01" cy="1739.55" rx="7.3" ry="26.03"/><ellipse class="cls-12" cx="2890.42" cy="1789.2" rx="76.83" ry="57.98"/><polygon class="cls-12" points="3282.99 1335.61 2981.71 1335.61 2943.24 1453.98 3254.14 1453.98 3282.99 1335.61"/><path class="cls-13" d="M3521.38,1638.56l-2.64-4.81H3299.08s4.66,3,10.88,27.37c4.86,19.1,4.37,83.48,6.05,110.6h207.4c6.43,0,11.65-5,11.65-11.09v-69A110.4,110.4,0,0,0,3521.38,1638.56Z"/><path class="cls-12" d="M3153.16,1755.63s-1.8,26.7,3.46,52.71a48.6,48.6,0,0,0,47.69,38.84h44.05a48.7,48.7,0,0,0,48.19-41.7c1.87-12.84,3-29.2,2.53-49.85-.85-36.4-4-58.55-9.63-73.41a44.85,44.85,0,0,0-42-28.81H3205a39.89,39.89,0,0,0-37.09,25C3161.09,1695.4,3154,1721.14,3153.16,1755.63Z"/><ellipse class="cls-13" cx="3262.28" cy="1753.23" rx="23.49" ry="62.51"/><ellipse class="cls-10" cx="3271.35" cy="1753.23" rx="14.42" ry="38.37"/><path class="cls-8" d="M3510.31,1170c-48.56.66-290.07,4.12-326.64,8.77-40.69,5.18-102.83,17-119.84,35.51s-25.44,54.75-25.44,54.75l-6.37,25.15s-46.61,5.18-53.27,16.27a153.54,153.54,0,0,0-9,18.09,5.09,5.09,0,0,0,4.69,7.07H3283L3254.14,1454h-310.9s-103.57,49.56-108.75,65.84-8.88,69.54-8.88,69.54-28.11,13.32-45.13,55.48c-12.24,30.33-11.85,83.61-10.66,111.15a26.59,26.59,0,0,0,16.83,23.72,62.72,62.72,0,0,0,22.62,4.22h378.24a23.65,23.65,0,0,0,23.62-22.28c2.26-39,10.7-115.93,42.08-122,42.17-8.14,48,60.13,51.23,92.32,2.77,27.52,2.78,51.94,2.78,51.94h13.32s-5.18-98.4-11.1-122.81-10.36-27.37-10.36-27.37H3518.8V1178.39A8.38,8.38,0,0,0,3510.31,1170Z"/><path class="cls-13" d="M3518.8,1310.19l-4.82-5.41a41.71,41.71,0,0,0-31.08-13.92H3379.63c0-1.81,0-3.69-.07-5.62-.37-22.17-.83-49.76,21.57-66.26,21.94-16.17,67.78-28.37,101.25-37.29,5.77-1.53,11.32-3,16.34-4.4a8.36,8.36,0,0,0-3.65-5.88c-4.49,1.23-9.36,2.52-14.4,3.87-34,9-80.52,21.43-103.48,38.35-25.15,18.53-24.65,49.28-24.28,71.72,0,1.9.07,3.36.08,5.13h-3.85v7.4l113.76-.38a35,35,0,0,1,26.12,11.71l9.78,11v-10Z"/><path class="cls-12" d="M3280.22,1454h71.57l4.93-118.37h-13.66a46.17,46.17,0,0,0-45.13,36.42Zm-441.11,225a9.72,9.72,0,0,0,6.37,9.14c16,5.85,58.87,20.33,92.95,20.33,32.09,0,79.92-11.46,97.51-16a9.73,9.73,0,0,0,7.28-8.76l9.94-144.83a9.73,9.73,0,0,0-10.52-10.37c-23.66,2-78,6.29-99.4,6.25-20.16,0-71.32-4.32-93.55-6.27a9.73,9.73,0,0,0-10.58,9.7V1679Zm-18.31-9.31h0a44.42,44.42,0,0,0-20-37.08l-10.74-7.07a136.76,136.76,0,0,0-9.6,19.31c-3.25,8.05-5.6,17.73-7.29,28.11l36.2,6.33A9.74,9.74,0,0,0,2820.8,1669.69ZM3073,1674l3.61-5.61a49.15,49.15,0,0,1,36.2-22.26l62.89-6.58a4.75,4.75,0,0,1,4.64,7l-5.33,9.55a49.13,49.13,0,0,1-42.9,25.18H3077A4.75,4.75,0,0,1,3073,1674Z"/><path class="cls-11" d="M3518.8,1176.55l559,102.87v380.35l-552.15-14.19a6.85,6.85,0,0,1-6.85-6.84V1176.55Z"/><path class="cls-8" d="M2958.78,1582.26c-16.42,0-32-1-45.63-2.36a542.75,542.75,0,0,1-76-13l1.62-6.13c1.29.34,129.82,33.69,212.26.13l2.39,5.87C3024.43,1578.6,2990.13,1582.26,2958.78,1582.26Z"/><path class="cls-8" d="M2958.78,1629.25c-16.42,0-32-1-45.63-2.36a542.75,542.75,0,0,1-76-13l1.62-6.13c1.29.34,129.82,33.69,212.26.13l2.39,5.87C3024.43,1625.59,2990.13,1629.25,2958.78,1629.25Z"/><path class="cls-8" d="M2958.78,1676.24c-16.42,0-32-1-45.63-2.36a542.75,542.75,0,0,1-76-13l1.62-6.13c1.29.34,129.82,33.69,212.26.13l2.39,5.87C3024.43,1672.58,2990.13,1676.24,2958.78,1676.24Z"/><rect class="cls-13" x="3032.02" y="1290.48" width="343.85" height="7.4"/><path class="cls-13" d="M3947.3,1771.72h-253v-121.8l270,6.93v97.81A17.06,17.06,0,0,1,3947.3,1771.72Z"/><path class="cls-14" d="M3012,1335.61s27,4.79,35.58,26.29,4.91,34.19,17.9,46.17,13.3-3.88,22.28,13.57S3106.3,1454,3106.3,1454h68.2s-29.08-56.13-37-65.12-24.85-3.17-30.14-11.1-7.93-42.15-7.93-42.15Z"/><rect class="cls-12" x="2767.94" y="1715.59" width="450.44" height="7.4"/><path class="cls-10" d="M3103.66,1225.12a5.82,5.82,0,0,1-2.85-10.89c50.09-28.14,119.74-28.46,122.68-28.46a5.82,5.82,0,0,1,0,11.63c-.69,0-69.58.34-117,27A5.75,5.75,0,0,1,3103.66,1225.12Z"/><path class="cls-10" d="M3073.18,1281a5.64,5.64,0,0,1-1.34-.16,5.81,5.81,0,0,1-4.33-7,182,182,0,0,1,6.59-21A5.82,5.82,0,0,1,3085,1257a173.92,173.92,0,0,0-6.14,19.5A5.82,5.82,0,0,1,3073.18,1281Z"/><path class="cls-12" d="M3378.69,1353.47,3375.87,1454h60.88V1354.9a19.28,19.28,0,0,0-19.29-19.29h-20.4A18.38,18.38,0,0,0,3378.69,1353.47Z"/><path class="cls-10" d="M3641.85,1443l-38.17-1.85v44.64l43.89,1.28-3.33,19.65-68.12-1.4V1362l67.81,5.51v19.93l-40.25-2.92v36.59l38.17,2.18V1443Zm72.92,65.17-15.91-49.49h-.25l-17.26,48.82-26.67-.55,29.52-69L3656,1368.47l28.4,2.3,15.06,46.2.24,0,14.71-43.78,25.53,2.07-26.66,61.1,28.48,72.39Zm35.89-132.06,34,2.76c23.61,1.91,35.45,13,35.45,35.7v7.58c0,21.22-8.61,34.93-36.74,33.65l-9-.41v54l-23.65-.49v-132.8Zm23.65,62.73,6.4.34c14.41.76,16.85-6.41,16.85-19.09v-6.39c0-9.45-2-17.38-14.79-18.32l-8.46-.62Zm125.57-17.77v57.79c0,23.72-11,34.72-34.33,34.26-22.88-.45-33.34-12.54-33.34-36.41v-60.19c0-24.49,13.76-34.53,34.7-32.81S3899.88,1397.3,3899.88,1421.11Zm-45.34-4.86v63.63c0,10.51,4.21,15.57,12,15.79,8.3.23,12-4.22,12-15.21v-62.77c0-9.93-3.35-15.66-12-16.3C3858.74,1400.82,3854.54,1405.54,3854.54,1416.25Zm80.83,42.13v54.38l-20.25-.42V1389.5l28,2.27c19.44,1.58,30.74,9.77,30.74,31.24v4.54c0,18.33-7.92,22.58-12.82,24.22,7.37,3.66,11.55,8.88,11.55,25.08,0,10.05-.18,29.43,1.15,36.69l-18.81-.38c-1.7-7.32-1.34-27.1-1.34-35.86,0-14.69-2-18.15-13.52-18.7Zm0-15.49,4.59.25c10.51.59,14.34-2.91,14.34-16V1423c0-9.31-2-15.13-13.27-16l-5.66-.42Zm65.19-29.61-19.74-1.43v-17l57.42,4.66V1416l-19.09-1.38v99.85l-18.59-.38V1413.28Z"/><polygon class="cls-15" points="3694.34 1654.26 3964.36 1671.85 3964.36 1656.85 3694.34 1649.92 3694.34 1654.26"/><path class="cls-12" d="M3070.39,1528.84a3.33,3.33,0,0,1-.92-6.52l168.26-48.55a3.32,3.32,0,0,1,1.84,6.39l-168.26,48.54A3.32,3.32,0,0,1,3070.39,1528.84Z"/><path class="cls-12" d="M3542.65,1180.94l-23.85-4.39v462.19a6.85,6.85,0,0,0,6.85,6.85l34,.87-2.42-1.8a36.39,36.39,0,0,1-14.61-29.14Z"/><path class="cls-6" d="M1374.65,1826c-.71-6.69-12.64-12-28.79-12.13L850,1809.46l-493.34-4.35-278.29-2.46c-15.07-.13-29.48,5.68-28.79,12.13.71,6.69,12.65,12,28.79,12.13l495.87,4.38c164.45,1.45,206.29,23.57,370.74,25,92.76.82,297.47-10,390.24-9.13C1350.27,1847.31,1375.34,1832.42,1374.65,1826Z"/><path class="cls-12" d="M835.92,1783.93H964.77S949.26,1652.32,908.38,1641s-46.88-11.28-54.28,0S829.38,1756.23,835.92,1783.93Z"/><rect class="cls-16" x="80.33" y="1633.75" width="585.56" height="121.75"/><path class="cls-12" d="M563.88,1757.31s1.35,20.14-2.61,39.76a36.68,36.68,0,0,1-36,29.3H492.07a36.73,36.73,0,0,1-36.35-31.46,225.82,225.82,0,0,1-1.92-37.6c.65-27.46,3-44.17,7.27-55.38a33.82,33.82,0,0,1,31.69-21.72h32a30.08,30.08,0,0,1,28,18.83C557.9,1711.88,563.24,1731.29,563.88,1757.31Z"/><ellipse class="cls-13" cx="481.57" cy="1755.5" rx="17.72" ry="47.15"/><ellipse class="cls-10" cx="474.72" cy="1755.5" rx="10.88" ry="28.94"/><path class="cls-12" d="M154.36,1740.75a135.4,135.4,0,0,1-2.07,31.46,29,29,0,0,1-28.46,23.19H97.53a29.07,29.07,0,0,1-28.76-24.9,177.79,177.79,0,0,1-1.51-29.75c.5-21.73,2.39-35,5.75-43.82a26.76,26.76,0,0,1,25.07-17.19h25.34a23.79,23.79,0,0,1,22.14,14.9C149.62,1704.8,153.85,1720.16,154.36,1740.75Z"/><ellipse class="cls-13" cx="89.22" cy="1739.32" rx="8.98" ry="37.31"/><path class="cls-10" d="M80.24,1739.32c0,12.64,2.47,22.9,5.52,22.9s5.51-10.25,5.51-22.9-2.47-22.91-5.51-22.91S80.24,1726.67,80.24,1739.32Z"/><path class="cls-12" d="M640.89,1754.62s1.45,21.62-2.8,42.67a39.37,39.37,0,0,1-38.62,31.46H563.8a39.44,39.44,0,0,1-39-33.77,242.58,242.58,0,0,1-2-40.36c.69-29.48,3.25-47.42,7.8-59.45a36.31,36.31,0,0,1,34-23.32h34.38a32.3,32.3,0,0,1,30,20.21C634.47,1705.84,640.21,1726.68,640.89,1754.62Z"/><ellipse class="cls-13" cx="552.53" cy="1752.67" rx="19.02" ry="50.62"/><ellipse class="cls-10" cx="545.19" cy="1752.67" rx="11.67" ry="31.07"/><path class="cls-12" d="M204,1741.19s1.22,18.11-2.34,35.75a33,33,0,0,1-32.35,26.35H139.39A33,33,0,0,1,106.7,1775a202.29,202.29,0,0,1-1.72-33.81c.57-24.7,2.72-39.72,6.54-49.81A30.4,30.4,0,0,1,140,1671.85h28.8A27.06,27.06,0,0,1,194,1688.78C198.59,1700.33,203.39,1717.79,204,1741.19Z"/><ellipse class="cls-13" cx="127.72" cy="1739.55" rx="11.89" ry="42.41"/><ellipse class="cls-10" cx="123.13" cy="1739.55" rx="7.3" ry="26.03"/><ellipse class="cls-12" cx="1252.72" cy="1789.2" rx="76.83" ry="57.98"/><polygon class="cls-16" points="860.15 1335.61 1161.44 1335.61 1199.91 1453.98 889 1453.98 860.15 1335.61"/><path class="cls-9" d="M625.86,1176.27,65.34,1279.42v380.35l552.16-14.19a6.84,6.84,0,0,0,6.84-6.84Z"/><path class="cls-16" d="M590.62,1646.28l26.88-.69a6.85,6.85,0,0,0,6.84-6.85l1.52-462.47-17.77,3.27v436A35.66,35.66,0,0,1,592.53,1645Z"/><path class="cls-12" d="M621.76,1638.56l2.64-4.81H846.15s-4.12,4.18-10.34,28.6c-4.86,19.1-7,82.25-8.67,109.37H619.74a11.38,11.38,0,0,1-11.65-11.1v-68.94A110.5,110.5,0,0,1,621.76,1638.56ZM990,1755.63s1.79,26.7-3.46,52.71a48.62,48.62,0,0,1-47.7,38.84h-44a48.7,48.7,0,0,1-48.19-41.7c-1.87-12.84-3-29.2-2.54-49.85.85-36.4,4-58.55,9.64-73.41a44.84,44.84,0,0,1,42-28.81h42.45a39.9,39.9,0,0,1,37.1,25C982.06,1695.4,989.15,1721.14,990,1755.63Z"/><ellipse class="cls-13" cx="880.87" cy="1753.23" rx="23.49" ry="62.51"/><ellipse class="cls-10" cx="871.8" cy="1753.23" rx="14.42" ry="38.37"/><path class="cls-14" d="M1362.66,1644.85c-17-42.17-45.12-55.49-45.12-55.49s-3.7-53.27-8.88-69.54S1199.91,1454,1199.91,1454H889l-28.86-118.37h308.56a5.07,5.07,0,0,0,4.68-7.06,153.37,153.37,0,0,0-9-18.09c-6.66-11.1-53.27-16.28-53.27-16.28l-6.38-25.15s-8.42-36.25-25.43-54.75-79.16-30.33-119.85-35.51c-36.43-4.63-276.22-8.09-326.06-8.76a9,9,0,0,0-9.07,9v454.79H844.06s-4.44,3-10.35,27.37-11.1,122.81-11.1,122.81h13.31s0-24.42,2.78-51.94c3.24-32.19,9.06-100.46,51.23-92.32,31.39,6,39.82,83,42.08,122a23.65,23.65,0,0,0,23.62,22.27h378.24a62.68,62.68,0,0,0,22.62-4.22,26.6,26.6,0,0,0,16.84-23.72C1374.51,1728.45,1374.9,1675.17,1362.66,1644.85Z"/><path class="cls-16" d="M862.93,1454H791.35l-3.87-118.37h32.16a25.28,25.28,0,0,1,24.85,20.6Zm433.91,225a9.74,9.74,0,0,1-6.37,9.14c-16,5.85-58.87,20.33-93,20.33-32.09,0-79.92-11.46-97.51-16a9.72,9.72,0,0,1-7.28-8.76l-9.94-144.83a9.73,9.73,0,0,1,10.52-10.37c23.66,2,78,6.29,99.4,6.25,20.16,0,71.31-4.32,93.54-6.27a9.74,9.74,0,0,1,10.59,9.7V1679Z"/><path class="cls-14" d="M1195.75,1708.45l1.77,0c2.12,0,4.27-.06,6.45-.16l-2.49-173.71c-3.09.12-5.85.18-8.23.2Zm58.37-177.24-8.24.63-3,170.57c2.8-.64,5.56-1.32,8.26-2ZM1145.4,1702.56c2.76.51,5.56,1,8.37,1.48l-13.24-171.84c-2.78-.2-5.55-.39-8.3-.6Z"/><path class="cls-12" d="M195.85,1771.72h253v-121.8l-270,6.93v97.81A17.06,17.06,0,0,0,195.85,1771.72Z"/><path class="cls-12" d="M1131.12,1335.61s-27,4.79-35.59,26.29-4.9,34.19-17.89,46.17-13.3-3.88-22.29,13.57-18.5,32.34-18.5,32.34h-68.2s29.07-56.13,37-65.12,24.84-3.17,30.13-11.1,7.93-42.15,7.93-42.15Z"/><rect class="cls-12" x="924.77" y="1715.59" width="450.44" height="7.4"/><path class="cls-10" d="M1039.49,1225.12a5.82,5.82,0,0,0,2.85-10.89c-50.1-28.14-119.74-28.46-122.68-28.46a5.82,5.82,0,0,0,0,11.63c.7,0,69.59.34,117,27A5.76,5.76,0,0,0,1039.49,1225.12Z"/><path class="cls-14" d="M1363.42,1604.61l-45.88-15.25s17.17,111.77,31.82,117.94,28.9-18.19,28.33-45S1363.42,1604.61,1363.42,1604.61Z"/><path class="cls-10" d="M1070,1281a5.64,5.64,0,0,0,1.34-.16,5.8,5.8,0,0,0,4.32-7,182,182,0,0,0-6.59-21,5.82,5.82,0,0,0-10.87,4.14,173.92,173.92,0,0,1,6.14,19.5A5.82,5.82,0,0,0,1070,1281Z"/><ellipse class="cls-11" cx="978.69" cy="1651.04" rx="31.73" ry="47.12" transform="translate(-358.79 274.49) rotate(-13.52)"/><ellipse class="cls-11" cx="1050.32" cy="1662.38" rx="23.07" ry="32.31" transform="translate(-359.46 291.54) rotate(-13.52)"/><ellipse class="cls-11" cx="1359.91" cy="1650.91" rx="46.57" ry="19.2" transform="translate(-409.1 2853.19) rotate(-84.72)"/><ellipse class="cls-11" cx="1317.06" cy="1662.24" rx="32.99" ry="13.6" transform="translate(-459.29 2820.81) rotate(-84.72)"/><path class="cls-16" d="M747,1454H689.51v-85.13a33.24,33.24,0,0,1,33.24-33.24h21Z"/><path class="cls-10" d="M1031.88,1513.66a2.35,2.35,0,0,1-.68-.11L913,1475.6a2.22,2.22,0,1,1,1.36-4.22l118.21,37.95a2.22,2.22,0,0,1-.68,4.33Z"/><path class="cls-10" d="M1071,1526.21a2.24,2.24,0,0,1-.67-.11l-16.53-5.31a2.21,2.21,0,0,1,1.35-4.21l16.53,5.3a2.22,2.22,0,0,1-.68,4.33Z"/><path class="cls-12" d="M624.34,1312.44v8.83l10-8.75a60.27,60.27,0,0,1,39.94-14.64h436.87v-3.7l-.94-3.7H674.26a67.61,67.61,0,0,0-44.32,17Z"/><path class="cls-12" d="M813.49,1293.8a3.32,3.32,0,0,1-3.32-3.17c-1.25-27.75-7.38-73.65-18.52-78.68-13.24-6-111.8-21.53-162.06-28.92a3.32,3.32,0,0,1,1-6.57c6,.88,146.44,21.59,163.82,29.44,8.32,3.76,14.4,18.87,18.59,46.2,3,19.38,3.83,38,3.84,38.23a3.33,3.33,0,0,1-3.17,3.47Z"/><path class="cls-10" d="M139.63,1421.38v99.19l-15.55.76v-97.89Zm69.94,56.7c0-17.85.21-40.1.55-52.18l-.17,0c-2.63,18.51-8.91,61.44-13.78,91.88l-16.11.79c-3.52-26.39-9.55-69.4-12-87.72l-.32,0c.32,11.8.82,34.73.82,52.2v36l-14.8.72V1419.51l24.53-3.24c4.25,25.55,8.67,54.44,10.15,68.78h.17c1.81-14.81,7.86-46.26,12.36-71.78l25.61-3.39v106.44l-17,.83v-39.06Zm33.13-70.34,27.41-3.63c20.29-2.69,30.88,4.75,30.88,24.67v6.63c0,18.6-7.72,31.59-32,33.61l-7.44.62v45l-18.88.92Zm18.88,48.12,5.27-.5c12.16-1.14,14.26-7.57,14.26-18.4v-5.46c0-8.06-1.69-14.51-12.54-13.19l-7,.85v36.7Zm119.05-34.72v55.71c0,22.86-11.92,34.23-36.13,35.39-22.46,1.07-32.34-9-32.34-30.21v-53.47c0-21.76,13-33.42,33.71-36.18C367.54,1389.48,380.63,1398.18,380.63,1421.14Zm-47.09,3.45v58c0,9.58,4.16,13.84,11.93,13.38,8.49-.51,12.31-5,12.31-15.33v-58.92c0-9.32-3.48-14-12.33-13C337.68,1409.73,333.54,1414.82,333.54,1424.59Zm87.87,27.32v54.87l-23.73,1.16V1387.22l33.07-4.38c24.5-3.25,39.35,2.52,39.35,25.34V1413c0,19.48-10.45,25.41-16.8,28,9.58,2.57,15.11,7.4,15.11,24.58,0,10.66-.25,31.25,1.53,38.83l-24.46,1.2c-2.14-7.42-1.69-27.9-1.69-36.95,0-15.19-2.52-18.45-16.77-17.22Zm0-15.63,5.55-.53c13-1.26,17.8-5.56,17.8-19.12v-4.27c0-9.64-2.58-15.19-16.51-13.49l-6.84.83Zm85.76-45-27.62,3.33v-18.26l85-11.25v19.27l-29.85,3.6v113.24l-27.49,1.34V1391.31Z"/><polygon class="cls-16" points="608.09 1645.83 80.33 1680.21 80.25 1659.38 608.09 1645.83"/><path class="cls-17" d="M1271.85,893.13a3.07,3.07,0,0,1-.79-.11,2.77,2.77,0,0,1-1.86-3.44c12.29-41.46,74.74-69.74,77.39-70.93a2.77,2.77,0,0,1,2.72,4.79c-.3.21-30.45,21.78-46.7,53a2.77,2.77,0,1,1-4.91-2.55c8.06-15.5,19.16-28.53,28.7-38-19.22,11.87-44.88,31.55-51.9,55.23A2.77,2.77,0,0,1,1271.85,893.13Z"/></svg>