<svg xmlns="http://www.w3.org/2000/svg" enable-background="new 0 0 700 700" viewBox="0 0 700 700"><path fill="#f5f7ff" d="M186.11 354.638c40.5-21.718 65.028-67.499 65.711-113.45.44-29.668-8.98-61.149 3.747-87.952 11.386-23.979 38.62-37.466 65.13-38.832 26.509-1.366 52.474 7.492 76.77 18.184 47.762 21.02 93.344 50.803 122.516 94.071 29.173 43.268 39.268 101.796 15.99 148.5-23.412 46.972-74.16 73.262-123.297 91.697a831.4 831.4 0 0 1-193.39 47.077c-32.002 3.816-69.032 3.98-90.806-19.782-19.652-21.446-18.707-56.164-4.417-81.5 14.29-25.336 36.553-44.006 62.047-58.013z" class="colorf5f7ff svgShape"/><path fill="#adc8f7" d="m499.31 162.855-.038-.001a.5.5 0 0 1-.461-.536 31.62 31.62 0 0 0-.229-6.876.5.5 0 0 1 .99-.145c.335 2.307.414 4.694.236 7.095a.5.5 0 0 1-.498.463zM390.074 428.104a.494.494 0 0 1-.266-.077 84.238 84.238 0 0 0-12.173-6.337.5.5 0 0 1 .387-.922 85.269 85.269 0 0 1 12.32 6.413.5.5 0 0 1-.268.923zm-115.863-3.122c-1.757 0-3.543-.047-5.306-.14a.5.5 0 0 1-.473-.526c.014-.277.244-.509.525-.473 3.577.189 7.203.185 10.702-.013a112.68 112.68 0 0 0 3.039-.211.5.5 0 1 1 .083.996c-1.02.086-2.043.157-3.066.214-1.81.101-3.661.153-5.504.153zm-18.99-1.788a.501.501 0 0 1-.093-.009 109.957 109.957 0 0 1-13.446-3.426.5.5 0 1 1 .308-.951 109.059 109.059 0 0 0 13.322 3.395.5.5 0 0 1-.091.99zm41.211-.413a.5.5 0 0 1-.085-.993c4.61-.806 9.359-1.786 13.55-2.649.273-.061.535.118.59.389s-.118.534-.388.59c-4.198.866-8.955 1.846-13.58 2.655a.434.434 0 0 1-.087.008zm27.129-5.316a.5.5 0 0 1-.087-.992c5.122-.903 9.614-1.516 13.734-1.87a.5.5 0 1 1 .086.996c-4.09.353-8.553.96-13.646 1.858a.444.444 0 0 1-.087.008zm41.147-.03a.475.475 0 0 1-.116-.014 81.103 81.103 0 0 0-13.567-2.04.5.5 0 0 1-.467-.532.496.496 0 0 1 .53-.467c4.582.293 9.203.989 13.735 2.067a.5.5 0 0 1-.115.986zm-135.734-2.689a.5.5 0 0 1-.21-.045 118.49 118.49 0 0 1-12.224-6.56.5.5 0 1 1 .523-.852c3.91 2.403 7.987 4.591 12.121 6.503a.5.5 0 0 1-.21.954zm-23.503-14.433a.499.499 0 0 1-.31-.108 119.55 119.55 0 0 1-10.38-9.2.5.5 0 0 1 .705-.71 118.245 118.245 0 0 0 10.295 9.125.5.5 0 0 1-.31.893zm-19.525-19.478a.5.5 0 0 1-.393-.19 114.1 114.1 0 0 1-4.57-6.22 119.606 119.606 0 0 1-3.341-5.176.5.5 0 1 1 .853-.521 118.411 118.411 0 0 0 3.315 5.133 112.981 112.981 0 0 0 4.528 6.165.5.5 0 0 1-.392.81zm-14.382-23.53a.5.5 0 0 1-.454-.29 128.251 128.251 0 0 1-5.134-12.884.5.5 0 0 1 .947-.32 127.381 127.381 0 0 0 5.095 12.783.5.5 0 0 1-.454.71zm-8.84-26.139a.5.5 0 0 1-.487-.39 138.363 138.363 0 0 1-2.354-13.664.5.5 0 0 1 .993-.121 137.245 137.245 0 0 0 2.337 13.566.5.5 0 0 1-.488.61zm-3.327-27.396a.5.5 0 0 1-.5-.49 142.523 142.523 0 0 1 .366-13.859.5.5 0 1 1 .997.075 142.936 142.936 0 0 0-.363 13.763.5.5 0 0 1-.489.51h-.011zm2.069-27.524a.5.5 0 0 1-.493-.586 140.759 140.759 0 0 1 3.05-13.524.5.5 0 1 1 .963.268 139.659 139.659 0 0 0-3.028 13.429.5.5 0 0 1-.492.413zm7.36-26.598a.5.5 0 0 1-.467-.679 155.16 155.16 0 0 1 5.522-12.713.5.5 0 0 1 .898.44 153.995 153.995 0 0 0-5.486 12.63.5.5 0 0 1-.467.322zm12.103-24.813a.5.5 0 0 1-.428-.758 167.151 167.151 0 0 1 7.624-11.572.5.5 0 0 1 .812.584 166.344 166.344 0 0 0-7.579 11.504.501.501 0 0 1-.429.242zm218.448-5.793h-.013a147.579 147.579 0 0 1-13.826-1.02.5.5 0 0 1-.436-.556.494.494 0 0 1 .556-.435c4.55.551 9.17.891 13.733 1.011a.5.5 0 0 1-.014 1zm13.813-.297a.5.5 0 0 1-.034-1c4.583-.32 9.182-.868 13.67-1.628a.5.5 0 0 1 .167.986c-4.52.766-9.152 1.318-13.768 1.64-.012.002-.023.002-.035.002zm-41.213-3.028a.51.51 0 0 1-.108-.012 146.546 146.546 0 0 1-13.39-3.6.5.5 0 0 1 .307-.952 145.176 145.176 0 0 0 13.297 3.576.5.5 0 0 1-.106.988zm68.418-1.601a.5.5 0 0 1-.132-.983 130.916 130.916 0 0 0 13.055-4.352.5.5 0 1 1 .366.93 131.843 131.843 0 0 1-13.155 4.387.527.527 0 0 1-.134.018zm-94.698-6.84a.49.49 0 0 1-.198-.04 138.86 138.86 0 0 1-12.438-6.127.5.5 0 1 1 .486-.873 138.098 138.098 0 0 0 12.348 6.082.5.5 0 0 1-.198.959zm120.366-3.28a.499.499 0 0 1-.233-.943c4.434-2.33 8.268-4.677 11.72-7.17a.5.5 0 0 1 .586.81c-3.491 2.522-7.364 4.892-11.84 7.245a.497.497 0 0 1-.233.058zm-269.014-1.579a.5.5 0 0 1-.38-.824 177.595 177.595 0 0 1 9.381-10.198.5.5 0 1 1 .71.705 176.645 176.645 0 0 0-9.33 10.142.498.498 0 0 1-.381.175zm124.548-8.58c-.099 0-.2-.029-.286-.09a128.775 128.775 0 0 1-10.907-8.566.5.5 0 1 1 .66-.752 127.914 127.914 0 0 0 10.82 8.5.5.5 0 0 1-.287.908zm166.548-6.221a.5.5 0 0 1-.373-.833 52.324 52.324 0 0 0 1.98-2.355 45.046 45.046 0 0 0 5.552-8.998.5.5 0 1 1 .907.42 46.06 46.06 0 0 1-5.675 9.2 53.908 53.908 0 0 1-2.017 2.399.5.5 0 0 1-.374.167zm-271.623-4.78a.5.5 0 0 1-.326-.879 181.056 181.056 0 0 1 10.842-8.631.5.5 0 0 1 .592.807 180.127 180.127 0 0 0-10.782 8.581.499.499 0 0 1-.326.121zm84.198-7.057a.5.5 0 0 1-.35-.143c-2.998-2.93-6.51-6.299-10.25-9.173a.5.5 0 0 1 .608-.793c3.785 2.909 7.323 6.3 10.342 9.251a.5.5 0 0 1-.35.858zm-61.858-9.165a.5.5 0 0 1-.25-.934c4.313-2.477 8.548-4.458 12.587-5.887a.5.5 0 0 1 .333.944c-3.982 1.408-8.16 3.363-12.422 5.81a.5.5 0 0 1-.248.067zm39.58-6.809a.493.493 0 0 1-.167-.028c-.448-.158-.9-.307-1.358-.447-3.803-1.163-7.907-1.63-12.048-1.404a.495.495 0 0 1-.527-.472.5.5 0 0 1 .472-.526c4.26-.236 8.48.25 12.395 1.445.471.144.937.298 1.398.46a.5.5 0 0 1-.166.972zM406.19 441.38a.498.498 0 0 1-.365-.158 79.85 79.85 0 0 0-4.97-4.866.5.5 0 1 1 .668-.744 80.893 80.893 0 0 1 5.032 4.926.5.5 0 0 1-.365.842z" class="coloradc8f7 svgShape"/><linearGradient id="a" x1="1206.791" x2="1217.932" y1="-171.83" y2="-171.83" gradientTransform="rotate(-19.325 1791.176 2070.953)" gradientUnits="userSpaceOnUse"><stop offset="0" stop-color="#e7ecff" class="stopColore7ecff svgShape"/><stop offset="1" stop-color="#c2d5ff" class="stopColorc2d5ff svgShape"/></linearGradient><path fill="url(#a)" d="M508.703 146.135c.047.096.02.209-.067.27l-9.087 6.475a.134.134 0 0 1-.053.028.208.208 0 0 1-.202-.037.21.21 0 0 1-.06-.249l5.822-12.95a.216.216 0 0 1 .19-.125c.08 0 .16.044.194.117l3.263 6.47z"/><linearGradient id="b" x1="1208.176" x2="1257.276" y1="-175.213" y2="-175.213" gradientTransform="rotate(-19.325 1791.176 2070.953)" gradientUnits="userSpaceOnUse"><stop offset="0" stop-color="#e7ecff" class="stopColore7ecff svgShape"/><stop offset="1" stop-color="#c2d5ff" class="stopColorc2d5ff svgShape"/></linearGradient><path fill="url(#b)" d="M540.455 117.8a.213.213 0 0 1-.006.24l-27.212 37.34a.221.221 0 0 1-.19.09.208.208 0 0 1-.17-.116l-10.148-20.124-10.029-5.42a.213.213 0 0 1-.11-.214.215.215 0 0 1 .162-.178l47.473-11.71a.212.212 0 0 1 .23.091z"/><path fill="#c2d5ff" d="M529.438 123.286a.21.21 0 0 1-.064.28L505.419 139.9l-5.796 12.895a.218.218 0 0 1-.127.112.211.211 0 0 1-.278-.24l3.465-17.633a.222.222 0 0 1 .121-.155l26.364-11.683a.207.207 0 0 1 .27.09z" class="colorc2d5ff svgShape"/><linearGradient id="c" x1="246.684" x2="474.278" y1="302.642" y2="302.642" gradientUnits="userSpaceOnUse"><stop offset="0" stop-color="#78a7ff" class="stopColor78a7ff svgShape"/><stop offset="1" stop-color="#3d79f3" class="stopColor3d79f3 svgShape"/></linearGradient><path fill="url(#c)" d="M474.278 167.602v270.079c0 5.955-4.827 10.782-10.782 10.782h-206.03c-5.955 0-10.782-4.827-10.782-10.782V167.602c0-5.954 4.827-10.782 10.782-10.782h206.03c5.955 0 10.782 4.828 10.782 10.782z"/><linearGradient id="d" x1="360.862" x2="358.669" y1="337.757" y2="136.022" gradientUnits="userSpaceOnUse"><stop offset="0" stop-color="#e7ecff" class="stopColore7ecff svgShape"/><stop offset="1" stop-color="#c2d5ff" class="stopColorc2d5ff svgShape"/></linearGradient><path fill="url(#d)" d="m463.92 174.624-.021 256.027a6.908 6.908 0 0 1-6.908 6.907H263.948a6.908 6.908 0 0 1-6.907-6.909l.02-256.047a6.908 6.908 0 0 1 6.909-6.907l193.042.02a6.908 6.908 0 0 1 6.907 6.909z"/><linearGradient id="e" x1="328.113" x2="392.849" y1="143.87" y2="143.87" gradientUnits="userSpaceOnUse"><stop offset="0" stop-color="#e7ecff" class="stopColore7ecff svgShape"/><stop offset="1" stop-color="#c2d5ff" class="stopColorc2d5ff svgShape"/></linearGradient><path fill="url(#e)" d="M391.422 154.104H329.54a1.426 1.426 0 0 1-1.298-2.018l6.7-14.717a6.39 6.39 0 0 1 5.801-3.734h39.475a6.39 6.39 0 0 1 5.803 3.734l6.7 14.717a1.426 1.426 0 0 1-1.3 2.018zm-59.665-2.853h57.448l-5.781-12.7a3.53 3.53 0 0 0-3.206-2.062h-39.475a3.53 3.53 0 0 0-3.205 2.062l-5.78 12.7z"/><linearGradient id="f" x1="360.935" x2="359.481" y1="181.678" y2="133.125" gradientUnits="userSpaceOnUse"><stop offset="0" stop-color="#e7ecff" class="stopColore7ecff svgShape"/><stop offset="1" stop-color="#c2d5ff" class="stopColorc2d5ff svgShape"/></linearGradient><path fill="url(#f)" d="M412.743 152.655v27.736a3.415 3.415 0 0 1-3.414 3.415h-97.696a3.415 3.415 0 0 1-3.414-3.415v-27.736a3.415 3.415 0 0 1 3.414-3.415h97.696a3.415 3.415 0 0 1 3.414 3.415z"/><path fill="#f5f7ff" d="M426.538 207.161v29.325a4.182 4.182 0 0 1-4.183 4.183H298.606a4.182 4.182 0 0 1-4.182-4.183v-29.325a4.182 4.182 0 0 1 4.182-4.182h123.75a4.182 4.182 0 0 1 4.182 4.182zM305.608 267.354v27.233c0 1.599-1.296 2.895-2.895 2.895h-27.234a2.895 2.895 0 0 1-2.895-2.895v-27.233c0-1.6 1.296-2.896 2.895-2.896h27.234c1.599 0 2.895 1.296 2.895 2.896zM305.608 320.502v27.233c0 1.6-1.296 2.896-2.895 2.896h-27.234a2.895 2.895 0 0 1-2.895-2.896v-27.233c0-1.599 1.296-2.895 2.895-2.895h27.234c1.599 0 2.895 1.296 2.895 2.895zM305.608 373.651v27.233c0 1.6-1.296 2.896-2.895 2.896h-27.234a2.895 2.895 0 0 1-2.895-2.896v-27.233c0-1.599 1.296-2.895 2.895-2.895h27.234c1.599 0 2.895 1.296 2.895 2.895zM369.022 270.483h-42.226a3.394 3.394 0 1 0 0 6.788h42.226a3.394 3.394 0 0 0 0-6.788zM396.008 270.483h-9.824a3.394 3.394 0 1 0 0 6.788h9.824a3.394 3.394 0 1 0 0-6.788zM373.914 288.063a3.394 3.394 0 0 1-3.394 3.394h-43.724a3.394 3.394 0 1 1 0-6.788h43.724a3.394 3.394 0 0 1 3.394 3.394zM369.022 323.632h-42.226a3.394 3.394 0 1 0 0 6.788h42.226a3.394 3.394 0 0 0 0-6.788zM397.99 323.632h-11.806a3.394 3.394 0 0 0 0 6.788h11.806a3.394 3.394 0 0 0 0-6.788zM376.443 341.212a3.394 3.394 0 0 1-3.394 3.394h-46.253a3.394 3.394 0 1 1 0-6.788h46.253a3.394 3.394 0 0 1 3.394 3.394zM369.022 376.78h-42.226a3.394 3.394 0 1 0 0 6.788h42.226a3.394 3.394 0 0 0 0-6.788zM418.097 376.78h-31.913a3.394 3.394 0 1 0 0 6.788h31.913a3.394 3.394 0 0 0 0-6.788zM428.772 380.175a3.394 3.394 0 0 0 3.394 3.394h12.49a3.394 3.394 0 0 0 0-6.788h-12.49a3.394 3.394 0 0 0-3.394 3.394zM402.818 394.36a3.394 3.394 0 0 1-3.394 3.395h-72.628a3.394 3.394 0 0 1 0-6.788h72.628a3.394 3.394 0 0 1 3.394 3.394z" class="colorf5f7ff svgShape"/><linearGradient id="g" x1="281.189" x2="294.608" y1="280.97" y2="280.97" gradientUnits="userSpaceOnUse"><stop offset="0" stop-color="#a7c161" class="stopColora7c161 svgShape"/><stop offset="1" stop-color="#8ba53a" class="stopColor8ba53a svgShape"/></linearGradient><path fill="url(#g)" d="M286.136 285.82c-.035 0-.07 0-.106-.002a1.902 1.902 0 0 1-1.314-.634l-3.045-3.417a1.902 1.902 0 1 1 2.84-2.531l1.775 1.992 5.15-4.622a1.902 1.902 0 1 1 2.54 2.832l-6.57 5.896c-.35.315-.802.487-1.27.487z"/><linearGradient id="h" x1="281.189" x2="294.608" y1="334.119" y2="334.119" gradientUnits="userSpaceOnUse"><stop offset="0" stop-color="#78a7ff" class="stopColor78a7ff svgShape"/><stop offset="1" stop-color="#3d79f3" class="stopColor3d79f3 svgShape"/></linearGradient><path fill="url(#h)" d="m286.136 338.97-.106-.003a1.902 1.902 0 0 1-1.314-.634l-3.045-3.417a1.902 1.902 0 1 1 2.84-2.531l1.775 1.991 5.15-4.621a1.902 1.902 0 1 1 2.54 2.831l-6.57 5.897a1.9 1.9 0 0 1-1.27.487z"/><linearGradient id="i" x1="281.701" x2="294.097" y1="385.931" y2="385.931" gradientUnits="userSpaceOnUse"><stop offset="0" stop-color="#ff8888" class="stopColorf88 svgShape"/><stop offset="1" stop-color="#f24e4e" class="stopColorf24e4e svgShape"/></linearGradient><path fill="url(#i)" d="m290.589 385.931 2.95-2.951a1.902 1.902 0 1 0-2.69-2.69l-2.95 2.951-2.951-2.951a1.902 1.902 0 1 0-2.69 2.69l2.95 2.951-2.95 2.951a1.902 1.902 0 1 0 2.69 2.69l2.95-2.951 2.952 2.951c.37.372.858.557 1.345.557s.973-.185 1.345-.557a1.902 1.902 0 0 0 0-2.69l-2.951-2.951z"/><linearGradient id="j" x1="4931.047" x2="4972.032" y1="188.269" y2="211.632" gradientTransform="matrix(-1 0 0 1 5083.159 0)" gradientUnits="userSpaceOnUse"><stop offset="0" stop-color="#e7ecff" class="stopColore7ecff svgShape"/><stop offset="1" stop-color="#c2d5ff" class="stopColorc2d5ff svgShape"/></linearGradient><path fill="url(#j)" d="M106.008 196.396c0 13.02 10.559 23.587 23.587 23.587 2.697 0 5.292-.453 7.703-1.293l7.787 5.208a.378.378 0 0 0 .588-.336l-.513-9.458c4.914-4.318 8.014-10.652 8.014-17.708 0-13.036-10.559-23.587-23.579-23.587-13.028 0-23.587 10.55-23.587 23.587z"/><linearGradient id="k" x1="112.544" x2="146.637" y1="196.055" y2="196.055" gradientUnits="userSpaceOnUse"><stop offset="0" stop-color="#a7c161" class="stopColora7c161 svgShape"/><stop offset="1" stop-color="#8ba53a" class="stopColor8ba53a svgShape"/></linearGradient><path fill="url(#k)" d="M146.637 196.05c0 9.42-7.63 17.051-17.05 17.051-9.411 0-17.043-7.631-17.043-17.05 0-9.412 7.632-17.043 17.043-17.043 9.42 0 17.05 7.631 17.05 17.042z"/><path fill="#ffffff" d="M127.178 200.316a2 2 0 0 1-1.694-.938l-2.268-3.616a2 2 0 0 1 3.389-2.125l1.182 1.885 5.174-3.4a2.001 2.001 0 0 1 2.197 3.343l-6.882 4.523a2 2 0 0 1-1.098.328z" class="colorfff svgShape"/><path fill="#adc8f7" d="M253.861 185.298a.25.25 0 0 1-.225-.36c.385-.79.75-1.575 1.087-2.337a.25.25 0 1 1 .457.203 72.262 72.262 0 0 1-1.094 2.354.25.25 0 0 1-.225.14zm2.583-6.055a.25.25 0 0 1-.235-.335c.467-1.294.869-2.57 1.193-3.793a.248.248 0 0 1 .306-.177.25.25 0 0 1 .178.306 46.603 46.603 0 0 1-1.206 3.834.25.25 0 0 1-.236.165zm2.013-7.728a.25.25 0 0 1-.248-.286c.186-1.282.28-2.523.28-3.688l-.001-.258a.25.25 0 0 1 .247-.253h.003a.25.25 0 0 1 .25.247l.001.264c0 1.19-.096 2.455-.285 3.76a.25.25 0 0 1-.247.214zm-.186-7.948a.251.251 0 0 1-.243-.192c-.587-2.417-1.54-3.514-1.55-3.525a.25.25 0 0 1 .374-.333c.042.048 1.043 1.188 1.662 3.741a.25.25 0 0 1-.243.309zM285.899 221.395h-7.023a.5.5 0 1 1 0-1h7.023a6.099 6.099 0 0 0 6.092-6.092v-5.502a.5.5 0 1 1 1 0v5.502a7.1 7.1 0 0 1-7.092 7.092zM182.153 221.395h-5.502c-3.91 0-7.09-3.182-7.09-7.092v-7.022a.5.5 0 1 1 1 0v7.022a6.098 6.098 0 0 0 6.09 6.092h5.502a.5.5 0 1 1 0 1zM170.06 138.065a.5.5 0 0 1-.5-.5v-5.502c0-3.91 3.182-7.09 7.092-7.09h7.022a.5.5 0 1 1 0 1h-7.022a6.098 6.098 0 0 0-6.091 6.09v5.502a.5.5 0 0 1-.5.5zM292.49 139.585a.5.5 0 0 1-.5-.5v-7.022a6.098 6.098 0 0 0-6.09-6.09h-5.503a.5.5 0 1 1 0-1h5.502c3.91 0 7.092 3.18 7.092 7.09v7.022a.5.5 0 0 1-.5.5z" class="coloradc8f7 svgShape"/><linearGradient id="l" x1="270.222" x2="192.329" y1="228.633" y2="117.733" gradientUnits="userSpaceOnUse"><stop offset="0" stop-color="#e7ecff" class="stopColore7ecff svgShape"/><stop offset="1" stop-color="#c2d5ff" class="stopColorc2d5ff svgShape"/></linearGradient><path fill="url(#l)" d="M288.614 132.063v82.24c0 1.5-1.215 2.716-2.715 2.716H176.652a2.715 2.715 0 0 1-2.716-2.716v-82.24c0-1.5 1.216-2.716 2.716-2.716h109.247c1.5 0 2.715 1.216 2.715 2.716z"/><path fill="#ffffff" d="M179.231 210.45v-74.534c0-1.212.983-2.194 2.195-2.194h99.7c1.211 0 2.194.982 2.194 2.194v74.534a2.194 2.194 0 0 1-2.195 2.195h-99.7a2.194 2.194 0 0 1-2.194-2.195z" class="colorfff svgShape"/><linearGradient id="m" x1="221.035" x2="265.073" y1="181.275" y2="181.275" gradientUnits="userSpaceOnUse"><stop offset="0" stop-color="#e7ecff" class="stopColore7ecff svgShape"/><stop offset="1" stop-color="#c2d5ff" class="stopColorc2d5ff svgShape"/></linearGradient><path fill="url(#m)" d="M237.849 181.336c.51 0 .904-.076 1.19.21.39.394-.143.9-.355 1.269-.246.428-1.234 1.093-.937 1.553.46.712 2.467.572 2.997 1.339.526.76.092 1.836.36 2.652.252.762.074 1.238-.46 1.895a1.82 1.82 0 0 0-.436 1.1c-.037.45.108.548.448.914.727.782.84 1.609.965 2.488.128.887.823 1.7 1.543 2.45 1.38 1.442 3.311.804 5.15.13 1.114-.407 2.254-.715 3.298-1.217.907-.435.972-1.281 1.07-1.968.065-.451.113-.962.508-1.351.327-.322 1.002-.468 1.266-.79.324-.397-.195-1.038.258-1.372.404-.298 1.425-.216 1.994-.388a2.886 2.886 0 0 0 1.29-.792c1.282-1.348.52-2.708.415-4.15-.019-.253-.123-.691.027-.922.25-.385 1.486-1.112 1.94-1.377 1.062-.621 2.409-1.119 3.109-1.94.615-.723 2.74-2.984.754-3.636-.993-.326-2.24-.012-3.2-.385-.786-.307-1.607-.65-2.277-1.05-1.074-.642-1.568-1.456-2.164-2.289-.396-.553-.734-1.128-1.16-1.67-.263-.334-.644-.597-.958-.92-.273-.28-.728-.642-.422-.948.04-.04.46-.147.588-.259.15-.13.223-.41.274-.57.106-.336.084-.688-.261-.974-.809-.67-2.624-.104-3.792-.07-1.295.038-2.219.112-3.264-.336-.612-.263-1.465-.797-2.288-.729-.932.077-.658.79-.658 1.238-1.21.038-1.903-.752-2.793-1.134-.344-.148-1.022-.208-1.295-.388-.388-.255-.073-.56-.222-.832-.167-.305-.68-.463-1.102-.624a16.11 16.11 0 0 0-5.293-1.017c-1.502-.024-1.697.706-2.567 1.314-1.01.706-2.696.802-3.865 1.359-.711.34-1.187.865-1.733 1.293-.369.29-.725.55-.828.93-.145.537.054.592-.595.803-.526.17-1.174.222-1.59.509-.658.451-.47 1.141-.558 1.686-.067.42-.377.478-.611.844-.294.46-.104 1.19-.08 1.672.035.688.273.888-.205 1.499-.594.758-.229.98.697 1.542 1.037.63 1.98.982 2.005 1.912.032 1.161 1.07 2.03 2.968 2.324 2 .309 4.98.108 6.832-.243.001-.145.243-.698.4-.792.549-.326 2.462.263 3.623.208z"/><linearGradient id="n" x1="226.247" x2="281.439" y1="165.943" y2="165.943" gradientUnits="userSpaceOnUse"><stop offset="0" stop-color="#e7ecff" class="stopColore7ecff svgShape"/><stop offset="1" stop-color="#c2d5ff" class="stopColorc2d5ff svgShape"/></linearGradient><path fill="url(#n)" d="M281.439 172.484c-.241.503-.496.998-.736 1.48-.206.427-.772 1.889-1.7 1.684-.89-.196-.608-1.792-1.995-1.72-.594.61-.786.895-.835 1.64-.085 1.18-.312 2.535-1.48 3.507-.19-.25-.063-.486-.176-.731-.305-.633-1.196-1.181-1.423-1.84-.212-.589-.064-1.275-.064-1.881 0-.179.12-.753-.092-.918-.254-.192-.622-.014-.842-.143-.368-.218-.247-.646-.403-.954-.191-.365-.552-.833-1.21-.9 0 .031-.687.174-.736.178-.61.045-1.742.067-2.244-.218-.85-.477-.304-.789-1.65-.833-.516-.014-1.471.124-1.931-.027-1.26-.397-.078-1.756-2.046-1.6-.53.842.864 2.023 2.095 2.358.644.173 1.36.022 2.01.262.29.103.446.29.722.406.248.103.609.13.857.245 1.16.54.764 1.698-.008 2.318-.523.414-.53.913-.997 1.319-.85.726-2.987.481-4.155.481-.396-.125-.495-.303-.835-.481-.368-.192-.927-.37-1.225-.557-1.04-.647-1.691-1.426-1.521-2.402-.694-.255-1.515-.54-2.01-.945 2.194-.428-.482-1.195-.41-1.756.056-.446 1.337-.629 1.471-1.208.078-.325-.07-.664-.24-.967-.404-.717-.46-.602-1.196-.673-.552-.058-1.48.294-1.876-.227-.36-.486.75-.914.453-1.475-.382-.713-1.67.178-2.718.227-1.486.071-2.675-.299-2.93-1.199-.078-.263.269-.838-.17-.985-.559-.191-.835.406-.778.61a1.617 1.617 0 0 1-.39.05c.057.396.418 1.172-.042 1.395-.467.236-1.62.071-1.975-.098-.665-.335-.729-1.11-1.33-1.462-.765-.45-1.678.37-2.845.102.085-.33.085-.664-.142-.976-.368-.508-.53-.294-1.09-.414-.325-.071-.863-.102-1.16-.258-.468-.25-.524-.669-.984-.919-.588.156-.595.535-1.225.656-.686.129-1.012-.268-1.366.169-.177.218.22.53-.12.74-.418.258-1.423-.165-1.876-.152-1.196.045-2.555.83-3.616 1.186-1.196.4-2.039.7-3.419.673.057-.517.651-1.043.326-1.596-.27-.468-1.21-.285-.821-.833.545-.753 3.935-.312 5.096-.348.12-.365.396-.829.368-1.199-.029-.374-.22-.294-.418-.521-.17-.196-.51-.071-.481-.348.007-.089.375-.263.665-.383h.007c.135-.058.248-.098.305-.116.757-.245 1.436-.32 2.052-.65.191-.103.382-.21.595-.321.559-.299 1.196-.602 1.96-.79 1.04-.253 1.713-.19 2.626.054.97.268 1.076.205 2.031.01.764-.161 1.48-.192 2.265-.232.743-.04 2.675-.5 2.52-1.164-.63-.062-1.133-.517-1.204-.904.41-.25 1.104-.883.772-1.235-.205.014-2.116.272-2.223.339-.431.267-.028 1.176.666 1.159-.347.307-1.175.69-1.6.989-.396.272-.99.58-1.706.463-.615-.098-.29-.338-.736-.543-.261-.12-.615-.01-.813-.098-.46-.205-.8-.259-.737-.74-.898.085-1.479.597-2.505.423-.807-.138-1.097-.557-.899-1.105.368-1.052 3.744-1.065 5.032-1.667.602-.285 1.239-.753 1.925-.944.892-.25 2.294-.099 3.27-.04.793.048 1.423.102 2.18.227 1.239.205 3.553.481 4.303 1.145-.17.022-.488.16-.7.178.495.308 1.72.094 2.427.134 1.557.094 3.603.406 5.117.116.942-.183.906-.477 2.039-.263 1.005.196 1.698.41 2.795.383 1.338-.031 2.286.16 3.617.236.516.027 1.005-.026 1.472.072.99.21 2.152.686 3.022 1.078.12.098.24.192.354.29 5.386 4.532 8.854 10.018 9.64 15.977z"/><path fill="#ffffff" d="M258.586 193.023a8.88 8.88 0 0 1-.8-.777c.235-.208.389-.512.862-.48.043-.698-.094-1.405.521-2.001.326-.317.705-.452 1.093-.75.327-.252.79-.557 1.246-.718.835-.296 1.121-.119 1.126.459.003.332.023.738-.068 1.063-.112.403-.493.55-.91.85-.437.317-.456.54-.463.947-.008.476.366 1.076-.295 1.361-.419.18-1.901.335-2.312.046z" class="colorfff svgShape"/><linearGradient id="o" x1="188.732" x2="211.52" y1="188.735" y2="188.735" gradientUnits="userSpaceOnUse"><stop offset="0" stop-color="#e7ecff" class="stopColore7ecff svgShape"/><stop offset="1" stop-color="#c2d5ff" class="stopColorc2d5ff svgShape"/></linearGradient><path fill="url(#o)" d="M210.55 187.529c-.375.174-.757.25-1.118.472-.602.375-.595.495-.574.896.036.58.135 1.27 0 1.88-.17.754-.22 1.49-1.288 1.864-.524.182-2.23.213-2.47.427-.248.219-.07 1.039-.248 1.346-.268.455-.389.838-.453 1.346a1.81 1.81 0 0 0-.997-.062c.212.294.233.615-.177.748-.446.152-.652-.294-.85.156-.106.241.496.74.666.9.254.241.346.308.771.553-.134.067-.248.259-.354.312 1.409-.107 1.239 1.159 1.239 1.671-.255-.2-.906-.04-1.451.152a48.966 48.966 0 0 1-5.882-3.169l-.007-.004c-.184-.735-.346-1.47-.523-2.21-.241-.999-.652-1.85-1.253-2.773-.46-.695-.623-1.515-1.125-2.21-.404-.562-.765-1.078-.942-1.702-.233-.825.297-1.275 1.02-1.877-1.21-.673-3.483-.325-3.405-1.63.035-.7 1.097-.785 1.437-1.4-.467-.058-1.38.036-1.755-.138-.305-.143-.326-.486-.552-.669-.63.308-.312 1.663-1.522 1.529-.057-1.15.368-2.318.488-3.458.05-.526-.205-1.048-.248-1.618-.035-.423-.615-1.28.241-1.529.73-.214 1.508.281 2.11.401 1.082.21 1.627-.419 2.731-.2 1.111.218 1.38.86 1.925 1.435.673.704 1.6.232 2.577.677 1.139.517 2.392 1.52 2.35 2.393-.015.272-.15.7.07.932.092.107.779.33.963.41 1.068.454 1.854.4 3.092.405 1.076.005 1.635.321 2.534.642.489.174.998.361 1.487.53.58.197 1.89.375 2.25.754.524.566.007 1.461-.757 1.818z"/><linearGradient id="p" x1="202.507" x2="229.777" y1="153.13" y2="153.13" gradientUnits="userSpaceOnUse"><stop offset="0" stop-color="#e7ecff" class="stopColore7ecff svgShape"/><stop offset="1" stop-color="#c2d5ff" class="stopColorc2d5ff svgShape"/></linearGradient><path fill="url(#p)" d="M204.586 153.505c.47.052.898-.097 1.283-.226.07-.544.452-.997 1.211-.49.504-.21.428-.402 1.042-.424.369-.013.47.138.809.195.498.084.679.16 1.217-.008.407-.127.653-.517 1.24-.348.745.215.275.941-.085 1.23-.208.168-.707.305-.76.532-.082.35.601.453.527.787-.443.005-1.388-.084-1.686.16-.291.24.006.852.08 1.092.33 1.08 1.395 1.197 2.756.512.576-.29.814-.689 1.305-.974.537-.31 1.089-.239 1.733-.3.644-.06.503-.064 1.04-.242.214-.07.524-.237.761-.28.19-.034.952.064 1.117-.014.415-.197.075-.533.01-.825.861-.183 1.936-.143 2.867-.32.69-.13 1.336-.325 2.075-.385.523-.043 1.15.076 1.648-.07.75-.22.614-.441.688-.802.028-.138-.398-.164-.2-.402.164-.2.642-.145.909-.19.597-.103 1.091.035 1.355-.412.323-.546-.377-.555.736-.674.426-.045 1.29.143 1.497-.211.427-.736-7.45-1.165-8.096-1.092-1.22.138-2.428.434-3.629.636-1.607.271-3.243.36-4.88.546-1.894.217-3.56.668-5.406 1-.883.16-1.715.277-2.636.328-.731.04-1.975.045-2.414.531-.9.996 1.625.862 1.886 1.14z"/><linearGradient id="q" x1="227.119" x2="234.681" y1="158.209" y2="158.209" gradientUnits="userSpaceOnUse"><stop offset="0" stop-color="#e7ecff" class="stopColore7ecff svgShape"/><stop offset="1" stop-color="#c2d5ff" class="stopColorc2d5ff svgShape"/></linearGradient><path fill="url(#q)" d="M230.213 159.37c.377-.138.314-.368.566-.53.099-.064.549-.17.564-.187.189-.201.017-.605-.173-.777-.548.021-.344.409-.62.615-.272.204-.406.091-.695.185-.178.058-.393.164-.571.22-.653.21-1.381.199-2.164.162-.018-.696.403-.93 1.426-1.075.493-.07.702-.095.987-.313.063-.049-.074-.2.06-.296.15-.107.42-.017.599-.15-1.446-.69.236-.87 1.38-.845 1.64.035.184.63 1.35.897-1 .423.827.792 1.415.886.037.586.427 1.089.328 1.68-1.578.049-3.718.637-4.452-.472z"/><linearGradient id="r" x1="183.351" x2="207.407" y1="165.131" y2="165.131" gradientUnits="userSpaceOnUse"><stop offset="0" stop-color="#e7ecff" class="stopColore7ecff svgShape"/><stop offset="1" stop-color="#c2d5ff" class="stopColorc2d5ff svgShape"/></linearGradient><path fill="url(#r)" d="M203.239 154.71c-1.416.237-1.996-.235-3.249-.423-.693-.106-1.557-.222-2.151.12-.397.228-.489.59-.878.848-.899.597-2.343.726-3.567.82-.142.86-.396.984-1.26.998-4.296 3.792-7.276 8.218-8.514 13.008v.005c.262.352-.156.882-.227 1.217-.24 1.127.63 2.112.75 3.2.022.213-.353 1.773.538 1.56.036-.442.008-1.507.998-1.543.142-.174.432-.28.616-.445-.46-.214-1.295-.197-1.338-.611-.028-.312.892-.749 1.02-1.047.261-.584-.12-1.007.396-1.542 1.26-1.306 1.776.526 2.18 1.22.601.126.977-.204 1.083-.592 0-.62.078-1.274-.333-1.845.623-.2 1.33-.12 1.883-.544.389-.303.446-.632.693-.998.29-.423.9-.78 1.097-1.216.128-.277.036-.517.262-.785.736-.851 2.138-.076 2.13-1.301-.007-1.284 1.635-.816 3.143-.945.863-.076 1.932-.437 2.194-1.016.212-.464-.729-.771-1.26-.374-.064-.139-.233-1.23-.127-1.346.58-.65 2.321.454 3.043-.17-.198.21-.46.428-.644.638.517.347 1.869.842 2.69.579.87-.276.51-1.016-.425-1.025-.035-.16-.297-.553-.198-.709.205-.316 1.175-.178 1.373-.454.347-.477-1.203-.86-1.635-1.07-.842-.396-.573-.624-.149-1.127.404-.473.27-.464-.573-.517-.63-.045-.941.062-1.508.035-.8-.044-1.125-.436-1.953-.2.064-.05.113-.107.163-.165.311-.383.375-.998 1.012-1.203 1.069-.343.934.45 1.437.81.665.473 1.337.42 2.137.268.524-.098.913-.08 1.168-.481.099-.156-.113-.437.07-.562.305-.218 1.055-.008 1.466-.133.658-.2.375-.361.615-.727-1.146-.664-2.866-.423-4.168-.21zm-5.549 3.495c-.142.245.028.512-.226.735-.192.174-.531.16-.722.41-.15.2-.078.406-.241.588-.191.2-.538.352-.736.549-.467.463-.56 1.252-1.564 1.345-.12-.285-.184-.735-.071-1.029.085-.21.439-.374.488-.58.114-.463-.65-.655-1.408-.628-.043-.486 1.203-.9 1.727-1.172.863-.441 1.465-.343 2.512-.575.283-.062.56-.129.821-.21-.269.188-.488.393-.58.567z"/><path fill="#adc8f7" d="M252.354 156.568a.252.252 0 0 1-.135-.04 42.924 42.924 0 0 0-3.445-1.982.25.25 0 0 1 .23-.445 43.93 43.93 0 0 1 3.485 2.006.25.25 0 0 1-.135.46zm-7.097-3.664a.247.247 0 0 1-.094-.019 46.716 46.716 0 0 0-3.746-1.34.25.25 0 0 1-.164-.312.246.246 0 0 1 .313-.164c1.283.397 2.557.853 3.786 1.353a.25.25 0 0 1-.095.482zm-43.156-.062a.25.25 0 0 1-.086-.484c.013-.006 1.443-.529 3.855-1.17a.25.25 0 1 1 .129.482c-2.388.636-3.798 1.152-3.812 1.157a.245.245 0 0 1-.086.015zm7.727-2.083a.25.25 0 0 1-.05-.495c1.31-.272 2.639-.514 3.95-.717.136-.014.264.073.285.21s-.073.263-.21.284a76.762 76.762 0 0 0-3.924.713.304.304 0 0 1-.05.005zm27.8-.231a.268.268 0 0 1-.055-.006 52.554 52.554 0 0 0-3.914-.726.25.25 0 0 1-.211-.283c.02-.136.15-.23.283-.21 1.343.196 2.672.443 3.952.73a.25.25 0 0 1-.055.495zm-19.894-.992a.25.25 0 0 1-.025-.499 73.375 73.375 0 0 1 4.004-.295c.157.015.255.1.261.238a.25.25 0 0 1-.238.262c-1.307.06-2.645.157-3.976.293h-.026zm11.987-.181-.02-.001a62.837 62.837 0 0 0-3.98-.179.25.25 0 0 1-.246-.253c.002-.138.115-.26.253-.247a63.81 63.81 0 0 1 4.011.18.25.25 0 0 1-.018.5zM202.1 153.993a.25.25 0 0 1-.006-.5c.67-.019 1.345-.024 2.01-.012a.25.25 0 0 1 .246.254c-.002.138-.115.267-.254.246a42.24 42.24 0 0 0-1.989.012h-.006zM247.171 180.05a.249.249 0 0 1-.2-.1c-.743-.989-1.514-1.975-2.29-2.933a.25.25 0 1 1 .388-.314c.78.961 1.555 1.954 2.302 2.947a.25.25 0 0 1-.2.4zm-4.7-5.793a.248.248 0 0 1-.187-.085 87.92 87.92 0 0 0-2.51-2.744.25.25 0 1 1 .36-.346c.842.88 1.691 1.809 2.526 2.76a.25.25 0 0 1-.188.415zm-5.157-5.388a.246.246 0 0 1-.172-.07 69.525 69.525 0 0 0-2.758-2.489.25.25 0 0 1 .325-.38 70.573 70.573 0 0 1 2.778 2.508.25.25 0 0 1-.173.43zm-5.67-4.842a.249.249 0 0 1-.15-.051 59.17 59.17 0 0 0-3.028-2.15.25.25 0 1 1 .277-.416c1.011.67 2.039 1.4 3.052 2.168a.25.25 0 0 1-.15.449zm-6.218-4.11a.253.253 0 0 1-.123-.033 48.696 48.696 0 0 0-3.294-1.705.25.25 0 0 1 .213-.453 50.029 50.029 0 0 1 3.327 1.723.25.25 0 0 1-.123.467zm-6.745-3.165a.251.251 0 0 1-.088-.015 44.344 44.344 0 0 0-3.52-1.156.25.25 0 0 1-.174-.307.244.244 0 0 1 .309-.173c1.187.334 2.385.727 3.56 1.167a.25.25 0 0 1-.087.484zm-7.168-2.015a.198.198 0 0 1-.048-.005c-1.21-.23-2.445-.41-3.668-.533a.25.25 0 0 1-.223-.275.246.246 0 0 1 .274-.223c1.237.126 2.486.307 3.711.54a.25.25 0 0 1-.046.496zM250.521 184.728a.249.249 0 0 1-.206-.11c-.378-.554-.757-1.102-1.138-1.642a.25.25 0 0 1 .408-.29c.383.545.764 1.095 1.143 1.651a.25.25 0 0 1-.207.39z" class="coloradc8f7 svgShape"/><linearGradient id="s" x1="207.549" x2="204.614" y1="152.608" y2="148.43" gradientUnits="userSpaceOnUse"><stop offset="0" stop-color="#ff8888" class="stopColorf88 svgShape"/><stop offset="1" stop-color="#f24e4e" class="stopColorf24e4e svgShape"/></linearGradient><path fill="url(#s)" d="M205.874 144.993a5.208 5.208 0 0 0-5.212 5.207c0 2.294 3.312 6.408 4.654 7.98a.735.735 0 0 0 1.116 0c1.342-1.572 4.65-5.686 4.65-7.98a5.207 5.207 0 0 0-5.208-5.207zm0 6.722a2.331 2.331 0 1 1 0-4.663 2.327 2.327 0 0 1 2.327 2.332 2.33 2.33 0 0 1-2.327 2.331z"/><linearGradient id="t" x1="255.237" x2="252.83" y1="183.184" y2="179.756" gradientUnits="userSpaceOnUse"><stop offset="0" stop-color="#78a7ff" class="stopColor78a7ff svgShape"/><stop offset="1" stop-color="#3d79f3" class="stopColor3d79f3 svgShape"/></linearGradient><path fill="url(#t)" d="M253.863 176.937a4.273 4.273 0 0 0-4.276 4.272c0 1.882 2.718 5.257 3.818 6.546.243.281.674.281.916 0 1.1-1.289 3.814-4.664 3.814-6.546a4.272 4.272 0 0 0-4.272-4.272zm0 5.515a1.913 1.913 0 1 1 0-3.826 1.91 1.91 0 0 1 1.91 1.913 1.912 1.912 0 0 1-1.91 1.913z"/><linearGradient id="u" x1="258.493" x2="256.085" y1="157.186" y2="153.758" gradientUnits="userSpaceOnUse"><stop offset="0" stop-color="#ffbb83" class="stopColorffbb83 svgShape"/><stop offset="1" stop-color="#ff9d45" class="stopColorff9d45 svgShape"/></linearGradient><path fill="url(#u)" d="M257.119 150.939a4.273 4.273 0 0 0-4.276 4.272c0 1.882 2.717 5.257 3.818 6.546.242.281.673.281.916 0 1.1-1.289 3.814-4.664 3.814-6.546a4.272 4.272 0 0 0-4.272-4.272zm0 5.515a1.913 1.913 0 1 1 0-3.825 1.91 1.91 0 0 1 1.908 1.912 1.912 1.912 0 0 1-1.908 1.913z"/><path fill="#f5f7ff" d="M478.694 577.148c0 1.73-35.146 3.13-78.497 3.13-43.36 0-78.505-1.4-78.505-3.13s35.146-3.137 78.505-3.137c43.351 0 78.497 1.408 78.497 3.137z" class="colorf5f7ff svgShape"/><linearGradient id="v" x1="381.519" x2="354.215" y1="531.139" y2="579.195" gradientUnits="userSpaceOnUse"><stop offset="0" stop-color="#ffbb83" class="stopColorffbb83 svgShape"/><stop offset="1" stop-color="#ff9d45" class="stopColorff9d45 svgShape"/></linearGradient><path fill="url(#v)" d="M388.704 536.554v37.227a2.289 2.289 0 0 1-2.289 2.288H349.32a2.289 2.289 0 0 1-2.288-2.288v-37.227a2.289 2.289 0 0 1 2.288-2.289h37.096a2.289 2.289 0 0 1 2.289 2.289z"/><linearGradient id="w" x1="406.393" x2="384.229" y1="535.819" y2="574.828" gradientUnits="userSpaceOnUse"><stop offset="0" stop-color="#ffbb83" class="stopColorffbb83 svgShape"/><stop offset="1" stop-color="#ff9d45" class="stopColorff9d45 svgShape"/></linearGradient><path fill="url(#w)" d="M405.342 536.555v37.224a2.289 2.289 0 0 1-2.29 2.29h-16.639a2.289 2.289 0 0 0 2.29-2.29v-37.224a2.289 2.289 0 0 0-2.29-2.29h16.639a2.289 2.289 0 0 1 2.29 2.29z"/><linearGradient id="x" x1="371.327" x2="366.28" y1="533.166" y2="542.049" gradientUnits="userSpaceOnUse"><stop offset="0" stop-color="#ffbb83" class="stopColorffbb83 svgShape"/><stop offset="1" stop-color="#ff9d45" class="stopColorff9d45 svgShape"/></linearGradient><path fill="url(#x)" d="M373.262 534.265v6.37a.622.622 0 0 1-1.037.464l-2.965-2.656a.622.622 0 0 0-.83 0l-2.964 2.656a.622.622 0 0 1-1.037-.463v-6.371h8.833z"/><linearGradient id="y" x1="363.083" x2="356.86" y1="563.443" y2="574.396" gradientUnits="userSpaceOnUse"><stop offset="0" stop-color="#ffbb83" class="stopColorffbb83 svgShape"/><stop offset="1" stop-color="#ff9d45" class="stopColorff9d45 svgShape"/></linearGradient><path fill="url(#y)" d="M367.867 566.55v4.74a.665.665 0 0 1-.665.665H352.74a.665.665 0 0 1-.665-.665v-4.74c0-.368.298-.666.665-.666h14.462c.368 0 .665.298.665.665z"/><linearGradient id="z" x1="401.211" x2="373.906" y1="489.335" y2="537.391" gradientUnits="userSpaceOnUse"><stop offset="0" stop-color="#ffbb83" class="stopColorffbb83 svgShape"/><stop offset="1" stop-color="#ff9d45" class="stopColorff9d45 svgShape"/></linearGradient><path fill="url(#z)" d="M408.395 494.75v37.227a2.289 2.289 0 0 1-2.288 2.288H369.01a2.289 2.289 0 0 1-2.289-2.288v-37.228a2.289 2.289 0 0 1 2.289-2.288h37.096a2.289 2.289 0 0 1 2.288 2.288z"/><linearGradient id="A" x1="426.084" x2="403.92" y1="494.014" y2="533.024" gradientUnits="userSpaceOnUse"><stop offset="0" stop-color="#ffbb83" class="stopColorffbb83 svgShape"/><stop offset="1" stop-color="#ff9d45" class="stopColorff9d45 svgShape"/></linearGradient><path fill="url(#A)" d="M425.033 494.75v37.225a2.289 2.289 0 0 1-2.29 2.29h-16.638a2.289 2.289 0 0 0 2.29-2.29V494.75a2.289 2.289 0 0 0-2.29-2.29h16.638a2.289 2.289 0 0 1 2.29 2.29z"/><linearGradient id="B" x1="391.019" x2="385.972" y1="491.362" y2="500.245" gradientUnits="userSpaceOnUse"><stop offset="0" stop-color="#ffbb83" class="stopColorffbb83 svgShape"/><stop offset="1" stop-color="#ff9d45" class="stopColorff9d45 svgShape"/></linearGradient><path fill="url(#B)" d="M392.953 492.46v6.372a.622.622 0 0 1-1.037.463l-2.964-2.656a.622.622 0 0 0-.83 0l-2.964 2.656a.622.622 0 0 1-1.037-.463v-6.371h8.832z"/><linearGradient id="C" x1="382.774" x2="376.551" y1="521.639" y2="532.591" gradientUnits="userSpaceOnUse"><stop offset="0" stop-color="#ffbb83" class="stopColorffbb83 svgShape"/><stop offset="1" stop-color="#ff9d45" class="stopColorff9d45 svgShape"/></linearGradient><path fill="url(#C)" d="M387.559 524.745v4.74a.665.665 0 0 1-.665.666H372.43a.665.665 0 0 1-.665-.665v-4.741c0-.367.298-.665.665-.665h14.463c.367 0 .665.298.665.665z"/><linearGradient id="D" x1="439.831" x2="412.526" y1="531.139" y2="579.195" gradientUnits="userSpaceOnUse"><stop offset="0" stop-color="#ffbb83" class="stopColorffbb83 svgShape"/><stop offset="1" stop-color="#ff9d45" class="stopColorff9d45 svgShape"/></linearGradient><path fill="url(#D)" d="M447.015 536.554v37.227a2.289 2.289 0 0 1-2.288 2.288H407.63a2.289 2.289 0 0 1-2.289-2.288v-37.227a2.289 2.289 0 0 1 2.289-2.289h37.096a2.289 2.289 0 0 1 2.288 2.289z"/><linearGradient id="E" x1="464.704" x2="442.54" y1="535.819" y2="574.828" gradientUnits="userSpaceOnUse"><stop offset="0" stop-color="#ffbb83" class="stopColorffbb83 svgShape"/><stop offset="1" stop-color="#ff9d45" class="stopColorff9d45 svgShape"/></linearGradient><path fill="url(#E)" d="M463.653 536.555v37.224a2.289 2.289 0 0 1-2.29 2.29h-16.638a2.289 2.289 0 0 0 2.29-2.29v-37.224a2.289 2.289 0 0 0-2.29-2.29h16.638a2.289 2.289 0 0 1 2.29 2.29z"/><linearGradient id="F" x1="429.639" x2="424.591" y1="533.166" y2="542.049" gradientUnits="userSpaceOnUse"><stop offset="0" stop-color="#ffbb83" class="stopColorffbb83 svgShape"/><stop offset="1" stop-color="#ff9d45" class="stopColorff9d45 svgShape"/></linearGradient><path fill="url(#F)" d="M431.573 534.265v6.37a.622.622 0 0 1-1.037.464l-2.964-2.656a.622.622 0 0 0-.83 0l-2.965 2.656a.622.622 0 0 1-1.036-.463v-6.371h8.832z"/><linearGradient id="G" x1="421.394" x2="415.171" y1="563.443" y2="574.396" gradientUnits="userSpaceOnUse"><stop offset="0" stop-color="#ffbb83" class="stopColorffbb83 svgShape"/><stop offset="1" stop-color="#ff9d45" class="stopColorff9d45 svgShape"/></linearGradient><path fill="url(#G)" d="M426.179 566.55v4.74a.665.665 0 0 1-.665.665H411.05a.665.665 0 0 1-.665-.665v-4.74c0-.368.298-.666.665-.666h14.463c.367 0 .665.298.665.665z"/><linearGradient id="H" x1="439.245" x2="418.235" y1="499.693" y2="536.67" gradientUnits="userSpaceOnUse"><stop offset="0" stop-color="#ffbb83" class="stopColorffbb83 svgShape"/><stop offset="1" stop-color="#ff9d45" class="stopColorff9d45 svgShape"/></linearGradient><path fill="url(#H)" d="M444.773 503.86v28.644a1.76 1.76 0 0 1-1.761 1.761h-28.544a1.76 1.76 0 0 1-1.76-1.76v-28.646c0-.972.788-1.76 1.76-1.76h28.544a1.76 1.76 0 0 1 1.76 1.76z"/><linearGradient id="I" x1="458.384" x2="441.329" y1="503.294" y2="533.31" gradientUnits="userSpaceOnUse"><stop offset="0" stop-color="#ffbb83" class="stopColorffbb83 svgShape"/><stop offset="1" stop-color="#ff9d45" class="stopColorff9d45 svgShape"/></linearGradient><path fill="url(#I)" d="M457.575 503.86v28.643c0 .974-.788 1.762-1.762 1.762h-12.802c.974 0 1.762-.788 1.762-1.762V503.86c0-.975-.788-1.763-1.762-1.763h12.802c.974 0 1.762.788 1.762 1.763z"/><linearGradient id="J" x1="431.402" x2="427.519" y1="501.253" y2="508.088" gradientUnits="userSpaceOnUse"><stop offset="0" stop-color="#ffbb83" class="stopColorffbb83 svgShape"/><stop offset="1" stop-color="#ff9d45" class="stopColorff9d45 svgShape"/></linearGradient><path fill="url(#J)" d="M432.89 502.098V507c0 .414-.489.633-.797.357l-2.281-2.044a.478.478 0 0 0-.639 0l-2.28 2.044a.478.478 0 0 1-.798-.357v-4.902h6.796z"/><linearGradient id="K" x1="425.058" x2="420.27" y1="524.55" y2="532.977" gradientUnits="userSpaceOnUse"><stop offset="0" stop-color="#ffbb83" class="stopColorffbb83 svgShape"/><stop offset="1" stop-color="#ff9d45" class="stopColorff9d45 svgShape"/></linearGradient><path fill="url(#K)" d="M428.74 526.94v3.647c0 .283-.229.512-.512.512H417.1a.512.512 0 0 1-.511-.512v-3.647c0-.283.229-.512.511-.512h11.128c.283 0 .512.23.512.512z"/><path fill="#f5f7ff" d="M466.688 576.966c0 1.83 31.185 3.312 69.652 3.312 38.474 0 69.66-1.482 69.66-3.312 0-1.83-31.186-3.32-69.66-3.32-38.467 0-69.652 1.49-69.652 3.32zM94 582.423c0 1.83 31.186 3.312 69.652 3.312 38.475 0 69.66-1.482 69.66-3.312 0-1.83-31.185-3.32-69.66-3.32-38.466 0-69.652 1.49-69.652 3.32z" class="colorf5f7ff svgShape"/><path fill="#fdccc5" d="m473.928 336.408-1.838 8.503c-.1.022-.191.032-.28.05-17.309 3.571-17.057-10.48-11.399-10.134 3.099.19 8.107 1.48 8.107 1.48s-3.86-3.708-2.537-4.844c1.804-1.547 6.7 3.586 7.744 4.72l.203.225z" class="colorfdccc5 svgShape"/><linearGradient id="L" x1="11519.085" x2="11616.062" y1="316.299" y2="348.176" gradientTransform="matrix(-1 0 0 1 12067.135 0)" gradientUnits="userSpaceOnUse"><stop offset="0" stop-color="#ff8888" class="stopColorf88 svgShape"/><stop offset="1" stop-color="#f24e4e" class="stopColorf24e4e svgShape"/></linearGradient><path fill="url(#L)" d="M533.027 294.974s-8.387 2.105-10.593 4.28c-8.453 8.332-8.608 35.434-19.134 40.92-5.658 2.947-29.251-5.008-29.251-5.008-.759-.191-3.447 10.453-2.688 10.645 0 0 28.757 12.77 39.667 9.065 13.437-4.563 25.772-31.02 26.087-45.206.086-3.834-4.088-14.696-4.088-14.696z"/><path fill="#fdccc5" d="m510.05 554.05-.022.123c.263 2.013-.806 6.235-1.84 10.398l12.147 2.27c-.068-4.864.264-9.326 1.313-13.066l-11.598.275z" class="colorfdccc5 svgShape"/><linearGradient id="M" x1="11171.813" x2="11211.567" y1="877.82" y2="877.82" gradientTransform="scale(-1 1) rotate(-2.391 -2099.749 280971.988)" gradientUnits="userSpaceOnUse"><stop offset="0" stop-color="#78a7ff" class="stopColor78a7ff svgShape"/><stop offset="1" stop-color="#3d79f3" class="stopColor3d79f3 svgShape"/></linearGradient><path fill="url(#M)" d="M483.949 571.245v.008l-.002.027a3.353 3.353 0 0 0 1.882 3.35c2.46 1.194 7.224 2.82 13.622 1.846 9.567-1.472 18.382-.022 21.881.47 1.234.176 1.981-1.566 2.277-3.975.013-.106.026-.212.03-.318.402-3.884-.367-9.254-2.24-11.124a3.003 3.003 0 0 0-.367-.316 1.88 1.88 0 0 0-.495-.26c-2.587-.906-7.85 5.4-10.813 1.818-.33-.386-.194-1.099 0-1.942.087-.377.185-.79.264-1.204.073-.402-.013-.828-.173-1.23-.412-1.035-1.745-1.331-2.604-.622a78.743 78.743 0 0 1-2.97 2.322c-.239.176-.47.388-.708.6-.166.135-.331.279-.506.422a20.305 20.305 0 0 1-1.824 1.422c-.256.185-.51.352-.757.519a23.3 23.3 0 0 1-2.758 1.48c-5.537 2.447-10.272 1.602-12.028 3.09-1.111.928-1.543 2.338-1.7 3.555-.01.017-.01.044-.011.062z"/><path fill="#070159" d="M485.825 574.632c2.46 1.188 7.23 2.814 13.623 1.841 9.57-1.472 18.382-.02 21.887.477 1.229.171 1.98-1.575 2.274-3.976.012-.106.023-.212.028-.323-5.58-2.705-14.32-2.64-21.305.183-7.647 3.085-16.13.858-18.362-1.589-.007-.005-.013-.004-.018.002-.006.007 0 .006 0 .006-.005.007-.003.02-.003.025a3.343 3.343 0 0 0 1.876 3.354zM509.418 562.226c.037.809.394 1.613 1.038 2.11.456.347 1.034.522 1.608.572.583.051 1.162-.022 1.725-.132.715-.13 1.423-.313 2.107-.55a15.329 15.329 0 0 0 3.495-1.743 15.464 15.464 0 0 0 1.54-1.195.97.97 0 0 1 .1-.075 1.88 1.88 0 0 0-.494-.26c-2.587-.906-7.85 5.4-10.813 1.818-.33-.386-.194-1.099 0-1.942-.247.416-.33.909-.306 1.397z" class="color070159 svgShape"/><linearGradient id="N" x1="11528.821" x2="11547.11" y1="380.814" y2="533.686" gradientTransform="matrix(-1 0 0 1 12067.135 0)" gradientUnits="userSpaceOnUse"><stop offset="0" stop-color="#771e24" class="stopColor771e24 svgShape"/><stop offset="1" stop-color="#47090e" class="stopColor47090e svgShape"/></linearGradient><path fill="url(#N)" d="m509.09 555.138 8.418-175.516 41.867.24c-5.254 36.464-21.379 108.74-36.84 175.534-.031 1.677-13.477 1.42-13.445-.258z"/><path fill="#fdccc5" d="m585.005 548.03.032.121c1.094 1.71 1.922 5.986 2.757 10.193l11.96-3.11c-2.132-4.374-3.728-8.553-4.37-12.385l-10.38 5.182z" class="colorfdccc5 svgShape"/><linearGradient id="O" x1="12068.911" x2="12108.666" y1="-4370.428" y2="-4370.428" gradientTransform="scale(-1 1) rotate(22.776 -6493.693 -33365.882)" gradientUnits="userSpaceOnUse"><stop offset="0" stop-color="#78a7ff" class="stopColor78a7ff svgShape"/><stop offset="1" stop-color="#3d79f3" class="stopColor3d79f3 svgShape"/></linearGradient><path fill="url(#O)" d="m568.693 574.692.003.008.01.025a3.353 3.353 0 0 0 3.129 2.232c2.733.034 7.737-.52 13.113-4.122 8.033-5.4 16.628-7.837 20.005-8.88 1.191-.366 1.126-2.26.37-4.565a3.808 3.808 0 0 0-.108-.301c-1.288-3.687-4.268-8.22-6.758-9.116-.158-.058-.31-.1-.467-.13a1.88 1.88 0 0 0-.558-.025c-2.727.28-4.81 8.226-9.014 6.244-.463-.209-.643-.912-.825-1.758-.082-.378-.17-.793-.274-1.201-.105-.396-.364-.745-.68-1.04-.813-.762-2.145-.463-2.62.545-.379.801-.928 1.91-1.702 3.364-.14.26-.259.55-.385.844-.093.192-.181.393-.278.597a20.302 20.302 0 0 1-1.046 2.063c-.153.276-.314.535-.465.791a23.298 23.298 0 0 1-1.866 2.513c-3.972 4.57-8.617 5.818-9.573 7.91-.611 1.314-.402 2.773-.027 3.942a.151.151 0 0 0 .016.06z"/><path fill="#070159" d="M571.832 576.96c2.731.03 7.74-.527 13.112-4.126 8.036-5.402 16.63-7.836 20.013-8.876 1.184-.368 1.123-2.268.367-4.566-.035-.1-.069-.202-.112-.304-6.2-.076-14.083 3.7-19.205 9.225-5.61 6.044-14.234 7.636-17.295 6.37-.008-.001-.013.002-.015.01-.002.009.003.006.003.006-.002.008.005.018.008.023a3.343 3.343 0 0 0 3.124 2.239zM587.91 555.7c.377.715 1.042 1.291 1.836 1.467.56.12 1.157.033 1.699-.166.549-.201 1.042-.514 1.505-.853a14.11 14.11 0 0 0 1.673-1.394 15.328 15.328 0 0 0 2.422-3.064c.331-.561.628-1.137.886-1.736a.968.968 0 0 1 .059-.11 1.88 1.88 0 0 0-.558-.026c-2.727.28-4.81 8.226-9.014 6.244-.463-.209-.643-.912-.825-1.758-.048.482.087.963.317 1.395z" class="color070159 svgShape"/><linearGradient id="P" x1="9477.335" x2="9378.491" y1="3952.454" y2="4063.932" gradientTransform="scale(-1 1) rotate(-19.263 -5998.118 31689.53)" gradientUnits="userSpaceOnUse"><stop offset="0" stop-color="#771e24" class="stopColor771e24 svgShape"/><stop offset="1" stop-color="#47090e" class="stopColor47090e svgShape"/></linearGradient><path fill="url(#P)" d="m537.21 379.622 30.177.662c12.643 13.935-7.603 64.52-5.749 85.127 1.97 21.882 30.349 69.043 37.107 79.54.655 1.804-14.372 7.259-15.027 5.454-15.28-19.803-48.092-63.948-53.65-84.994-5.524-20.916 7.142-85.79 7.142-85.79z"/><linearGradient id="Q" x1="11523.104" x2="11526.579" y1="350.224" y2="420.883" gradientTransform="matrix(-1 0 0 1 12067.135 0)" gradientUnits="userSpaceOnUse"><stop offset="0" stop-color="#ff8888" class="stopColorf88 svgShape"/><stop offset="1" stop-color="#f24e4e" class="stopColorf24e4e svgShape"/></linearGradient><path fill="url(#Q)" d="M569.125 382.797c6.73-9.927-5.804-45.754-4.729-57.366 1.075-11.612 6.145-21.327 1.168-26.317-6.785-6.802-30.275-6.874-38.525-1.95-3.593 2.144-7.058 10.652-7.907 14.749-3.55 17.142-3.949 50.07-1.786 70 .763 7.034 44.694 11.334 51.779.884z"/><path fill="#fdccc5" d="M549.357 278.598s8.388-1.583 6.576-7.979c-.16-.564-.575-1.113-.973-1.757-1.59-2.588-4.314-6-7.619-8.95a31.978 31.978 0 0 0-2.385-1.948c-6.888-5.216-11.73-7.72-18.177 1.875-.183.279-.366.558-.549.848 0 0-8.71 31.281 8.705 29.031l.263 4.788 3.392 8.82 10.68-9.459.087-15.27z" class="colorfdccc5 svgShape"/><linearGradient id="R" x1="-1541.563" x2="-1531.726" y1="43.643" y2="43.643" gradientTransform="rotate(-3.151 3580.821 -37774.927)" gradientUnits="userSpaceOnUse"><stop offset="0" stop-color="#771e24" class="stopColor771e24 svgShape"/><stop offset="1" stop-color="#47090e" class="stopColor47090e svgShape"/></linearGradient><path fill="url(#R)" d="M547.783 275.89c.467-5.335 3.636-7.806 7.171-7.031-1.59-2.588-4.314-6-7.619-8.95.187 1.474-.381 3.257-.381 3.257-3.033 2.703-1.994 11.263.829 12.723z"/><linearGradient id="S" x1="-1563.162" x2="-1541.116" y1="32.482" y2="32.482" gradientTransform="rotate(-3.151 3580.821 -37774.927)" gradientUnits="userSpaceOnUse"><stop offset="0" stop-color="#771e24" class="stopColor771e24 svgShape"/><stop offset="1" stop-color="#47090e" class="stopColor47090e svgShape"/></linearGradient><path fill="url(#S)" d="M522.98 259.93c2.86 1.034 11.372 3.51 18.267-.491 1.607-.942 2.82-1.382 3.703-1.478-6.887-5.216-15.525-7.626-21.97 1.97z"/><linearGradient id="T" x1="-1560.649" x2="-1531.335" y1="33.724" y2="33.724" gradientTransform="rotate(-3.151 3580.821 -37774.927)" gradientUnits="userSpaceOnUse"><stop offset="0" stop-color="#ff8888" class="stopColorf88 svgShape"/><stop offset="1" stop-color="#f24e4e" class="stopColorf24e4e svgShape"/></linearGradient><path fill="url(#T)" d="m525.203 254.6 14.963 3.581 4.681 3.329 9.947 7.092s3.047-18.076-11.174-20.693c-1.417-.26-2.72-.399-3.939-.449-11.062-.407-14.478 7.14-14.478 7.14z"/><path fill="#ffb0b0" d="M547.783 275.89c-.13.404-.174.651-.093.647.058-.003.092-.239.093-.648z" class="colorffb0b0 svgShape"/><linearGradient id="U" x1="-1556.213" x2="-1563.463" y1="32.857" y2="25.878" gradientTransform="rotate(-3.151 3580.821 -37774.927)" gradientUnits="userSpaceOnUse"><stop offset="0" stop-color="#ff8888" class="stopColorf88 svgShape"/><stop offset="1" stop-color="#f24e4e" class="stopColorf24e4e svgShape"/></linearGradient><path fill="url(#U)" d="M554.805 268.615s-21.583-22.078-35.956-18.412c-14.212 3.625 6.713 13.262 6.713 13.262s1.164-9.453 8.885-5.86c8.455 3.934 20.358 11.01 20.358 11.01z"/><path fill="#f7b4ad" d="M534.935 289.705c2.872-.23 5.842-1.123 8.892-2.548 0 0-2.367 5.318-8.715 5.759l-.177-3.211z" class="colorf7b4ad svgShape"/><linearGradient id="V" x1="-2390.444" x2="-2383.525" y1="40.467" y2="40.467" gradientTransform="scale(-1 1) rotate(3.151 -5553.664 33950.642)" gradientUnits="userSpaceOnUse"><stop offset="0" stop-color="#771e24" class="stopColor771e24 svgShape"/><stop offset="1" stop-color="#47090e" class="stopColor47090e svgShape"/></linearGradient><path fill="url(#V)" d="M530.013 264.957c.301.066.606.15.845.316.239.167.4.435.333.694-.092.354-.543.55-.953.66-1.872.502-3.993.25-5.597-.666-.156-.09-.317-.196-.367-.35-.212-.655 2.06-.816 2.503-.855a10.769 10.769 0 0 1 3.236.201z"/><linearGradient id="W" x1="-2400.224" x2="-2393.305" y1="41.732" y2="41.732" gradientTransform="scale(-1 1) rotate(3.151 -5553.664 33950.642)" gradientUnits="userSpaceOnUse"><stop offset="0" stop-color="#771e24" class="stopColor771e24 svgShape"/><stop offset="1" stop-color="#47090e" class="stopColor47090e svgShape"/></linearGradient><path fill="url(#W)" d="M539.847 265.682c.302.066.607.15.846.316.239.167.4.435.332.694-.091.354-.543.55-.952.66-1.873.502-3.993.25-5.597-.666-.156-.09-.317-.195-.367-.35-.212-.655 2.06-.816 2.503-.855a10.769 10.769 0 0 1 3.235.201z"/><path fill="#47090e" d="M535.382 271.066a.908.908 0 0 0 .954.854.908.908 0 0 0 .854-.954.908.908 0 0 0-.954-.854.908.908 0 0 0-.854.954zM525.984 270.339c.028.497.457.882.955.854s.881-.456.854-.954a.908.908 0 0 0-.954-.854.908.908 0 0 0-.855.954z" class="color47090e svgShape"/><path fill="#f7b4ad" d="M531.059 279.284c.84-.046 1.74-.303 2.4-.717a.735.735 0 0 0-.781-1.244c-.988.62-2.351.544-2.603.38.002-.018-.003-.19.045-.364.061-.216.188-.443.323-.684l.078-.142c1.14-2.065 1.644-4.52 1.422-6.909a.736.736 0 0 0-1.464.137c.196 2.1-.246 4.252-1.244 6.063l-.075.133c-.163.292-.348.622-.454 1.005-.171.607-.09 1.215.222 1.665.368.525 1.211.728 2.13.677zM531.516 284.612c.944-.051 1.943-.483 2.982-1.29a.733.733 0 1 0-.9-1.16c-1.011.784-1.908 1.103-2.658.948-.845-.173-1.272-.904-1.276-.912a.735.735 0 1 0-1.286.712c.031.054.752 1.329 2.267 1.64.284.058.574.079.87.062z" class="colorf7b4ad svgShape"/><path fill="#ffffff" d="M548.893 293.84c1.674.086 2.757.236 4.653.5l-6.689 12.841a2.218 2.218 0 0 1-3.478.6l-4.79-4.456 10.304-9.485zM535.203 294.507c-1.89.313-3.424.707-5.207 1.317l1.143 8.567c.217 1.625 2.061 2.461 3.426 1.554l3.961-2.634-3.323-8.804z" class="colorfff svgShape"/><linearGradient id="X" x1="11565.264" x2="11528.307" y1="310.82" y2="375.865" gradientTransform="matrix(-1 0 0 1 12067.135 0)" gradientUnits="userSpaceOnUse"><stop offset="0" stop-color="#ffbb83" class="stopColorffbb83 svgShape"/><stop offset="1" stop-color="#ff9d45" class="stopColorff9d45 svgShape"/></linearGradient><path fill="url(#X)" d="M492.147 318.148v50.388a3.098 3.098 0 0 0 3.098 3.098h50.21a3.098 3.098 0 0 0 3.098-3.098v-50.388a3.098 3.098 0 0 0-3.098-3.097h-50.21a3.098 3.098 0 0 0-3.098 3.097z"/><linearGradient id="Y" x1="11598.93" x2="11568.93" y1="317.154" y2="369.954" gradientTransform="matrix(-1 0 0 1 12067.135 0)" gradientUnits="userSpaceOnUse"><stop offset="0" stop-color="#ffbb83" class="stopColorffbb83 svgShape"/><stop offset="1" stop-color="#ff9d45" class="stopColorff9d45 svgShape"/></linearGradient><path fill="url(#Y)" d="M469.627 318.15v50.384c0 1.714 1.387 3.1 3.1 3.1h22.52a3.098 3.098 0 0 1-3.1-3.1v-50.383c0-1.714 1.387-3.1 3.1-3.1h-22.52a3.098 3.098 0 0 0-3.1 3.1z"/><linearGradient id="Z" x1="11551.468" x2="11544.637" y1="313.563" y2="325.587" gradientTransform="matrix(-1 0 0 1 12067.135 0)" gradientUnits="userSpaceOnUse"><stop offset="0" stop-color="#ffbb83" class="stopColorffbb83 svgShape"/><stop offset="1" stop-color="#ff9d45" class="stopColorff9d45 svgShape"/></linearGradient><path fill="url(#Z)" d="M513.049 315.05v8.624a.842.842 0 0 0 1.403.627l4.012-3.595a.842.842 0 0 1 1.123 0l4.013 3.595a.842.842 0 0 0 1.403-.627v-8.623H513.05z"/><linearGradient id="aa" x1="11540.309" x2="11531.886" y1="354.544" y2="369.368" gradientTransform="matrix(-1 0 0 1 12067.135 0)" gradientUnits="userSpaceOnUse"><stop offset="0" stop-color="#ffbb83" class="stopColorffbb83 svgShape"/><stop offset="1" stop-color="#ff9d45" class="stopColorff9d45 svgShape"/></linearGradient><path fill="url(#aa)" d="M520.35 358.748v6.417a.9.9 0 0 0 .9.9h19.575a.9.9 0 0 0 .9-.9v-6.417a.9.9 0 0 0-.9-.9H521.25a.9.9 0 0 0-.9.9z"/><path fill="#fdccc5" d="m546.873 360.054 4.082 7.682c-.062.08-.125.148-.182.22-10.919 13.895-19.794 2.998-15.247-.388 2.49-1.855 7.15-4.1 7.15-4.1s-5.342-.343-5.066-2.065c.381-2.345 7.434-1.583 8.963-1.39l.3.041z" class="colorfdccc5 svgShape"/><linearGradient id="ab" x1="11520.938" x2="11488.646" y1="306.893" y2="363.725" gradientTransform="matrix(-1 0 0 1 12067.135 0)" gradientUnits="userSpaceOnUse"><stop offset="0" stop-color="#ff8888" class="stopColorf88 svgShape"/><stop offset="1" stop-color="#f24e4e" class="stopColorf24e4e svgShape"/></linearGradient><path fill="url(#ab)" d="M561.321 296.429c3.915.904 9.623 4.83 12.077 6.999 8.031 7.097 19.935 28.257 16.755 38.752-3.63 11.978-38.895 27.546-38.895 27.546-1.544.721-6.442-9.76-4.899-10.482 0 0 25.26-11.992 26.832-20.452 1.544-8.313-16.197-20.868-16.9-29.294-.3-3.604 1.506-13.883 5.03-13.07z"/><path fill="#adc8f7" d="M430.188 244.745a.503.503 0 0 1-.477-.65 41.35 41.35 0 0 1 26.998-26.988.5.5 0 1 1 .3.953 40.352 40.352 0 0 0-26.344 26.335.501.501 0 0 1-.477.35zM456.86 295.851a.5.5 0 0 1-.15-.023 41.32 41.32 0 0 1-26.999-26.988.5.5 0 0 1 .954-.3 40.32 40.32 0 0 0 26.344 26.334.5.5 0 0 1-.15.977zM481.304 295.851a.5.5 0 0 1-.15-.977 40.32 40.32 0 0 0 26.344-26.335.5.5 0 0 1 .954.3 41.316 41.316 0 0 1-26.998 26.989.502.502 0 0 1-.15.023zM507.975 244.745a.501.501 0 0 1-.477-.35 40.358 40.358 0 0 0-26.344-26.335.5.5 0 1 1 .3-.953 41.355 41.355 0 0 1 26.998 26.987.5.5 0 0 1-.477.65z" class="coloradc8f7 svgShape"/><linearGradient id="ac" x1="434.02" x2="504.138" y1="256.469" y2="256.469" gradientUnits="userSpaceOnUse"><stop offset="0" stop-color="#e7ecff" class="stopColore7ecff svgShape"/><stop offset="1" stop-color="#c2d5ff" class="stopColorc2d5ff svgShape"/></linearGradient><path fill="url(#ac)" d="M504.138 256.478c0 19.358-15.702 35.04-35.06 35.04-19.357 0-35.058-15.682-35.058-35.04 0-19.376 15.701-35.058 35.059-35.058 19.357 0 35.059 15.682 35.059 35.058z"/><path fill="#ffffff" d="M497.55 256.477c0 15.72-12.751 28.455-28.471 28.455s-28.471-12.735-28.471-28.455c0-15.736 12.75-28.47 28.47-28.47s28.472 12.734 28.472 28.47z" class="colorfff svgShape"/><linearGradient id="ad" x1="731.22" x2="721.63" y1="5198.688" y2="5198.688" gradientTransform="rotate(45 6563.16 2416.88)" gradientUnits="userSpaceOnUse"><stop offset="0" stop-color="#e7ecff" class="stopColore7ecff svgShape"/><stop offset="1" stop-color="#c2d5ff" class="stopColorc2d5ff svgShape"/></linearGradient><path fill="url(#ad)" d="m471.792 260.495-12.914 6.626a.259.259 0 0 1-.349-.349l6.626-12.914c.201-.393.52-.712.913-.913l12.914-6.625a.259.259 0 0 1 .349.348l-6.626 12.915c-.2.392-.52.711-.913.912z"/><linearGradient id="ae" x1="467.966" x2="470.692" y1="233.519" y2="233.519" gradientUnits="userSpaceOnUse"><stop offset="0" stop-color="#e7ecff" class="stopColore7ecff svgShape"/><stop offset="1" stop-color="#c2d5ff" class="stopColorc2d5ff svgShape"/></linearGradient><path fill="url(#ae)" d="M470.692 232.393v2.251a1.363 1.363 0 1 1-2.726 0v-2.251a1.363 1.363 0 0 1 2.726 0z"/><linearGradient id="af" x1="741.784" x2="744.51" y1="-181.113" y2="-181.113" gradientTransform="rotate(-30 1379.7 560.105)" gradientUnits="userSpaceOnUse"><stop offset="0" stop-color="#e7ecff" class="stopColore7ecff svgShape"/><stop offset="1" stop-color="#c2d5ff" class="stopColorc2d5ff svgShape"/></linearGradient><path fill="url(#af)" d="m458.438 234.812 1.125 1.95a1.363 1.363 0 1 1-2.361 1.363l-1.125-1.95a1.363 1.363 0 0 1 2.361-1.363z"/><linearGradient id="ag" x1="1186.233" x2="1188.959" y1="-403.285" y2="-403.285" gradientTransform="rotate(-60 1379.7 560.105)" gradientUnits="userSpaceOnUse"><stop offset="0" stop-color="#e7ecff" class="stopColore7ecff svgShape"/><stop offset="1" stop-color="#c2d5ff" class="stopColorc2d5ff svgShape"/></linearGradient><path fill="url(#ag)" d="m449.034 243.034 1.95 1.126a1.363 1.363 0 1 1-1.363 2.361l-1.95-1.126a1.363 1.363 0 1 1 1.363-2.361z"/><linearGradient id="ah" x1="1682.223" x2="1684.949" y1="-373.467" y2="-373.467" gradientTransform="rotate(-90 1379.7 560.105)" gradientUnits="userSpaceOnUse"><stop offset="0" stop-color="#e7ecff" class="stopColore7ecff svgShape"/><stop offset="1" stop-color="#c2d5ff" class="stopColorc2d5ff svgShape"/></linearGradient><path fill="url(#ah)" d="M445.002 254.856h2.252a1.363 1.363 0 0 1 0 2.726h-2.252a1.363 1.363 0 0 1 0-2.726z"/><linearGradient id="ai" x1="2096.854" x2="2099.58" y1="-99.649" y2="-99.649" gradientTransform="rotate(-120 1379.7 560.105)" gradientUnits="userSpaceOnUse"><stop offset="0" stop-color="#e7ecff" class="stopColore7ecff svgShape"/><stop offset="1" stop-color="#c2d5ff" class="stopColorc2d5ff svgShape"/></linearGradient><path fill="url(#ai)" d="m447.421 267.11 1.95-1.125a1.363 1.363 0 0 1 1.363 2.361l-1.95 1.125a1.363 1.363 0 1 1-1.363-2.361z"/><linearGradient id="aj" x1="2319.026" x2="2321.752" y1="344.8" y2="344.8" gradientTransform="rotate(-150 1379.7 560.105)" gradientUnits="userSpaceOnUse"><stop offset="0" stop-color="#e7ecff" class="stopColore7ecff svgShape"/><stop offset="1" stop-color="#c2d5ff" class="stopColorc2d5ff svgShape"/></linearGradient><path fill="url(#aj)" d="m455.643 276.514 1.126-1.95a1.363 1.363 0 0 1 2.361 1.363l-1.126 1.95a1.363 1.363 0 0 1-2.361-1.363z"/><linearGradient id="ak" x1="2289.208" x2="2291.935" y1="840.79" y2="840.79" gradientTransform="rotate(180 1379.7 560.105)" gradientUnits="userSpaceOnUse"><stop offset="0" stop-color="#e7ecff" class="stopColore7ecff svgShape"/><stop offset="1" stop-color="#c2d5ff" class="stopColorc2d5ff svgShape"/></linearGradient><path fill="url(#ak)" d="M467.466 280.546v-2.252a1.363 1.363 0 0 1 2.726 0v2.252a1.363 1.363 0 0 1-2.726 0z"/><linearGradient id="al" x1="2015.39" x2="2018.117" y1="1255.422" y2="1255.422" gradientTransform="rotate(150 1379.7 560.105)" gradientUnits="userSpaceOnUse"><stop offset="0" stop-color="#e7ecff" class="stopColore7ecff svgShape"/><stop offset="1" stop-color="#c2d5ff" class="stopColorc2d5ff svgShape"/></linearGradient><path fill="url(#al)" d="m479.72 278.127-1.126-1.95a1.363 1.363 0 1 1 2.361-1.363l1.126 1.95a1.363 1.363 0 0 1-2.361 1.363z"/><linearGradient id="am" x1="1570.941" x2="1573.668" y1="1477.594" y2="1477.594" gradientTransform="rotate(120 1379.7 560.105)" gradientUnits="userSpaceOnUse"><stop offset="0" stop-color="#e7ecff" class="stopColore7ecff svgShape"/><stop offset="1" stop-color="#c2d5ff" class="stopColorc2d5ff svgShape"/></linearGradient><path fill="url(#am)" d="m489.123 269.905-1.95-1.126a1.363 1.363 0 1 1 1.363-2.361l1.95 1.126a1.363 1.363 0 1 1-1.363 2.361z"/><linearGradient id="an" x1="1074.951" x2="1077.677" y1="1447.776" y2="1447.776" gradientTransform="rotate(90 1379.7 560.105)" gradientUnits="userSpaceOnUse"><stop offset="0" stop-color="#e7ecff" class="stopColore7ecff svgShape"/><stop offset="1" stop-color="#c2d5ff" class="stopColorc2d5ff svgShape"/></linearGradient><path fill="url(#an)" d="M493.155 258.082h-2.252a1.363 1.363 0 0 1 0-2.726h2.252a1.363 1.363 0 0 1 0 2.726z"/><linearGradient id="ao" x1="660.32" x2="663.046" y1="1173.958" y2="1173.958" gradientTransform="rotate(60 1379.7 560.105)" gradientUnits="userSpaceOnUse"><stop offset="0" stop-color="#e7ecff" class="stopColore7ecff svgShape"/><stop offset="1" stop-color="#c2d5ff" class="stopColorc2d5ff svgShape"/></linearGradient><path fill="url(#ao)" d="m490.736 245.828-1.95 1.126a1.363 1.363 0 0 1-1.363-2.361l1.95-1.126a1.363 1.363 0 1 1 1.363 2.361z"/><linearGradient id="ap" x1="438.148" x2="440.874" y1="729.509" y2="729.509" gradientTransform="rotate(30 1379.7 560.105)" gradientUnits="userSpaceOnUse"><stop offset="0" stop-color="#e7ecff" class="stopColore7ecff svgShape"/><stop offset="1" stop-color="#c2d5ff" class="stopColorc2d5ff svgShape"/></linearGradient><path fill="url(#ap)" d="m482.514 236.425-1.126 1.95a1.363 1.363 0 0 1-2.361-1.363l1.126-1.95a1.363 1.363 0 1 1 2.361 1.363z"/><path fill="#ffffff" d="M471.303 256.47a2.224 2.224 0 1 1-4.448-.001 2.224 2.224 0 0 1 4.448 0z" class="colorfff svgShape"/><path fill="#fdccc5" d="m186.644 558.175.023.13c-.278 2.13.853 6.598 1.947 11.003l-12.853 2.402c.072-5.148-.28-9.868-1.39-13.826l12.273.291z" class="colorfdccc5 svgShape"/><linearGradient id="aq" x1="-189.74" x2="-147.672" y1="408.401" y2="408.401" gradientTransform="rotate(-2.391 3933.828 -8177.77)" gradientUnits="userSpaceOnUse"><stop offset="0" stop-color="#78a7ff" class="stopColor78a7ff svgShape"/><stop offset="1" stop-color="#3d79f3" class="stopColor3d79f3 svgShape"/></linearGradient><path fill="url(#aq)" d="M214.263 576.37v.009l.002.028a3.548 3.548 0 0 1-1.991 3.545c-2.603 1.263-7.644 2.984-14.415 1.953-10.123-1.557-19.45-.023-23.153.497-1.306.186-2.096-1.657-2.409-4.206a4.06 4.06 0 0 1-.033-.336c-.425-4.11.389-9.793 2.37-11.77.126-.128.253-.236.39-.336.164-.12.338-.21.523-.275 2.737-.959 8.308 5.714 11.443 1.924.348-.408.204-1.162-.002-2.054-.092-.4-.194-.837-.278-1.274-.078-.427.014-.877.183-1.302.436-1.096 1.846-1.41 2.755-.658a83.24 83.24 0 0 0 3.144 2.456c.251.187.495.411.749.635.174.143.35.295.534.447a21.484 21.484 0 0 0 1.93 1.505c.271.195.541.372.802.548a24.652 24.652 0 0 0 2.917 1.567c5.86 2.59 10.87 1.695 12.728 3.269 1.176.983 1.633 2.474 1.8 3.762.01.019.01.047.011.065z"/><path fill="#070159" d="M212.278 579.954c-2.603 1.257-7.65 2.977-14.415 1.948-10.126-1.557-19.452-.021-23.16.505-1.3.18-2.096-1.667-2.406-4.208-.013-.112-.025-.223-.03-.341 5.904-2.863 15.152-2.793 22.544.193 8.092 3.265 17.068.908 19.43-1.68.007-.007.013-.006.019.001.006.008 0 .007 0 .007.005.007.003.02.002.026a3.538 3.538 0 0 1-1.984 3.55zM187.313 566.827c-.04.855-.417 1.706-1.099 2.232-.482.367-1.093.552-1.7.605-.618.055-1.23-.023-1.827-.14a14.935 14.935 0 0 1-2.229-.582 16.221 16.221 0 0 1-3.699-1.843 16.373 16.373 0 0 1-1.629-1.265 1.016 1.016 0 0 0-.106-.08c.164-.12.338-.21.523-.275 2.737-.959 8.308 5.714 11.443 1.924.348-.408.204-1.162-.002-2.054.263.439.35.96.325 1.478z" class="color070159 svgShape"/><linearGradient id="ar" x1="155.032" x2="174.385" y1="375.069" y2="536.831" gradientUnits="userSpaceOnUse"><stop offset="0" stop-color="#78a7ff" class="stopColor78a7ff svgShape"/><stop offset="1" stop-color="#3d79f3" class="stopColor3d79f3 svgShape"/></linearGradient><path fill="url(#ar)" d="M134.625 375.029c5.727 38.938 22.608 114.586 38.807 184.57.034 1.774 14.262 1.503 14.228-.273L175.43 375.03h-40.805z"/><path fill="#fdccc5" d="m132.379 556.393-.004.132c-.703 2.03-.498 6.634-.318 11.169l-13.073-.246c1.112-5.026 1.722-9.72 1.435-13.821l11.96 2.766z" class="colorfdccc5 svgShape"/><linearGradient id="as" x1="-278.963" x2="-236.896" y1="515.177" y2="515.177" gradientTransform="rotate(9.273 -406.99 2970.905)" gradientUnits="userSpaceOnUse"><stop offset="0" stop-color="#78a7ff" class="stopColor78a7ff svgShape"/><stop offset="1" stop-color="#3d79f3" class="stopColor3d79f3 svgShape"/></linearGradient><path fill="url(#as)" d="m155.75 579.795-.002.01-.005.027a3.548 3.548 0 0 1-2.666 3.07c-2.804.71-8.09 1.376-14.512-1.002-9.599-3.571-19.044-3.955-22.776-4.194-1.316-.081-1.717-2.047-1.508-4.606.008-.112.017-.225.035-.336.415-4.111 2.36-9.512 4.701-11.048.15-.1.296-.18.45-.25.184-.084.373-.138.568-.163 2.874-.386 6.98 7.275 10.817 4.197.424-.33.435-1.097.414-2.012-.01-.41-.022-.859-.015-1.304.01-.433.19-.856.442-1.238.649-.985 2.093-1.007 2.831-.087a83.372 83.372 0 0 0 2.582 3.041c.21.234.403.503.606.773.142.175.283.36.433.546.515.682 1.05 1.302 1.586 1.864.226.246.454.473.674.699a24.66 24.66 0 0 0 2.54 2.125c5.216 3.72 10.303 3.857 11.805 5.773.953 1.201 1.098 2.754 1 4.049a.16.16 0 0 1 0 .066z"/><path fill="#070159" d="M153.08 582.905c-2.803.704-8.093 1.369-14.51-1.007-9.603-3.572-19.046-3.953-22.785-4.188-1.31-.086-1.715-2.056-1.505-4.607.01-.112.02-.224.04-.34 6.36-1.61 15.403.328 22.04 4.747 7.264 4.833 16.531 4.34 19.367 2.281.009-.004.015-.002.019.006s-.002.007-.002.007a3.538 3.538 0 0 1-2.663 3.101zM131.285 565.001c-.212.83-.753 1.587-1.527 1.964-.546.262-1.183.32-1.789.25-.615-.072-1.2-.273-1.76-.507a14.936 14.936 0 0 1-2.065-1.02 16.22 16.22 0 0 1-3.25-2.554 16.38 16.38 0 0 1-1.34-1.568 1.029 1.029 0 0 0-.088-.1c.185-.084.374-.138.569-.163 2.874-.386 6.98 7.275 10.817 4.197.424-.33.435-1.097.414-2.012.168.483.148 1.012.019 1.513z" class="color070159 svgShape"/><linearGradient id="at" x1="72.178" x2="91.531" y1="485.254" y2="647.016" gradientTransform="rotate(11.664 666.359 761.434)" gradientUnits="userSpaceOnUse"><stop offset="0" stop-color="#78a7ff" class="stopColor78a7ff svgShape"/><stop offset="1" stop-color="#3d79f3" class="stopColor3d79f3 svgShape"/></linearGradient><path fill="url(#at)" d="M118.044 375.029c-1.678 41.278-.491 113.161 1.108 180.087-.325 1.745 13.664 4.355 13.989 2.61l28.668-182.697h-43.765z"/><linearGradient id="au" x1="-135.75" x2="-114.312" y1="373.14" y2="416.181" gradientTransform="rotate(4.977 797.893 3892.274)" gradientUnits="userSpaceOnUse"><stop offset="0" stop-color="#ffbb83" class="stopColorffbb83 svgShape"/><stop offset="1" stop-color="#ff9d45" class="stopColorff9d45 svgShape"/></linearGradient><path fill="url(#au)" d="M206.177 346.516c-4.555 5.863-27.427 10.942-34.862 6.142-11.68-7.541-15.47-35.115-11.305-54.454.977-4.53 2.514-8.07 11.097-3.663 11.417 5.861 2.494 37.184 11.644 43.913 5.281 3.884 21.97-6.715 25.989-3.496 2.31 1.85-.747 9.221-2.563 11.558z"/><linearGradient id="av" x1="148.567" x2="147.58" y1="288.952" y2="385.889" gradientUnits="userSpaceOnUse"><stop offset="0" stop-color="#ffbb83" class="stopColorffbb83 svgShape"/><stop offset="1" stop-color="#ff9d45" class="stopColorff9d45 svgShape"/></linearGradient><path fill="url(#av)" d="M179.153 379.84c.953 8.124-66.31 8.487-62.902-1.505 17.194-50.406-8.738-69.764 5.403-82.796 10.503-9.699 35.435-7.157 46.153-2.43 6.64 2.922 6.482 45.291 11.346 86.732z"/><path fill="#fdccc5" d="M154.19 342.39s3.04-7.421 5.625-6.522c2.585.9-.212 5.334-.212 5.334s8.565-6.928 10.035-5.017c1.38 1.794-6.945 6.82-6.945 6.82s4.692 11.126-7.883 6.899l-.62-7.514z" class="colorfdccc5 svgShape"/><linearGradient id="aw" x1="-153.599" x2="-132.336" y1="339.848" y2="339.848" gradientTransform="matrix(-1 0 -.3423 1 166.953 0)" gradientUnits="userSpaceOnUse"><stop offset="0" stop-color="#78a7ff" class="stopColor78a7ff svgShape"/><stop offset="1" stop-color="#3d79f3" class="stopColor3d79f3 svgShape"/></linearGradient><path fill="url(#aw)" d="m188.97 322.43-11.27 32.78c-.707 2.061.826 4.206 3.005 4.206h14.496a3.177 3.177 0 0 0 3.006-2.149l11.272-32.78c.705-2.062-.827-4.206-3.006-4.206h-14.496a3.177 3.177 0 0 0-3.006 2.148z"/><linearGradient id="ax" x1="432.051" x2="438.83" y1="390.836" y2="390.836" gradientTransform="matrix(-1 0 -.2169 .98927 714.698 -47.586)" gradientUnits="userSpaceOnUse"><stop offset="0" stop-color="#e7ecff" class="stopColore7ecff svgShape"/><stop offset="1" stop-color="#c2d5ff" class="stopColorc2d5ff svgShape"/></linearGradient><path fill="url(#ax)" d="M191.096 339.057c-.406 1.85.784 3.353 2.654 3.353 1.873 0 3.72-1.503 4.125-3.353.406-1.853-.781-3.353-2.655-3.353-1.87 0-3.718 1.5-4.124 3.353z"/><linearGradient id="ay" x1="174.517" x2="191.978" y1="339.851" y2="339.851" gradientUnits="userSpaceOnUse"><stop offset="0" stop-color="#78a7ff" class="stopColor78a7ff svgShape"/><stop offset="1" stop-color="#3d79f3" class="stopColor3d79f3 svgShape"/></linearGradient><path fill="url(#ay)" d="M191.978 320.283c-1.361 0-2.57.861-3.008 2.146L177.7 355.21c-.708 2.062.823 4.208 3.008 4.208H177.7c-2.185 0-3.716-2.146-3.008-4.208l11.27-32.78a3.174 3.174 0 0 1 3.008-2.147h3.008z"/><linearGradient id="az" x1="135.109" x2="131.91" y1="292.943" y2="353.461" gradientUnits="userSpaceOnUse"><stop offset="0" stop-color="#ffbb83" class="stopColorffbb83 svgShape"/><stop offset="1" stop-color="#ff9d45" class="stopColorff9d45 svgShape"/></linearGradient><path fill="url(#az)" d="M155.552 351.418s-31.292 5.786-41.795-2.256c-10.708-8.213-1.68-52.894 12.56-56.635 2.298-.604 5.88 7.122 5.428 9.512-2.55 13.494-13.929 30.125-5.995 37.397 6.707 6.13 27.968 2.082 27.968 2.082 1.451-.254 3.286 9.646 1.834 9.9z"/><path fill="#fdccc5" d="M165.084 267.569c-.411 14.332-4.734 15.465-10.882 15.465v6.578l-3.67 11.665-11.428-12.123V274.78c-.762-1.986-3.155-4.383-3.155-7.211 0-11.112 6.53-20.129 14.563-20.129 8.053 0 15.234-3.199 14.572 20.129z" class="colorfdccc5 svgShape"/><linearGradient id="aA" x1="-8081.024" x2="-8044.59" y1="253.99" y2="253.99" gradientTransform="translate(8211.726)" gradientUnits="userSpaceOnUse"><stop offset="0" stop-color="#771e24" class="stopColor771e24 svgShape"/><stop offset="1" stop-color="#47090e" class="stopColor47090e svgShape"/></linearGradient><path fill="url(#aA)" d="M138.337 251.665s-15.157-3.599-2.76 21.086l7.058-4.158s4.265-7.873.108-14.288c0 0 11.946 2.21 20.322-1.47 1.201 2.35 1.728 5.335 2.007 8.925 0 0 4.491-6.706.221-9.166 0 0 5.956-15.259-4.488-17.21-7.011-1.31-8.88 6.083-13.075 7.411-4.196 1.329-5.321-4.599-8.48-4.813-3.682-.25-8.278 6.961-.913 13.683z"/><path fill="#47090e" d="M133.967 266.746a.25.25 0 0 1-.249-.278c.003-.026.323-2.596 3.098-3.068 2.307-.398 3.57 1.04 3.884 1.463l11.213.645c.138.009.243.127.235.265s-.108.232-.264.235l-11.333-.653a.252.252 0 0 1-.198-.12c-.044-.07-1.111-1.737-3.453-1.343-2.408.411-2.682 2.61-2.685 2.632a.25.25 0 0 1-.248.222z" class="color47090e svgShape"/><linearGradient id="aB" x1="-8052.239" x2="-8047.537" y1="260.943" y2="260.943" gradientTransform="translate(8211.726)" gradientUnits="userSpaceOnUse"><stop offset="0" stop-color="#771e24" class="stopColor771e24 svgShape"/><stop offset="1" stop-color="#47090e" class="stopColor47090e svgShape"/></linearGradient><path fill="url(#aB)" d="M160.264 260.45c-.202.055-.406.123-.562.245s-.255.31-.2.484c.076.236.39.352.671.411 1.29.272 2.719.021 3.773-.66.103-.067.208-.145.236-.251.12-.453-1.429-.477-1.73-.487a7.317 7.317 0 0 0-2.188.257z"/><linearGradient id="aC" x1="-8060.048" x2="-8055.347" y1="260.943" y2="260.943" gradientTransform="translate(8211.726)" gradientUnits="userSpaceOnUse"><stop offset="0" stop-color="#771e24" class="stopColor771e24 svgShape"/><stop offset="1" stop-color="#47090e" class="stopColor47090e svgShape"/></linearGradient><path fill="url(#aC)" d="M152.454 260.45c-.202.055-.406.123-.562.245-.155.122-.255.31-.2.484.076.236.39.352.672.411 1.289.272 2.718.021 3.773-.66.102-.067.207-.145.235-.251.12-.453-1.428-.477-1.73-.487a7.317 7.317 0 0 0-2.188.257z"/><path fill="#fdccc5" d="M135.068 272.292c1.656 3.062 4.595 4.411 6.554 3.014 1.966-1.403 2.207-5.02.551-8.082-1.662-3.072-4.593-4.427-6.56-3.024-1.958 1.397-2.207 5.02-.545 8.092z" class="colorfdccc5 svgShape"/><path fill="#f7b4ad" d="M158.902 273.006c-.166 0-.332-.005-.494-.01l-.25-.005a.5.5 0 0 1 .01-1h.01l.259.006c.337.01 1.235.035 1.337-.135.001-.002.077-.179-.26-.774-1.077-1.9-1.56-3.89-1.58-3.974a.5.5 0 0 1 .972-.233c.005.019.472 1.942 1.477 3.713.158.28.64 1.131.248 1.783-.327.543-1.023.63-1.729.63z" class="colorf7b4ad svgShape"/><path fill="#47090e" d="M155.893 266.457c0 .339-.277.616-.615.616s-.616-.277-.616-.616a.617.617 0 0 1 1.23 0zM163.31 266.373c0 .339-.276.616-.615.616s-.615-.277-.615-.616c0-.338.277-.615.615-.615s.616.277.616.615z" class="color47090e svgShape"/><path fill="#f7b4ad" d="M158.263 277.569c-1.162 0-2.209-.473-2.824-.921a.5.5 0 0 1 .588-.81c.11.08 2.725 1.918 4.78-.574a.5.5 0 0 1 .771.637c-1.03 1.25-2.224 1.668-3.315 1.668z" class="colorf7b4ad svgShape"/><path fill="#47090e" d="M162.695 270.67c-1.703 0-3.09-1.731-3.09-3.86s1.387-3.861 3.09-3.861 3.09 1.732 3.09 3.861-1.386 3.86-3.09 3.86zm0-7.221c-1.428 0-2.59 1.507-2.59 3.361 0 1.853 1.162 3.36 2.59 3.36s2.59-1.507 2.59-3.36c0-1.854-1.162-3.361-2.59-3.361zM154.614 270.67c-1.703 0-3.09-1.731-3.09-3.86s1.387-3.861 3.09-3.861 3.09 1.732 3.09 3.861-1.386 3.86-3.09 3.86zm0-7.221c-1.428 0-2.59 1.507-2.59 3.361 0 1.853 1.162 3.36 2.59 3.36s2.59-1.507 2.59-3.36c0-1.854-1.162-3.361-2.59-3.361z" class="color47090e svgShape"/><path fill="#47090e" d="M157.269 265.775a.25.25 0 0 1-.106-.477c.07-.033 1.746-.802 3.015.017a.25.25 0 1 1-.27.42c-1.04-.671-2.519.009-2.533.016a.255.255 0 0 1-.106.024z" class="color47090e svgShape"/><path fill="#f7b4ad" d="M154.202 282.975s-4.376-.227-7.708-2.396c0 0 1.821 4.139 7.708 4.911v-2.515z" class="colorf7b4ad svgShape"/><path fill="#fdccc5" d="M206.706 338.915c-.206-1.715-1.229-2.777-1.229-2.777l-.967 2.84s-1.889-.527-3.683-1.618c-4.088-2.486-5.305 13.743 3.686 8.524 1.58-.917 2.411-5.156 2.193-6.97z" class="colorfdccc5 svgShape"/><linearGradient id="aD" x1="576.558" x2="590.571" y1="213.677" y2="213.677" gradientUnits="userSpaceOnUse"><stop offset="0" stop-color="#e7ecff" class="stopColore7ecff svgShape"/><stop offset="1" stop-color="#c2d5ff" class="stopColorc2d5ff svgShape"/></linearGradient><path fill="url(#aD)" d="M580.681 220.6h-3.623a.5.5 0 1 1 0-1h3.623c4.902 0 8.89-3.988 8.89-8.89v-3.456a.5.5 0 1 1 1 0v3.456c0 5.453-4.437 9.89-9.89 9.89z"/><linearGradient id="aE" x1="14492.627" x2="14506.641" y1="-3651.552" y2="-3651.552" gradientTransform="rotate(90 5585.147 -8700.81)" gradientUnits="userSpaceOnUse"><stop offset="0" stop-color="#e7ecff" class="stopColore7ecff svgShape"/><stop offset="1" stop-color="#c2d5ff" class="stopColorc2d5ff svgShape"/></linearGradient><path fill="url(#aE)" d="M542.313 220.684h-3.456c-5.454 0-9.89-4.437-9.89-9.89v-3.624a.5.5 0 1 1 1 0v3.623c0 4.903 3.988 8.891 8.89 8.891h3.456a.5.5 0 1 1 0 1z"/><linearGradient id="aF" x1="10580.412" x2="10594.425" y1="-17572.707" y2="-17572.707" gradientTransform="rotate(180 5561.696 -8700.81)" gradientUnits="userSpaceOnUse"><stop offset="0" stop-color="#e7ecff" class="stopColore7ecff svgShape"/><stop offset="1" stop-color="#c2d5ff" class="stopColorc2d5ff svgShape"/></linearGradient><path fill="url(#aF)" d="M529.467 178.01a.5.5 0 0 1-.5-.5v-3.456c0-5.454 4.436-9.89 9.89-9.89h3.622a.5.5 0 1 1 0 1h-3.623c-4.901 0-8.89 3.988-8.89 8.89v3.456a.5.5 0 0 1-.5.5z"/><linearGradient id="aG" x1="-3293.756" x2="-3279.743" y1="-13655.406" y2="-13655.406" gradientTransform="rotate(-90 5561.696 -8677.358)" gradientUnits="userSpaceOnUse"><stop offset="0" stop-color="#e7ecff" class="stopColore7ecff svgShape"/><stop offset="1" stop-color="#c2d5ff" class="stopColorc2d5ff svgShape"/></linearGradient><path fill="url(#aG)" d="M590.07 178.093a.5.5 0 0 1-.5-.5v-3.623c0-4.901-3.987-8.89-8.89-8.89h-3.455a.5.5 0 1 1 0-1h3.456c5.453 0 9.89 4.437 9.89 9.89v3.623a.5.5 0 0 1-.5.5z"/><linearGradient id="aH" x1="533.525" x2="586.012" y1="199.18" y2="199.18" gradientUnits="userSpaceOnUse"><stop offset="0" stop-color="#e7ecff" class="stopColore7ecff svgShape"/><stop offset="1" stop-color="#c2d5ff" class="stopColorc2d5ff svgShape"/></linearGradient><path fill="url(#aH)" d="M586.012 173.97v36.74a5.331 5.331 0 0 1-5.331 5.331h-8.846L562.542 229a1.732 1.732 0 0 1-2.814 0l-9.304-12.958h-11.579a5.32 5.32 0 0 1-5.32-5.32v-36.75a5.331 5.331 0 0 1 5.332-5.332h41.824a5.331 5.331 0 0 1 5.33 5.331z"/><path fill="#ffffff" d="m577.408 191.693-3.063-1.276a14.68 14.68 0 0 0-1.26-4.875l2.065-2.605a.52.52 0 0 0 .01-.644l-2.204-2.932a.538.538 0 0 0-.62-.18l-3.078 1.272a14.423 14.423 0 0 0-4.334-2.564l-.376-3.296a.538.538 0 0 0-.464-.47l-3.62-.513a.525.525 0 0 0-.566.325l-1.287 3.06a14.363 14.363 0 0 0-4.865 1.262l-2.602-2.076a.553.553 0 0 0-.658-.001l-2.932 2.204a.52.52 0 0 0-.169.623l1.261 3.075a14.678 14.678 0 0 0-2.564 4.334l-3.285.377a.536.536 0 0 0-.479.452l-.514 3.632a.536.536 0 0 0 .335.567l3.05 1.285c.14 1.705.576 3.348 1.261 4.865l-2.065 2.604a.536.536 0 0 0-.012.656l2.205 2.932a.534.534 0 0 0 .633.17l3.077-1.272a14.108 14.108 0 0 0 4.323 2.563l.387 3.297a.526.526 0 0 0 .453.469l3.621.512a.539.539 0 0 0 .576-.322l1.276-3.063a14.167 14.167 0 0 0 4.876-1.26l2.603 2.077a.52.52 0 0 0 .645.01l2.932-2.204a.536.536 0 0 0 .17-.634l-1.261-3.075a14.728 14.728 0 0 0 2.562-4.323l3.298-.388a.525.525 0 0 0 .468-.453l.514-3.631a.526.526 0 0 0-.323-.566zm-18.585 6.545c-3.688-.523-6.252-3.933-5.732-7.61a6.74 6.74 0 0 1 7.62-5.73 6.74 6.74 0 0 1 5.731 7.62c-.52 3.677-3.93 6.242-7.619 5.72z" class="colorfff svgShape"/><linearGradient id="aI" x1="933.026" x2="952.154" y1="189.037" y2="189.037" gradientTransform="rotate(8.058 733.211 -2527.295)" gradientUnits="userSpaceOnUse"><stop offset="0" stop-color="#b3b3ff" class="stopColorb3b3ff svgShape"/><stop offset="1" stop-color="#8f8fea" class="stopColor8f8fea svgShape"/></linearGradient><path fill="url(#aI)" d="M561.11 182.092c-5.228-.74-10.071 2.902-10.813 8.14-.74 5.228 2.902 10.071 8.13 10.811a9.56 9.56 0 0 0 10.81-8.129c.741-5.238-2.89-10.08-8.128-10.822zm-2.287 16.146c-3.688-.523-6.252-3.933-5.732-7.61a6.74 6.74 0 0 1 7.62-5.73 6.74 6.74 0 0 1 5.731 7.62c-.52 3.677-3.93 6.242-7.619 5.72z"/></svg>